G04 #@! TF.FileFunction,Copper,L1,Top,Signal*
%FSLAX46Y46*%
G04 Gerber Fmt 4.6, Leading zero omitted, Abs format (unit mm)*
G04 Created by KiCad (PCBNEW 4.0.7-e2-6376~58~ubuntu16.04.1) date Sat Mar 17 19:11:58 2018*
%MOMM*%
%LPD*%
G01*
G04 APERTURE LIST*
%ADD10C,0.050000*%
%ADD11R,1.397000X0.431800*%
%ADD12R,1.000000X1.000000*%
%ADD13O,1.000000X1.000000*%
%ADD14R,0.500000X0.600000*%
%ADD15C,0.600000*%
%ADD16C,0.250000*%
G04 APERTURE END LIST*
D10*
D11*
X117206000Y-103069600D03*
X117206000Y-103704600D03*
X117206000Y-104365000D03*
X117206000Y-105000000D03*
X117206000Y-105660400D03*
X117206000Y-106308100D03*
X117206000Y-106955800D03*
X122794000Y-106955800D03*
X122794000Y-106308100D03*
X122794000Y-105660400D03*
X122794000Y-105000000D03*
X122794000Y-104352300D03*
X122794000Y-103704600D03*
X122794000Y-103056900D03*
D12*
X106600000Y-101500000D03*
D13*
X106600000Y-102770000D03*
X106600000Y-104040000D03*
X106600000Y-105310000D03*
X106600000Y-106580000D03*
X106600000Y-107850000D03*
D14*
X125000000Y-104050000D03*
X125000000Y-102950000D03*
X125000000Y-107050000D03*
X125000000Y-105950000D03*
D15*
X115500000Y-105750000D03*
X125000000Y-107850000D03*
X125000000Y-102050000D03*
D16*
X117206000Y-105660400D02*
X115589600Y-105660400D01*
X115589600Y-105660400D02*
X115500000Y-105750000D01*
X125000000Y-107050000D02*
X125000000Y-107850000D01*
X124905800Y-106955800D02*
X125000000Y-107050000D01*
X125000000Y-102950000D02*
X125000000Y-102050000D01*
X122794000Y-103704600D02*
X123595400Y-103704600D01*
X124350000Y-102950000D02*
X125000000Y-102950000D01*
X123595400Y-103704600D02*
X124350000Y-102950000D01*
X121352300Y-104352300D02*
X122794000Y-104352300D01*
X119250000Y-102250000D02*
X121352300Y-104352300D01*
X109500000Y-102250000D02*
X119250000Y-102250000D01*
X108980000Y-102770000D02*
X109500000Y-102250000D01*
X106600000Y-102770000D02*
X108980000Y-102770000D01*
X122794000Y-104352300D02*
X124697700Y-104352300D01*
X124697700Y-104352300D02*
X125000000Y-104050000D01*
X125000000Y-105950000D02*
X125000000Y-105000000D01*
X125000000Y-105000000D02*
X122794000Y-105000000D01*
X125000000Y-105950000D02*
X125000000Y-104050000D01*
X106899600Y-103069600D02*
X106600000Y-102770000D01*
X106600000Y-104040000D02*
X109210000Y-104040000D01*
X110250000Y-103000000D02*
X117136400Y-103000000D01*
X109210000Y-104040000D02*
X110250000Y-103000000D01*
X117136400Y-103000000D02*
X117206000Y-103069600D01*
X106600000Y-105310000D02*
X109440000Y-105310000D01*
X111045400Y-103704600D02*
X117206000Y-103704600D01*
X109440000Y-105310000D02*
X111045400Y-103704600D01*
X106600000Y-106580000D02*
X109670000Y-106580000D01*
X111885000Y-104365000D02*
X117206000Y-104365000D01*
X109670000Y-106580000D02*
X111885000Y-104365000D01*
X106600000Y-107850000D02*
X109900000Y-107850000D01*
X112750000Y-105000000D02*
X117206000Y-105000000D01*
X109900000Y-107850000D02*
X112750000Y-105000000D01*
M02*
