G04 #@! TF.FileFunction,Legend,Top*
%FSLAX46Y46*%
G04 Gerber Fmt 4.6, Leading zero omitted, Abs format (unit mm)*
G04 Created by KiCad (PCBNEW 4.0.7-e2-6376~58~ubuntu16.04.1) date Sat Mar 17 15:24:01 2018*
%MOMM*%
%LPD*%
G01*
G04 APERTURE LIST*
%ADD10C,0.050000*%
%ADD11C,0.150000*%
%ADD12C,0.120000*%
%ADD13C,0.125000*%
G04 APERTURE END LIST*
D10*
D11*
X121778000Y-102587000D02*
X121778000Y-107413000D01*
X121778000Y-107413000D02*
X118222000Y-107413000D01*
X118222000Y-107413000D02*
X118222000Y-102587000D01*
X118222000Y-102587000D02*
X121778000Y-102587000D01*
X119238000Y-103222000D02*
G75*
G03X119238000Y-103222000I-381000J0D01*
G01*
D12*
X105490000Y-108545000D02*
X106292470Y-108545000D01*
X106907530Y-108545000D02*
X107710000Y-108545000D01*
X105490000Y-102260000D02*
X105490000Y-108545000D01*
X107710000Y-102260000D02*
X107710000Y-108545000D01*
X105490000Y-102260000D02*
X106036529Y-102260000D01*
X107163471Y-102260000D02*
X107710000Y-102260000D01*
X105490000Y-101500000D02*
X105490000Y-100740000D01*
X105490000Y-100740000D02*
X106600000Y-100740000D01*
X124530000Y-103250000D02*
X124530000Y-103750000D01*
X125470000Y-103750000D02*
X125470000Y-103250000D01*
X124530000Y-106250000D02*
X124530000Y-106750000D01*
X125470000Y-106750000D02*
X125470000Y-106250000D01*
D11*
X120214381Y-105761905D02*
X121023905Y-105761905D01*
X121119143Y-105714286D01*
X121166762Y-105666667D01*
X121214381Y-105571429D01*
X121214381Y-105380952D01*
X121166762Y-105285714D01*
X121119143Y-105238095D01*
X121023905Y-105190476D01*
X120214381Y-105190476D01*
X121214381Y-104190476D02*
X121214381Y-104761905D01*
X121214381Y-104476191D02*
X120214381Y-104476191D01*
X120357238Y-104571429D01*
X120452476Y-104666667D01*
X120500095Y-104761905D01*
X106266667Y-99257381D02*
X106266667Y-99971667D01*
X106219047Y-100114524D01*
X106123809Y-100209762D01*
X105980952Y-100257381D01*
X105885714Y-100257381D01*
X107266667Y-100257381D02*
X106695238Y-100257381D01*
X106980952Y-100257381D02*
X106980952Y-99257381D01*
X106885714Y-99400238D01*
X106790476Y-99495476D01*
X106695238Y-99543095D01*
D13*
X127116667Y-103678571D02*
X127092857Y-103702381D01*
X127021429Y-103726190D01*
X126973810Y-103726190D01*
X126902381Y-103702381D01*
X126854762Y-103654762D01*
X126830953Y-103607143D01*
X126807143Y-103511905D01*
X126807143Y-103440476D01*
X126830953Y-103345238D01*
X126854762Y-103297619D01*
X126902381Y-103250000D01*
X126973810Y-103226190D01*
X127021429Y-103226190D01*
X127092857Y-103250000D01*
X127116667Y-103273810D01*
X127592857Y-103726190D02*
X127307143Y-103726190D01*
X127450000Y-103726190D02*
X127450000Y-103226190D01*
X127402381Y-103297619D01*
X127354762Y-103345238D01*
X127307143Y-103369048D01*
X127116667Y-106678571D02*
X127092857Y-106702381D01*
X127021429Y-106726190D01*
X126973810Y-106726190D01*
X126902381Y-106702381D01*
X126854762Y-106654762D01*
X126830953Y-106607143D01*
X126807143Y-106511905D01*
X126807143Y-106440476D01*
X126830953Y-106345238D01*
X126854762Y-106297619D01*
X126902381Y-106250000D01*
X126973810Y-106226190D01*
X127021429Y-106226190D01*
X127092857Y-106250000D01*
X127116667Y-106273810D01*
X127307143Y-106273810D02*
X127330953Y-106250000D01*
X127378572Y-106226190D01*
X127497619Y-106226190D01*
X127545238Y-106250000D01*
X127569048Y-106273810D01*
X127592857Y-106321429D01*
X127592857Y-106369048D01*
X127569048Y-106440476D01*
X127283334Y-106726190D01*
X127592857Y-106726190D01*
M02*
