G04 #@! TF.FileFunction,Copper,L1,Top,Signal*
%FSLAX46Y46*%
G04 Gerber Fmt 4.6, Leading zero omitted, Abs format (unit mm)*
G04 Created by KiCad (PCBNEW 4.0.7) date Saturday, March 17, 2018 'PMt' 06:12:54 PM*
%MOMM*%
%LPD*%
G01*
G04 APERTURE LIST*
%ADD10C,0.100000*%
%ADD11R,0.500000X0.400000*%
%ADD12R,1.100000X1.900000*%
%ADD13C,0.685800*%
%ADD14C,3.980180*%
%ADD15C,2.600000*%
%ADD16C,1.699260*%
%ADD17R,1.000000X2.700000*%
%ADD18R,1.800000X3.800000*%
%ADD19R,0.800000X0.800000*%
%ADD20R,0.600000X1.700000*%
%ADD21R,1.700000X1.700000*%
%ADD22O,1.700000X1.700000*%
%ADD23R,0.350000X0.825000*%
%ADD24C,0.350000*%
%ADD25R,0.825000X0.350000*%
%ADD26R,2.100000X2.100000*%
%ADD27R,0.500000X0.600000*%
%ADD28R,0.600000X0.500000*%
%ADD29R,0.600000X0.400000*%
%ADD30R,0.400000X0.600000*%
%ADD31C,1.600000*%
%ADD32R,1.600000X1.600000*%
%ADD33R,1.000000X2.800000*%
%ADD34C,0.250000*%
%ADD35C,0.375000*%
%ADD36C,1.000000*%
%ADD37C,0.254000*%
G04 APERTURE END LIST*
D10*
D11*
X115199040Y-110939680D03*
X115199040Y-110289680D03*
X115199040Y-109639680D03*
X115199040Y-108989680D03*
X113099040Y-108989680D03*
X113099040Y-109639680D03*
X113099040Y-110289680D03*
X113099040Y-110939680D03*
D12*
X114149040Y-109964680D03*
D13*
X114149040Y-109964680D03*
X114149040Y-109314680D03*
X114149040Y-110614680D03*
D14*
X118338600Y-70906640D03*
D15*
X115798600Y-75986640D03*
X122148600Y-73446640D03*
D16*
X123418600Y-70906640D03*
X113258600Y-70906640D03*
D14*
X100319840Y-70830440D03*
D15*
X97779840Y-75910440D03*
X104129840Y-73370440D03*
D16*
X105399840Y-70830440D03*
X95239840Y-70830440D03*
D17*
X68311520Y-108304960D03*
X70311520Y-108304960D03*
D18*
X65961520Y-112754960D03*
X72661520Y-112754960D03*
D17*
X80036160Y-108325280D03*
X82036160Y-108325280D03*
D18*
X77686160Y-112775280D03*
X84386160Y-112775280D03*
D19*
X124165360Y-102522120D03*
X124165360Y-104122120D03*
X121594880Y-102605940D03*
X121594880Y-104205940D03*
X119108220Y-102605940D03*
X119108220Y-104205940D03*
X116509800Y-102661820D03*
X116509800Y-104261820D03*
X114000000Y-102700000D03*
X114000000Y-104300000D03*
X111400000Y-102700000D03*
X111400000Y-104300000D03*
X108900000Y-102700000D03*
X108900000Y-104300000D03*
X106400000Y-102700000D03*
X106400000Y-104300000D03*
D20*
X89270040Y-111383200D03*
X90520040Y-111383200D03*
X91770040Y-111383200D03*
X93020040Y-111383200D03*
X94270040Y-111383200D03*
X95520040Y-111383200D03*
D17*
X87420040Y-114583200D03*
X97370040Y-114583200D03*
D21*
X120200000Y-106800000D03*
D22*
X117660000Y-106800000D03*
X115120000Y-106800000D03*
X112580000Y-106800000D03*
X110040000Y-106800000D03*
X107500000Y-106800000D03*
D20*
X101370600Y-111393360D03*
X102620600Y-111393360D03*
X103870600Y-111393360D03*
X105120600Y-111393360D03*
X106370600Y-111393360D03*
X107620600Y-111393360D03*
D17*
X99520600Y-114593360D03*
X109470600Y-114593360D03*
D21*
X115077240Y-114594640D03*
D22*
X112537240Y-114594640D03*
D23*
X72999960Y-105599180D03*
D24*
X72999960Y-105186680D03*
D23*
X73649960Y-105599180D03*
D24*
X73649960Y-105186680D03*
D23*
X74299960Y-105599180D03*
D24*
X74299960Y-105186680D03*
D23*
X74949960Y-105599180D03*
D24*
X74949960Y-105186680D03*
D25*
X75962460Y-104586680D03*
D24*
X75549960Y-104586680D03*
D25*
X75962460Y-103936680D03*
D24*
X75549960Y-103936680D03*
D25*
X75962460Y-103286680D03*
D24*
X75549960Y-103286680D03*
D25*
X75962460Y-102636680D03*
D24*
X75549960Y-102636680D03*
D23*
X74949960Y-101624180D03*
D24*
X74949960Y-102036680D03*
D23*
X74299960Y-101624180D03*
D24*
X74299960Y-102036680D03*
D23*
X73649960Y-101624180D03*
D24*
X73649960Y-102036680D03*
D23*
X72999960Y-101624180D03*
D24*
X72999960Y-102036680D03*
D25*
X71987460Y-102636680D03*
D24*
X72399960Y-102636680D03*
D25*
X71987460Y-103286680D03*
D24*
X72399960Y-103286680D03*
D25*
X71987460Y-103936680D03*
D24*
X72399960Y-103936680D03*
D25*
X71987460Y-104586680D03*
D24*
X72399960Y-104586680D03*
D26*
X73974960Y-103611680D03*
D27*
X116350000Y-110000000D03*
X116350000Y-111100000D03*
D28*
X116350000Y-109000000D03*
X117450000Y-109000000D03*
X100350000Y-101300000D03*
X101450000Y-101300000D03*
X91950000Y-101300000D03*
X93050000Y-101300000D03*
X88250000Y-78800000D03*
X87150000Y-78800000D03*
X79050000Y-79000000D03*
X77950000Y-79000000D03*
X69650000Y-79100000D03*
X68550000Y-79100000D03*
X79050000Y-70600000D03*
X77950000Y-70600000D03*
X69750000Y-70500000D03*
X68650000Y-70500000D03*
X71733320Y-100390960D03*
X72833320Y-100390960D03*
X78299400Y-101625400D03*
X77199400Y-101625400D03*
X74745760Y-100385880D03*
X75845760Y-100385880D03*
D29*
X111512520Y-108976200D03*
X111512520Y-109876200D03*
X111500000Y-111050000D03*
X111500000Y-111950000D03*
D30*
X70858800Y-105765600D03*
X69958800Y-105765600D03*
D29*
X124137420Y-101061940D03*
X124137420Y-100161940D03*
X121622820Y-101034000D03*
X121622820Y-100134000D03*
X119080280Y-101034000D03*
X119080280Y-100134000D03*
X116509800Y-101034000D03*
X116509800Y-100134000D03*
X113967260Y-101034000D03*
X113967260Y-100134000D03*
X111424720Y-101061940D03*
X111424720Y-100161940D03*
X108882180Y-101034000D03*
X108882180Y-100134000D03*
X106339640Y-101061940D03*
X106339640Y-100161940D03*
D30*
X77070800Y-105745280D03*
X77970800Y-105745280D03*
D31*
X106359960Y-97805240D03*
X108899960Y-97805240D03*
X111439960Y-97805240D03*
X113979960Y-97805240D03*
X103819960Y-97805240D03*
X101279960Y-97805240D03*
X98739960Y-97805240D03*
X116519960Y-97805240D03*
X119059960Y-97805240D03*
X121599960Y-97805240D03*
X124139960Y-97805240D03*
X111439960Y-95265240D03*
X111439960Y-92725240D03*
X111439960Y-90185240D03*
X111439960Y-87645240D03*
X111439960Y-85105240D03*
X124139960Y-82565240D03*
X121599960Y-82565240D03*
X119059960Y-82565240D03*
X116519960Y-82565240D03*
X113979960Y-82565240D03*
X111439960Y-82565240D03*
X108899960Y-82565240D03*
X106359960Y-82565240D03*
X96199960Y-97805240D03*
X93659960Y-97805240D03*
X91119960Y-97805240D03*
X88579960Y-97805240D03*
X86039960Y-97805240D03*
X83499960Y-97805240D03*
X80959960Y-97805240D03*
X78419960Y-97805240D03*
X75879960Y-97805240D03*
X73339960Y-97805240D03*
X70799960Y-97805240D03*
X68259960Y-97805240D03*
D32*
X65719960Y-97805240D03*
D31*
X103819960Y-82565240D03*
X101279960Y-82565240D03*
X98739960Y-82565240D03*
X96199960Y-82565240D03*
X93659960Y-82565240D03*
X91119960Y-82565240D03*
X88579960Y-82565240D03*
X86039960Y-82565240D03*
X83499960Y-82565240D03*
X80959960Y-82565240D03*
X78419960Y-82565240D03*
X75879960Y-82565240D03*
X73339960Y-82565240D03*
X70799960Y-82565240D03*
X68259960Y-82565240D03*
X65719960Y-82565240D03*
D20*
X94250000Y-103050000D03*
X93000000Y-103050000D03*
X91750000Y-103050000D03*
D33*
X96100000Y-106400000D03*
X89900000Y-106400000D03*
D20*
X85750000Y-76850000D03*
X87000000Y-76850000D03*
X88250000Y-76850000D03*
D33*
X83900000Y-73500000D03*
X90100000Y-73500000D03*
D20*
X76650000Y-76850000D03*
X77900000Y-76850000D03*
X79150000Y-76850000D03*
D33*
X74800000Y-73500000D03*
X81000000Y-73500000D03*
D20*
X67250000Y-68750000D03*
X68500000Y-68750000D03*
X69750000Y-68750000D03*
D33*
X65400000Y-65400000D03*
X71600000Y-65400000D03*
D20*
X67250000Y-76850000D03*
X68500000Y-76850000D03*
X69750000Y-76850000D03*
D33*
X65400000Y-73500000D03*
X71600000Y-73500000D03*
D20*
X76650000Y-68750000D03*
X77900000Y-68750000D03*
X79150000Y-68750000D03*
D33*
X74800000Y-65400000D03*
X81000000Y-65400000D03*
D20*
X102650000Y-103050000D03*
X101400000Y-103050000D03*
X100150000Y-103050000D03*
D33*
X104500000Y-106400000D03*
X98300000Y-106400000D03*
D30*
X114550000Y-112000000D03*
X115450000Y-112000000D03*
X112550000Y-112000000D03*
X113450000Y-112000000D03*
D13*
X76753720Y-100390960D03*
X112694720Y-101986080D03*
X113324640Y-95163640D03*
X117500000Y-109950000D03*
X107650000Y-113000000D03*
X95500000Y-113000000D03*
X69550000Y-106050000D03*
X78000000Y-106250000D03*
X71100000Y-100400000D03*
X73974960Y-103611680D03*
X80850000Y-101850000D03*
X81450000Y-104100000D03*
X109987080Y-110810040D03*
X92506800Y-116022120D03*
X89600000Y-103000000D03*
X90600000Y-92150000D03*
X92300000Y-100150000D03*
X99550000Y-100050000D03*
X94900000Y-99150000D03*
X95000000Y-94600000D03*
X85800000Y-78650000D03*
X112650000Y-79150000D03*
X115500000Y-80250000D03*
X76550000Y-79250000D03*
X115350000Y-70950000D03*
X112950000Y-81050000D03*
X67300000Y-80000000D03*
X109050000Y-87750000D03*
X102600000Y-99350000D03*
X91250000Y-93850000D03*
X92350000Y-97050000D03*
X95950000Y-113950000D03*
X100850000Y-113900000D03*
X80200000Y-96250000D03*
X84400000Y-96250000D03*
X107050000Y-96250000D03*
X72550000Y-95300000D03*
X82850000Y-95400000D03*
X101100000Y-95350000D03*
X83150000Y-78900000D03*
X70550000Y-102050000D03*
X89550000Y-109400000D03*
X99000000Y-109500000D03*
X90450000Y-104050000D03*
X96550000Y-108550000D03*
X91050000Y-108450000D03*
X98700000Y-101500000D03*
X100300000Y-105700000D03*
X96100000Y-100850000D03*
X93150000Y-107750000D03*
X98200000Y-91700000D03*
X101750000Y-107800000D03*
X103900000Y-112650000D03*
X95750000Y-114850000D03*
X114000000Y-112000000D03*
D34*
X75845760Y-100385880D02*
X76748640Y-100385880D01*
X76748640Y-100385880D02*
X76753720Y-100390960D01*
X121594880Y-104205940D02*
X124081540Y-104205940D01*
X124081540Y-104205940D02*
X124165360Y-104122120D01*
X114000000Y-104300000D02*
X116471620Y-104300000D01*
X116471620Y-104300000D02*
X116509800Y-104261820D01*
X111439960Y-90185240D02*
X112623600Y-90185240D01*
X112694720Y-103286560D02*
X111681280Y-104300000D01*
X112694720Y-101986080D02*
X112694720Y-103286560D01*
X113324640Y-90886280D02*
X113324640Y-95163640D01*
X112623600Y-90185240D02*
X113324640Y-90886280D01*
X111681280Y-104300000D02*
X111400000Y-104300000D01*
D35*
X106400000Y-104300000D02*
X108900000Y-104300000D01*
X108900000Y-104300000D02*
X111400000Y-104300000D01*
X111400000Y-104300000D02*
X114000000Y-104300000D01*
X114000000Y-104300000D02*
X114038180Y-104261820D01*
X114038180Y-104261820D02*
X119052340Y-104261820D01*
X119052340Y-104261820D02*
X119108220Y-104205940D01*
X119108220Y-104205940D02*
X124081540Y-104205940D01*
X124081540Y-104205940D02*
X124165360Y-104122120D01*
X106400000Y-104300000D02*
X106400000Y-105700000D01*
X106400000Y-105700000D02*
X107500000Y-106800000D01*
X115199040Y-109639680D02*
X115689680Y-109639680D01*
X116050000Y-110000000D02*
X116350000Y-110000000D01*
X115689680Y-109639680D02*
X116050000Y-110000000D01*
X117450000Y-109000000D02*
X117450000Y-109900000D01*
X117500000Y-109950000D02*
X116500000Y-109950000D01*
X117450000Y-109900000D02*
X117500000Y-109950000D01*
X116350000Y-110000000D02*
X116450000Y-110000000D01*
X116450000Y-110000000D02*
X116500000Y-109950000D01*
X111500000Y-111950000D02*
X112500000Y-111950000D01*
X112500000Y-111950000D02*
X112550000Y-112000000D01*
X112550000Y-112000000D02*
X112550000Y-114581880D01*
X112550000Y-114581880D02*
X112537240Y-114594640D01*
X107620600Y-111393360D02*
X107620600Y-112970600D01*
X107620600Y-112970600D02*
X107650000Y-113000000D01*
X95520040Y-111383200D02*
X95520040Y-112979960D01*
X95520040Y-112979960D02*
X95500000Y-113000000D01*
X69958800Y-105765600D02*
X69834400Y-105765600D01*
X69834400Y-105765600D02*
X69550000Y-106050000D01*
X77970800Y-105745280D02*
X77970800Y-106220800D01*
X77970800Y-106220800D02*
X78000000Y-106250000D01*
X71733320Y-100390960D02*
X71109040Y-100390960D01*
X71109040Y-100390960D02*
X71100000Y-100400000D01*
X73649960Y-103286680D02*
X73974960Y-103611680D01*
X73649960Y-101624180D02*
X73649960Y-103286680D01*
X115450000Y-112000000D02*
X115450000Y-111190640D01*
X115450000Y-111190640D02*
X115199040Y-110939680D01*
X115077240Y-114594640D02*
X115077240Y-113922760D01*
X115077240Y-113922760D02*
X116350000Y-112650000D01*
X116350000Y-112650000D02*
X116350000Y-111100000D01*
X116350000Y-111100000D02*
X116189680Y-110939680D01*
X116189680Y-110939680D02*
X115199040Y-110939680D01*
X115199040Y-110939680D02*
X115199040Y-110289680D01*
X115199040Y-110289680D02*
X115332600Y-110423240D01*
D34*
X81450000Y-104100000D02*
X81849600Y-104100000D01*
X110845560Y-108976200D02*
X111512520Y-108976200D01*
X110002320Y-109819440D02*
X110845560Y-108976200D01*
X110002320Y-110794800D02*
X110002320Y-109819440D01*
X109987080Y-110810040D02*
X110002320Y-110794800D01*
X92501720Y-116017040D02*
X92506800Y-116022120D01*
X91673680Y-116017040D02*
X92501720Y-116017040D01*
X87137240Y-111480600D02*
X91673680Y-116017040D01*
X87137240Y-109387640D02*
X87137240Y-111480600D01*
X81849600Y-104100000D02*
X87137240Y-109387640D01*
D35*
X65719960Y-82565240D02*
X65719960Y-86169960D01*
X82150000Y-100550000D02*
X80850000Y-101850000D01*
X82150000Y-96750000D02*
X82150000Y-100550000D01*
X80650000Y-95250000D02*
X82150000Y-96750000D01*
X74800000Y-95250000D02*
X80650000Y-95250000D01*
X65719960Y-86169960D02*
X74800000Y-95250000D01*
X78299400Y-101625400D02*
X80625400Y-101625400D01*
X80625400Y-101625400D02*
X80850000Y-101850000D01*
X115199040Y-108989680D02*
X116339680Y-108989680D01*
X116339680Y-108989680D02*
X116350000Y-109000000D01*
X111512520Y-108976200D02*
X113085560Y-108976200D01*
X113085560Y-108976200D02*
X113099040Y-108989680D01*
X116339680Y-108989680D02*
X116350000Y-109000000D01*
X113085560Y-108976200D02*
X113099040Y-108989680D01*
X115204320Y-108984400D02*
X115199040Y-108989680D01*
X88250000Y-78800000D02*
X88250000Y-79100000D01*
X89650000Y-103050000D02*
X91750000Y-103050000D01*
X89600000Y-103000000D02*
X89650000Y-103050000D01*
X89850000Y-91400000D02*
X90600000Y-92150000D01*
X89850000Y-80700000D02*
X89850000Y-91400000D01*
X88250000Y-79100000D02*
X89850000Y-80700000D01*
X100350000Y-101300000D02*
X100350000Y-102850000D01*
X100350000Y-102850000D02*
X100150000Y-103050000D01*
X91950000Y-101300000D02*
X91950000Y-100500000D01*
X100350000Y-100850000D02*
X100350000Y-101300000D01*
X91950000Y-100500000D02*
X92300000Y-100150000D01*
X99550000Y-100050000D02*
X100350000Y-100850000D01*
X91950000Y-101300000D02*
X91950000Y-102850000D01*
X91950000Y-102850000D02*
X91750000Y-103050000D01*
X79150000Y-76850000D02*
X82800000Y-76850000D01*
X88250000Y-75950000D02*
X88250000Y-76850000D01*
X87800000Y-75500000D02*
X88250000Y-75950000D01*
X84150000Y-75500000D02*
X87800000Y-75500000D01*
X82800000Y-76850000D02*
X84150000Y-75500000D01*
X69650000Y-80075000D02*
X78525000Y-80075000D01*
X79050000Y-79550000D02*
X79050000Y-79000000D01*
X78525000Y-80075000D02*
X79050000Y-79550000D01*
X68259960Y-82565240D02*
X68259960Y-81440040D01*
X69650000Y-80050000D02*
X69650000Y-80075000D01*
X69650000Y-80075000D02*
X69650000Y-79100000D01*
X68259960Y-81440040D02*
X69650000Y-80050000D01*
X88250000Y-76850000D02*
X88250000Y-78800000D01*
X79150000Y-68750000D02*
X79150000Y-70500000D01*
X79150000Y-70500000D02*
X79150000Y-76850000D01*
X79150000Y-76850000D02*
X79050000Y-76950000D01*
X79050000Y-76950000D02*
X79050000Y-79000000D01*
X69750000Y-70500000D02*
X69750000Y-76850000D01*
X69750000Y-76850000D02*
X69650000Y-76950000D01*
X69650000Y-76950000D02*
X69650000Y-79100000D01*
X69750000Y-68750000D02*
X69750000Y-70500000D01*
X124137420Y-101061940D02*
X124137420Y-102494180D01*
X124137420Y-102494180D02*
X124165360Y-102522120D01*
X121622820Y-101034000D02*
X121622820Y-102578000D01*
X121622820Y-102578000D02*
X121594880Y-102605940D01*
X119080280Y-101034000D02*
X119080280Y-102578000D01*
X119080280Y-102578000D02*
X119108220Y-102605940D01*
X116509800Y-101034000D02*
X116509800Y-102661820D01*
X113967260Y-101034000D02*
X113967260Y-102667260D01*
X113967260Y-102667260D02*
X114000000Y-102700000D01*
X111424720Y-101061940D02*
X111424720Y-102675280D01*
X111424720Y-102675280D02*
X111400000Y-102700000D01*
X108882180Y-101034000D02*
X108882180Y-102682180D01*
X108882180Y-102682180D02*
X108900000Y-102700000D01*
X106339640Y-101061940D02*
X106339640Y-102639640D01*
X106339640Y-102639640D02*
X106400000Y-102700000D01*
X124139960Y-82565240D02*
X124139960Y-87460040D01*
X94250000Y-99800000D02*
X94250000Y-103050000D01*
X94900000Y-99150000D02*
X94250000Y-99800000D01*
X97000000Y-92600000D02*
X95000000Y-94600000D01*
X106600000Y-92600000D02*
X97000000Y-92600000D01*
X110500000Y-96500000D02*
X106600000Y-92600000D01*
X115100000Y-96500000D02*
X110500000Y-96500000D01*
X124139960Y-87460040D02*
X115100000Y-96500000D01*
X121599960Y-82565240D02*
X121599960Y-80449960D01*
X85750000Y-78600000D02*
X85750000Y-76850000D01*
X85800000Y-78650000D02*
X85750000Y-78600000D01*
X112800000Y-79300000D02*
X112650000Y-79150000D01*
X120450000Y-79300000D02*
X112800000Y-79300000D01*
X121599960Y-80449960D02*
X120450000Y-79300000D01*
X76650000Y-76850000D02*
X76650000Y-79150000D01*
X119059960Y-80859960D02*
X119059960Y-82565240D01*
X118450000Y-80250000D02*
X119059960Y-80859960D01*
X115500000Y-80250000D02*
X118450000Y-80250000D01*
X76650000Y-79150000D02*
X76550000Y-79250000D01*
X67250000Y-68750000D02*
X67250000Y-65850000D01*
X115350000Y-68250000D02*
X115350000Y-70950000D01*
X110450000Y-63350000D02*
X115350000Y-68250000D01*
X97350000Y-63350000D02*
X110450000Y-63350000D01*
X92350000Y-63350000D02*
X97350000Y-63350000D01*
X90050000Y-63350000D02*
X92350000Y-63350000D01*
X69750000Y-63350000D02*
X90050000Y-63350000D01*
X67250000Y-65850000D02*
X69750000Y-63350000D01*
X113979960Y-82565240D02*
X113979960Y-82079960D01*
X113979960Y-82079960D02*
X112950000Y-81050000D01*
X67300000Y-80000000D02*
X67250000Y-79950000D01*
X67250000Y-79950000D02*
X67250000Y-76850000D01*
X76650000Y-68750000D02*
X76650000Y-67750000D01*
X111500000Y-65800000D02*
X111500000Y-82505200D01*
X109625002Y-63925002D02*
X111500000Y-65800000D01*
X85224998Y-63925002D02*
X109625002Y-63925002D01*
X81750000Y-67400000D02*
X85224998Y-63925002D01*
X77000000Y-67400000D02*
X81750000Y-67400000D01*
X76650000Y-67750000D02*
X77000000Y-67400000D01*
X111500000Y-82505200D02*
X111439960Y-82565240D01*
X102650000Y-103050000D02*
X102650000Y-99400000D01*
X108899960Y-87599960D02*
X108899960Y-82565240D01*
X109050000Y-87750000D02*
X108899960Y-87599960D01*
X102650000Y-99400000D02*
X102600000Y-99350000D01*
X93050000Y-101300000D02*
X93050000Y-99350000D01*
X87150000Y-80500000D02*
X87150000Y-78800000D01*
X87350000Y-80700000D02*
X87150000Y-80500000D01*
X87350000Y-89950000D02*
X87350000Y-80700000D01*
X91250000Y-93850000D02*
X87350000Y-89950000D01*
X92350000Y-98650000D02*
X92350000Y-97050000D01*
X93050000Y-99350000D02*
X92350000Y-98650000D01*
X101400000Y-103050000D02*
X101400000Y-104650000D01*
X101400000Y-104650000D02*
X101350000Y-104700000D01*
X94850000Y-104850000D02*
X93000000Y-104850000D01*
X95300000Y-104400000D02*
X94850000Y-104850000D01*
X98800000Y-104400000D02*
X95300000Y-104400000D01*
X99100000Y-104700000D02*
X98800000Y-104400000D01*
X101350000Y-104700000D02*
X99100000Y-104700000D01*
X101279960Y-97805240D02*
X101279960Y-101129960D01*
X101279960Y-101129960D02*
X101450000Y-101300000D01*
X106370600Y-109670600D02*
X106370600Y-111393360D01*
X105550000Y-108850000D02*
X106370600Y-109670600D01*
X104200000Y-108850000D02*
X105550000Y-108850000D01*
X103350000Y-108000000D02*
X104200000Y-108850000D01*
X103350000Y-106050000D02*
X103350000Y-108000000D01*
X102650000Y-105350000D02*
X103350000Y-106050000D01*
X102100000Y-105350000D02*
X102650000Y-105350000D01*
X101400000Y-104650000D02*
X102100000Y-105350000D01*
X93000000Y-103050000D02*
X93000000Y-104850000D01*
X93000000Y-104850000D02*
X93000000Y-106300000D01*
X94270040Y-107570040D02*
X94270040Y-111383200D01*
X93000000Y-106300000D02*
X94270040Y-107570040D01*
X106370600Y-111393360D02*
X106370600Y-112979400D01*
X94270040Y-113170040D02*
X94270040Y-111383200D01*
X95100000Y-114000000D02*
X94270040Y-113170040D01*
X95900000Y-114000000D02*
X95100000Y-114000000D01*
X95950000Y-113950000D02*
X95900000Y-114000000D01*
X105450000Y-113900000D02*
X100850000Y-113900000D01*
X106370600Y-112979400D02*
X105450000Y-113900000D01*
X101450000Y-101300000D02*
X101450000Y-103000000D01*
X101450000Y-103000000D02*
X101400000Y-103050000D01*
X93050000Y-101300000D02*
X93050000Y-103000000D01*
X93050000Y-103000000D02*
X93000000Y-103050000D01*
X87000000Y-76850000D02*
X87150000Y-77000000D01*
X87150000Y-77000000D02*
X87150000Y-78800000D01*
X77900000Y-68750000D02*
X77900000Y-70550000D01*
X77900000Y-70550000D02*
X77900000Y-76850000D01*
X77900000Y-76850000D02*
X77950000Y-76900000D01*
X77950000Y-76900000D02*
X77950000Y-79000000D01*
X68550000Y-79100000D02*
X68550000Y-76900000D01*
X68550000Y-76900000D02*
X68650000Y-76800000D01*
X68650000Y-76800000D02*
X68650000Y-70500000D01*
X68500000Y-68750000D02*
X68500000Y-70350000D01*
X68500000Y-70350000D02*
X68650000Y-70500000D01*
X70799960Y-97805240D02*
X70799960Y-97350040D01*
X70799960Y-97350040D02*
X71900000Y-96250000D01*
X71900000Y-96250000D02*
X80200000Y-96250000D01*
X84400000Y-96250000D02*
X92050000Y-96250000D01*
X92050000Y-96250000D02*
X107050000Y-96250000D01*
X68259960Y-96440040D02*
X68259960Y-97805240D01*
X69400000Y-95300000D02*
X68259960Y-96440040D01*
X72550000Y-95300000D02*
X69400000Y-95300000D01*
X101050000Y-95400000D02*
X82850000Y-95400000D01*
X101100000Y-95350000D02*
X101050000Y-95400000D01*
X111499820Y-110998040D02*
X111499820Y-109888900D01*
X111499820Y-109888900D02*
X111512520Y-109876200D01*
X111512520Y-109876200D02*
X112180960Y-109876200D01*
X112417480Y-109639680D02*
X113099040Y-109639680D01*
X112180960Y-109876200D02*
X112417480Y-109639680D01*
X73339960Y-82565240D02*
X73339960Y-81510040D01*
X81350000Y-80700000D02*
X83150000Y-78900000D01*
X74150000Y-80700000D02*
X81350000Y-80700000D01*
X73339960Y-81510040D02*
X74150000Y-80700000D01*
X124139960Y-97805240D02*
X124139960Y-100159400D01*
X124139960Y-100159400D02*
X124137420Y-100161940D01*
X121599960Y-97805240D02*
X121599960Y-100111140D01*
X121599960Y-100111140D02*
X121622820Y-100134000D01*
X119059960Y-97805240D02*
X119059960Y-100113680D01*
X119059960Y-100113680D02*
X119080280Y-100134000D01*
X116519960Y-97805240D02*
X116519960Y-100123840D01*
X116519960Y-100123840D02*
X116509800Y-100134000D01*
X113979960Y-97805240D02*
X113979960Y-100121300D01*
X113979960Y-100121300D02*
X113967260Y-100134000D01*
X111439960Y-97805240D02*
X111439960Y-100146700D01*
X111439960Y-100146700D02*
X111424720Y-100161940D01*
X108899960Y-97805240D02*
X108899960Y-100116220D01*
X108899960Y-100116220D02*
X108882180Y-100134000D01*
X106359960Y-97805240D02*
X106359960Y-100141620D01*
X106359960Y-100141620D02*
X106339640Y-100161940D01*
X86039960Y-97805240D02*
X86039960Y-102071718D01*
X85474998Y-102636680D02*
X75962460Y-102636680D01*
X86039960Y-102071718D02*
X85474998Y-102636680D01*
X75962460Y-103286680D02*
X87013320Y-103286680D01*
X88579960Y-101720040D02*
X88579960Y-97805240D01*
X87013320Y-103286680D02*
X88579960Y-101720040D01*
X71987460Y-102636680D02*
X71136680Y-102636680D01*
X71136680Y-102636680D02*
X70550000Y-102050000D01*
X71987460Y-103286680D02*
X70136680Y-103286680D01*
X79700000Y-99500000D02*
X80959960Y-98240040D01*
X70550000Y-99500000D02*
X79700000Y-99500000D01*
X69550000Y-100500000D02*
X70550000Y-99500000D01*
X69550000Y-102700000D02*
X69550000Y-100500000D01*
X70136680Y-103286680D02*
X69550000Y-102700000D01*
X80959960Y-98240040D02*
X80959960Y-97805240D01*
X72999960Y-101624180D02*
X72999960Y-100557600D01*
X72999960Y-100557600D02*
X72833320Y-100390960D01*
X74949960Y-101624180D02*
X77198180Y-101624180D01*
X77198180Y-101624180D02*
X77199400Y-101625400D01*
X74299960Y-101624180D02*
X74299960Y-100831680D01*
X74299960Y-100831680D02*
X74745760Y-100385880D01*
D34*
X72999960Y-105599180D02*
X71025220Y-105599180D01*
X71025220Y-105599180D02*
X70858800Y-105765600D01*
D35*
X73649960Y-105599180D02*
X73649960Y-106598600D01*
D36*
X71953760Y-108304960D02*
X70311520Y-108304960D01*
X73027540Y-107231180D02*
X71953760Y-108304960D01*
X73027540Y-107221020D02*
X73027540Y-107231180D01*
D35*
X73649960Y-106598600D02*
X73027540Y-107221020D01*
X74299960Y-105599180D02*
X74317859Y-107571471D01*
D36*
X82036160Y-110287560D02*
X82036160Y-108325280D01*
X81577180Y-110746540D02*
X82036160Y-110287560D01*
X79451200Y-110746540D02*
X81577180Y-110746540D01*
X78719680Y-110015020D02*
X79451200Y-110746540D01*
X77746860Y-110015020D02*
X78719680Y-110015020D01*
X74317859Y-107571471D02*
X77746860Y-110015020D01*
D35*
X74949960Y-105599180D02*
X76924700Y-105599180D01*
X76924700Y-105599180D02*
X77070800Y-105745280D01*
D36*
X79588360Y-105443020D02*
X79595980Y-105443020D01*
X77131820Y-104586680D02*
X77134000Y-104584500D01*
X77134000Y-104584500D02*
X78719680Y-104584500D01*
X78719680Y-104584500D02*
X79578200Y-105443020D01*
X79578200Y-105443020D02*
X79588360Y-105443020D01*
D35*
X75962460Y-104586680D02*
X77131820Y-104586680D01*
D36*
X80036160Y-105883200D02*
X80036160Y-108325280D01*
X79595980Y-105443020D02*
X80036160Y-105883200D01*
D35*
X71987460Y-104586680D02*
X70761500Y-104586680D01*
D36*
X68311520Y-105561640D02*
X68311520Y-108304960D01*
X69357240Y-104515920D02*
X68311520Y-105561640D01*
X70690740Y-104515920D02*
X69357240Y-104515920D01*
X70761500Y-104586680D02*
X70690740Y-104515920D01*
D35*
X91119960Y-97805240D02*
X91119960Y-100230040D01*
X89300000Y-109400000D02*
X89550000Y-109400000D01*
X88350000Y-108450000D02*
X89300000Y-109400000D01*
X88350000Y-103000000D02*
X88350000Y-108450000D01*
X91119960Y-100230040D02*
X88350000Y-103000000D01*
X101370600Y-111393360D02*
X101370600Y-109920600D01*
X89270040Y-109679960D02*
X89270040Y-111383200D01*
X89550000Y-109400000D02*
X89270040Y-109679960D01*
X100950000Y-109500000D02*
X99000000Y-109500000D01*
X101370600Y-109920600D02*
X100950000Y-109500000D01*
X91050000Y-108450000D02*
X91050000Y-104650000D01*
X91050000Y-104650000D02*
X90450000Y-104050000D01*
X90520040Y-111383200D02*
X90520040Y-109029960D01*
X102620600Y-109920600D02*
X102620600Y-111393360D01*
X101250000Y-108550000D02*
X102620600Y-109920600D01*
X99850000Y-108550000D02*
X101250000Y-108550000D01*
X96550000Y-108550000D02*
X99850000Y-108550000D01*
X91050000Y-108500000D02*
X91050000Y-108450000D01*
X90520040Y-109029960D02*
X91050000Y-108500000D01*
X105120600Y-111393360D02*
X105120600Y-109970600D01*
X98739960Y-101460040D02*
X98739960Y-97805240D01*
X98700000Y-101500000D02*
X98739960Y-101460040D01*
X101200000Y-105700000D02*
X100300000Y-105700000D01*
X102774998Y-107274998D02*
X101200000Y-105700000D01*
X102774998Y-108424998D02*
X102774998Y-107274998D01*
X103850000Y-109500000D02*
X102774998Y-108424998D01*
X104650000Y-109500000D02*
X103850000Y-109500000D01*
X105120600Y-109970600D02*
X104650000Y-109500000D01*
X93020040Y-111383200D02*
X93020040Y-107879960D01*
X96199960Y-100750040D02*
X96199960Y-97805240D01*
X96100000Y-100850000D02*
X96199960Y-100750040D01*
X93020040Y-107879960D02*
X93150000Y-107750000D01*
X103870600Y-111393360D02*
X103870600Y-110357424D01*
X98739960Y-91160040D02*
X98739960Y-82565240D01*
X98200000Y-91700000D02*
X98739960Y-91160040D01*
X101750000Y-108236824D02*
X101750000Y-107800000D01*
X103870600Y-110357424D02*
X101750000Y-108236824D01*
X91770040Y-111383200D02*
X91770040Y-112770040D01*
X103870600Y-112620600D02*
X103870600Y-111393360D01*
X103900000Y-112650000D02*
X103870600Y-112620600D01*
X93850000Y-114850000D02*
X95750000Y-114850000D01*
X91770040Y-112770040D02*
X93850000Y-114850000D01*
X113450000Y-112000000D02*
X114000000Y-112000000D01*
X114000000Y-112000000D02*
X114550000Y-112000000D01*
D37*
G36*
X125765000Y-116265000D02*
X110519373Y-116265000D01*
X110567031Y-116195250D01*
X110618040Y-115943360D01*
X110618040Y-113243360D01*
X110573762Y-113008043D01*
X110434690Y-112791919D01*
X110222490Y-112646929D01*
X109970600Y-112595920D01*
X108970600Y-112595920D01*
X108735283Y-112640198D01*
X108596359Y-112729593D01*
X108506126Y-112511210D01*
X108517031Y-112495250D01*
X108568040Y-112243360D01*
X108568040Y-110850000D01*
X110552560Y-110850000D01*
X110552560Y-111250000D01*
X110596838Y-111485317D01*
X110604342Y-111496979D01*
X110603569Y-111498110D01*
X110552560Y-111750000D01*
X110552560Y-112150000D01*
X110596838Y-112385317D01*
X110735910Y-112601441D01*
X110948110Y-112746431D01*
X111200000Y-112797440D01*
X111727500Y-112797440D01*
X111727500Y-113354921D01*
X111487186Y-113515493D01*
X111165279Y-113997262D01*
X111052240Y-114565547D01*
X111052240Y-114623733D01*
X111165279Y-115192018D01*
X111487186Y-115673787D01*
X111968955Y-115995694D01*
X112537240Y-116108733D01*
X113105525Y-115995694D01*
X113587294Y-115673787D01*
X113615090Y-115632188D01*
X113624078Y-115679957D01*
X113763150Y-115896081D01*
X113975350Y-116041071D01*
X114227240Y-116092080D01*
X115927240Y-116092080D01*
X116162557Y-116047802D01*
X116378681Y-115908730D01*
X116523671Y-115696530D01*
X116574680Y-115444640D01*
X116574680Y-114243599D01*
X121514699Y-114243599D01*
X121778281Y-114881515D01*
X122265918Y-115370004D01*
X122903373Y-115634699D01*
X123593599Y-115635301D01*
X124231515Y-115371719D01*
X124720004Y-114884082D01*
X124984699Y-114246627D01*
X124985301Y-113556401D01*
X124721719Y-112918485D01*
X124234082Y-112429996D01*
X123596627Y-112165301D01*
X122906401Y-112164699D01*
X122268485Y-112428281D01*
X121779996Y-112915918D01*
X121515301Y-113553373D01*
X121514699Y-114243599D01*
X116574680Y-114243599D01*
X116574680Y-113744640D01*
X116549955Y-113613236D01*
X116931595Y-113231596D01*
X117109891Y-112964758D01*
X117126623Y-112880640D01*
X117172500Y-112650000D01*
X117172500Y-111686914D01*
X117196431Y-111651890D01*
X117247440Y-111400000D01*
X117247440Y-110903983D01*
X117304630Y-110927730D01*
X117693663Y-110928069D01*
X118053212Y-110779507D01*
X118328540Y-110504659D01*
X118477730Y-110145370D01*
X118478069Y-109756337D01*
X118355148Y-109458844D01*
X118397440Y-109250000D01*
X118397440Y-108750000D01*
X118353162Y-108514683D01*
X118214090Y-108298559D01*
X118106764Y-108225226D01*
X118228285Y-108201054D01*
X118710054Y-107879147D01*
X118737850Y-107837548D01*
X118746838Y-107885317D01*
X118885910Y-108101441D01*
X119098110Y-108246431D01*
X119350000Y-108297440D01*
X121050000Y-108297440D01*
X121285317Y-108253162D01*
X121501441Y-108114090D01*
X121646431Y-107901890D01*
X121697440Y-107650000D01*
X121697440Y-105950000D01*
X121653162Y-105714683D01*
X121514090Y-105498559D01*
X121301890Y-105353569D01*
X121050000Y-105302560D01*
X119350000Y-105302560D01*
X119114683Y-105346838D01*
X118898559Y-105485910D01*
X118753569Y-105698110D01*
X118739914Y-105765541D01*
X118710054Y-105720853D01*
X118228285Y-105398946D01*
X117660000Y-105285907D01*
X117091715Y-105398946D01*
X116609946Y-105720853D01*
X116390000Y-106050026D01*
X116170054Y-105720853D01*
X115688285Y-105398946D01*
X115120000Y-105285907D01*
X114551715Y-105398946D01*
X114069946Y-105720853D01*
X113842298Y-106061553D01*
X113775183Y-105918642D01*
X113346924Y-105528355D01*
X112936890Y-105358524D01*
X112707000Y-105479845D01*
X112707000Y-106673000D01*
X112727000Y-106673000D01*
X112727000Y-106927000D01*
X112707000Y-106927000D01*
X112707000Y-108120155D01*
X112936890Y-108241476D01*
X113346924Y-108071645D01*
X113775183Y-107681358D01*
X113842298Y-107538447D01*
X114069946Y-107879147D01*
X114551715Y-108201054D01*
X115120000Y-108314093D01*
X115688285Y-108201054D01*
X116170054Y-107879147D01*
X116390000Y-107549974D01*
X116609946Y-107879147D01*
X116989505Y-108132759D01*
X116914683Y-108146838D01*
X116890594Y-108162339D01*
X116776309Y-108115000D01*
X116635750Y-108115000D01*
X116477000Y-108273750D01*
X116477000Y-108875000D01*
X116497000Y-108875000D01*
X116497000Y-109052560D01*
X116263006Y-109052560D01*
X116203000Y-109012465D01*
X116203000Y-108875000D01*
X116223000Y-108875000D01*
X116223000Y-108273750D01*
X116064250Y-108115000D01*
X115923691Y-108115000D01*
X115690302Y-108211673D01*
X115511673Y-108390301D01*
X115415000Y-108623690D01*
X115415000Y-108716250D01*
X115501642Y-108802892D01*
X115449040Y-108792240D01*
X115304625Y-108792240D01*
X115302202Y-108779363D01*
X115163130Y-108563239D01*
X114950930Y-108418249D01*
X114699040Y-108367240D01*
X114417356Y-108367240D01*
X114344410Y-108336950D01*
X113955377Y-108336611D01*
X113881249Y-108367240D01*
X113599040Y-108367240D01*
X113363723Y-108411518D01*
X113147599Y-108550590D01*
X113002609Y-108762790D01*
X112996645Y-108792240D01*
X112849040Y-108792240D01*
X112716495Y-108817180D01*
X112417480Y-108817180D01*
X112330486Y-108834484D01*
X112447520Y-108717450D01*
X112447520Y-108649891D01*
X112350847Y-108416502D01*
X112172219Y-108237873D01*
X111938830Y-108141200D01*
X111798270Y-108141200D01*
X111639520Y-108299950D01*
X111639520Y-108876200D01*
X111659520Y-108876200D01*
X111659520Y-109028760D01*
X111212520Y-109028760D01*
X110977203Y-109073038D01*
X110972289Y-109076200D01*
X110736270Y-109076200D01*
X110577520Y-109234950D01*
X110577520Y-109302509D01*
X110623487Y-109413483D01*
X110616089Y-109424310D01*
X110565080Y-109676200D01*
X110565080Y-110076200D01*
X110609358Y-110311517D01*
X110677320Y-110417133D01*
X110677320Y-110490172D01*
X110603569Y-110598110D01*
X110552560Y-110850000D01*
X108568040Y-110850000D01*
X108568040Y-110543360D01*
X108523762Y-110308043D01*
X108384690Y-110091919D01*
X108172490Y-109946929D01*
X107920600Y-109895920D01*
X107320600Y-109895920D01*
X107193100Y-109919911D01*
X107193100Y-109670600D01*
X107130491Y-109355843D01*
X107097412Y-109306337D01*
X106952196Y-109089005D01*
X106513082Y-108649891D01*
X110577520Y-108649891D01*
X110577520Y-108717450D01*
X110736270Y-108876200D01*
X111385520Y-108876200D01*
X111385520Y-108299950D01*
X111226770Y-108141200D01*
X111086210Y-108141200D01*
X110852821Y-108237873D01*
X110674193Y-108416502D01*
X110577520Y-108649891D01*
X106513082Y-108649891D01*
X106131595Y-108268405D01*
X105864757Y-108090109D01*
X105599381Y-108037322D01*
X105647440Y-107800000D01*
X105647440Y-106025729D01*
X105818405Y-106281595D01*
X106063565Y-106526755D01*
X106015000Y-106770907D01*
X106015000Y-106829093D01*
X106128039Y-107397378D01*
X106449946Y-107879147D01*
X106931715Y-108201054D01*
X107500000Y-108314093D01*
X108068285Y-108201054D01*
X108550054Y-107879147D01*
X108770000Y-107549974D01*
X108989946Y-107879147D01*
X109471715Y-108201054D01*
X110040000Y-108314093D01*
X110608285Y-108201054D01*
X111090054Y-107879147D01*
X111317702Y-107538447D01*
X111384817Y-107681358D01*
X111813076Y-108071645D01*
X112223110Y-108241476D01*
X112453000Y-108120155D01*
X112453000Y-106927000D01*
X112433000Y-106927000D01*
X112433000Y-106673000D01*
X112453000Y-106673000D01*
X112453000Y-105479845D01*
X112223110Y-105358524D01*
X111813076Y-105528355D01*
X111384817Y-105918642D01*
X111317702Y-106061553D01*
X111090054Y-105720853D01*
X110608285Y-105398946D01*
X110040000Y-105285907D01*
X109471715Y-105398946D01*
X108989946Y-105720853D01*
X108770000Y-106050026D01*
X108550054Y-105720853D01*
X108068285Y-105398946D01*
X107500000Y-105285907D01*
X107222500Y-105341105D01*
X107222500Y-105182713D01*
X107251441Y-105164090D01*
X107279858Y-105122500D01*
X108017287Y-105122500D01*
X108035910Y-105151441D01*
X108248110Y-105296431D01*
X108500000Y-105347440D01*
X109300000Y-105347440D01*
X109535317Y-105303162D01*
X109751441Y-105164090D01*
X109779858Y-105122500D01*
X110517287Y-105122500D01*
X110535910Y-105151441D01*
X110748110Y-105296431D01*
X111000000Y-105347440D01*
X111800000Y-105347440D01*
X112035317Y-105303162D01*
X112251441Y-105164090D01*
X112279858Y-105122500D01*
X113117287Y-105122500D01*
X113135910Y-105151441D01*
X113348110Y-105296431D01*
X113600000Y-105347440D01*
X114400000Y-105347440D01*
X114635317Y-105303162D01*
X114851441Y-105164090D01*
X114905945Y-105084320D01*
X115627087Y-105084320D01*
X115645710Y-105113261D01*
X115857910Y-105258251D01*
X116109800Y-105309260D01*
X116909800Y-105309260D01*
X117145117Y-105264982D01*
X117361241Y-105125910D01*
X117389658Y-105084320D01*
X118283557Y-105084320D01*
X118456330Y-105202371D01*
X118708220Y-105253380D01*
X119508220Y-105253380D01*
X119743537Y-105209102D01*
X119959661Y-105070030D01*
X119988078Y-105028440D01*
X120712167Y-105028440D01*
X120730790Y-105057381D01*
X120942990Y-105202371D01*
X121194880Y-105253380D01*
X121994880Y-105253380D01*
X122230197Y-105209102D01*
X122446321Y-105070030D01*
X122474738Y-105028440D01*
X123381588Y-105028440D01*
X123513470Y-105118551D01*
X123765360Y-105169560D01*
X124565360Y-105169560D01*
X124800677Y-105125282D01*
X125016801Y-104986210D01*
X125161791Y-104774010D01*
X125212800Y-104522120D01*
X125212800Y-103722120D01*
X125168522Y-103486803D01*
X125061601Y-103320643D01*
X125161791Y-103174010D01*
X125212800Y-102922120D01*
X125212800Y-102122120D01*
X125168522Y-101886803D01*
X125029450Y-101670679D01*
X124959920Y-101623171D01*
X124959920Y-101622032D01*
X125033851Y-101513830D01*
X125084860Y-101261940D01*
X125084860Y-100861940D01*
X125040582Y-100626623D01*
X125033078Y-100614961D01*
X125033851Y-100613830D01*
X125084860Y-100361940D01*
X125084860Y-99961940D01*
X125040582Y-99726623D01*
X124962460Y-99605218D01*
X124962460Y-99011802D01*
X125355784Y-98619163D01*
X125574710Y-98091931D01*
X125575208Y-97521053D01*
X125357203Y-96993440D01*
X124953883Y-96589416D01*
X124426651Y-96370490D01*
X123855773Y-96369992D01*
X123328160Y-96587997D01*
X122924136Y-96991317D01*
X122870098Y-97121455D01*
X122817203Y-96993440D01*
X122413883Y-96589416D01*
X121886651Y-96370490D01*
X121315773Y-96369992D01*
X120788160Y-96587997D01*
X120384136Y-96991317D01*
X120330098Y-97121455D01*
X120277203Y-96993440D01*
X119873883Y-96589416D01*
X119346651Y-96370490D01*
X118775773Y-96369992D01*
X118248160Y-96587997D01*
X117844136Y-96991317D01*
X117790098Y-97121455D01*
X117737203Y-96993440D01*
X117333883Y-96589416D01*
X116806651Y-96370490D01*
X116393061Y-96370129D01*
X124721555Y-88041635D01*
X124899851Y-87774797D01*
X124962460Y-87460040D01*
X124962460Y-83771802D01*
X125355784Y-83379163D01*
X125574710Y-82851931D01*
X125575208Y-82281053D01*
X125357203Y-81753440D01*
X124953883Y-81349416D01*
X124426651Y-81130490D01*
X123855773Y-81129992D01*
X123328160Y-81347997D01*
X122924136Y-81751317D01*
X122870098Y-81881455D01*
X122817203Y-81753440D01*
X122422460Y-81358008D01*
X122422460Y-80449960D01*
X122359851Y-80135203D01*
X122181555Y-79868365D01*
X121031595Y-78718405D01*
X120764757Y-78540109D01*
X120450000Y-78477500D01*
X113360427Y-78477500D01*
X113204659Y-78321460D01*
X112845370Y-78172270D01*
X112456337Y-78171931D01*
X112322500Y-78227231D01*
X112322500Y-76369847D01*
X113863265Y-76369847D01*
X114157230Y-77081298D01*
X114701079Y-77626097D01*
X115412016Y-77921303D01*
X116181807Y-77921975D01*
X116893258Y-77628010D01*
X117438057Y-77084161D01*
X117733263Y-76373224D01*
X117733935Y-75603433D01*
X117439970Y-74891982D01*
X116896121Y-74347183D01*
X116185184Y-74051977D01*
X115415393Y-74051305D01*
X114703942Y-74345270D01*
X114159143Y-74889119D01*
X113863937Y-75600056D01*
X113863265Y-76369847D01*
X112322500Y-76369847D01*
X112322500Y-72070324D01*
X112416526Y-72164514D01*
X112961993Y-72391012D01*
X113552616Y-72391528D01*
X114098477Y-72165982D01*
X114516474Y-71748714D01*
X114589649Y-71572489D01*
X114795341Y-71778540D01*
X115154630Y-71927730D01*
X115543663Y-71928069D01*
X115865370Y-71795143D01*
X116111859Y-72391692D01*
X116849664Y-73130786D01*
X117814146Y-73531274D01*
X118858472Y-73532185D01*
X119823652Y-73133381D01*
X120438246Y-72519859D01*
X120213937Y-73060056D01*
X120213265Y-73829847D01*
X120507230Y-74541298D01*
X121051079Y-75086097D01*
X121762016Y-75381303D01*
X122531807Y-75381975D01*
X123243258Y-75088010D01*
X123788057Y-74544161D01*
X124083263Y-73833224D01*
X124083935Y-73063433D01*
X123792647Y-72358460D01*
X124258477Y-72165982D01*
X124676474Y-71748714D01*
X124902972Y-71203247D01*
X124903488Y-70612624D01*
X124677942Y-70066763D01*
X124260674Y-69648766D01*
X123715207Y-69422268D01*
X123124584Y-69421752D01*
X122578723Y-69647298D01*
X122160726Y-70064566D01*
X121934228Y-70610033D01*
X121933712Y-71200656D01*
X122062177Y-71511564D01*
X121765393Y-71511305D01*
X121053942Y-71805270D01*
X120633644Y-72224835D01*
X120963234Y-71431094D01*
X120964145Y-70386768D01*
X120565341Y-69421588D01*
X119827536Y-68682494D01*
X118863054Y-68282006D01*
X117818728Y-68281095D01*
X116853548Y-68679899D01*
X116172500Y-69359759D01*
X116172500Y-68250000D01*
X116109891Y-67935243D01*
X116109891Y-67935242D01*
X115931595Y-67668404D01*
X111498190Y-63235000D01*
X125765000Y-63235000D01*
X125765000Y-116265000D01*
X125765000Y-116265000D01*
G37*
X125765000Y-116265000D02*
X110519373Y-116265000D01*
X110567031Y-116195250D01*
X110618040Y-115943360D01*
X110618040Y-113243360D01*
X110573762Y-113008043D01*
X110434690Y-112791919D01*
X110222490Y-112646929D01*
X109970600Y-112595920D01*
X108970600Y-112595920D01*
X108735283Y-112640198D01*
X108596359Y-112729593D01*
X108506126Y-112511210D01*
X108517031Y-112495250D01*
X108568040Y-112243360D01*
X108568040Y-110850000D01*
X110552560Y-110850000D01*
X110552560Y-111250000D01*
X110596838Y-111485317D01*
X110604342Y-111496979D01*
X110603569Y-111498110D01*
X110552560Y-111750000D01*
X110552560Y-112150000D01*
X110596838Y-112385317D01*
X110735910Y-112601441D01*
X110948110Y-112746431D01*
X111200000Y-112797440D01*
X111727500Y-112797440D01*
X111727500Y-113354921D01*
X111487186Y-113515493D01*
X111165279Y-113997262D01*
X111052240Y-114565547D01*
X111052240Y-114623733D01*
X111165279Y-115192018D01*
X111487186Y-115673787D01*
X111968955Y-115995694D01*
X112537240Y-116108733D01*
X113105525Y-115995694D01*
X113587294Y-115673787D01*
X113615090Y-115632188D01*
X113624078Y-115679957D01*
X113763150Y-115896081D01*
X113975350Y-116041071D01*
X114227240Y-116092080D01*
X115927240Y-116092080D01*
X116162557Y-116047802D01*
X116378681Y-115908730D01*
X116523671Y-115696530D01*
X116574680Y-115444640D01*
X116574680Y-114243599D01*
X121514699Y-114243599D01*
X121778281Y-114881515D01*
X122265918Y-115370004D01*
X122903373Y-115634699D01*
X123593599Y-115635301D01*
X124231515Y-115371719D01*
X124720004Y-114884082D01*
X124984699Y-114246627D01*
X124985301Y-113556401D01*
X124721719Y-112918485D01*
X124234082Y-112429996D01*
X123596627Y-112165301D01*
X122906401Y-112164699D01*
X122268485Y-112428281D01*
X121779996Y-112915918D01*
X121515301Y-113553373D01*
X121514699Y-114243599D01*
X116574680Y-114243599D01*
X116574680Y-113744640D01*
X116549955Y-113613236D01*
X116931595Y-113231596D01*
X117109891Y-112964758D01*
X117126623Y-112880640D01*
X117172500Y-112650000D01*
X117172500Y-111686914D01*
X117196431Y-111651890D01*
X117247440Y-111400000D01*
X117247440Y-110903983D01*
X117304630Y-110927730D01*
X117693663Y-110928069D01*
X118053212Y-110779507D01*
X118328540Y-110504659D01*
X118477730Y-110145370D01*
X118478069Y-109756337D01*
X118355148Y-109458844D01*
X118397440Y-109250000D01*
X118397440Y-108750000D01*
X118353162Y-108514683D01*
X118214090Y-108298559D01*
X118106764Y-108225226D01*
X118228285Y-108201054D01*
X118710054Y-107879147D01*
X118737850Y-107837548D01*
X118746838Y-107885317D01*
X118885910Y-108101441D01*
X119098110Y-108246431D01*
X119350000Y-108297440D01*
X121050000Y-108297440D01*
X121285317Y-108253162D01*
X121501441Y-108114090D01*
X121646431Y-107901890D01*
X121697440Y-107650000D01*
X121697440Y-105950000D01*
X121653162Y-105714683D01*
X121514090Y-105498559D01*
X121301890Y-105353569D01*
X121050000Y-105302560D01*
X119350000Y-105302560D01*
X119114683Y-105346838D01*
X118898559Y-105485910D01*
X118753569Y-105698110D01*
X118739914Y-105765541D01*
X118710054Y-105720853D01*
X118228285Y-105398946D01*
X117660000Y-105285907D01*
X117091715Y-105398946D01*
X116609946Y-105720853D01*
X116390000Y-106050026D01*
X116170054Y-105720853D01*
X115688285Y-105398946D01*
X115120000Y-105285907D01*
X114551715Y-105398946D01*
X114069946Y-105720853D01*
X113842298Y-106061553D01*
X113775183Y-105918642D01*
X113346924Y-105528355D01*
X112936890Y-105358524D01*
X112707000Y-105479845D01*
X112707000Y-106673000D01*
X112727000Y-106673000D01*
X112727000Y-106927000D01*
X112707000Y-106927000D01*
X112707000Y-108120155D01*
X112936890Y-108241476D01*
X113346924Y-108071645D01*
X113775183Y-107681358D01*
X113842298Y-107538447D01*
X114069946Y-107879147D01*
X114551715Y-108201054D01*
X115120000Y-108314093D01*
X115688285Y-108201054D01*
X116170054Y-107879147D01*
X116390000Y-107549974D01*
X116609946Y-107879147D01*
X116989505Y-108132759D01*
X116914683Y-108146838D01*
X116890594Y-108162339D01*
X116776309Y-108115000D01*
X116635750Y-108115000D01*
X116477000Y-108273750D01*
X116477000Y-108875000D01*
X116497000Y-108875000D01*
X116497000Y-109052560D01*
X116263006Y-109052560D01*
X116203000Y-109012465D01*
X116203000Y-108875000D01*
X116223000Y-108875000D01*
X116223000Y-108273750D01*
X116064250Y-108115000D01*
X115923691Y-108115000D01*
X115690302Y-108211673D01*
X115511673Y-108390301D01*
X115415000Y-108623690D01*
X115415000Y-108716250D01*
X115501642Y-108802892D01*
X115449040Y-108792240D01*
X115304625Y-108792240D01*
X115302202Y-108779363D01*
X115163130Y-108563239D01*
X114950930Y-108418249D01*
X114699040Y-108367240D01*
X114417356Y-108367240D01*
X114344410Y-108336950D01*
X113955377Y-108336611D01*
X113881249Y-108367240D01*
X113599040Y-108367240D01*
X113363723Y-108411518D01*
X113147599Y-108550590D01*
X113002609Y-108762790D01*
X112996645Y-108792240D01*
X112849040Y-108792240D01*
X112716495Y-108817180D01*
X112417480Y-108817180D01*
X112330486Y-108834484D01*
X112447520Y-108717450D01*
X112447520Y-108649891D01*
X112350847Y-108416502D01*
X112172219Y-108237873D01*
X111938830Y-108141200D01*
X111798270Y-108141200D01*
X111639520Y-108299950D01*
X111639520Y-108876200D01*
X111659520Y-108876200D01*
X111659520Y-109028760D01*
X111212520Y-109028760D01*
X110977203Y-109073038D01*
X110972289Y-109076200D01*
X110736270Y-109076200D01*
X110577520Y-109234950D01*
X110577520Y-109302509D01*
X110623487Y-109413483D01*
X110616089Y-109424310D01*
X110565080Y-109676200D01*
X110565080Y-110076200D01*
X110609358Y-110311517D01*
X110677320Y-110417133D01*
X110677320Y-110490172D01*
X110603569Y-110598110D01*
X110552560Y-110850000D01*
X108568040Y-110850000D01*
X108568040Y-110543360D01*
X108523762Y-110308043D01*
X108384690Y-110091919D01*
X108172490Y-109946929D01*
X107920600Y-109895920D01*
X107320600Y-109895920D01*
X107193100Y-109919911D01*
X107193100Y-109670600D01*
X107130491Y-109355843D01*
X107097412Y-109306337D01*
X106952196Y-109089005D01*
X106513082Y-108649891D01*
X110577520Y-108649891D01*
X110577520Y-108717450D01*
X110736270Y-108876200D01*
X111385520Y-108876200D01*
X111385520Y-108299950D01*
X111226770Y-108141200D01*
X111086210Y-108141200D01*
X110852821Y-108237873D01*
X110674193Y-108416502D01*
X110577520Y-108649891D01*
X106513082Y-108649891D01*
X106131595Y-108268405D01*
X105864757Y-108090109D01*
X105599381Y-108037322D01*
X105647440Y-107800000D01*
X105647440Y-106025729D01*
X105818405Y-106281595D01*
X106063565Y-106526755D01*
X106015000Y-106770907D01*
X106015000Y-106829093D01*
X106128039Y-107397378D01*
X106449946Y-107879147D01*
X106931715Y-108201054D01*
X107500000Y-108314093D01*
X108068285Y-108201054D01*
X108550054Y-107879147D01*
X108770000Y-107549974D01*
X108989946Y-107879147D01*
X109471715Y-108201054D01*
X110040000Y-108314093D01*
X110608285Y-108201054D01*
X111090054Y-107879147D01*
X111317702Y-107538447D01*
X111384817Y-107681358D01*
X111813076Y-108071645D01*
X112223110Y-108241476D01*
X112453000Y-108120155D01*
X112453000Y-106927000D01*
X112433000Y-106927000D01*
X112433000Y-106673000D01*
X112453000Y-106673000D01*
X112453000Y-105479845D01*
X112223110Y-105358524D01*
X111813076Y-105528355D01*
X111384817Y-105918642D01*
X111317702Y-106061553D01*
X111090054Y-105720853D01*
X110608285Y-105398946D01*
X110040000Y-105285907D01*
X109471715Y-105398946D01*
X108989946Y-105720853D01*
X108770000Y-106050026D01*
X108550054Y-105720853D01*
X108068285Y-105398946D01*
X107500000Y-105285907D01*
X107222500Y-105341105D01*
X107222500Y-105182713D01*
X107251441Y-105164090D01*
X107279858Y-105122500D01*
X108017287Y-105122500D01*
X108035910Y-105151441D01*
X108248110Y-105296431D01*
X108500000Y-105347440D01*
X109300000Y-105347440D01*
X109535317Y-105303162D01*
X109751441Y-105164090D01*
X109779858Y-105122500D01*
X110517287Y-105122500D01*
X110535910Y-105151441D01*
X110748110Y-105296431D01*
X111000000Y-105347440D01*
X111800000Y-105347440D01*
X112035317Y-105303162D01*
X112251441Y-105164090D01*
X112279858Y-105122500D01*
X113117287Y-105122500D01*
X113135910Y-105151441D01*
X113348110Y-105296431D01*
X113600000Y-105347440D01*
X114400000Y-105347440D01*
X114635317Y-105303162D01*
X114851441Y-105164090D01*
X114905945Y-105084320D01*
X115627087Y-105084320D01*
X115645710Y-105113261D01*
X115857910Y-105258251D01*
X116109800Y-105309260D01*
X116909800Y-105309260D01*
X117145117Y-105264982D01*
X117361241Y-105125910D01*
X117389658Y-105084320D01*
X118283557Y-105084320D01*
X118456330Y-105202371D01*
X118708220Y-105253380D01*
X119508220Y-105253380D01*
X119743537Y-105209102D01*
X119959661Y-105070030D01*
X119988078Y-105028440D01*
X120712167Y-105028440D01*
X120730790Y-105057381D01*
X120942990Y-105202371D01*
X121194880Y-105253380D01*
X121994880Y-105253380D01*
X122230197Y-105209102D01*
X122446321Y-105070030D01*
X122474738Y-105028440D01*
X123381588Y-105028440D01*
X123513470Y-105118551D01*
X123765360Y-105169560D01*
X124565360Y-105169560D01*
X124800677Y-105125282D01*
X125016801Y-104986210D01*
X125161791Y-104774010D01*
X125212800Y-104522120D01*
X125212800Y-103722120D01*
X125168522Y-103486803D01*
X125061601Y-103320643D01*
X125161791Y-103174010D01*
X125212800Y-102922120D01*
X125212800Y-102122120D01*
X125168522Y-101886803D01*
X125029450Y-101670679D01*
X124959920Y-101623171D01*
X124959920Y-101622032D01*
X125033851Y-101513830D01*
X125084860Y-101261940D01*
X125084860Y-100861940D01*
X125040582Y-100626623D01*
X125033078Y-100614961D01*
X125033851Y-100613830D01*
X125084860Y-100361940D01*
X125084860Y-99961940D01*
X125040582Y-99726623D01*
X124962460Y-99605218D01*
X124962460Y-99011802D01*
X125355784Y-98619163D01*
X125574710Y-98091931D01*
X125575208Y-97521053D01*
X125357203Y-96993440D01*
X124953883Y-96589416D01*
X124426651Y-96370490D01*
X123855773Y-96369992D01*
X123328160Y-96587997D01*
X122924136Y-96991317D01*
X122870098Y-97121455D01*
X122817203Y-96993440D01*
X122413883Y-96589416D01*
X121886651Y-96370490D01*
X121315773Y-96369992D01*
X120788160Y-96587997D01*
X120384136Y-96991317D01*
X120330098Y-97121455D01*
X120277203Y-96993440D01*
X119873883Y-96589416D01*
X119346651Y-96370490D01*
X118775773Y-96369992D01*
X118248160Y-96587997D01*
X117844136Y-96991317D01*
X117790098Y-97121455D01*
X117737203Y-96993440D01*
X117333883Y-96589416D01*
X116806651Y-96370490D01*
X116393061Y-96370129D01*
X124721555Y-88041635D01*
X124899851Y-87774797D01*
X124962460Y-87460040D01*
X124962460Y-83771802D01*
X125355784Y-83379163D01*
X125574710Y-82851931D01*
X125575208Y-82281053D01*
X125357203Y-81753440D01*
X124953883Y-81349416D01*
X124426651Y-81130490D01*
X123855773Y-81129992D01*
X123328160Y-81347997D01*
X122924136Y-81751317D01*
X122870098Y-81881455D01*
X122817203Y-81753440D01*
X122422460Y-81358008D01*
X122422460Y-80449960D01*
X122359851Y-80135203D01*
X122181555Y-79868365D01*
X121031595Y-78718405D01*
X120764757Y-78540109D01*
X120450000Y-78477500D01*
X113360427Y-78477500D01*
X113204659Y-78321460D01*
X112845370Y-78172270D01*
X112456337Y-78171931D01*
X112322500Y-78227231D01*
X112322500Y-76369847D01*
X113863265Y-76369847D01*
X114157230Y-77081298D01*
X114701079Y-77626097D01*
X115412016Y-77921303D01*
X116181807Y-77921975D01*
X116893258Y-77628010D01*
X117438057Y-77084161D01*
X117733263Y-76373224D01*
X117733935Y-75603433D01*
X117439970Y-74891982D01*
X116896121Y-74347183D01*
X116185184Y-74051977D01*
X115415393Y-74051305D01*
X114703942Y-74345270D01*
X114159143Y-74889119D01*
X113863937Y-75600056D01*
X113863265Y-76369847D01*
X112322500Y-76369847D01*
X112322500Y-72070324D01*
X112416526Y-72164514D01*
X112961993Y-72391012D01*
X113552616Y-72391528D01*
X114098477Y-72165982D01*
X114516474Y-71748714D01*
X114589649Y-71572489D01*
X114795341Y-71778540D01*
X115154630Y-71927730D01*
X115543663Y-71928069D01*
X115865370Y-71795143D01*
X116111859Y-72391692D01*
X116849664Y-73130786D01*
X117814146Y-73531274D01*
X118858472Y-73532185D01*
X119823652Y-73133381D01*
X120438246Y-72519859D01*
X120213937Y-73060056D01*
X120213265Y-73829847D01*
X120507230Y-74541298D01*
X121051079Y-75086097D01*
X121762016Y-75381303D01*
X122531807Y-75381975D01*
X123243258Y-75088010D01*
X123788057Y-74544161D01*
X124083263Y-73833224D01*
X124083935Y-73063433D01*
X123792647Y-72358460D01*
X124258477Y-72165982D01*
X124676474Y-71748714D01*
X124902972Y-71203247D01*
X124903488Y-70612624D01*
X124677942Y-70066763D01*
X124260674Y-69648766D01*
X123715207Y-69422268D01*
X123124584Y-69421752D01*
X122578723Y-69647298D01*
X122160726Y-70064566D01*
X121934228Y-70610033D01*
X121933712Y-71200656D01*
X122062177Y-71511564D01*
X121765393Y-71511305D01*
X121053942Y-71805270D01*
X120633644Y-72224835D01*
X120963234Y-71431094D01*
X120964145Y-70386768D01*
X120565341Y-69421588D01*
X119827536Y-68682494D01*
X118863054Y-68282006D01*
X117818728Y-68281095D01*
X116853548Y-68679899D01*
X116172500Y-69359759D01*
X116172500Y-68250000D01*
X116109891Y-67935243D01*
X116109891Y-67935242D01*
X115931595Y-67668404D01*
X111498190Y-63235000D01*
X125765000Y-63235000D01*
X125765000Y-116265000D01*
G36*
X66668405Y-65268405D02*
X66547440Y-65449441D01*
X66547440Y-64000000D01*
X66503162Y-63764683D01*
X66364090Y-63548559D01*
X66151890Y-63403569D01*
X65900000Y-63352560D01*
X64900000Y-63352560D01*
X64664683Y-63396838D01*
X64448559Y-63535910D01*
X64303569Y-63748110D01*
X64252560Y-64000000D01*
X64252560Y-66800000D01*
X64296838Y-67035317D01*
X64435910Y-67251441D01*
X64648110Y-67396431D01*
X64900000Y-67447440D01*
X65900000Y-67447440D01*
X66135317Y-67403162D01*
X66351441Y-67264090D01*
X66427500Y-67152774D01*
X66427500Y-67539908D01*
X66353569Y-67648110D01*
X66302560Y-67900000D01*
X66302560Y-69600000D01*
X66346838Y-69835317D01*
X66485910Y-70051441D01*
X66698110Y-70196431D01*
X66950000Y-70247440D01*
X67550000Y-70247440D01*
X67677500Y-70223449D01*
X67677500Y-70350000D01*
X67702560Y-70475985D01*
X67702560Y-70750000D01*
X67746838Y-70985317D01*
X67827500Y-71110669D01*
X67827500Y-75421068D01*
X67801890Y-75403569D01*
X67550000Y-75352560D01*
X66950000Y-75352560D01*
X66714683Y-75396838D01*
X66498559Y-75535910D01*
X66353569Y-75748110D01*
X66302560Y-76000000D01*
X66302560Y-77700000D01*
X66346838Y-77935317D01*
X66427500Y-78060669D01*
X66427500Y-79551208D01*
X66322270Y-79804630D01*
X66321931Y-80193663D01*
X66470493Y-80553212D01*
X66745341Y-80828540D01*
X67104630Y-80977730D01*
X67493663Y-80978069D01*
X67638392Y-80918268D01*
X67500069Y-81125283D01*
X67456450Y-81344572D01*
X67448160Y-81347997D01*
X67044136Y-81751317D01*
X66996512Y-81866008D01*
X66973824Y-81811235D01*
X66727705Y-81737101D01*
X65899565Y-82565240D01*
X66727705Y-83393379D01*
X66973824Y-83319245D01*
X66994765Y-83260986D01*
X67042717Y-83377040D01*
X67446037Y-83781064D01*
X67973269Y-83999990D01*
X68544147Y-84000488D01*
X69071760Y-83782483D01*
X69475784Y-83379163D01*
X69529822Y-83249025D01*
X69582717Y-83377040D01*
X69986037Y-83781064D01*
X70513269Y-83999990D01*
X71084147Y-84000488D01*
X71611760Y-83782483D01*
X72015784Y-83379163D01*
X72069822Y-83249025D01*
X72122717Y-83377040D01*
X72526037Y-83781064D01*
X73053269Y-83999990D01*
X73624147Y-84000488D01*
X74151760Y-83782483D01*
X74555784Y-83379163D01*
X74609822Y-83249025D01*
X74662717Y-83377040D01*
X75066037Y-83781064D01*
X75593269Y-83999990D01*
X76164147Y-84000488D01*
X76691760Y-83782483D01*
X77095784Y-83379163D01*
X77149822Y-83249025D01*
X77202717Y-83377040D01*
X77606037Y-83781064D01*
X78133269Y-83999990D01*
X78704147Y-84000488D01*
X79231760Y-83782483D01*
X79635784Y-83379163D01*
X79689822Y-83249025D01*
X79742717Y-83377040D01*
X80146037Y-83781064D01*
X80673269Y-83999990D01*
X81244147Y-84000488D01*
X81771760Y-83782483D01*
X82175784Y-83379163D01*
X82229822Y-83249025D01*
X82282717Y-83377040D01*
X82686037Y-83781064D01*
X83213269Y-83999990D01*
X83784147Y-84000488D01*
X84311760Y-83782483D01*
X84715784Y-83379163D01*
X84769822Y-83249025D01*
X84822717Y-83377040D01*
X85226037Y-83781064D01*
X85753269Y-83999990D01*
X86324147Y-84000488D01*
X86527500Y-83916464D01*
X86527500Y-89950000D01*
X86590109Y-90264757D01*
X86768405Y-90531595D01*
X90271938Y-94035128D01*
X90271931Y-94043663D01*
X90420493Y-94403212D01*
X90594477Y-94577500D01*
X83410688Y-94577500D01*
X83404659Y-94571460D01*
X83045370Y-94422270D01*
X82656337Y-94421931D01*
X82296788Y-94570493D01*
X82021460Y-94845341D01*
X81872270Y-95204630D01*
X81871931Y-95593663D01*
X82020493Y-95953212D01*
X82295341Y-96228540D01*
X82654630Y-96377730D01*
X83043663Y-96378069D01*
X83403212Y-96229507D01*
X83410231Y-96222500D01*
X83422124Y-96222500D01*
X83421995Y-96370172D01*
X83215773Y-96369992D01*
X82688160Y-96587997D01*
X82284136Y-96991317D01*
X82230098Y-97121455D01*
X82177203Y-96993440D01*
X81773883Y-96589416D01*
X81246651Y-96370490D01*
X81177795Y-96370430D01*
X81178069Y-96056337D01*
X81029507Y-95696788D01*
X80754659Y-95421460D01*
X80395370Y-95272270D01*
X80006337Y-95271931D01*
X79646788Y-95420493D01*
X79639769Y-95427500D01*
X73527789Y-95427500D01*
X73528069Y-95106337D01*
X73379507Y-94746788D01*
X73104659Y-94471460D01*
X72745370Y-94322270D01*
X72356337Y-94321931D01*
X71996788Y-94470493D01*
X71989769Y-94477500D01*
X69400000Y-94477500D01*
X69085243Y-94540109D01*
X68818405Y-94718405D01*
X67678365Y-95858445D01*
X67500069Y-96125283D01*
X67437460Y-96440040D01*
X67437460Y-96598678D01*
X67145702Y-96889928D01*
X67123122Y-96769923D01*
X66984050Y-96553799D01*
X66771850Y-96408809D01*
X66519960Y-96357800D01*
X64919960Y-96357800D01*
X64684643Y-96402078D01*
X64468519Y-96541150D01*
X64323529Y-96753350D01*
X64272520Y-97005240D01*
X64272520Y-98605240D01*
X64316798Y-98840557D01*
X64455870Y-99056681D01*
X64668070Y-99201671D01*
X64919960Y-99252680D01*
X66519960Y-99252680D01*
X66755277Y-99208402D01*
X66971401Y-99069330D01*
X67116391Y-98857130D01*
X67144386Y-98718886D01*
X67446037Y-99021064D01*
X67973269Y-99239990D01*
X68544147Y-99240488D01*
X69071760Y-99022483D01*
X69475784Y-98619163D01*
X69529822Y-98489025D01*
X69582717Y-98617040D01*
X69925943Y-98960866D01*
X68968405Y-99918405D01*
X68790109Y-100185243D01*
X68727500Y-100500000D01*
X68727500Y-102700000D01*
X68790109Y-103014757D01*
X68968405Y-103281595D01*
X69115763Y-103428953D01*
X68922894Y-103467317D01*
X68554674Y-103713354D01*
X67508954Y-104759074D01*
X67262917Y-105127294D01*
X67176520Y-105561640D01*
X67176520Y-106893529D01*
X67164080Y-106954960D01*
X67164080Y-109654960D01*
X67208358Y-109890277D01*
X67347430Y-110106401D01*
X67559630Y-110251391D01*
X67811520Y-110302400D01*
X68811520Y-110302400D01*
X69046837Y-110258122D01*
X69262961Y-110119050D01*
X69310654Y-110049249D01*
X69347430Y-110106401D01*
X69559630Y-110251391D01*
X69811520Y-110302400D01*
X70811520Y-110302400D01*
X71046837Y-110258122D01*
X71262961Y-110119050D01*
X71407951Y-109906850D01*
X71458960Y-109654960D01*
X71458960Y-109439960D01*
X71953760Y-109439960D01*
X72388106Y-109353563D01*
X72756326Y-109107526D01*
X73518002Y-108345850D01*
X73659178Y-108495789D01*
X76341191Y-110407025D01*
X76334719Y-110411190D01*
X76189729Y-110623390D01*
X76138720Y-110875280D01*
X76138720Y-114675280D01*
X76182998Y-114910597D01*
X76322070Y-115126721D01*
X76534270Y-115271711D01*
X76786160Y-115322720D01*
X78586160Y-115322720D01*
X78821477Y-115278442D01*
X79037601Y-115139370D01*
X79182591Y-114927170D01*
X79233600Y-114675280D01*
X79233600Y-111838257D01*
X79451200Y-111881540D01*
X81577180Y-111881540D01*
X82011526Y-111795143D01*
X82379746Y-111549106D01*
X82838720Y-111090132D01*
X82838720Y-114675280D01*
X82882998Y-114910597D01*
X83022070Y-115126721D01*
X83234270Y-115271711D01*
X83486160Y-115322720D01*
X85286160Y-115322720D01*
X85521477Y-115278442D01*
X85737601Y-115139370D01*
X85882591Y-114927170D01*
X85933600Y-114675280D01*
X85933600Y-110875280D01*
X85889322Y-110639963D01*
X85750250Y-110423839D01*
X85538050Y-110278849D01*
X85286160Y-110227840D01*
X83486160Y-110227840D01*
X83250843Y-110272118D01*
X83162986Y-110328652D01*
X83171160Y-110287560D01*
X83171160Y-109736711D01*
X83183600Y-109675280D01*
X83183600Y-106975280D01*
X83139322Y-106739963D01*
X83000250Y-106523839D01*
X82788050Y-106378849D01*
X82536160Y-106327840D01*
X81536160Y-106327840D01*
X81300843Y-106372118D01*
X81171160Y-106455567D01*
X81171160Y-105883200D01*
X81162310Y-105838709D01*
X81084764Y-105448855D01*
X80838727Y-105080634D01*
X80398546Y-104640454D01*
X80344963Y-104604651D01*
X79849492Y-104109180D01*
X87013320Y-104109180D01*
X87328077Y-104046571D01*
X87527500Y-103913320D01*
X87527500Y-108450000D01*
X87590109Y-108764757D01*
X87768405Y-109031595D01*
X88447540Y-109710730D01*
X88447540Y-110173108D01*
X88373609Y-110281310D01*
X88322600Y-110533200D01*
X88322600Y-112233200D01*
X88366878Y-112468517D01*
X88505950Y-112684641D01*
X88718150Y-112829631D01*
X88970040Y-112880640D01*
X89570040Y-112880640D01*
X89805357Y-112836362D01*
X89894268Y-112779149D01*
X89968150Y-112829631D01*
X90220040Y-112880640D01*
X90820040Y-112880640D01*
X90964146Y-112853525D01*
X91010149Y-113084797D01*
X91188445Y-113351635D01*
X93268405Y-115431596D01*
X93535243Y-115609891D01*
X93850000Y-115672500D01*
X95189312Y-115672500D01*
X95195341Y-115678540D01*
X95554630Y-115827730D01*
X95943663Y-115828069D01*
X96222600Y-115712815D01*
X96222600Y-115933200D01*
X96266878Y-116168517D01*
X96328963Y-116265000D01*
X88461871Y-116265000D01*
X88516471Y-116185090D01*
X88567480Y-115933200D01*
X88567480Y-113233200D01*
X88523202Y-112997883D01*
X88384130Y-112781759D01*
X88171930Y-112636769D01*
X87920040Y-112585760D01*
X86920040Y-112585760D01*
X86684723Y-112630038D01*
X86468599Y-112769110D01*
X86323609Y-112981310D01*
X86272600Y-113233200D01*
X86272600Y-115933200D01*
X86316878Y-116168517D01*
X86378963Y-116265000D01*
X63235000Y-116265000D01*
X63235000Y-110854960D01*
X64414080Y-110854960D01*
X64414080Y-114654960D01*
X64458358Y-114890277D01*
X64597430Y-115106401D01*
X64809630Y-115251391D01*
X65061520Y-115302400D01*
X66861520Y-115302400D01*
X67096837Y-115258122D01*
X67312961Y-115119050D01*
X67457951Y-114906850D01*
X67508960Y-114654960D01*
X67508960Y-110854960D01*
X71114080Y-110854960D01*
X71114080Y-114654960D01*
X71158358Y-114890277D01*
X71297430Y-115106401D01*
X71509630Y-115251391D01*
X71761520Y-115302400D01*
X73561520Y-115302400D01*
X73796837Y-115258122D01*
X74012961Y-115119050D01*
X74157951Y-114906850D01*
X74208960Y-114654960D01*
X74208960Y-110854960D01*
X74164682Y-110619643D01*
X74025610Y-110403519D01*
X73813410Y-110258529D01*
X73561520Y-110207520D01*
X71761520Y-110207520D01*
X71526203Y-110251798D01*
X71310079Y-110390870D01*
X71165089Y-110603070D01*
X71114080Y-110854960D01*
X67508960Y-110854960D01*
X67464682Y-110619643D01*
X67325610Y-110403519D01*
X67113410Y-110258529D01*
X66861520Y-110207520D01*
X65061520Y-110207520D01*
X64826203Y-110251798D01*
X64610079Y-110390870D01*
X64465089Y-110603070D01*
X64414080Y-110854960D01*
X63235000Y-110854960D01*
X63235000Y-102843599D01*
X64764699Y-102843599D01*
X65028281Y-103481515D01*
X65515918Y-103970004D01*
X66153373Y-104234699D01*
X66843599Y-104235301D01*
X67481515Y-103971719D01*
X67970004Y-103484082D01*
X68234699Y-102846627D01*
X68235301Y-102156401D01*
X67971719Y-101518485D01*
X67484082Y-101029996D01*
X66846627Y-100765301D01*
X66156401Y-100764699D01*
X65518485Y-101028281D01*
X65029996Y-101515918D01*
X64765301Y-102153373D01*
X64764699Y-102843599D01*
X63235000Y-102843599D01*
X63235000Y-83572985D01*
X64891821Y-83572985D01*
X64965955Y-83819104D01*
X65503183Y-84012205D01*
X66073414Y-83985018D01*
X66473965Y-83819104D01*
X66548099Y-83572985D01*
X65719960Y-82744845D01*
X64891821Y-83572985D01*
X63235000Y-83572985D01*
X63235000Y-82348463D01*
X64272995Y-82348463D01*
X64300182Y-82918694D01*
X64466096Y-83319245D01*
X64712215Y-83393379D01*
X65540355Y-82565240D01*
X64712215Y-81737101D01*
X64466096Y-81811235D01*
X64272995Y-82348463D01*
X63235000Y-82348463D01*
X63235000Y-81557495D01*
X64891821Y-81557495D01*
X65719960Y-82385635D01*
X66548099Y-81557495D01*
X66473965Y-81311376D01*
X65936737Y-81118275D01*
X65366506Y-81145462D01*
X64965955Y-81311376D01*
X64891821Y-81557495D01*
X63235000Y-81557495D01*
X63235000Y-72100000D01*
X64252560Y-72100000D01*
X64252560Y-74900000D01*
X64296838Y-75135317D01*
X64435910Y-75351441D01*
X64648110Y-75496431D01*
X64900000Y-75547440D01*
X65900000Y-75547440D01*
X66135317Y-75503162D01*
X66351441Y-75364090D01*
X66496431Y-75151890D01*
X66547440Y-74900000D01*
X66547440Y-72100000D01*
X66503162Y-71864683D01*
X66364090Y-71648559D01*
X66151890Y-71503569D01*
X65900000Y-71452560D01*
X64900000Y-71452560D01*
X64664683Y-71496838D01*
X64448559Y-71635910D01*
X64303569Y-71848110D01*
X64252560Y-72100000D01*
X63235000Y-72100000D01*
X63235000Y-63235000D01*
X68701810Y-63235000D01*
X66668405Y-65268405D01*
X66668405Y-65268405D01*
G37*
X66668405Y-65268405D02*
X66547440Y-65449441D01*
X66547440Y-64000000D01*
X66503162Y-63764683D01*
X66364090Y-63548559D01*
X66151890Y-63403569D01*
X65900000Y-63352560D01*
X64900000Y-63352560D01*
X64664683Y-63396838D01*
X64448559Y-63535910D01*
X64303569Y-63748110D01*
X64252560Y-64000000D01*
X64252560Y-66800000D01*
X64296838Y-67035317D01*
X64435910Y-67251441D01*
X64648110Y-67396431D01*
X64900000Y-67447440D01*
X65900000Y-67447440D01*
X66135317Y-67403162D01*
X66351441Y-67264090D01*
X66427500Y-67152774D01*
X66427500Y-67539908D01*
X66353569Y-67648110D01*
X66302560Y-67900000D01*
X66302560Y-69600000D01*
X66346838Y-69835317D01*
X66485910Y-70051441D01*
X66698110Y-70196431D01*
X66950000Y-70247440D01*
X67550000Y-70247440D01*
X67677500Y-70223449D01*
X67677500Y-70350000D01*
X67702560Y-70475985D01*
X67702560Y-70750000D01*
X67746838Y-70985317D01*
X67827500Y-71110669D01*
X67827500Y-75421068D01*
X67801890Y-75403569D01*
X67550000Y-75352560D01*
X66950000Y-75352560D01*
X66714683Y-75396838D01*
X66498559Y-75535910D01*
X66353569Y-75748110D01*
X66302560Y-76000000D01*
X66302560Y-77700000D01*
X66346838Y-77935317D01*
X66427500Y-78060669D01*
X66427500Y-79551208D01*
X66322270Y-79804630D01*
X66321931Y-80193663D01*
X66470493Y-80553212D01*
X66745341Y-80828540D01*
X67104630Y-80977730D01*
X67493663Y-80978069D01*
X67638392Y-80918268D01*
X67500069Y-81125283D01*
X67456450Y-81344572D01*
X67448160Y-81347997D01*
X67044136Y-81751317D01*
X66996512Y-81866008D01*
X66973824Y-81811235D01*
X66727705Y-81737101D01*
X65899565Y-82565240D01*
X66727705Y-83393379D01*
X66973824Y-83319245D01*
X66994765Y-83260986D01*
X67042717Y-83377040D01*
X67446037Y-83781064D01*
X67973269Y-83999990D01*
X68544147Y-84000488D01*
X69071760Y-83782483D01*
X69475784Y-83379163D01*
X69529822Y-83249025D01*
X69582717Y-83377040D01*
X69986037Y-83781064D01*
X70513269Y-83999990D01*
X71084147Y-84000488D01*
X71611760Y-83782483D01*
X72015784Y-83379163D01*
X72069822Y-83249025D01*
X72122717Y-83377040D01*
X72526037Y-83781064D01*
X73053269Y-83999990D01*
X73624147Y-84000488D01*
X74151760Y-83782483D01*
X74555784Y-83379163D01*
X74609822Y-83249025D01*
X74662717Y-83377040D01*
X75066037Y-83781064D01*
X75593269Y-83999990D01*
X76164147Y-84000488D01*
X76691760Y-83782483D01*
X77095784Y-83379163D01*
X77149822Y-83249025D01*
X77202717Y-83377040D01*
X77606037Y-83781064D01*
X78133269Y-83999990D01*
X78704147Y-84000488D01*
X79231760Y-83782483D01*
X79635784Y-83379163D01*
X79689822Y-83249025D01*
X79742717Y-83377040D01*
X80146037Y-83781064D01*
X80673269Y-83999990D01*
X81244147Y-84000488D01*
X81771760Y-83782483D01*
X82175784Y-83379163D01*
X82229822Y-83249025D01*
X82282717Y-83377040D01*
X82686037Y-83781064D01*
X83213269Y-83999990D01*
X83784147Y-84000488D01*
X84311760Y-83782483D01*
X84715784Y-83379163D01*
X84769822Y-83249025D01*
X84822717Y-83377040D01*
X85226037Y-83781064D01*
X85753269Y-83999990D01*
X86324147Y-84000488D01*
X86527500Y-83916464D01*
X86527500Y-89950000D01*
X86590109Y-90264757D01*
X86768405Y-90531595D01*
X90271938Y-94035128D01*
X90271931Y-94043663D01*
X90420493Y-94403212D01*
X90594477Y-94577500D01*
X83410688Y-94577500D01*
X83404659Y-94571460D01*
X83045370Y-94422270D01*
X82656337Y-94421931D01*
X82296788Y-94570493D01*
X82021460Y-94845341D01*
X81872270Y-95204630D01*
X81871931Y-95593663D01*
X82020493Y-95953212D01*
X82295341Y-96228540D01*
X82654630Y-96377730D01*
X83043663Y-96378069D01*
X83403212Y-96229507D01*
X83410231Y-96222500D01*
X83422124Y-96222500D01*
X83421995Y-96370172D01*
X83215773Y-96369992D01*
X82688160Y-96587997D01*
X82284136Y-96991317D01*
X82230098Y-97121455D01*
X82177203Y-96993440D01*
X81773883Y-96589416D01*
X81246651Y-96370490D01*
X81177795Y-96370430D01*
X81178069Y-96056337D01*
X81029507Y-95696788D01*
X80754659Y-95421460D01*
X80395370Y-95272270D01*
X80006337Y-95271931D01*
X79646788Y-95420493D01*
X79639769Y-95427500D01*
X73527789Y-95427500D01*
X73528069Y-95106337D01*
X73379507Y-94746788D01*
X73104659Y-94471460D01*
X72745370Y-94322270D01*
X72356337Y-94321931D01*
X71996788Y-94470493D01*
X71989769Y-94477500D01*
X69400000Y-94477500D01*
X69085243Y-94540109D01*
X68818405Y-94718405D01*
X67678365Y-95858445D01*
X67500069Y-96125283D01*
X67437460Y-96440040D01*
X67437460Y-96598678D01*
X67145702Y-96889928D01*
X67123122Y-96769923D01*
X66984050Y-96553799D01*
X66771850Y-96408809D01*
X66519960Y-96357800D01*
X64919960Y-96357800D01*
X64684643Y-96402078D01*
X64468519Y-96541150D01*
X64323529Y-96753350D01*
X64272520Y-97005240D01*
X64272520Y-98605240D01*
X64316798Y-98840557D01*
X64455870Y-99056681D01*
X64668070Y-99201671D01*
X64919960Y-99252680D01*
X66519960Y-99252680D01*
X66755277Y-99208402D01*
X66971401Y-99069330D01*
X67116391Y-98857130D01*
X67144386Y-98718886D01*
X67446037Y-99021064D01*
X67973269Y-99239990D01*
X68544147Y-99240488D01*
X69071760Y-99022483D01*
X69475784Y-98619163D01*
X69529822Y-98489025D01*
X69582717Y-98617040D01*
X69925943Y-98960866D01*
X68968405Y-99918405D01*
X68790109Y-100185243D01*
X68727500Y-100500000D01*
X68727500Y-102700000D01*
X68790109Y-103014757D01*
X68968405Y-103281595D01*
X69115763Y-103428953D01*
X68922894Y-103467317D01*
X68554674Y-103713354D01*
X67508954Y-104759074D01*
X67262917Y-105127294D01*
X67176520Y-105561640D01*
X67176520Y-106893529D01*
X67164080Y-106954960D01*
X67164080Y-109654960D01*
X67208358Y-109890277D01*
X67347430Y-110106401D01*
X67559630Y-110251391D01*
X67811520Y-110302400D01*
X68811520Y-110302400D01*
X69046837Y-110258122D01*
X69262961Y-110119050D01*
X69310654Y-110049249D01*
X69347430Y-110106401D01*
X69559630Y-110251391D01*
X69811520Y-110302400D01*
X70811520Y-110302400D01*
X71046837Y-110258122D01*
X71262961Y-110119050D01*
X71407951Y-109906850D01*
X71458960Y-109654960D01*
X71458960Y-109439960D01*
X71953760Y-109439960D01*
X72388106Y-109353563D01*
X72756326Y-109107526D01*
X73518002Y-108345850D01*
X73659178Y-108495789D01*
X76341191Y-110407025D01*
X76334719Y-110411190D01*
X76189729Y-110623390D01*
X76138720Y-110875280D01*
X76138720Y-114675280D01*
X76182998Y-114910597D01*
X76322070Y-115126721D01*
X76534270Y-115271711D01*
X76786160Y-115322720D01*
X78586160Y-115322720D01*
X78821477Y-115278442D01*
X79037601Y-115139370D01*
X79182591Y-114927170D01*
X79233600Y-114675280D01*
X79233600Y-111838257D01*
X79451200Y-111881540D01*
X81577180Y-111881540D01*
X82011526Y-111795143D01*
X82379746Y-111549106D01*
X82838720Y-111090132D01*
X82838720Y-114675280D01*
X82882998Y-114910597D01*
X83022070Y-115126721D01*
X83234270Y-115271711D01*
X83486160Y-115322720D01*
X85286160Y-115322720D01*
X85521477Y-115278442D01*
X85737601Y-115139370D01*
X85882591Y-114927170D01*
X85933600Y-114675280D01*
X85933600Y-110875280D01*
X85889322Y-110639963D01*
X85750250Y-110423839D01*
X85538050Y-110278849D01*
X85286160Y-110227840D01*
X83486160Y-110227840D01*
X83250843Y-110272118D01*
X83162986Y-110328652D01*
X83171160Y-110287560D01*
X83171160Y-109736711D01*
X83183600Y-109675280D01*
X83183600Y-106975280D01*
X83139322Y-106739963D01*
X83000250Y-106523839D01*
X82788050Y-106378849D01*
X82536160Y-106327840D01*
X81536160Y-106327840D01*
X81300843Y-106372118D01*
X81171160Y-106455567D01*
X81171160Y-105883200D01*
X81162310Y-105838709D01*
X81084764Y-105448855D01*
X80838727Y-105080634D01*
X80398546Y-104640454D01*
X80344963Y-104604651D01*
X79849492Y-104109180D01*
X87013320Y-104109180D01*
X87328077Y-104046571D01*
X87527500Y-103913320D01*
X87527500Y-108450000D01*
X87590109Y-108764757D01*
X87768405Y-109031595D01*
X88447540Y-109710730D01*
X88447540Y-110173108D01*
X88373609Y-110281310D01*
X88322600Y-110533200D01*
X88322600Y-112233200D01*
X88366878Y-112468517D01*
X88505950Y-112684641D01*
X88718150Y-112829631D01*
X88970040Y-112880640D01*
X89570040Y-112880640D01*
X89805357Y-112836362D01*
X89894268Y-112779149D01*
X89968150Y-112829631D01*
X90220040Y-112880640D01*
X90820040Y-112880640D01*
X90964146Y-112853525D01*
X91010149Y-113084797D01*
X91188445Y-113351635D01*
X93268405Y-115431596D01*
X93535243Y-115609891D01*
X93850000Y-115672500D01*
X95189312Y-115672500D01*
X95195341Y-115678540D01*
X95554630Y-115827730D01*
X95943663Y-115828069D01*
X96222600Y-115712815D01*
X96222600Y-115933200D01*
X96266878Y-116168517D01*
X96328963Y-116265000D01*
X88461871Y-116265000D01*
X88516471Y-116185090D01*
X88567480Y-115933200D01*
X88567480Y-113233200D01*
X88523202Y-112997883D01*
X88384130Y-112781759D01*
X88171930Y-112636769D01*
X87920040Y-112585760D01*
X86920040Y-112585760D01*
X86684723Y-112630038D01*
X86468599Y-112769110D01*
X86323609Y-112981310D01*
X86272600Y-113233200D01*
X86272600Y-115933200D01*
X86316878Y-116168517D01*
X86378963Y-116265000D01*
X63235000Y-116265000D01*
X63235000Y-110854960D01*
X64414080Y-110854960D01*
X64414080Y-114654960D01*
X64458358Y-114890277D01*
X64597430Y-115106401D01*
X64809630Y-115251391D01*
X65061520Y-115302400D01*
X66861520Y-115302400D01*
X67096837Y-115258122D01*
X67312961Y-115119050D01*
X67457951Y-114906850D01*
X67508960Y-114654960D01*
X67508960Y-110854960D01*
X71114080Y-110854960D01*
X71114080Y-114654960D01*
X71158358Y-114890277D01*
X71297430Y-115106401D01*
X71509630Y-115251391D01*
X71761520Y-115302400D01*
X73561520Y-115302400D01*
X73796837Y-115258122D01*
X74012961Y-115119050D01*
X74157951Y-114906850D01*
X74208960Y-114654960D01*
X74208960Y-110854960D01*
X74164682Y-110619643D01*
X74025610Y-110403519D01*
X73813410Y-110258529D01*
X73561520Y-110207520D01*
X71761520Y-110207520D01*
X71526203Y-110251798D01*
X71310079Y-110390870D01*
X71165089Y-110603070D01*
X71114080Y-110854960D01*
X67508960Y-110854960D01*
X67464682Y-110619643D01*
X67325610Y-110403519D01*
X67113410Y-110258529D01*
X66861520Y-110207520D01*
X65061520Y-110207520D01*
X64826203Y-110251798D01*
X64610079Y-110390870D01*
X64465089Y-110603070D01*
X64414080Y-110854960D01*
X63235000Y-110854960D01*
X63235000Y-102843599D01*
X64764699Y-102843599D01*
X65028281Y-103481515D01*
X65515918Y-103970004D01*
X66153373Y-104234699D01*
X66843599Y-104235301D01*
X67481515Y-103971719D01*
X67970004Y-103484082D01*
X68234699Y-102846627D01*
X68235301Y-102156401D01*
X67971719Y-101518485D01*
X67484082Y-101029996D01*
X66846627Y-100765301D01*
X66156401Y-100764699D01*
X65518485Y-101028281D01*
X65029996Y-101515918D01*
X64765301Y-102153373D01*
X64764699Y-102843599D01*
X63235000Y-102843599D01*
X63235000Y-83572985D01*
X64891821Y-83572985D01*
X64965955Y-83819104D01*
X65503183Y-84012205D01*
X66073414Y-83985018D01*
X66473965Y-83819104D01*
X66548099Y-83572985D01*
X65719960Y-82744845D01*
X64891821Y-83572985D01*
X63235000Y-83572985D01*
X63235000Y-82348463D01*
X64272995Y-82348463D01*
X64300182Y-82918694D01*
X64466096Y-83319245D01*
X64712215Y-83393379D01*
X65540355Y-82565240D01*
X64712215Y-81737101D01*
X64466096Y-81811235D01*
X64272995Y-82348463D01*
X63235000Y-82348463D01*
X63235000Y-81557495D01*
X64891821Y-81557495D01*
X65719960Y-82385635D01*
X66548099Y-81557495D01*
X66473965Y-81311376D01*
X65936737Y-81118275D01*
X65366506Y-81145462D01*
X64965955Y-81311376D01*
X64891821Y-81557495D01*
X63235000Y-81557495D01*
X63235000Y-72100000D01*
X64252560Y-72100000D01*
X64252560Y-74900000D01*
X64296838Y-75135317D01*
X64435910Y-75351441D01*
X64648110Y-75496431D01*
X64900000Y-75547440D01*
X65900000Y-75547440D01*
X66135317Y-75503162D01*
X66351441Y-75364090D01*
X66496431Y-75151890D01*
X66547440Y-74900000D01*
X66547440Y-72100000D01*
X66503162Y-71864683D01*
X66364090Y-71648559D01*
X66151890Y-71503569D01*
X65900000Y-71452560D01*
X64900000Y-71452560D01*
X64664683Y-71496838D01*
X64448559Y-71635910D01*
X64303569Y-71848110D01*
X64252560Y-72100000D01*
X63235000Y-72100000D01*
X63235000Y-63235000D01*
X68701810Y-63235000D01*
X66668405Y-65268405D01*
G36*
X84822717Y-98617040D02*
X85217460Y-99012472D01*
X85217460Y-101731028D01*
X85134308Y-101814180D01*
X79139430Y-101814180D01*
X79075650Y-101750400D01*
X78426400Y-101750400D01*
X78426400Y-101772400D01*
X78172400Y-101772400D01*
X78172400Y-101750400D01*
X78152400Y-101750400D01*
X78152400Y-101500400D01*
X78172400Y-101500400D01*
X78172400Y-100899150D01*
X78426400Y-100899150D01*
X78426400Y-101500400D01*
X79075650Y-101500400D01*
X79234400Y-101341650D01*
X79234400Y-101249090D01*
X79137727Y-101015701D01*
X78959098Y-100837073D01*
X78725709Y-100740400D01*
X78585150Y-100740400D01*
X78426400Y-100899150D01*
X78172400Y-100899150D01*
X78013650Y-100740400D01*
X77873091Y-100740400D01*
X77762117Y-100786367D01*
X77751290Y-100778969D01*
X77659203Y-100760321D01*
X77731450Y-100586330D01*
X77731680Y-100322500D01*
X79700000Y-100322500D01*
X80014757Y-100259891D01*
X80281595Y-100081595D01*
X81122809Y-99240382D01*
X81244147Y-99240488D01*
X81771760Y-99022483D01*
X82175784Y-98619163D01*
X82229822Y-98489025D01*
X82282717Y-98617040D01*
X82686037Y-99021064D01*
X83213269Y-99239990D01*
X83784147Y-99240488D01*
X84311760Y-99022483D01*
X84715784Y-98619163D01*
X84769822Y-98489025D01*
X84822717Y-98617040D01*
X84822717Y-98617040D01*
G37*
X84822717Y-98617040D02*
X85217460Y-99012472D01*
X85217460Y-101731028D01*
X85134308Y-101814180D01*
X79139430Y-101814180D01*
X79075650Y-101750400D01*
X78426400Y-101750400D01*
X78426400Y-101772400D01*
X78172400Y-101772400D01*
X78172400Y-101750400D01*
X78152400Y-101750400D01*
X78152400Y-101500400D01*
X78172400Y-101500400D01*
X78172400Y-100899150D01*
X78426400Y-100899150D01*
X78426400Y-101500400D01*
X79075650Y-101500400D01*
X79234400Y-101341650D01*
X79234400Y-101249090D01*
X79137727Y-101015701D01*
X78959098Y-100837073D01*
X78725709Y-100740400D01*
X78585150Y-100740400D01*
X78426400Y-100899150D01*
X78172400Y-100899150D01*
X78013650Y-100740400D01*
X77873091Y-100740400D01*
X77762117Y-100786367D01*
X77751290Y-100778969D01*
X77659203Y-100760321D01*
X77731450Y-100586330D01*
X77731680Y-100322500D01*
X79700000Y-100322500D01*
X80014757Y-100259891D01*
X80281595Y-100081595D01*
X81122809Y-99240382D01*
X81244147Y-99240488D01*
X81771760Y-99022483D01*
X82175784Y-98619163D01*
X82229822Y-98489025D01*
X82282717Y-98617040D01*
X82686037Y-99021064D01*
X83213269Y-99239990D01*
X83784147Y-99240488D01*
X84311760Y-99022483D01*
X84715784Y-98619163D01*
X84769822Y-98489025D01*
X84822717Y-98617040D01*
M02*
