G04 #@! TF.FileFunction,Copper,L2,Bot,Signal*
%FSLAX46Y46*%
G04 Gerber Fmt 4.6, Leading zero omitted, Abs format (unit mm)*
G04 Created by KiCad (PCBNEW 4.0.7-e2-6376~58~ubuntu16.04.1) date Wed Mar 14 19:20:31 2018*
%MOMM*%
%LPD*%
G01*
G04 APERTURE LIST*
%ADD10C,0.050000*%
%ADD11R,0.500000X0.900000*%
%ADD12R,1.800000X1.800000*%
%ADD13C,1.800000*%
%ADD14C,2.000000*%
%ADD15C,1.400000*%
%ADD16R,1.000000X1.000000*%
%ADD17O,1.000000X1.000000*%
%ADD18C,0.250000*%
%ADD19C,0.254000*%
G04 APERTURE END LIST*
D10*
D11*
X100750000Y-110300000D03*
X102250000Y-110300000D03*
D12*
X105200000Y-106200000D03*
D13*
X105200000Y-108740000D03*
D14*
X101900000Y-112200000D03*
X105400000Y-112200000D03*
D10*
G36*
X102750000Y-109789949D02*
X101760051Y-108800000D01*
X102750000Y-107810051D01*
X103739949Y-108800000D01*
X102750000Y-109789949D01*
X102750000Y-109789949D01*
G37*
D15*
X101480000Y-107530000D03*
X102750000Y-106260000D03*
D16*
X106100000Y-101200000D03*
D17*
X106100000Y-102470000D03*
X106100000Y-103740000D03*
D18*
X102750000Y-106260000D02*
X102750000Y-103350000D01*
X102750000Y-103350000D02*
X103900000Y-102200000D01*
X103900000Y-102200000D02*
X106100000Y-102200000D01*
X103900000Y-102200000D02*
X106000000Y-102200000D01*
X101580000Y-107530000D02*
X101580000Y-103020000D01*
X103400000Y-101200000D02*
X106100000Y-101200000D01*
X101580000Y-103020000D02*
X103400000Y-101200000D01*
X100750000Y-110500000D02*
X101050000Y-110500000D01*
X101050000Y-110500000D02*
X102750000Y-108800000D01*
D19*
G36*
X105169451Y-103114304D02*
X105112873Y-103179791D01*
X105005881Y-103438126D01*
X105132046Y-103613000D01*
X105973000Y-103613000D01*
X105973000Y-103593000D01*
X106017436Y-103593000D01*
X106077764Y-103605000D01*
X106122236Y-103605000D01*
X106182564Y-103593000D01*
X106227000Y-103593000D01*
X106227000Y-103613000D01*
X106247000Y-103613000D01*
X106247000Y-103867000D01*
X106227000Y-103867000D01*
X106227000Y-103887000D01*
X105973000Y-103887000D01*
X105973000Y-103867000D01*
X105132046Y-103867000D01*
X105005881Y-104041874D01*
X105112873Y-104300209D01*
X105402396Y-104635323D01*
X105477630Y-104673120D01*
X105327000Y-104823750D01*
X105327000Y-106073000D01*
X106576250Y-106073000D01*
X106735000Y-105914250D01*
X106735000Y-105173691D01*
X106638327Y-104940302D01*
X106488593Y-104790567D01*
X106790000Y-104639143D01*
X106790000Y-111282574D01*
X106786894Y-111275057D01*
X106327363Y-110814722D01*
X105726648Y-110565284D01*
X105076205Y-110564716D01*
X104475057Y-110813106D01*
X104014722Y-111272637D01*
X103765284Y-111873352D01*
X103764716Y-112523795D01*
X103874710Y-112790000D01*
X103425363Y-112790000D01*
X103534716Y-112526648D01*
X103535284Y-111876205D01*
X103286894Y-111275057D01*
X103062813Y-111050584D01*
X103135000Y-110876310D01*
X103135000Y-110585750D01*
X102976250Y-110427000D01*
X102795940Y-110427000D01*
X102993627Y-110389803D01*
X103207809Y-110247758D01*
X103883098Y-109572469D01*
X103897932Y-109608371D01*
X104329357Y-110040551D01*
X104893330Y-110274733D01*
X105503991Y-110275265D01*
X106068371Y-110042068D01*
X106500551Y-109610643D01*
X106734733Y-109046670D01*
X106735265Y-108436009D01*
X106502068Y-107871629D01*
X106324908Y-107694159D01*
X106459699Y-107638327D01*
X106638327Y-107459698D01*
X106735000Y-107226309D01*
X106735000Y-106485750D01*
X106576250Y-106327000D01*
X105327000Y-106327000D01*
X105327000Y-106347000D01*
X105073000Y-106347000D01*
X105073000Y-106327000D01*
X105053000Y-106327000D01*
X105053000Y-106073000D01*
X105073000Y-106073000D01*
X105073000Y-104823750D01*
X104914250Y-104665000D01*
X104173690Y-104665000D01*
X103940301Y-104761673D01*
X103761673Y-104940302D01*
X103665000Y-105173691D01*
X103665000Y-105286973D01*
X103510000Y-105131703D01*
X103510000Y-103664802D01*
X104214802Y-102960000D01*
X105066348Y-102960000D01*
X105169451Y-103114304D01*
X105169451Y-103114304D01*
G37*
X105169451Y-103114304D02*
X105112873Y-103179791D01*
X105005881Y-103438126D01*
X105132046Y-103613000D01*
X105973000Y-103613000D01*
X105973000Y-103593000D01*
X106017436Y-103593000D01*
X106077764Y-103605000D01*
X106122236Y-103605000D01*
X106182564Y-103593000D01*
X106227000Y-103593000D01*
X106227000Y-103613000D01*
X106247000Y-103613000D01*
X106247000Y-103867000D01*
X106227000Y-103867000D01*
X106227000Y-103887000D01*
X105973000Y-103887000D01*
X105973000Y-103867000D01*
X105132046Y-103867000D01*
X105005881Y-104041874D01*
X105112873Y-104300209D01*
X105402396Y-104635323D01*
X105477630Y-104673120D01*
X105327000Y-104823750D01*
X105327000Y-106073000D01*
X106576250Y-106073000D01*
X106735000Y-105914250D01*
X106735000Y-105173691D01*
X106638327Y-104940302D01*
X106488593Y-104790567D01*
X106790000Y-104639143D01*
X106790000Y-111282574D01*
X106786894Y-111275057D01*
X106327363Y-110814722D01*
X105726648Y-110565284D01*
X105076205Y-110564716D01*
X104475057Y-110813106D01*
X104014722Y-111272637D01*
X103765284Y-111873352D01*
X103764716Y-112523795D01*
X103874710Y-112790000D01*
X103425363Y-112790000D01*
X103534716Y-112526648D01*
X103535284Y-111876205D01*
X103286894Y-111275057D01*
X103062813Y-111050584D01*
X103135000Y-110876310D01*
X103135000Y-110585750D01*
X102976250Y-110427000D01*
X102795940Y-110427000D01*
X102993627Y-110389803D01*
X103207809Y-110247758D01*
X103883098Y-109572469D01*
X103897932Y-109608371D01*
X104329357Y-110040551D01*
X104893330Y-110274733D01*
X105503991Y-110275265D01*
X106068371Y-110042068D01*
X106500551Y-109610643D01*
X106734733Y-109046670D01*
X106735265Y-108436009D01*
X106502068Y-107871629D01*
X106324908Y-107694159D01*
X106459699Y-107638327D01*
X106638327Y-107459698D01*
X106735000Y-107226309D01*
X106735000Y-106485750D01*
X106576250Y-106327000D01*
X105327000Y-106327000D01*
X105327000Y-106347000D01*
X105073000Y-106347000D01*
X105073000Y-106327000D01*
X105053000Y-106327000D01*
X105053000Y-106073000D01*
X105073000Y-106073000D01*
X105073000Y-104823750D01*
X104914250Y-104665000D01*
X104173690Y-104665000D01*
X103940301Y-104761673D01*
X103761673Y-104940302D01*
X103665000Y-105173691D01*
X103665000Y-105286973D01*
X103510000Y-105131703D01*
X103510000Y-103664802D01*
X104214802Y-102960000D01*
X105066348Y-102960000D01*
X105169451Y-103114304D01*
M02*
