G04 #@! TF.FileFunction,Legend,Bot*
%FSLAX46Y46*%
G04 Gerber Fmt 4.6, Leading zero omitted, Abs format (unit mm)*
G04 Created by KiCad (PCBNEW 4.0.7-e2-6376~58~ubuntu16.04.1) date Sat Mar 17 18:14:56 2018*
%MOMM*%
%LPD*%
G01*
G04 APERTURE LIST*
%ADD10C,0.050000*%
%ADD11C,0.120000*%
%ADD12C,0.125000*%
G04 APERTURE END LIST*
D10*
D11*
X117550000Y-110450000D02*
X117050000Y-110450000D01*
X117050000Y-110450000D02*
X117050000Y-111400000D01*
X117050000Y-111400000D02*
X117550000Y-111400000D01*
X117620000Y-110970000D02*
G75*
G03X117620000Y-110970000I-4620000J0D01*
G01*
X113750000Y-108430000D02*
X113250000Y-108430000D01*
X113250000Y-107370000D02*
X113750000Y-107370000D01*
X114930000Y-112450000D02*
X114930000Y-112950000D01*
X113870000Y-112950000D02*
X113870000Y-112450000D01*
X107250000Y-108530000D02*
X106750000Y-108530000D01*
X106750000Y-107470000D02*
X107250000Y-107470000D01*
D12*
X112047619Y-111373810D02*
X112095238Y-111350000D01*
X112142857Y-111302381D01*
X112214286Y-111230952D01*
X112261905Y-111207143D01*
X112309524Y-111207143D01*
X112285714Y-111326190D02*
X112333333Y-111302381D01*
X112380952Y-111254762D01*
X112404762Y-111159524D01*
X112404762Y-110992857D01*
X112380952Y-110897619D01*
X112333333Y-110850000D01*
X112285714Y-110826190D01*
X112190476Y-110826190D01*
X112142857Y-110850000D01*
X112095238Y-110897619D01*
X112071429Y-110992857D01*
X112071429Y-111159524D01*
X112095238Y-111254762D01*
X112142857Y-111302381D01*
X112190476Y-111326190D01*
X112285714Y-111326190D01*
X111595238Y-111326190D02*
X111880952Y-111326190D01*
X111738095Y-111326190D02*
X111738095Y-110826190D01*
X111785714Y-110897619D01*
X111833333Y-110945238D01*
X111880952Y-110969048D01*
X114983333Y-108126190D02*
X115150000Y-107888095D01*
X115269047Y-108126190D02*
X115269047Y-107626190D01*
X115078571Y-107626190D01*
X115030952Y-107650000D01*
X115007143Y-107673810D01*
X114983333Y-107721429D01*
X114983333Y-107792857D01*
X115007143Y-107840476D01*
X115030952Y-107864286D01*
X115078571Y-107888095D01*
X115269047Y-107888095D01*
X114507143Y-108126190D02*
X114792857Y-108126190D01*
X114650000Y-108126190D02*
X114650000Y-107626190D01*
X114697619Y-107697619D01*
X114745238Y-107745238D01*
X114792857Y-107769048D01*
X114483333Y-114126190D02*
X114650000Y-113888095D01*
X114769047Y-114126190D02*
X114769047Y-113626190D01*
X114578571Y-113626190D01*
X114530952Y-113650000D01*
X114507143Y-113673810D01*
X114483333Y-113721429D01*
X114483333Y-113792857D01*
X114507143Y-113840476D01*
X114530952Y-113864286D01*
X114578571Y-113888095D01*
X114769047Y-113888095D01*
X114316666Y-113626190D02*
X114007143Y-113626190D01*
X114173809Y-113816667D01*
X114102381Y-113816667D01*
X114054762Y-113840476D01*
X114030952Y-113864286D01*
X114007143Y-113911905D01*
X114007143Y-114030952D01*
X114030952Y-114078571D01*
X114054762Y-114102381D01*
X114102381Y-114126190D01*
X114245238Y-114126190D01*
X114292857Y-114102381D01*
X114316666Y-114078571D01*
X108483333Y-108226190D02*
X108650000Y-107988095D01*
X108769047Y-108226190D02*
X108769047Y-107726190D01*
X108578571Y-107726190D01*
X108530952Y-107750000D01*
X108507143Y-107773810D01*
X108483333Y-107821429D01*
X108483333Y-107892857D01*
X108507143Y-107940476D01*
X108530952Y-107964286D01*
X108578571Y-107988095D01*
X108769047Y-107988095D01*
X108054762Y-107892857D02*
X108054762Y-108226190D01*
X108173809Y-107702381D02*
X108292857Y-108059524D01*
X107983333Y-108059524D01*
X106547619Y-111273810D02*
X106595238Y-111250000D01*
X106642857Y-111202381D01*
X106714286Y-111130952D01*
X106761905Y-111107143D01*
X106809524Y-111107143D01*
X106785714Y-111226190D02*
X106833333Y-111202381D01*
X106880952Y-111154762D01*
X106904762Y-111059524D01*
X106904762Y-110892857D01*
X106880952Y-110797619D01*
X106833333Y-110750000D01*
X106785714Y-110726190D01*
X106690476Y-110726190D01*
X106642857Y-110750000D01*
X106595238Y-110797619D01*
X106571429Y-110892857D01*
X106571429Y-111059524D01*
X106595238Y-111154762D01*
X106642857Y-111202381D01*
X106690476Y-111226190D01*
X106785714Y-111226190D01*
X106380952Y-110773810D02*
X106357142Y-110750000D01*
X106309523Y-110726190D01*
X106190476Y-110726190D01*
X106142857Y-110750000D01*
X106119047Y-110773810D01*
X106095238Y-110821429D01*
X106095238Y-110869048D01*
X106119047Y-110940476D01*
X106404761Y-111226190D01*
X106095238Y-111226190D01*
M02*
