G04 #@! TF.FileFunction,Legend,Top*
%FSLAX46Y46*%
G04 Gerber Fmt 4.6, Leading zero omitted, Abs format (unit mm)*
G04 Created by KiCad (PCBNEW 4.0.7-e2-6376~58~ubuntu16.04.1) date Wed Mar 14 19:20:31 2018*
%MOMM*%
%LPD*%
G01*
G04 APERTURE LIST*
%ADD10C,0.050000*%
%ADD11C,0.120000*%
%ADD12C,0.125000*%
%ADD13C,0.150000*%
G04 APERTURE END LIST*
D10*
D11*
X105199538Y-110460000D02*
G75*
G03X106744830Y-104910000I462J2990000D01*
G01*
X105200462Y-110460000D02*
G75*
G02X103655170Y-104910000I-462J2990000D01*
G01*
X107700000Y-107470000D02*
G75*
G03X107700000Y-107470000I-2500000J0D01*
G01*
X106745000Y-104910000D02*
X103655000Y-104910000D01*
X102900000Y-101520000D02*
X103900000Y-101520000D01*
X103900000Y-102880000D02*
X102900000Y-102880000D01*
X104990000Y-104435000D02*
X105792470Y-104435000D01*
X106407530Y-104435000D02*
X107210000Y-104435000D01*
X104990000Y-101960000D02*
X104990000Y-104435000D01*
X107210000Y-101960000D02*
X107210000Y-104435000D01*
X104990000Y-101960000D02*
X105536529Y-101960000D01*
X106663471Y-101960000D02*
X107210000Y-101960000D01*
X104990000Y-101200000D02*
X104990000Y-100440000D01*
X104990000Y-100440000D02*
X106100000Y-100440000D01*
D12*
X103316667Y-103626190D02*
X103150000Y-103388095D01*
X103030953Y-103626190D02*
X103030953Y-103126190D01*
X103221429Y-103126190D01*
X103269048Y-103150000D01*
X103292857Y-103173810D01*
X103316667Y-103221429D01*
X103316667Y-103292857D01*
X103292857Y-103340476D01*
X103269048Y-103364286D01*
X103221429Y-103388095D01*
X103030953Y-103388095D01*
X103507143Y-103173810D02*
X103530953Y-103150000D01*
X103578572Y-103126190D01*
X103697619Y-103126190D01*
X103745238Y-103150000D01*
X103769048Y-103173810D01*
X103792857Y-103221429D01*
X103792857Y-103269048D01*
X103769048Y-103340476D01*
X103483334Y-103626190D01*
X103792857Y-103626190D01*
D13*
X105766667Y-98957381D02*
X105766667Y-99671667D01*
X105719047Y-99814524D01*
X105623809Y-99909762D01*
X105480952Y-99957381D01*
X105385714Y-99957381D01*
X106766667Y-99957381D02*
X106195238Y-99957381D01*
X106480952Y-99957381D02*
X106480952Y-98957381D01*
X106385714Y-99100238D01*
X106290476Y-99195476D01*
X106195238Y-99243095D01*
M02*
