G04 #@! TF.FileFunction,Copper,L1,Top,Signal*
%FSLAX46Y46*%
G04 Gerber Fmt 4.6, Leading zero omitted, Abs format (unit mm)*
G04 Created by KiCad (PCBNEW 4.0.7) date Saturday, March 17, 2018 'PMt' 07:18:32 PM*
%MOMM*%
%LPD*%
G01*
G04 APERTURE LIST*
%ADD10C,0.050000*%
%ADD11R,0.500000X0.400000*%
%ADD12R,1.100000X1.900000*%
%ADD13C,0.685800*%
%ADD14C,3.980180*%
%ADD15C,2.600000*%
%ADD16C,1.699260*%
%ADD17R,1.000000X2.700000*%
%ADD18R,1.800000X3.800000*%
%ADD19R,0.800000X0.800000*%
%ADD20R,0.600000X1.700000*%
%ADD21R,1.700000X1.700000*%
%ADD22O,1.700000X1.700000*%
%ADD23R,0.350000X0.825000*%
%ADD24C,0.350000*%
%ADD25R,0.825000X0.350000*%
%ADD26R,2.100000X2.100000*%
%ADD27R,0.500000X0.600000*%
%ADD28R,0.600000X0.500000*%
%ADD29R,0.600000X0.400000*%
%ADD30R,0.400000X0.600000*%
%ADD31C,1.600000*%
%ADD32R,1.600000X1.600000*%
%ADD33R,1.000000X2.800000*%
%ADD34C,0.250000*%
%ADD35C,0.375000*%
%ADD36C,1.000000*%
G04 APERTURE END LIST*
D10*
D11*
X115199040Y-110939680D03*
X115199040Y-110289680D03*
X115199040Y-109639680D03*
X115199040Y-108989680D03*
X113099040Y-108989680D03*
X113099040Y-109639680D03*
X113099040Y-110289680D03*
X113099040Y-110939680D03*
D12*
X114149040Y-109964680D03*
D13*
X114149040Y-109964680D03*
X114149040Y-109314680D03*
X114149040Y-110614680D03*
D14*
X118338600Y-70906640D03*
D15*
X115798600Y-75986640D03*
X122148600Y-73446640D03*
D16*
X123418600Y-70906640D03*
X113258600Y-70906640D03*
D14*
X100319840Y-70830440D03*
D15*
X97779840Y-75910440D03*
X104129840Y-73370440D03*
D16*
X105399840Y-70830440D03*
X95239840Y-70830440D03*
D17*
X68311520Y-108304960D03*
X70311520Y-108304960D03*
D18*
X65961520Y-112754960D03*
X72661520Y-112754960D03*
D17*
X80036160Y-108325280D03*
X82036160Y-108325280D03*
D18*
X77686160Y-112775280D03*
X84386160Y-112775280D03*
D19*
X124165360Y-102522120D03*
X124165360Y-104122120D03*
X121594880Y-102605940D03*
X121594880Y-104205940D03*
X119108220Y-102605940D03*
X119108220Y-104205940D03*
X116509800Y-102661820D03*
X116509800Y-104261820D03*
X114000000Y-102700000D03*
X114000000Y-104300000D03*
X111400000Y-102700000D03*
X111400000Y-104300000D03*
X108900000Y-102700000D03*
X108900000Y-104300000D03*
X106400000Y-102700000D03*
X106400000Y-104300000D03*
D20*
X89270040Y-111383200D03*
X90520040Y-111383200D03*
X91770040Y-111383200D03*
X93020040Y-111383200D03*
X94270040Y-111383200D03*
X95520040Y-111383200D03*
D17*
X87420040Y-114583200D03*
X97370040Y-114583200D03*
D21*
X120200000Y-106800000D03*
D22*
X117660000Y-106800000D03*
X115120000Y-106800000D03*
X112580000Y-106800000D03*
X110040000Y-106800000D03*
X107500000Y-106800000D03*
D20*
X101370600Y-111393360D03*
X102620600Y-111393360D03*
X103870600Y-111393360D03*
X105120600Y-111393360D03*
X106370600Y-111393360D03*
X107620600Y-111393360D03*
D17*
X99520600Y-114593360D03*
X109470600Y-114593360D03*
D21*
X115077240Y-114594640D03*
D22*
X112537240Y-114594640D03*
D23*
X72999960Y-105599180D03*
D24*
X72999960Y-105186680D03*
D23*
X73649960Y-105599180D03*
D24*
X73649960Y-105186680D03*
D23*
X74299960Y-105599180D03*
D24*
X74299960Y-105186680D03*
D23*
X74949960Y-105599180D03*
D24*
X74949960Y-105186680D03*
D25*
X75962460Y-104586680D03*
D24*
X75549960Y-104586680D03*
D25*
X75962460Y-103936680D03*
D24*
X75549960Y-103936680D03*
D25*
X75962460Y-103286680D03*
D24*
X75549960Y-103286680D03*
D25*
X75962460Y-102636680D03*
D24*
X75549960Y-102636680D03*
D23*
X74949960Y-101624180D03*
D24*
X74949960Y-102036680D03*
D23*
X74299960Y-101624180D03*
D24*
X74299960Y-102036680D03*
D23*
X73649960Y-101624180D03*
D24*
X73649960Y-102036680D03*
D23*
X72999960Y-101624180D03*
D24*
X72999960Y-102036680D03*
D25*
X71987460Y-102636680D03*
D24*
X72399960Y-102636680D03*
D25*
X71987460Y-103286680D03*
D24*
X72399960Y-103286680D03*
D25*
X71987460Y-103936680D03*
D24*
X72399960Y-103936680D03*
D25*
X71987460Y-104586680D03*
D24*
X72399960Y-104586680D03*
D26*
X73974960Y-103611680D03*
D27*
X116350000Y-110000000D03*
X116350000Y-111100000D03*
D28*
X116350000Y-109000000D03*
X117450000Y-109000000D03*
X100350000Y-101300000D03*
X101450000Y-101300000D03*
X91950000Y-101300000D03*
X93050000Y-101300000D03*
X88250000Y-78800000D03*
X87150000Y-78800000D03*
X79050000Y-79000000D03*
X77950000Y-79000000D03*
X69650000Y-79100000D03*
X68550000Y-79100000D03*
X79050000Y-70600000D03*
X77950000Y-70600000D03*
X69750000Y-70500000D03*
X68650000Y-70500000D03*
X71733320Y-100390960D03*
X72833320Y-100390960D03*
X78299400Y-101625400D03*
X77199400Y-101625400D03*
X74745760Y-100385880D03*
X75845760Y-100385880D03*
D29*
X111512520Y-108976200D03*
X111512520Y-109876200D03*
X111500000Y-111050000D03*
X111500000Y-111950000D03*
D30*
X70858800Y-105765600D03*
X69958800Y-105765600D03*
D29*
X124137420Y-101061940D03*
X124137420Y-100161940D03*
X121622820Y-101034000D03*
X121622820Y-100134000D03*
X119080280Y-101034000D03*
X119080280Y-100134000D03*
X116509800Y-101034000D03*
X116509800Y-100134000D03*
X113967260Y-101034000D03*
X113967260Y-100134000D03*
X111424720Y-101061940D03*
X111424720Y-100161940D03*
X108882180Y-101034000D03*
X108882180Y-100134000D03*
X106339640Y-101061940D03*
X106339640Y-100161940D03*
D30*
X77070800Y-105745280D03*
X77970800Y-105745280D03*
D31*
X106359960Y-97805240D03*
X108899960Y-97805240D03*
X111439960Y-97805240D03*
X113979960Y-97805240D03*
X103819960Y-97805240D03*
X101279960Y-97805240D03*
X98739960Y-97805240D03*
X116519960Y-97805240D03*
X119059960Y-97805240D03*
X121599960Y-97805240D03*
X124139960Y-97805240D03*
X111439960Y-95265240D03*
X111439960Y-92725240D03*
X111439960Y-90185240D03*
X111439960Y-87645240D03*
X111439960Y-85105240D03*
X124139960Y-82565240D03*
X121599960Y-82565240D03*
X119059960Y-82565240D03*
X116519960Y-82565240D03*
X113979960Y-82565240D03*
X111439960Y-82565240D03*
X108899960Y-82565240D03*
X106359960Y-82565240D03*
X96199960Y-97805240D03*
X93659960Y-97805240D03*
X91119960Y-97805240D03*
X88579960Y-97805240D03*
X86039960Y-97805240D03*
X83499960Y-97805240D03*
X80959960Y-97805240D03*
X78419960Y-97805240D03*
X75879960Y-97805240D03*
X73339960Y-97805240D03*
X70799960Y-97805240D03*
X68259960Y-97805240D03*
D32*
X65719960Y-97805240D03*
D31*
X103819960Y-82565240D03*
X101279960Y-82565240D03*
X98739960Y-82565240D03*
X96199960Y-82565240D03*
X93659960Y-82565240D03*
X91119960Y-82565240D03*
X88579960Y-82565240D03*
X86039960Y-82565240D03*
X83499960Y-82565240D03*
X80959960Y-82565240D03*
X78419960Y-82565240D03*
X75879960Y-82565240D03*
X73339960Y-82565240D03*
X70799960Y-82565240D03*
X68259960Y-82565240D03*
X65719960Y-82565240D03*
D20*
X94250000Y-103050000D03*
X93000000Y-103050000D03*
X91750000Y-103050000D03*
D33*
X96100000Y-106400000D03*
X89900000Y-106400000D03*
D20*
X85750000Y-76850000D03*
X87000000Y-76850000D03*
X88250000Y-76850000D03*
D33*
X83900000Y-73500000D03*
X90100000Y-73500000D03*
D20*
X76650000Y-76850000D03*
X77900000Y-76850000D03*
X79150000Y-76850000D03*
D33*
X74800000Y-73500000D03*
X81000000Y-73500000D03*
D20*
X67250000Y-68750000D03*
X68500000Y-68750000D03*
X69750000Y-68750000D03*
D33*
X65400000Y-65400000D03*
X71600000Y-65400000D03*
D20*
X67250000Y-76850000D03*
X68500000Y-76850000D03*
X69750000Y-76850000D03*
D33*
X65400000Y-73500000D03*
X71600000Y-73500000D03*
D20*
X76650000Y-68750000D03*
X77900000Y-68750000D03*
X79150000Y-68750000D03*
D33*
X74800000Y-65400000D03*
X81000000Y-65400000D03*
D20*
X102650000Y-103050000D03*
X101400000Y-103050000D03*
X100150000Y-103050000D03*
D33*
X104500000Y-106400000D03*
X98300000Y-106400000D03*
D30*
X114550000Y-112000000D03*
X115450000Y-112000000D03*
X112550000Y-112000000D03*
X113450000Y-112000000D03*
D13*
X76753720Y-100390960D03*
X112694720Y-101986080D03*
X113324640Y-95163640D03*
X117500000Y-109950000D03*
X107650000Y-113000000D03*
X95500000Y-113000000D03*
X69550000Y-106050000D03*
X78000000Y-106250000D03*
X71100000Y-100400000D03*
X73974960Y-103611680D03*
X80850000Y-101850000D03*
X81450000Y-104100000D03*
X109987080Y-110810040D03*
X92506800Y-116022120D03*
X89600000Y-103000000D03*
X90600000Y-92150000D03*
X92300000Y-100150000D03*
X99550000Y-100050000D03*
X94900000Y-99150000D03*
X95000000Y-94600000D03*
X85800000Y-78650000D03*
X112650000Y-79150000D03*
X115500000Y-80250000D03*
X76550000Y-79250000D03*
X115350000Y-70950000D03*
X112950000Y-81050000D03*
X67300000Y-80000000D03*
X109050000Y-87750000D03*
X102600000Y-99350000D03*
X68000000Y-74000000D03*
X77000000Y-73000000D03*
X92350000Y-97050000D03*
X91250000Y-93850000D03*
X95950000Y-113950000D03*
X100850000Y-113900000D03*
X83150000Y-78900000D03*
X70550000Y-102050000D03*
X96500000Y-109000000D03*
X96500000Y-103500000D03*
X100000000Y-111500000D03*
X89500000Y-110000000D03*
X99000000Y-101000000D03*
X100500000Y-105500000D03*
X91000000Y-114000000D03*
X101000000Y-113000000D03*
X105000000Y-110000000D03*
X97500000Y-103500000D03*
X97500000Y-99000000D03*
X88500000Y-103500000D03*
X92000000Y-105500000D03*
X98200000Y-91700000D03*
X101750000Y-107800000D03*
X103900000Y-112650000D03*
X95750000Y-114850000D03*
X114000000Y-112000000D03*
X80200000Y-96250000D03*
X84400000Y-96250000D03*
X107050000Y-96250000D03*
X72550000Y-95300000D03*
X82850000Y-95400000D03*
X101100000Y-95350000D03*
D34*
X75845760Y-100385880D02*
X76748640Y-100385880D01*
X76748640Y-100385880D02*
X76753720Y-100390960D01*
X121594880Y-104205940D02*
X124081540Y-104205940D01*
X124081540Y-104205940D02*
X124165360Y-104122120D01*
X114000000Y-104300000D02*
X116471620Y-104300000D01*
X116471620Y-104300000D02*
X116509800Y-104261820D01*
X111439960Y-90185240D02*
X112623600Y-90185240D01*
X112694720Y-103286560D02*
X111681280Y-104300000D01*
X112694720Y-101986080D02*
X112694720Y-103286560D01*
X113324640Y-90886280D02*
X113324640Y-95163640D01*
X112623600Y-90185240D02*
X113324640Y-90886280D01*
X111681280Y-104300000D02*
X111400000Y-104300000D01*
D35*
X106400000Y-104300000D02*
X108900000Y-104300000D01*
X108900000Y-104300000D02*
X111400000Y-104300000D01*
X111400000Y-104300000D02*
X114000000Y-104300000D01*
X114000000Y-104300000D02*
X114038180Y-104261820D01*
X114038180Y-104261820D02*
X119052340Y-104261820D01*
X119052340Y-104261820D02*
X119108220Y-104205940D01*
X119108220Y-104205940D02*
X124081540Y-104205940D01*
X124081540Y-104205940D02*
X124165360Y-104122120D01*
X106400000Y-104300000D02*
X106400000Y-105700000D01*
X106400000Y-105700000D02*
X107500000Y-106800000D01*
X115199040Y-109639680D02*
X115689680Y-109639680D01*
X116050000Y-110000000D02*
X116350000Y-110000000D01*
X115689680Y-109639680D02*
X116050000Y-110000000D01*
X117450000Y-109000000D02*
X117450000Y-109900000D01*
X117500000Y-109950000D02*
X116500000Y-109950000D01*
X117450000Y-109900000D02*
X117500000Y-109950000D01*
X116350000Y-110000000D02*
X116450000Y-110000000D01*
X116450000Y-110000000D02*
X116500000Y-109950000D01*
X111500000Y-111950000D02*
X112500000Y-111950000D01*
X112500000Y-111950000D02*
X112550000Y-112000000D01*
X112550000Y-112000000D02*
X112550000Y-114581880D01*
X112550000Y-114581880D02*
X112537240Y-114594640D01*
X107620600Y-111393360D02*
X107620600Y-112970600D01*
X107620600Y-112970600D02*
X107650000Y-113000000D01*
X95520040Y-111383200D02*
X95520040Y-112979960D01*
X95520040Y-112979960D02*
X95500000Y-113000000D01*
X69958800Y-105765600D02*
X69834400Y-105765600D01*
X69834400Y-105765600D02*
X69550000Y-106050000D01*
X77970800Y-105745280D02*
X77970800Y-106220800D01*
X77970800Y-106220800D02*
X78000000Y-106250000D01*
X71733320Y-100390960D02*
X71109040Y-100390960D01*
X71109040Y-100390960D02*
X71100000Y-100400000D01*
X73649960Y-103286680D02*
X73974960Y-103611680D01*
X73649960Y-101624180D02*
X73649960Y-103286680D01*
X115450000Y-112000000D02*
X115450000Y-111190640D01*
X115450000Y-111190640D02*
X115199040Y-110939680D01*
X115077240Y-114594640D02*
X115077240Y-113922760D01*
X115077240Y-113922760D02*
X116350000Y-112650000D01*
X116350000Y-112650000D02*
X116350000Y-111100000D01*
X116350000Y-111100000D02*
X116189680Y-110939680D01*
X116189680Y-110939680D02*
X115199040Y-110939680D01*
X115199040Y-110939680D02*
X115199040Y-110289680D01*
X115199040Y-110289680D02*
X115332600Y-110423240D01*
D34*
X81450000Y-104100000D02*
X81849600Y-104100000D01*
X110845560Y-108976200D02*
X111512520Y-108976200D01*
X110002320Y-109819440D02*
X110845560Y-108976200D01*
X110002320Y-110794800D02*
X110002320Y-109819440D01*
X109987080Y-110810040D02*
X110002320Y-110794800D01*
X92501720Y-116017040D02*
X92506800Y-116022120D01*
X91673680Y-116017040D02*
X92501720Y-116017040D01*
X87137240Y-111480600D02*
X91673680Y-116017040D01*
X87137240Y-109387640D02*
X87137240Y-111480600D01*
X81849600Y-104100000D02*
X87137240Y-109387640D01*
D35*
X65719960Y-82565240D02*
X65719960Y-86169960D01*
X82150000Y-100550000D02*
X80850000Y-101850000D01*
X82150000Y-96750000D02*
X82150000Y-100550000D01*
X80650000Y-95250000D02*
X82150000Y-96750000D01*
X74800000Y-95250000D02*
X80650000Y-95250000D01*
X65719960Y-86169960D02*
X74800000Y-95250000D01*
X78299400Y-101625400D02*
X80625400Y-101625400D01*
X80625400Y-101625400D02*
X80850000Y-101850000D01*
X115199040Y-108989680D02*
X116339680Y-108989680D01*
X116339680Y-108989680D02*
X116350000Y-109000000D01*
X111512520Y-108976200D02*
X113085560Y-108976200D01*
X113085560Y-108976200D02*
X113099040Y-108989680D01*
X116339680Y-108989680D02*
X116350000Y-109000000D01*
X113085560Y-108976200D02*
X113099040Y-108989680D01*
X115204320Y-108984400D02*
X115199040Y-108989680D01*
X88250000Y-78800000D02*
X88250000Y-79100000D01*
X89650000Y-103050000D02*
X91750000Y-103050000D01*
X89600000Y-103000000D02*
X89650000Y-103050000D01*
X89850000Y-91400000D02*
X90600000Y-92150000D01*
X89850000Y-80700000D02*
X89850000Y-91400000D01*
X88250000Y-79100000D02*
X89850000Y-80700000D01*
X100350000Y-101300000D02*
X100350000Y-102850000D01*
X100350000Y-102850000D02*
X100150000Y-103050000D01*
X91950000Y-101300000D02*
X91950000Y-100500000D01*
X100350000Y-100850000D02*
X100350000Y-101300000D01*
X91950000Y-100500000D02*
X92300000Y-100150000D01*
X99550000Y-100050000D02*
X100350000Y-100850000D01*
X91950000Y-101300000D02*
X91950000Y-102850000D01*
X91950000Y-102850000D02*
X91750000Y-103050000D01*
X79150000Y-76850000D02*
X82800000Y-76850000D01*
X88250000Y-75950000D02*
X88250000Y-76850000D01*
X87800000Y-75500000D02*
X88250000Y-75950000D01*
X84150000Y-75500000D02*
X87800000Y-75500000D01*
X82800000Y-76850000D02*
X84150000Y-75500000D01*
X69650000Y-80075000D02*
X78525000Y-80075000D01*
X79050000Y-79550000D02*
X79050000Y-79000000D01*
X78525000Y-80075000D02*
X79050000Y-79550000D01*
X68259960Y-82565240D02*
X68259960Y-81440040D01*
X69650000Y-80050000D02*
X69650000Y-80075000D01*
X69650000Y-80075000D02*
X69650000Y-79100000D01*
X68259960Y-81440040D02*
X69650000Y-80050000D01*
X88250000Y-76850000D02*
X88250000Y-78800000D01*
X79150000Y-68750000D02*
X79150000Y-70500000D01*
X79150000Y-70500000D02*
X79150000Y-76850000D01*
X79150000Y-76850000D02*
X79050000Y-76950000D01*
X79050000Y-76950000D02*
X79050000Y-79000000D01*
X69750000Y-70500000D02*
X69750000Y-76850000D01*
X69750000Y-76850000D02*
X69650000Y-76950000D01*
X69650000Y-76950000D02*
X69650000Y-79100000D01*
X69750000Y-68750000D02*
X69750000Y-70500000D01*
X124137420Y-101061940D02*
X124137420Y-102494180D01*
X124137420Y-102494180D02*
X124165360Y-102522120D01*
X121622820Y-101034000D02*
X121622820Y-102578000D01*
X121622820Y-102578000D02*
X121594880Y-102605940D01*
X119080280Y-101034000D02*
X119080280Y-102578000D01*
X119080280Y-102578000D02*
X119108220Y-102605940D01*
X116509800Y-101034000D02*
X116509800Y-102661820D01*
X113967260Y-101034000D02*
X113967260Y-102667260D01*
X113967260Y-102667260D02*
X114000000Y-102700000D01*
X111424720Y-101061940D02*
X111424720Y-102675280D01*
X111424720Y-102675280D02*
X111400000Y-102700000D01*
X108882180Y-101034000D02*
X108882180Y-102682180D01*
X108882180Y-102682180D02*
X108900000Y-102700000D01*
X106339640Y-101061940D02*
X106339640Y-102639640D01*
X106339640Y-102639640D02*
X106400000Y-102700000D01*
X124139960Y-82565240D02*
X124139960Y-87460040D01*
X94250000Y-99800000D02*
X94250000Y-103050000D01*
X94900000Y-99150000D02*
X94250000Y-99800000D01*
X97000000Y-92600000D02*
X95000000Y-94600000D01*
X106600000Y-92600000D02*
X97000000Y-92600000D01*
X110500000Y-96500000D02*
X106600000Y-92600000D01*
X115100000Y-96500000D02*
X110500000Y-96500000D01*
X124139960Y-87460040D02*
X115100000Y-96500000D01*
X121599960Y-82565240D02*
X121599960Y-80449960D01*
X85750000Y-78600000D02*
X85750000Y-76850000D01*
X85800000Y-78650000D02*
X85750000Y-78600000D01*
X112800000Y-79300000D02*
X112650000Y-79150000D01*
X120450000Y-79300000D02*
X112800000Y-79300000D01*
X121599960Y-80449960D02*
X120450000Y-79300000D01*
X76650000Y-76850000D02*
X76650000Y-79150000D01*
X119059960Y-80859960D02*
X119059960Y-82565240D01*
X118450000Y-80250000D02*
X119059960Y-80859960D01*
X115500000Y-80250000D02*
X118450000Y-80250000D01*
X76650000Y-79150000D02*
X76550000Y-79250000D01*
X67250000Y-68750000D02*
X67250000Y-65850000D01*
X115350000Y-68250000D02*
X115350000Y-70950000D01*
X110450000Y-63350000D02*
X115350000Y-68250000D01*
X97350000Y-63350000D02*
X110450000Y-63350000D01*
X92350000Y-63350000D02*
X97350000Y-63350000D01*
X90050000Y-63350000D02*
X92350000Y-63350000D01*
X69750000Y-63350000D02*
X90050000Y-63350000D01*
X67250000Y-65850000D02*
X69750000Y-63350000D01*
X113979960Y-82565240D02*
X113979960Y-82079960D01*
X113979960Y-82079960D02*
X112950000Y-81050000D01*
X67300000Y-80000000D02*
X67250000Y-79950000D01*
X67250000Y-79950000D02*
X67250000Y-76850000D01*
X76650000Y-68750000D02*
X76650000Y-67750000D01*
X111500000Y-65800000D02*
X111500000Y-82505200D01*
X109625002Y-63925002D02*
X111500000Y-65800000D01*
X85224998Y-63925002D02*
X109625002Y-63925002D01*
X81750000Y-67400000D02*
X85224998Y-63925002D01*
X77000000Y-67400000D02*
X81750000Y-67400000D01*
X76650000Y-67750000D02*
X77000000Y-67400000D01*
X111500000Y-82505200D02*
X111439960Y-82565240D01*
X102650000Y-103050000D02*
X102650000Y-99400000D01*
X108899960Y-87599960D02*
X108899960Y-82565240D01*
X109050000Y-87750000D02*
X108899960Y-87599960D01*
X102650000Y-99400000D02*
X102600000Y-99350000D01*
D34*
X77900000Y-76850000D02*
X77900000Y-73000000D01*
X68650000Y-75000000D02*
X68650000Y-74650000D01*
X68650000Y-74650000D02*
X68000000Y-74000000D01*
X77000000Y-73000000D02*
X77900000Y-73000000D01*
X77900000Y-73000000D02*
X77500000Y-73000000D01*
X68550000Y-79100000D02*
X68550000Y-79950000D01*
X77350000Y-93850000D02*
X91250000Y-93850000D01*
X67000000Y-83500000D02*
X77350000Y-93850000D01*
X67000000Y-81500000D02*
X67000000Y-83500000D01*
X68550000Y-79950000D02*
X67000000Y-81500000D01*
D35*
X93050000Y-101300000D02*
X93050000Y-99350000D01*
X93050000Y-99350000D02*
X92350000Y-98650000D01*
X92350000Y-98650000D02*
X92350000Y-97050000D01*
X87150000Y-80500000D02*
X87150000Y-78800000D01*
X91250000Y-93850000D02*
X87350000Y-89950000D01*
X87350000Y-89950000D02*
X87350000Y-80700000D01*
X87350000Y-80700000D02*
X87150000Y-80500000D01*
X101400000Y-103050000D02*
X101400000Y-104650000D01*
X101400000Y-104650000D02*
X101350000Y-104700000D01*
X94850000Y-104850000D02*
X93000000Y-104850000D01*
X95300000Y-104400000D02*
X94850000Y-104850000D01*
X98800000Y-104400000D02*
X95300000Y-104400000D01*
X99100000Y-104700000D02*
X98800000Y-104400000D01*
X101350000Y-104700000D02*
X99100000Y-104700000D01*
X101279960Y-97805240D02*
X101279960Y-101129960D01*
X101279960Y-101129960D02*
X101450000Y-101300000D01*
X106370600Y-109670600D02*
X106370600Y-111393360D01*
X105550000Y-108850000D02*
X106370600Y-109670600D01*
X104200000Y-108850000D02*
X105550000Y-108850000D01*
X103350000Y-108000000D02*
X104200000Y-108850000D01*
X103350000Y-106050000D02*
X103350000Y-108000000D01*
X102650000Y-105350000D02*
X103350000Y-106050000D01*
X102100000Y-105350000D02*
X102650000Y-105350000D01*
X101400000Y-104650000D02*
X102100000Y-105350000D01*
X93000000Y-103050000D02*
X93000000Y-104850000D01*
X93000000Y-104850000D02*
X93000000Y-106300000D01*
X94270040Y-107570040D02*
X94270040Y-111383200D01*
X93000000Y-106300000D02*
X94270040Y-107570040D01*
X106370600Y-111393360D02*
X106370600Y-112979400D01*
X94270040Y-113170040D02*
X94270040Y-111383200D01*
X95100000Y-114000000D02*
X94270040Y-113170040D01*
X95900000Y-114000000D02*
X95100000Y-114000000D01*
X95950000Y-113950000D02*
X95900000Y-114000000D01*
X105450000Y-113900000D02*
X100850000Y-113900000D01*
X106370600Y-112979400D02*
X105450000Y-113900000D01*
X101450000Y-101300000D02*
X101450000Y-103000000D01*
X101450000Y-103000000D02*
X101400000Y-103050000D01*
X93050000Y-101300000D02*
X93050000Y-103000000D01*
X93050000Y-103000000D02*
X93000000Y-103050000D01*
X87000000Y-76850000D02*
X87150000Y-77000000D01*
X87150000Y-77000000D02*
X87150000Y-78800000D01*
X77900000Y-68750000D02*
X77900000Y-70550000D01*
X77900000Y-70550000D02*
X77900000Y-76850000D01*
X77900000Y-76850000D02*
X77950000Y-76900000D01*
X77950000Y-76900000D02*
X77950000Y-79000000D01*
X68550000Y-79100000D02*
X68550000Y-76900000D01*
X68550000Y-76900000D02*
X68650000Y-76800000D01*
X68650000Y-76800000D02*
X68650000Y-75000000D01*
X68650000Y-75000000D02*
X68650000Y-70500000D01*
X68500000Y-68750000D02*
X68500000Y-70350000D01*
X68500000Y-70350000D02*
X68650000Y-70500000D01*
X111499820Y-110998040D02*
X111499820Y-109888900D01*
X111499820Y-109888900D02*
X111512520Y-109876200D01*
X111512520Y-109876200D02*
X112180960Y-109876200D01*
X112417480Y-109639680D02*
X113099040Y-109639680D01*
X112180960Y-109876200D02*
X112417480Y-109639680D01*
X73339960Y-82565240D02*
X73339960Y-81510040D01*
X81350000Y-80700000D02*
X83150000Y-78900000D01*
X74150000Y-80700000D02*
X81350000Y-80700000D01*
X73339960Y-81510040D02*
X74150000Y-80700000D01*
X124139960Y-97805240D02*
X124139960Y-100159400D01*
X124139960Y-100159400D02*
X124137420Y-100161940D01*
X121599960Y-97805240D02*
X121599960Y-100111140D01*
X121599960Y-100111140D02*
X121622820Y-100134000D01*
X119059960Y-97805240D02*
X119059960Y-100113680D01*
X119059960Y-100113680D02*
X119080280Y-100134000D01*
X116519960Y-97805240D02*
X116519960Y-100123840D01*
X116519960Y-100123840D02*
X116509800Y-100134000D01*
X113979960Y-97805240D02*
X113979960Y-100121300D01*
X113979960Y-100121300D02*
X113967260Y-100134000D01*
X111439960Y-97805240D02*
X111439960Y-100146700D01*
X111439960Y-100146700D02*
X111424720Y-100161940D01*
X108899960Y-97805240D02*
X108899960Y-100116220D01*
X108899960Y-100116220D02*
X108882180Y-100134000D01*
X106359960Y-97805240D02*
X106359960Y-100141620D01*
X106359960Y-100141620D02*
X106339640Y-100161940D01*
X86039960Y-97805240D02*
X86039960Y-102071718D01*
X85474998Y-102636680D02*
X75962460Y-102636680D01*
X86039960Y-102071718D02*
X85474998Y-102636680D01*
X75962460Y-103286680D02*
X87013320Y-103286680D01*
X88579960Y-101720040D02*
X88579960Y-97805240D01*
X87013320Y-103286680D02*
X88579960Y-101720040D01*
X71987460Y-102636680D02*
X71136680Y-102636680D01*
X71136680Y-102636680D02*
X70550000Y-102050000D01*
X71987460Y-103286680D02*
X70136680Y-103286680D01*
X79700000Y-99500000D02*
X80959960Y-98240040D01*
X70550000Y-99500000D02*
X79700000Y-99500000D01*
X69550000Y-100500000D02*
X70550000Y-99500000D01*
X69550000Y-102700000D02*
X69550000Y-100500000D01*
X70136680Y-103286680D02*
X69550000Y-102700000D01*
X80959960Y-98240040D02*
X80959960Y-97805240D01*
X72999960Y-101624180D02*
X72999960Y-100557600D01*
X72999960Y-100557600D02*
X72833320Y-100390960D01*
X74949960Y-101624180D02*
X77198180Y-101624180D01*
X77198180Y-101624180D02*
X77199400Y-101625400D01*
X74299960Y-101624180D02*
X74299960Y-100831680D01*
X74299960Y-100831680D02*
X74745760Y-100385880D01*
D34*
X72999960Y-105599180D02*
X71025220Y-105599180D01*
X71025220Y-105599180D02*
X70858800Y-105765600D01*
D35*
X74949960Y-105599180D02*
X76924700Y-105599180D01*
X76924700Y-105599180D02*
X77070800Y-105745280D01*
D34*
X96199960Y-97805240D02*
X96199960Y-103199960D01*
X99000000Y-111500000D02*
X100000000Y-111500000D01*
X96500000Y-109000000D02*
X99000000Y-111500000D01*
X96199960Y-103199960D02*
X96500000Y-103500000D01*
X89270040Y-111383200D02*
X89270040Y-110229960D01*
X100106640Y-111393360D02*
X101370600Y-111393360D01*
X100000000Y-111500000D02*
X100106640Y-111393360D01*
X89270040Y-110229960D02*
X89500000Y-110000000D01*
X102620600Y-111393360D02*
X102620600Y-110120600D01*
X98739960Y-100739960D02*
X98739960Y-97805240D01*
X99000000Y-101000000D02*
X98739960Y-100739960D01*
X101000000Y-106000000D02*
X100500000Y-105500000D01*
X101000000Y-108500000D02*
X101000000Y-106000000D01*
X102620600Y-110120600D02*
X101000000Y-108500000D01*
X102620600Y-111393360D02*
X102620600Y-112379400D01*
X90520040Y-113520040D02*
X90520040Y-111383200D01*
X91000000Y-114000000D02*
X90520040Y-113520040D01*
X102000000Y-113000000D02*
X101000000Y-113000000D01*
X102620600Y-112379400D02*
X102000000Y-113000000D01*
X105120600Y-110120600D02*
X105120600Y-111393360D01*
X105000000Y-110000000D02*
X105120600Y-110120600D01*
X97500000Y-102000000D02*
X97500000Y-103500000D01*
X97500000Y-99000000D02*
X97500000Y-102000000D01*
X93020040Y-111383200D02*
X93020040Y-107520040D01*
X91119960Y-100380040D02*
X91119960Y-97805240D01*
X88500000Y-103000000D02*
X91119960Y-100380040D01*
X88500000Y-103500000D02*
X88500000Y-103000000D01*
X92000000Y-106500000D02*
X92000000Y-105500000D01*
X93020040Y-107520040D02*
X92000000Y-106500000D01*
D35*
X103870600Y-111393360D02*
X103870600Y-110357424D01*
X98739960Y-91160040D02*
X98739960Y-82565240D01*
X98200000Y-91700000D02*
X98739960Y-91160040D01*
X101750000Y-108236824D02*
X101750000Y-107800000D01*
X103870600Y-110357424D02*
X101750000Y-108236824D01*
X91770040Y-111383200D02*
X91770040Y-112770040D01*
X103870600Y-112620600D02*
X103870600Y-111393360D01*
X103900000Y-112650000D02*
X103870600Y-112620600D01*
X93850000Y-114850000D02*
X95750000Y-114850000D01*
X91770040Y-112770040D02*
X93850000Y-114850000D01*
X113450000Y-112000000D02*
X114000000Y-112000000D01*
X114000000Y-112000000D02*
X114550000Y-112000000D01*
X73649960Y-105599180D02*
X73649960Y-106598600D01*
D36*
X71953760Y-108304960D02*
X70311520Y-108304960D01*
X73027540Y-107231180D02*
X71953760Y-108304960D01*
X73027540Y-107221020D02*
X73027540Y-107231180D01*
D35*
X73649960Y-106598600D02*
X73027540Y-107221020D01*
X74299960Y-105599180D02*
X74317859Y-107571471D01*
D36*
X82036160Y-110287560D02*
X82036160Y-108325280D01*
X81577180Y-110746540D02*
X82036160Y-110287560D01*
X79451200Y-110746540D02*
X81577180Y-110746540D01*
X78719680Y-110015020D02*
X79451200Y-110746540D01*
X77746860Y-110015020D02*
X78719680Y-110015020D01*
X74317859Y-107571471D02*
X77746860Y-110015020D01*
X79588360Y-105443020D02*
X79595980Y-105443020D01*
X77131820Y-104586680D02*
X77134000Y-104584500D01*
X77134000Y-104584500D02*
X78719680Y-104584500D01*
X78719680Y-104584500D02*
X79578200Y-105443020D01*
X79578200Y-105443020D02*
X79588360Y-105443020D01*
D35*
X75962460Y-104586680D02*
X77131820Y-104586680D01*
D36*
X80036160Y-105883200D02*
X80036160Y-108325280D01*
X79595980Y-105443020D02*
X80036160Y-105883200D01*
D35*
X71987460Y-104586680D02*
X70761500Y-104586680D01*
D36*
X68311520Y-105561640D02*
X68311520Y-108304960D01*
X69357240Y-104515920D02*
X68311520Y-105561640D01*
X70690740Y-104515920D02*
X69357240Y-104515920D01*
X70761500Y-104586680D02*
X70690740Y-104515920D01*
D35*
X70799960Y-97805240D02*
X70799960Y-97350040D01*
X70799960Y-97350040D02*
X71900000Y-96250000D01*
X71900000Y-96250000D02*
X80200000Y-96250000D01*
X84400000Y-96250000D02*
X92050000Y-96250000D01*
X92050000Y-96250000D02*
X107050000Y-96250000D01*
X68259960Y-96440040D02*
X68259960Y-97805240D01*
X69400000Y-95300000D02*
X68259960Y-96440040D01*
X72550000Y-95300000D02*
X69400000Y-95300000D01*
X101050000Y-95400000D02*
X82850000Y-95400000D01*
X101100000Y-95350000D02*
X101050000Y-95400000D01*
D34*
G36*
X66852252Y-65452252D02*
X66730318Y-65634740D01*
X66687499Y-65850000D01*
X66687500Y-65850005D01*
X66687500Y-67623293D01*
X66683401Y-67625931D01*
X66597777Y-67751246D01*
X66567654Y-67900000D01*
X66567654Y-69600000D01*
X66593802Y-69738966D01*
X66675931Y-69866599D01*
X66801246Y-69952223D01*
X66950000Y-69982346D01*
X67550000Y-69982346D01*
X67688966Y-69956198D01*
X67816599Y-69874069D01*
X67875380Y-69788040D01*
X67925931Y-69866599D01*
X67937500Y-69874504D01*
X67937500Y-70349995D01*
X67937499Y-70350000D01*
X67967654Y-70501595D01*
X67967654Y-70750000D01*
X67993802Y-70888966D01*
X68075931Y-71016599D01*
X68087500Y-71024504D01*
X68087500Y-73282176D01*
X67857827Y-73281976D01*
X67593874Y-73391040D01*
X67391749Y-73592812D01*
X67282225Y-73856574D01*
X67281976Y-74142173D01*
X67391040Y-74406126D01*
X67592812Y-74608251D01*
X67856574Y-74717775D01*
X68010803Y-74717909D01*
X68087500Y-74794607D01*
X68087500Y-75638822D01*
X68061034Y-75643802D01*
X67933401Y-75725931D01*
X67874620Y-75811960D01*
X67824069Y-75733401D01*
X67698754Y-75647777D01*
X67550000Y-75617654D01*
X66950000Y-75617654D01*
X66811034Y-75643802D01*
X66683401Y-75725931D01*
X66597777Y-75851246D01*
X66567654Y-76000000D01*
X66567654Y-77700000D01*
X66593802Y-77838966D01*
X66675931Y-77966599D01*
X66687500Y-77974504D01*
X66687500Y-79603045D01*
X66582225Y-79856574D01*
X66581976Y-80142173D01*
X66691040Y-80406126D01*
X66892812Y-80608251D01*
X67099018Y-80693876D01*
X66646447Y-81146447D01*
X66538060Y-81308658D01*
X66500000Y-81500000D01*
X66500000Y-81749842D01*
X66455701Y-81794141D01*
X66373788Y-81622790D01*
X65963359Y-81444320D01*
X65515874Y-81436500D01*
X65099459Y-81600521D01*
X65066132Y-81622790D01*
X64984218Y-81794142D01*
X65719960Y-82529885D01*
X65734102Y-82515742D01*
X65769458Y-82551098D01*
X65755315Y-82565240D01*
X65769458Y-82579382D01*
X65734102Y-82614738D01*
X65719960Y-82600595D01*
X64984218Y-83336338D01*
X65066132Y-83507690D01*
X65476561Y-83686160D01*
X65924046Y-83693980D01*
X66340461Y-83529959D01*
X66373788Y-83507690D01*
X66455701Y-83336339D01*
X66500000Y-83380638D01*
X66500000Y-83500000D01*
X66537029Y-83686160D01*
X66538060Y-83691342D01*
X66646447Y-83853553D01*
X76996446Y-94203553D01*
X77093709Y-94268542D01*
X77158658Y-94311940D01*
X77350000Y-94350000D01*
X90734750Y-94350000D01*
X90842812Y-94458251D01*
X91106574Y-94567775D01*
X91392173Y-94568024D01*
X91656126Y-94458960D01*
X91858251Y-94257188D01*
X91967775Y-93993426D01*
X91968024Y-93707827D01*
X91858960Y-93443874D01*
X91657188Y-93241749D01*
X91393426Y-93132225D01*
X91327663Y-93132168D01*
X90969563Y-92774068D01*
X91006126Y-92758960D01*
X91208251Y-92557188D01*
X91317775Y-92293426D01*
X91318024Y-92007827D01*
X91208960Y-91743874D01*
X91007188Y-91541749D01*
X90743426Y-91432225D01*
X90677663Y-91432168D01*
X90412500Y-91167004D01*
X90412500Y-83519697D01*
X90453507Y-83560776D01*
X90885213Y-83740036D01*
X91352657Y-83740444D01*
X91784675Y-83561938D01*
X92115496Y-83231693D01*
X92294756Y-82799987D01*
X92294757Y-82797937D01*
X92484756Y-82797937D01*
X92663262Y-83229955D01*
X92993507Y-83560776D01*
X93425213Y-83740036D01*
X93892657Y-83740444D01*
X94324675Y-83561938D01*
X94655496Y-83231693D01*
X94834756Y-82799987D01*
X94834757Y-82797937D01*
X95024756Y-82797937D01*
X95203262Y-83229955D01*
X95533507Y-83560776D01*
X95965213Y-83740036D01*
X96432657Y-83740444D01*
X96864675Y-83561938D01*
X97195496Y-83231693D01*
X97374756Y-82799987D01*
X97375164Y-82332543D01*
X97196658Y-81900525D01*
X96866413Y-81569704D01*
X96434707Y-81390444D01*
X95967263Y-81390036D01*
X95535245Y-81568542D01*
X95204424Y-81898787D01*
X95025164Y-82330493D01*
X95024756Y-82797937D01*
X94834757Y-82797937D01*
X94835164Y-82332543D01*
X94656658Y-81900525D01*
X94326413Y-81569704D01*
X93894707Y-81390444D01*
X93427263Y-81390036D01*
X92995245Y-81568542D01*
X92664424Y-81898787D01*
X92485164Y-82330493D01*
X92484756Y-82797937D01*
X92294757Y-82797937D01*
X92295164Y-82332543D01*
X92116658Y-81900525D01*
X91786413Y-81569704D01*
X91354707Y-81390444D01*
X90887263Y-81390036D01*
X90455245Y-81568542D01*
X90412500Y-81611213D01*
X90412500Y-80700005D01*
X90412501Y-80700000D01*
X90369682Y-80484741D01*
X90317863Y-80407188D01*
X90247748Y-80302252D01*
X90247745Y-80302250D01*
X88932346Y-78986850D01*
X88932346Y-78550000D01*
X88906198Y-78411034D01*
X88824069Y-78283401D01*
X88812500Y-78275496D01*
X88812500Y-77976707D01*
X88816599Y-77974069D01*
X88902223Y-77848754D01*
X88932346Y-77700000D01*
X88932346Y-76242156D01*
X96104550Y-76242156D01*
X96359016Y-76858012D01*
X96829790Y-77329608D01*
X97445200Y-77585148D01*
X98111556Y-77585730D01*
X98727412Y-77331264D01*
X99199008Y-76860490D01*
X99454548Y-76245080D01*
X99455130Y-75578724D01*
X99200664Y-74962868D01*
X98729890Y-74491272D01*
X98114480Y-74235732D01*
X97448124Y-74235150D01*
X96832268Y-74489616D01*
X96360672Y-74960390D01*
X96105132Y-75575800D01*
X96104550Y-76242156D01*
X88932346Y-76242156D01*
X88932346Y-76000000D01*
X88906198Y-75861034D01*
X88824069Y-75733401D01*
X88722346Y-75663897D01*
X88720842Y-75661646D01*
X88647748Y-75552252D01*
X88647745Y-75552250D01*
X88197748Y-75102252D01*
X88015260Y-74980318D01*
X87800000Y-74937499D01*
X87799995Y-74937500D01*
X84774752Y-74937500D01*
X84782346Y-74900000D01*
X84782346Y-72100000D01*
X89217654Y-72100000D01*
X89217654Y-74900000D01*
X89243802Y-75038966D01*
X89325931Y-75166599D01*
X89451246Y-75252223D01*
X89600000Y-75282346D01*
X90600000Y-75282346D01*
X90738966Y-75256198D01*
X90866599Y-75174069D01*
X90952223Y-75048754D01*
X90982346Y-74900000D01*
X90982346Y-73702156D01*
X102454550Y-73702156D01*
X102709016Y-74318012D01*
X103179790Y-74789608D01*
X103795200Y-75045148D01*
X104461556Y-75045730D01*
X105077412Y-74791264D01*
X105549008Y-74320490D01*
X105804548Y-73705080D01*
X105805130Y-73038724D01*
X105550664Y-72422868D01*
X105183319Y-72054882D01*
X105642365Y-72055282D01*
X106092631Y-71869236D01*
X106437425Y-71525043D01*
X106624257Y-71075103D01*
X106624682Y-70587915D01*
X106438636Y-70137649D01*
X106094443Y-69792855D01*
X105644503Y-69606023D01*
X105157315Y-69605598D01*
X104707049Y-69791644D01*
X104362255Y-70135837D01*
X104175423Y-70585777D01*
X104174998Y-71072965D01*
X104361044Y-71523231D01*
X104581928Y-71744500D01*
X104464480Y-71695732D01*
X103798124Y-71695150D01*
X103182268Y-71949616D01*
X102710672Y-72420390D01*
X102455132Y-73035800D01*
X102454550Y-73702156D01*
X90982346Y-73702156D01*
X90982346Y-72100000D01*
X90956198Y-71961034D01*
X90874069Y-71833401D01*
X90748754Y-71747777D01*
X90600000Y-71717654D01*
X89600000Y-71717654D01*
X89461034Y-71743802D01*
X89333401Y-71825931D01*
X89247777Y-71951246D01*
X89217654Y-72100000D01*
X84782346Y-72100000D01*
X84756198Y-71961034D01*
X84674069Y-71833401D01*
X84548754Y-71747777D01*
X84400000Y-71717654D01*
X83400000Y-71717654D01*
X83261034Y-71743802D01*
X83133401Y-71825931D01*
X83047777Y-71951246D01*
X83017654Y-72100000D01*
X83017654Y-74900000D01*
X83043802Y-75038966D01*
X83125931Y-75166599D01*
X83251246Y-75252223D01*
X83400000Y-75282346D01*
X83572159Y-75282346D01*
X82567004Y-76287500D01*
X79832346Y-76287500D01*
X79832346Y-76000000D01*
X79806198Y-75861034D01*
X79724069Y-75733401D01*
X79712500Y-75725496D01*
X79712500Y-72100000D01*
X80117654Y-72100000D01*
X80117654Y-74900000D01*
X80143802Y-75038966D01*
X80225931Y-75166599D01*
X80351246Y-75252223D01*
X80500000Y-75282346D01*
X81500000Y-75282346D01*
X81638966Y-75256198D01*
X81766599Y-75174069D01*
X81852223Y-75048754D01*
X81882346Y-74900000D01*
X81882346Y-72100000D01*
X81856198Y-71961034D01*
X81774069Y-71833401D01*
X81648754Y-71747777D01*
X81500000Y-71717654D01*
X80500000Y-71717654D01*
X80361034Y-71743802D01*
X80233401Y-71825931D01*
X80147777Y-71951246D01*
X80117654Y-72100000D01*
X79712500Y-72100000D01*
X79712500Y-71072965D01*
X94014998Y-71072965D01*
X94201044Y-71523231D01*
X94545237Y-71868025D01*
X94995177Y-72054857D01*
X95482365Y-72055282D01*
X95932631Y-71869236D01*
X96277425Y-71525043D01*
X96371360Y-71298822D01*
X97954340Y-71298822D01*
X98313645Y-72168406D01*
X98978375Y-72834297D01*
X99847331Y-73195119D01*
X100788222Y-73195940D01*
X101657806Y-72836635D01*
X102323697Y-72171905D01*
X102684519Y-71302949D01*
X102685340Y-70362058D01*
X102326035Y-69492474D01*
X101661305Y-68826583D01*
X100792349Y-68465761D01*
X99851458Y-68464940D01*
X98981874Y-68824245D01*
X98315983Y-69488975D01*
X97955161Y-70357931D01*
X97954340Y-71298822D01*
X96371360Y-71298822D01*
X96464257Y-71075103D01*
X96464682Y-70587915D01*
X96278636Y-70137649D01*
X95934443Y-69792855D01*
X95484503Y-69606023D01*
X94997315Y-69605598D01*
X94547049Y-69791644D01*
X94202255Y-70135837D01*
X94015423Y-70585777D01*
X94014998Y-71072965D01*
X79712500Y-71072965D01*
X79712500Y-70948004D01*
X79732346Y-70850000D01*
X79732346Y-70350000D01*
X79712500Y-70244527D01*
X79712500Y-69876707D01*
X79716599Y-69874069D01*
X79802223Y-69748754D01*
X79832346Y-69600000D01*
X79832346Y-67962500D01*
X81749995Y-67962500D01*
X81750000Y-67962501D01*
X81965260Y-67919682D01*
X82147748Y-67797748D01*
X85457993Y-64487502D01*
X109392006Y-64487502D01*
X110937500Y-66032995D01*
X110937500Y-81501500D01*
X110775245Y-81568542D01*
X110444424Y-81898787D01*
X110265164Y-82330493D01*
X110264756Y-82797937D01*
X110443262Y-83229955D01*
X110773507Y-83560776D01*
X111205213Y-83740036D01*
X111672657Y-83740444D01*
X112104675Y-83561938D01*
X112435496Y-83231693D01*
X112614756Y-82799987D01*
X112615164Y-82332543D01*
X112436658Y-81900525D01*
X112106413Y-81569704D01*
X112062500Y-81551470D01*
X112062500Y-81192173D01*
X112231976Y-81192173D01*
X112341040Y-81456126D01*
X112542812Y-81658251D01*
X112806574Y-81767775D01*
X112872337Y-81767832D01*
X112993866Y-81889362D01*
X112984424Y-81898787D01*
X112805164Y-82330493D01*
X112804756Y-82797937D01*
X112983262Y-83229955D01*
X113313507Y-83560776D01*
X113745213Y-83740036D01*
X114212657Y-83740444D01*
X114644675Y-83561938D01*
X114975496Y-83231693D01*
X115154756Y-82799987D01*
X115154757Y-82797937D01*
X115344756Y-82797937D01*
X115523262Y-83229955D01*
X115853507Y-83560776D01*
X116285213Y-83740036D01*
X116752657Y-83740444D01*
X117184675Y-83561938D01*
X117515496Y-83231693D01*
X117694756Y-82799987D01*
X117695164Y-82332543D01*
X117516658Y-81900525D01*
X117186413Y-81569704D01*
X116754707Y-81390444D01*
X116287263Y-81390036D01*
X115855245Y-81568542D01*
X115524424Y-81898787D01*
X115345164Y-82330493D01*
X115344756Y-82797937D01*
X115154757Y-82797937D01*
X115155164Y-82332543D01*
X114976658Y-81900525D01*
X114646413Y-81569704D01*
X114214707Y-81390444D01*
X114085827Y-81390332D01*
X113667968Y-80972472D01*
X113668024Y-80907827D01*
X113558960Y-80643874D01*
X113357188Y-80441749D01*
X113093426Y-80332225D01*
X112807827Y-80331976D01*
X112543874Y-80441040D01*
X112341749Y-80642812D01*
X112232225Y-80906574D01*
X112231976Y-81192173D01*
X112062500Y-81192173D01*
X112062500Y-79577624D01*
X112242812Y-79758251D01*
X112506574Y-79867775D01*
X112792173Y-79868024D01*
X112805542Y-79862500D01*
X114883574Y-79862500D01*
X114782225Y-80106574D01*
X114781976Y-80392173D01*
X114891040Y-80656126D01*
X115092812Y-80858251D01*
X115356574Y-80967775D01*
X115642173Y-80968024D01*
X115906126Y-80858960D01*
X115952667Y-80812500D01*
X118217004Y-80812500D01*
X118497460Y-81092955D01*
X118497460Y-81526308D01*
X118395245Y-81568542D01*
X118064424Y-81898787D01*
X117885164Y-82330493D01*
X117884756Y-82797937D01*
X118063262Y-83229955D01*
X118393507Y-83560776D01*
X118825213Y-83740036D01*
X119292657Y-83740444D01*
X119724675Y-83561938D01*
X120055496Y-83231693D01*
X120234756Y-82799987D01*
X120235164Y-82332543D01*
X120056658Y-81900525D01*
X119726413Y-81569704D01*
X119622460Y-81526539D01*
X119622460Y-80859965D01*
X119622461Y-80859960D01*
X119579642Y-80644701D01*
X119524718Y-80562501D01*
X119457708Y-80462212D01*
X119457705Y-80462210D01*
X118857996Y-79862500D01*
X120217004Y-79862500D01*
X121037460Y-80682956D01*
X121037460Y-81526308D01*
X120935245Y-81568542D01*
X120604424Y-81898787D01*
X120425164Y-82330493D01*
X120424756Y-82797937D01*
X120603262Y-83229955D01*
X120933507Y-83560776D01*
X121365213Y-83740036D01*
X121832657Y-83740444D01*
X122264675Y-83561938D01*
X122595496Y-83231693D01*
X122774756Y-82799987D01*
X122775164Y-82332543D01*
X122596658Y-81900525D01*
X122266413Y-81569704D01*
X122162460Y-81526539D01*
X122162460Y-80449965D01*
X122162461Y-80449960D01*
X122119642Y-80234700D01*
X121997708Y-80052212D01*
X120847748Y-78902252D01*
X120665260Y-78780318D01*
X120450000Y-78737499D01*
X120449995Y-78737500D01*
X113252597Y-78737500D01*
X113057188Y-78541749D01*
X112793426Y-78432225D01*
X112507827Y-78431976D01*
X112243874Y-78541040D01*
X112062500Y-78722097D01*
X112062500Y-76318356D01*
X114123310Y-76318356D01*
X114377776Y-76934212D01*
X114848550Y-77405808D01*
X115463960Y-77661348D01*
X116130316Y-77661930D01*
X116746172Y-77407464D01*
X117217768Y-76936690D01*
X117473308Y-76321280D01*
X117473890Y-75654924D01*
X117219424Y-75039068D01*
X116748650Y-74567472D01*
X116133240Y-74311932D01*
X115466884Y-74311350D01*
X114851028Y-74565816D01*
X114379432Y-75036590D01*
X114123892Y-75652000D01*
X114123310Y-76318356D01*
X112062500Y-76318356D01*
X112062500Y-73778356D01*
X120473310Y-73778356D01*
X120727776Y-74394212D01*
X121198550Y-74865808D01*
X121813960Y-75121348D01*
X122480316Y-75121930D01*
X123096172Y-74867464D01*
X123567768Y-74396690D01*
X123823308Y-73781280D01*
X123823890Y-73114924D01*
X123569424Y-72499068D01*
X123202079Y-72131082D01*
X123661125Y-72131482D01*
X124111391Y-71945436D01*
X124456185Y-71601243D01*
X124643017Y-71151303D01*
X124643442Y-70664115D01*
X124457396Y-70213849D01*
X124113203Y-69869055D01*
X123663263Y-69682223D01*
X123176075Y-69681798D01*
X122725809Y-69867844D01*
X122381015Y-70212037D01*
X122194183Y-70661977D01*
X122193758Y-71149165D01*
X122379804Y-71599431D01*
X122600688Y-71820700D01*
X122483240Y-71771932D01*
X121816884Y-71771350D01*
X121201028Y-72025816D01*
X120729432Y-72496590D01*
X120473892Y-73112000D01*
X120473310Y-73778356D01*
X112062500Y-73778356D01*
X112062500Y-71218726D01*
X112219804Y-71599431D01*
X112563997Y-71944225D01*
X113013937Y-72131057D01*
X113501125Y-72131482D01*
X113951391Y-71945436D01*
X114296185Y-71601243D01*
X114483017Y-71151303D01*
X114483442Y-70664115D01*
X114297396Y-70213849D01*
X113953203Y-69869055D01*
X113503263Y-69682223D01*
X113016075Y-69681798D01*
X112565809Y-69867844D01*
X112221015Y-70212037D01*
X112062500Y-70593782D01*
X112062500Y-65800005D01*
X112062501Y-65800000D01*
X112052071Y-65747567D01*
X114787500Y-68482995D01*
X114787500Y-70497141D01*
X114741749Y-70542812D01*
X114632225Y-70806574D01*
X114631976Y-71092173D01*
X114741040Y-71356126D01*
X114942812Y-71558251D01*
X115206574Y-71667775D01*
X115492173Y-71668024D01*
X115756126Y-71558960D01*
X115958251Y-71357188D01*
X115973147Y-71321315D01*
X115973100Y-71375022D01*
X116332405Y-72244606D01*
X116997135Y-72910497D01*
X117866091Y-73271319D01*
X118806982Y-73272140D01*
X119676566Y-72912835D01*
X120342457Y-72248105D01*
X120703279Y-71379149D01*
X120704100Y-70438258D01*
X120344795Y-69568674D01*
X119680065Y-68902783D01*
X118811109Y-68541961D01*
X117870218Y-68541140D01*
X117000634Y-68900445D01*
X116334743Y-69565175D01*
X115973921Y-70434131D01*
X115973794Y-70579775D01*
X115958960Y-70543874D01*
X115912500Y-70497333D01*
X115912500Y-68250000D01*
X115869682Y-68034741D01*
X115747748Y-67852252D01*
X115747745Y-67852250D01*
X110870496Y-62975000D01*
X126025000Y-62975000D01*
X126025000Y-116525000D01*
X62975000Y-116525000D01*
X62975000Y-110854960D01*
X64679174Y-110854960D01*
X64679174Y-114654960D01*
X64705322Y-114793926D01*
X64787451Y-114921559D01*
X64912766Y-115007183D01*
X65061520Y-115037306D01*
X66861520Y-115037306D01*
X67000486Y-115011158D01*
X67128119Y-114929029D01*
X67213743Y-114803714D01*
X67243866Y-114654960D01*
X67243866Y-110854960D01*
X71379174Y-110854960D01*
X71379174Y-114654960D01*
X71405322Y-114793926D01*
X71487451Y-114921559D01*
X71612766Y-115007183D01*
X71761520Y-115037306D01*
X73561520Y-115037306D01*
X73700486Y-115011158D01*
X73828119Y-114929029D01*
X73913743Y-114803714D01*
X73943866Y-114654960D01*
X73943866Y-110854960D01*
X73917718Y-110715994D01*
X73835589Y-110588361D01*
X73710274Y-110502737D01*
X73561520Y-110472614D01*
X71761520Y-110472614D01*
X71622554Y-110498762D01*
X71494921Y-110580891D01*
X71409297Y-110706206D01*
X71379174Y-110854960D01*
X67243866Y-110854960D01*
X67217718Y-110715994D01*
X67135589Y-110588361D01*
X67010274Y-110502737D01*
X66861520Y-110472614D01*
X65061520Y-110472614D01*
X64922554Y-110498762D01*
X64794921Y-110580891D01*
X64709297Y-110706206D01*
X64679174Y-110854960D01*
X62975000Y-110854960D01*
X62975000Y-97005240D01*
X64537614Y-97005240D01*
X64537614Y-98605240D01*
X64563762Y-98744206D01*
X64645891Y-98871839D01*
X64771206Y-98957463D01*
X64919960Y-98987586D01*
X66519960Y-98987586D01*
X66658926Y-98961438D01*
X66786559Y-98879309D01*
X66872183Y-98753994D01*
X66902306Y-98605240D01*
X66902306Y-98037937D01*
X67084756Y-98037937D01*
X67263262Y-98469955D01*
X67593507Y-98800776D01*
X68025213Y-98980036D01*
X68492657Y-98980444D01*
X68924675Y-98801938D01*
X69255496Y-98471693D01*
X69434756Y-98039987D01*
X69435164Y-97572543D01*
X69256658Y-97140525D01*
X68926413Y-96809704D01*
X68822460Y-96766539D01*
X68822460Y-96673036D01*
X69632996Y-95862500D01*
X71492005Y-95862500D01*
X70724331Y-96630173D01*
X70567263Y-96630036D01*
X70135245Y-96808542D01*
X69804424Y-97138787D01*
X69625164Y-97570493D01*
X69624756Y-98037937D01*
X69803262Y-98469955D01*
X70133507Y-98800776D01*
X70491025Y-98949230D01*
X70336159Y-98980036D01*
X70334741Y-98980318D01*
X70152252Y-99102252D01*
X70152250Y-99102255D01*
X69152252Y-100102252D01*
X69030318Y-100284740D01*
X68987499Y-100500000D01*
X68987500Y-100500005D01*
X68987500Y-102699995D01*
X68987499Y-102700000D01*
X69030318Y-102915260D01*
X69152252Y-103097748D01*
X69695425Y-103640920D01*
X69357240Y-103640920D01*
X69103750Y-103691342D01*
X69022391Y-103707525D01*
X68738521Y-103897202D01*
X67692802Y-104942922D01*
X67503125Y-105226792D01*
X67436520Y-105561640D01*
X67436520Y-106918684D01*
X67429174Y-106954960D01*
X67429174Y-109654960D01*
X67455322Y-109793926D01*
X67537451Y-109921559D01*
X67662766Y-110007183D01*
X67811520Y-110037306D01*
X68811520Y-110037306D01*
X68950486Y-110011158D01*
X69078119Y-109929029D01*
X69163743Y-109803714D01*
X69193866Y-109654960D01*
X69193866Y-106954960D01*
X69186520Y-106915919D01*
X69186520Y-106676400D01*
X69406574Y-106767775D01*
X69485509Y-106767844D01*
X69459297Y-106806206D01*
X69429174Y-106954960D01*
X69429174Y-109654960D01*
X69455322Y-109793926D01*
X69537451Y-109921559D01*
X69662766Y-110007183D01*
X69811520Y-110037306D01*
X70811520Y-110037306D01*
X70950486Y-110011158D01*
X71078119Y-109929029D01*
X71163743Y-109803714D01*
X71193866Y-109654960D01*
X71193866Y-109179960D01*
X71953760Y-109179960D01*
X72288608Y-109113355D01*
X72572478Y-108923678D01*
X73544299Y-107951857D01*
X73576026Y-108035485D01*
X73810065Y-108284051D01*
X76909762Y-110492934D01*
X76786160Y-110492934D01*
X76647194Y-110519082D01*
X76519561Y-110601211D01*
X76433937Y-110726526D01*
X76403814Y-110875280D01*
X76403814Y-114675280D01*
X76429962Y-114814246D01*
X76512091Y-114941879D01*
X76637406Y-115027503D01*
X76786160Y-115057626D01*
X78586160Y-115057626D01*
X78725126Y-115031478D01*
X78852759Y-114949349D01*
X78938383Y-114824034D01*
X78968506Y-114675280D01*
X78968506Y-111456147D01*
X79110831Y-111551246D01*
X79116352Y-111554935D01*
X79451200Y-111621540D01*
X81577180Y-111621540D01*
X81912028Y-111554935D01*
X82195898Y-111365258D01*
X82654879Y-110906278D01*
X82675591Y-110875280D01*
X83103814Y-110875280D01*
X83103814Y-114675280D01*
X83129962Y-114814246D01*
X83212091Y-114941879D01*
X83337406Y-115027503D01*
X83486160Y-115057626D01*
X85286160Y-115057626D01*
X85425126Y-115031478D01*
X85552759Y-114949349D01*
X85638383Y-114824034D01*
X85668506Y-114675280D01*
X85668506Y-113233200D01*
X86537694Y-113233200D01*
X86537694Y-115933200D01*
X86563842Y-116072166D01*
X86645971Y-116199799D01*
X86771286Y-116285423D01*
X86920040Y-116315546D01*
X87920040Y-116315546D01*
X88059006Y-116289398D01*
X88186639Y-116207269D01*
X88272263Y-116081954D01*
X88302386Y-115933200D01*
X88302386Y-113233200D01*
X88276238Y-113094234D01*
X88194109Y-112966601D01*
X88068794Y-112880977D01*
X87920040Y-112850854D01*
X86920040Y-112850854D01*
X86781074Y-112877002D01*
X86653441Y-112959131D01*
X86567817Y-113084446D01*
X86537694Y-113233200D01*
X85668506Y-113233200D01*
X85668506Y-110875280D01*
X85642358Y-110736314D01*
X85560229Y-110608681D01*
X85434914Y-110523057D01*
X85286160Y-110492934D01*
X83486160Y-110492934D01*
X83347194Y-110519082D01*
X83219561Y-110601211D01*
X83133937Y-110726526D01*
X83103814Y-110875280D01*
X82675591Y-110875280D01*
X82844555Y-110622408D01*
X82911160Y-110287560D01*
X82911160Y-109711556D01*
X82918506Y-109675280D01*
X82918506Y-106975280D01*
X82892358Y-106836314D01*
X82810229Y-106708681D01*
X82684914Y-106623057D01*
X82536160Y-106592934D01*
X81536160Y-106592934D01*
X81397194Y-106619082D01*
X81269561Y-106701211D01*
X81183937Y-106826526D01*
X81153814Y-106975280D01*
X81153814Y-109675280D01*
X81161160Y-109714321D01*
X81161160Y-109871540D01*
X80855924Y-109871540D01*
X80888383Y-109824034D01*
X80918506Y-109675280D01*
X80918506Y-106975280D01*
X80911160Y-106936239D01*
X80911160Y-105883200D01*
X80844555Y-105548352D01*
X80811336Y-105498637D01*
X80654879Y-105264482D01*
X80390397Y-105000000D01*
X89017654Y-105000000D01*
X89017654Y-107800000D01*
X89043802Y-107938966D01*
X89125931Y-108066599D01*
X89251246Y-108152223D01*
X89400000Y-108182346D01*
X90400000Y-108182346D01*
X90538966Y-108156198D01*
X90666599Y-108074069D01*
X90752223Y-107948754D01*
X90782346Y-107800000D01*
X90782346Y-105000000D01*
X90756198Y-104861034D01*
X90674069Y-104733401D01*
X90548754Y-104647777D01*
X90400000Y-104617654D01*
X89400000Y-104617654D01*
X89261034Y-104643802D01*
X89133401Y-104725931D01*
X89047777Y-104851246D01*
X89017654Y-105000000D01*
X80390397Y-105000000D01*
X80214698Y-104824302D01*
X80161117Y-104788500D01*
X79338398Y-103965782D01*
X79163892Y-103849180D01*
X87013315Y-103849180D01*
X87013320Y-103849181D01*
X87228580Y-103806362D01*
X87411068Y-103684428D01*
X87812975Y-103282521D01*
X87782225Y-103356574D01*
X87781976Y-103642173D01*
X87891040Y-103906126D01*
X88092812Y-104108251D01*
X88356574Y-104217775D01*
X88642173Y-104218024D01*
X88906126Y-104108960D01*
X89108251Y-103907188D01*
X89217775Y-103643426D01*
X89217797Y-103618626D01*
X89456574Y-103717775D01*
X89742173Y-103718024D01*
X89997559Y-103612500D01*
X91067654Y-103612500D01*
X91067654Y-103900000D01*
X91093802Y-104038966D01*
X91175931Y-104166599D01*
X91301246Y-104252223D01*
X91450000Y-104282346D01*
X92050000Y-104282346D01*
X92188966Y-104256198D01*
X92316599Y-104174069D01*
X92375380Y-104088040D01*
X92425931Y-104166599D01*
X92437500Y-104174504D01*
X92437500Y-104922114D01*
X92407188Y-104891749D01*
X92143426Y-104782225D01*
X91857827Y-104781976D01*
X91593874Y-104891040D01*
X91391749Y-105092812D01*
X91282225Y-105356574D01*
X91281976Y-105642173D01*
X91391040Y-105906126D01*
X91500000Y-106015277D01*
X91500000Y-106500000D01*
X91531478Y-106658251D01*
X91538060Y-106691342D01*
X91646447Y-106853553D01*
X92520040Y-107727147D01*
X92520040Y-110216276D01*
X92453441Y-110259131D01*
X92394660Y-110345160D01*
X92344109Y-110266601D01*
X92218794Y-110180977D01*
X92070040Y-110150854D01*
X91470040Y-110150854D01*
X91331074Y-110177002D01*
X91203441Y-110259131D01*
X91144660Y-110345160D01*
X91094109Y-110266601D01*
X90968794Y-110180977D01*
X90820040Y-110150854D01*
X90220040Y-110150854D01*
X90214237Y-110151946D01*
X90217775Y-110143426D01*
X90218024Y-109857827D01*
X90108960Y-109593874D01*
X89907188Y-109391749D01*
X89643426Y-109282225D01*
X89357827Y-109281976D01*
X89093874Y-109391040D01*
X88891749Y-109592812D01*
X88782225Y-109856574D01*
X88781976Y-110142173D01*
X88785706Y-110151201D01*
X88773161Y-110214267D01*
X88703441Y-110259131D01*
X88617817Y-110384446D01*
X88587694Y-110533200D01*
X88587694Y-112233200D01*
X88613842Y-112372166D01*
X88695971Y-112499799D01*
X88821286Y-112585423D01*
X88970040Y-112615546D01*
X89570040Y-112615546D01*
X89709006Y-112589398D01*
X89836639Y-112507269D01*
X89895420Y-112421240D01*
X89945971Y-112499799D01*
X90020040Y-112550408D01*
X90020040Y-113520040D01*
X90045184Y-113646447D01*
X90058100Y-113711382D01*
X90166487Y-113873593D01*
X90282109Y-113989215D01*
X90281976Y-114142173D01*
X90391040Y-114406126D01*
X90592812Y-114608251D01*
X90856574Y-114717775D01*
X91142173Y-114718024D01*
X91406126Y-114608960D01*
X91608251Y-114407188D01*
X91717775Y-114143426D01*
X91718024Y-113857827D01*
X91608960Y-113593874D01*
X91407188Y-113391749D01*
X91143426Y-113282225D01*
X91020040Y-113282117D01*
X91020040Y-112550124D01*
X91086639Y-112507269D01*
X91145420Y-112421240D01*
X91195971Y-112499799D01*
X91207540Y-112507704D01*
X91207540Y-112770035D01*
X91207539Y-112770040D01*
X91250358Y-112985300D01*
X91372292Y-113167788D01*
X93452250Y-115247745D01*
X93452252Y-115247748D01*
X93634741Y-115369682D01*
X93850000Y-115412501D01*
X93850005Y-115412500D01*
X95297141Y-115412500D01*
X95342812Y-115458251D01*
X95606574Y-115567775D01*
X95892173Y-115568024D01*
X96156126Y-115458960D01*
X96358251Y-115257188D01*
X96467775Y-114993426D01*
X96468024Y-114707827D01*
X96391799Y-114523349D01*
X96487694Y-114427622D01*
X96487694Y-115933200D01*
X96513842Y-116072166D01*
X96595971Y-116199799D01*
X96721286Y-116285423D01*
X96870040Y-116315546D01*
X97870040Y-116315546D01*
X98009006Y-116289398D01*
X98136639Y-116207269D01*
X98222263Y-116081954D01*
X98252386Y-115933200D01*
X98252386Y-113233200D01*
X98226238Y-113094234D01*
X98144109Y-112966601D01*
X98018794Y-112880977D01*
X97870040Y-112850854D01*
X96870040Y-112850854D01*
X96731074Y-112877002D01*
X96603441Y-112959131D01*
X96517817Y-113084446D01*
X96487694Y-113233200D01*
X96487694Y-113472483D01*
X96357188Y-113341749D01*
X96168038Y-113263207D01*
X96217775Y-113143426D01*
X96218024Y-112857827D01*
X96108960Y-112593874D01*
X96082540Y-112567408D01*
X96082540Y-112509907D01*
X96086639Y-112507269D01*
X96172263Y-112381954D01*
X96202386Y-112233200D01*
X96202386Y-110533200D01*
X96176238Y-110394234D01*
X96094109Y-110266601D01*
X95968794Y-110180977D01*
X95820040Y-110150854D01*
X95220040Y-110150854D01*
X95081074Y-110177002D01*
X94953441Y-110259131D01*
X94894660Y-110345160D01*
X94844109Y-110266601D01*
X94832540Y-110258696D01*
X94832540Y-107570045D01*
X94832541Y-107570040D01*
X94789722Y-107354781D01*
X94766270Y-107319682D01*
X94667788Y-107172292D01*
X94667785Y-107172290D01*
X93562500Y-106067004D01*
X93562500Y-105412500D01*
X94849995Y-105412500D01*
X94850000Y-105412501D01*
X95065260Y-105369682D01*
X95217654Y-105267856D01*
X95217654Y-107800000D01*
X95243802Y-107938966D01*
X95325931Y-108066599D01*
X95451246Y-108152223D01*
X95600000Y-108182346D01*
X96600000Y-108182346D01*
X96738966Y-108156198D01*
X96866599Y-108074069D01*
X96952223Y-107948754D01*
X96982346Y-107800000D01*
X96982346Y-105000000D01*
X96975290Y-104962500D01*
X97425248Y-104962500D01*
X97417654Y-105000000D01*
X97417654Y-107800000D01*
X97443802Y-107938966D01*
X97525931Y-108066599D01*
X97651246Y-108152223D01*
X97800000Y-108182346D01*
X98800000Y-108182346D01*
X98938966Y-108156198D01*
X99066599Y-108074069D01*
X99152223Y-107948754D01*
X99182346Y-107800000D01*
X99182346Y-105262500D01*
X99821288Y-105262500D01*
X99782225Y-105356574D01*
X99781976Y-105642173D01*
X99891040Y-105906126D01*
X100092812Y-106108251D01*
X100356574Y-106217775D01*
X100500000Y-106217900D01*
X100500000Y-108500000D01*
X100536869Y-108685353D01*
X100538060Y-108691342D01*
X100646447Y-108853553D01*
X102058980Y-110266087D01*
X102054001Y-110269291D01*
X101995220Y-110355320D01*
X101944669Y-110276761D01*
X101819354Y-110191137D01*
X101670600Y-110161014D01*
X101070600Y-110161014D01*
X100931634Y-110187162D01*
X100804001Y-110269291D01*
X100718377Y-110394606D01*
X100688254Y-110543360D01*
X100688254Y-110893360D01*
X100408796Y-110893360D01*
X100407188Y-110891749D01*
X100143426Y-110782225D01*
X99857827Y-110781976D01*
X99593874Y-110891040D01*
X99484723Y-111000000D01*
X99207106Y-111000000D01*
X97217891Y-109010785D01*
X97218024Y-108857827D01*
X97108960Y-108593874D01*
X96907188Y-108391749D01*
X96643426Y-108282225D01*
X96357827Y-108281976D01*
X96093874Y-108391040D01*
X95891749Y-108592812D01*
X95782225Y-108856574D01*
X95781976Y-109142173D01*
X95891040Y-109406126D01*
X96092812Y-109608251D01*
X96356574Y-109717775D01*
X96510803Y-109717909D01*
X98646447Y-111853553D01*
X98808658Y-111961940D01*
X99000000Y-112000000D01*
X99484750Y-112000000D01*
X99592812Y-112108251D01*
X99856574Y-112217775D01*
X100142173Y-112218024D01*
X100406126Y-112108960D01*
X100608251Y-111907188D01*
X100613993Y-111893360D01*
X100688254Y-111893360D01*
X100688254Y-112243360D01*
X100707229Y-112344202D01*
X100593874Y-112391040D01*
X100391749Y-112592812D01*
X100282225Y-112856574D01*
X100282128Y-112968192D01*
X100169354Y-112891137D01*
X100020600Y-112861014D01*
X99020600Y-112861014D01*
X98881634Y-112887162D01*
X98754001Y-112969291D01*
X98668377Y-113094606D01*
X98638254Y-113243360D01*
X98638254Y-115943360D01*
X98664402Y-116082326D01*
X98746531Y-116209959D01*
X98871846Y-116295583D01*
X99020600Y-116325706D01*
X100020600Y-116325706D01*
X100159566Y-116299558D01*
X100287199Y-116217429D01*
X100372823Y-116092114D01*
X100402946Y-115943360D01*
X100402946Y-114468315D01*
X100442812Y-114508251D01*
X100706574Y-114617775D01*
X100992173Y-114618024D01*
X101256126Y-114508960D01*
X101302667Y-114462500D01*
X105449995Y-114462500D01*
X105450000Y-114462501D01*
X105665260Y-114419682D01*
X105847748Y-114297748D01*
X106768348Y-113377148D01*
X106890282Y-113194660D01*
X106932114Y-112984364D01*
X106931976Y-113142173D01*
X107041040Y-113406126D01*
X107242812Y-113608251D01*
X107506574Y-113717775D01*
X107792173Y-113718024D01*
X108056126Y-113608960D01*
X108258251Y-113407188D01*
X108326278Y-113243360D01*
X108588254Y-113243360D01*
X108588254Y-115943360D01*
X108614402Y-116082326D01*
X108696531Y-116209959D01*
X108821846Y-116295583D01*
X108970600Y-116325706D01*
X109970600Y-116325706D01*
X110109566Y-116299558D01*
X110237199Y-116217429D01*
X110322823Y-116092114D01*
X110352946Y-115943360D01*
X110352946Y-113243360D01*
X110326798Y-113104394D01*
X110244669Y-112976761D01*
X110119354Y-112891137D01*
X109970600Y-112861014D01*
X108970600Y-112861014D01*
X108831634Y-112887162D01*
X108704001Y-112969291D01*
X108618377Y-113094606D01*
X108588254Y-113243360D01*
X108326278Y-113243360D01*
X108367775Y-113143426D01*
X108368024Y-112857827D01*
X108258960Y-112593874D01*
X108184428Y-112519212D01*
X108187199Y-112517429D01*
X108272823Y-112392114D01*
X108302946Y-112243360D01*
X108302946Y-110850000D01*
X110817654Y-110850000D01*
X110817654Y-111250000D01*
X110843802Y-111388966D01*
X110916077Y-111501285D01*
X110847777Y-111601246D01*
X110817654Y-111750000D01*
X110817654Y-112150000D01*
X110843802Y-112288966D01*
X110925931Y-112416599D01*
X111051246Y-112502223D01*
X111200000Y-112532346D01*
X111800000Y-112532346D01*
X111905473Y-112512500D01*
X111987500Y-112512500D01*
X111987500Y-113492980D01*
X111671034Y-113704435D01*
X111405488Y-114101854D01*
X111312240Y-114570641D01*
X111312240Y-114618639D01*
X111405488Y-115087426D01*
X111671034Y-115484845D01*
X112068453Y-115750391D01*
X112537240Y-115843639D01*
X113006027Y-115750391D01*
X113403446Y-115484845D01*
X113668992Y-115087426D01*
X113762240Y-114618639D01*
X113762240Y-114570641D01*
X113668992Y-114101854D01*
X113403446Y-113704435D01*
X113112500Y-113510032D01*
X113112500Y-112654502D01*
X113250000Y-112682346D01*
X113650000Y-112682346D01*
X113733441Y-112666646D01*
X113856574Y-112717775D01*
X114142173Y-112718024D01*
X114268474Y-112665837D01*
X114350000Y-112682346D01*
X114750000Y-112682346D01*
X114888966Y-112656198D01*
X115001285Y-112583923D01*
X115101246Y-112652223D01*
X115250000Y-112682346D01*
X115522159Y-112682346D01*
X114842210Y-113362294D01*
X114227240Y-113362294D01*
X114088274Y-113388442D01*
X113960641Y-113470571D01*
X113875017Y-113595886D01*
X113844894Y-113744640D01*
X113844894Y-115444640D01*
X113871042Y-115583606D01*
X113953171Y-115711239D01*
X114078486Y-115796863D01*
X114227240Y-115826986D01*
X115927240Y-115826986D01*
X116066206Y-115800838D01*
X116193839Y-115718709D01*
X116279463Y-115593394D01*
X116309586Y-115444640D01*
X116309586Y-113744640D01*
X116283438Y-113605674D01*
X116246784Y-113548711D01*
X116747745Y-113047750D01*
X116747748Y-113047748D01*
X116869682Y-112865259D01*
X116912500Y-112650000D01*
X116912500Y-111606891D01*
X116952223Y-111548754D01*
X116982346Y-111400000D01*
X116982346Y-110800000D01*
X116956198Y-110661034D01*
X116883923Y-110548715D01*
X116908667Y-110512500D01*
X117047141Y-110512500D01*
X117092812Y-110558251D01*
X117356574Y-110667775D01*
X117642173Y-110668024D01*
X117906126Y-110558960D01*
X118108251Y-110357188D01*
X118217775Y-110093426D01*
X118218024Y-109807827D01*
X118108960Y-109543874D01*
X118046095Y-109480899D01*
X118102223Y-109398754D01*
X118132346Y-109250000D01*
X118132346Y-108750000D01*
X118106198Y-108611034D01*
X118024069Y-108483401D01*
X117898754Y-108397777D01*
X117750000Y-108367654D01*
X117150000Y-108367654D01*
X117011034Y-108393802D01*
X116883401Y-108475931D01*
X116863977Y-108504358D01*
X116834097Y-108474478D01*
X116714646Y-108425000D01*
X116456250Y-108425000D01*
X116375000Y-108506250D01*
X116375000Y-108975000D01*
X116395000Y-108975000D01*
X116395000Y-109025000D01*
X116375000Y-109025000D01*
X116375000Y-109045000D01*
X116325000Y-109045000D01*
X116325000Y-109025000D01*
X115806250Y-109025000D01*
X115743388Y-109087862D01*
X115689680Y-109077179D01*
X115689675Y-109077180D01*
X115547044Y-109077180D01*
X115449040Y-109057334D01*
X115081386Y-109057334D01*
X115081386Y-109014680D01*
X115055238Y-108875714D01*
X114973109Y-108748081D01*
X114881304Y-108685353D01*
X115725000Y-108685353D01*
X115725000Y-108893750D01*
X115806250Y-108975000D01*
X116325000Y-108975000D01*
X116325000Y-108506250D01*
X116243750Y-108425000D01*
X115985354Y-108425000D01*
X115865903Y-108474478D01*
X115774479Y-108565902D01*
X115725000Y-108685353D01*
X114881304Y-108685353D01*
X114847794Y-108662457D01*
X114699040Y-108632334D01*
X114377788Y-108632334D01*
X114292466Y-108596905D01*
X114006867Y-108596656D01*
X113920520Y-108632334D01*
X113599040Y-108632334D01*
X113460074Y-108658482D01*
X113332441Y-108740611D01*
X113246817Y-108865926D01*
X113216694Y-109014680D01*
X113216694Y-109057334D01*
X112849040Y-109057334D01*
X112743567Y-109077180D01*
X112417485Y-109077180D01*
X112417480Y-109077179D01*
X112235617Y-109113355D01*
X112202221Y-109119998D01*
X112137520Y-109163229D01*
X112137520Y-109082450D01*
X112056270Y-109001200D01*
X111537520Y-109001200D01*
X111537520Y-109021200D01*
X111487520Y-109021200D01*
X111487520Y-109001200D01*
X110968770Y-109001200D01*
X110887520Y-109082450D01*
X110887520Y-109240846D01*
X110936998Y-109360297D01*
X110965946Y-109389245D01*
X110945921Y-109402131D01*
X110860297Y-109527446D01*
X110830174Y-109676200D01*
X110830174Y-110076200D01*
X110856322Y-110215166D01*
X110937320Y-110341041D01*
X110937320Y-110573409D01*
X110933401Y-110575931D01*
X110847777Y-110701246D01*
X110817654Y-110850000D01*
X108302946Y-110850000D01*
X108302946Y-110543360D01*
X108276798Y-110404394D01*
X108194669Y-110276761D01*
X108069354Y-110191137D01*
X107920600Y-110161014D01*
X107320600Y-110161014D01*
X107181634Y-110187162D01*
X107054001Y-110269291D01*
X106995220Y-110355320D01*
X106944669Y-110276761D01*
X106933100Y-110268856D01*
X106933100Y-109670605D01*
X106933101Y-109670600D01*
X106890282Y-109455341D01*
X106861697Y-109412560D01*
X106768348Y-109272852D01*
X106768345Y-109272850D01*
X106207050Y-108711554D01*
X110887520Y-108711554D01*
X110887520Y-108869950D01*
X110968770Y-108951200D01*
X111487520Y-108951200D01*
X111487520Y-108532450D01*
X111537520Y-108532450D01*
X111537520Y-108951200D01*
X112056270Y-108951200D01*
X112137520Y-108869950D01*
X112137520Y-108711554D01*
X112088042Y-108592103D01*
X111996618Y-108500679D01*
X111877167Y-108451200D01*
X111618770Y-108451200D01*
X111537520Y-108532450D01*
X111487520Y-108532450D01*
X111406270Y-108451200D01*
X111147873Y-108451200D01*
X111028422Y-108500679D01*
X110936998Y-108592103D01*
X110887520Y-108711554D01*
X106207050Y-108711554D01*
X105947748Y-108452252D01*
X105765260Y-108330318D01*
X105550000Y-108287499D01*
X105549995Y-108287500D01*
X104432995Y-108287500D01*
X104327841Y-108182346D01*
X105000000Y-108182346D01*
X105138966Y-108156198D01*
X105266599Y-108074069D01*
X105352223Y-107948754D01*
X105382346Y-107800000D01*
X105382346Y-105000000D01*
X105356198Y-104861034D01*
X105274069Y-104733401D01*
X105148754Y-104647777D01*
X105000000Y-104617654D01*
X104000000Y-104617654D01*
X103861034Y-104643802D01*
X103733401Y-104725931D01*
X103647777Y-104851246D01*
X103617654Y-105000000D01*
X103617654Y-105522159D01*
X103047748Y-104952252D01*
X102865260Y-104830318D01*
X102650000Y-104787499D01*
X102649995Y-104787500D01*
X102332995Y-104787500D01*
X101962500Y-104417004D01*
X101962500Y-104176707D01*
X101966599Y-104174069D01*
X102025380Y-104088040D01*
X102075931Y-104166599D01*
X102201246Y-104252223D01*
X102350000Y-104282346D01*
X102950000Y-104282346D01*
X103088966Y-104256198D01*
X103216599Y-104174069D01*
X103302223Y-104048754D01*
X103332346Y-103900000D01*
X103332346Y-102200000D01*
X103306198Y-102061034D01*
X103224069Y-101933401D01*
X103212500Y-101925496D01*
X103212500Y-99746955D01*
X103317775Y-99493426D01*
X103318024Y-99207827D01*
X103208960Y-98943874D01*
X103007188Y-98741749D01*
X102743426Y-98632225D01*
X102457827Y-98631976D01*
X102193874Y-98741040D01*
X101991749Y-98942812D01*
X101882225Y-99206574D01*
X101881976Y-99492173D01*
X101991040Y-99756126D01*
X102087500Y-99852755D01*
X102087500Y-100881976D01*
X102024069Y-100783401D01*
X101898754Y-100697777D01*
X101842460Y-100686377D01*
X101842460Y-98844172D01*
X101944675Y-98801938D01*
X102275496Y-98471693D01*
X102454756Y-98039987D01*
X102455164Y-97572543D01*
X102276658Y-97140525D01*
X101949204Y-96812500D01*
X103151280Y-96812500D01*
X102824424Y-97138787D01*
X102645164Y-97570493D01*
X102644756Y-98037937D01*
X102823262Y-98469955D01*
X103153507Y-98800776D01*
X103585213Y-98980036D01*
X104052657Y-98980444D01*
X104484675Y-98801938D01*
X104815496Y-98471693D01*
X104994756Y-98039987D01*
X104995164Y-97572543D01*
X104816658Y-97140525D01*
X104489204Y-96812500D01*
X105691280Y-96812500D01*
X105364424Y-97138787D01*
X105185164Y-97570493D01*
X105184756Y-98037937D01*
X105363262Y-98469955D01*
X105693507Y-98800776D01*
X105797460Y-98843941D01*
X105797460Y-99672158D01*
X105773041Y-99687871D01*
X105687417Y-99813186D01*
X105657294Y-99961940D01*
X105657294Y-100361940D01*
X105683442Y-100500906D01*
X105755717Y-100613225D01*
X105687417Y-100713186D01*
X105657294Y-100861940D01*
X105657294Y-101261940D01*
X105683442Y-101400906D01*
X105765571Y-101528539D01*
X105777140Y-101536444D01*
X105777140Y-101997786D01*
X105733401Y-102025931D01*
X105647777Y-102151246D01*
X105617654Y-102300000D01*
X105617654Y-103100000D01*
X105643802Y-103238966D01*
X105725931Y-103366599D01*
X105851246Y-103452223D01*
X106000000Y-103482346D01*
X106800000Y-103482346D01*
X106938966Y-103456198D01*
X107066599Y-103374069D01*
X107152223Y-103248754D01*
X107182346Y-103100000D01*
X107182346Y-102300000D01*
X107156198Y-102161034D01*
X107074069Y-102033401D01*
X106948754Y-101947777D01*
X106902140Y-101938338D01*
X106902140Y-101538647D01*
X106906239Y-101536009D01*
X106991863Y-101410694D01*
X107021986Y-101261940D01*
X107021986Y-100861940D01*
X106995838Y-100722974D01*
X106923563Y-100610655D01*
X106991863Y-100510694D01*
X107021986Y-100361940D01*
X107021986Y-99961940D01*
X106995838Y-99822974D01*
X106922460Y-99708941D01*
X106922460Y-98844172D01*
X107024675Y-98801938D01*
X107355496Y-98471693D01*
X107534756Y-98039987D01*
X107534757Y-98037937D01*
X107724756Y-98037937D01*
X107903262Y-98469955D01*
X108233507Y-98800776D01*
X108337460Y-98843941D01*
X108337460Y-99645852D01*
X108315581Y-99659931D01*
X108229957Y-99785246D01*
X108199834Y-99934000D01*
X108199834Y-100334000D01*
X108225982Y-100472966D01*
X108298257Y-100585285D01*
X108229957Y-100685246D01*
X108199834Y-100834000D01*
X108199834Y-101234000D01*
X108225982Y-101372966D01*
X108308111Y-101500599D01*
X108319680Y-101508504D01*
X108319680Y-101970412D01*
X108233401Y-102025931D01*
X108147777Y-102151246D01*
X108117654Y-102300000D01*
X108117654Y-103100000D01*
X108143802Y-103238966D01*
X108225931Y-103366599D01*
X108351246Y-103452223D01*
X108500000Y-103482346D01*
X109300000Y-103482346D01*
X109438966Y-103456198D01*
X109566599Y-103374069D01*
X109652223Y-103248754D01*
X109682346Y-103100000D01*
X109682346Y-102300000D01*
X109656198Y-102161034D01*
X109574069Y-102033401D01*
X109448754Y-101947777D01*
X109444680Y-101946952D01*
X109444680Y-101510707D01*
X109448779Y-101508069D01*
X109534403Y-101382754D01*
X109564526Y-101234000D01*
X109564526Y-100834000D01*
X109538378Y-100695034D01*
X109466103Y-100582715D01*
X109534403Y-100482754D01*
X109564526Y-100334000D01*
X109564526Y-99934000D01*
X109538378Y-99795034D01*
X109462460Y-99677053D01*
X109462460Y-98844172D01*
X109564675Y-98801938D01*
X109895496Y-98471693D01*
X110074756Y-98039987D01*
X110075164Y-97572543D01*
X109896658Y-97140525D01*
X109566413Y-96809704D01*
X109134707Y-96630444D01*
X108667263Y-96630036D01*
X108235245Y-96808542D01*
X107904424Y-97138787D01*
X107725164Y-97570493D01*
X107724756Y-98037937D01*
X107534757Y-98037937D01*
X107535164Y-97572543D01*
X107356658Y-97140525D01*
X107184451Y-96968017D01*
X107192173Y-96968024D01*
X107456126Y-96858960D01*
X107658251Y-96657188D01*
X107767775Y-96393426D01*
X107768024Y-96107827D01*
X107658960Y-95843874D01*
X107457188Y-95641749D01*
X107193426Y-95532225D01*
X106907827Y-95531976D01*
X106643874Y-95641040D01*
X106597333Y-95687500D01*
X101737188Y-95687500D01*
X101817775Y-95493426D01*
X101818024Y-95207827D01*
X101708960Y-94943874D01*
X101507188Y-94741749D01*
X101243426Y-94632225D01*
X100957827Y-94631976D01*
X100693874Y-94741040D01*
X100597245Y-94837500D01*
X95678712Y-94837500D01*
X95717775Y-94743426D01*
X95717832Y-94677664D01*
X97232995Y-93162500D01*
X106367004Y-93162500D01*
X110102250Y-96897745D01*
X110102252Y-96897748D01*
X110263127Y-97005240D01*
X110284741Y-97019682D01*
X110500000Y-97062501D01*
X110500005Y-97062500D01*
X110520844Y-97062500D01*
X110444424Y-97138787D01*
X110265164Y-97570493D01*
X110264756Y-98037937D01*
X110443262Y-98469955D01*
X110773507Y-98800776D01*
X110877460Y-98843941D01*
X110877460Y-99675427D01*
X110858121Y-99687871D01*
X110772497Y-99813186D01*
X110742374Y-99961940D01*
X110742374Y-100361940D01*
X110768522Y-100500906D01*
X110840797Y-100613225D01*
X110772497Y-100713186D01*
X110742374Y-100861940D01*
X110742374Y-101261940D01*
X110768522Y-101400906D01*
X110850651Y-101528539D01*
X110862220Y-101536444D01*
X110862220Y-101943579D01*
X110861034Y-101943802D01*
X110733401Y-102025931D01*
X110647777Y-102151246D01*
X110617654Y-102300000D01*
X110617654Y-103100000D01*
X110643802Y-103238966D01*
X110725931Y-103366599D01*
X110851246Y-103452223D01*
X111000000Y-103482346D01*
X111791828Y-103482346D01*
X111756520Y-103517654D01*
X111000000Y-103517654D01*
X110861034Y-103543802D01*
X110733401Y-103625931D01*
X110657169Y-103737500D01*
X109641054Y-103737500D01*
X109574069Y-103633401D01*
X109448754Y-103547777D01*
X109300000Y-103517654D01*
X108500000Y-103517654D01*
X108361034Y-103543802D01*
X108233401Y-103625931D01*
X108157169Y-103737500D01*
X107141054Y-103737500D01*
X107074069Y-103633401D01*
X106948754Y-103547777D01*
X106800000Y-103517654D01*
X106000000Y-103517654D01*
X105861034Y-103543802D01*
X105733401Y-103625931D01*
X105647777Y-103751246D01*
X105617654Y-103900000D01*
X105617654Y-104700000D01*
X105643802Y-104838966D01*
X105725931Y-104966599D01*
X105837500Y-105042831D01*
X105837500Y-105699995D01*
X105837499Y-105700000D01*
X105880318Y-105915260D01*
X106002252Y-106097748D01*
X106342278Y-106437774D01*
X106275000Y-106776001D01*
X106275000Y-106823999D01*
X106368248Y-107292786D01*
X106633794Y-107690205D01*
X107031213Y-107955751D01*
X107500000Y-108048999D01*
X107968787Y-107955751D01*
X108366206Y-107690205D01*
X108631752Y-107292786D01*
X108725000Y-106823999D01*
X108725000Y-106776001D01*
X108815000Y-106776001D01*
X108815000Y-106823999D01*
X108908248Y-107292786D01*
X109173794Y-107690205D01*
X109571213Y-107955751D01*
X110040000Y-108048999D01*
X110508787Y-107955751D01*
X110906206Y-107690205D01*
X111171752Y-107292786D01*
X111228308Y-107008461D01*
X111423638Y-107008461D01*
X111591435Y-107435113D01*
X111909732Y-107765075D01*
X112330071Y-107948113D01*
X112371539Y-107956360D01*
X112555000Y-107893464D01*
X112555000Y-106825000D01*
X112605000Y-106825000D01*
X112605000Y-107893464D01*
X112788461Y-107956360D01*
X112829929Y-107948113D01*
X113250268Y-107765075D01*
X113568565Y-107435113D01*
X113736362Y-107008461D01*
X113673486Y-106825000D01*
X112605000Y-106825000D01*
X112555000Y-106825000D01*
X111486514Y-106825000D01*
X111423638Y-107008461D01*
X111228308Y-107008461D01*
X111265000Y-106823999D01*
X111265000Y-106776001D01*
X113895000Y-106776001D01*
X113895000Y-106823999D01*
X113988248Y-107292786D01*
X114253794Y-107690205D01*
X114651213Y-107955751D01*
X115120000Y-108048999D01*
X115588787Y-107955751D01*
X115986206Y-107690205D01*
X116251752Y-107292786D01*
X116345000Y-106823999D01*
X116345000Y-106776001D01*
X116435000Y-106776001D01*
X116435000Y-106823999D01*
X116528248Y-107292786D01*
X116793794Y-107690205D01*
X117191213Y-107955751D01*
X117660000Y-108048999D01*
X118128787Y-107955751D01*
X118526206Y-107690205D01*
X118791752Y-107292786D01*
X118885000Y-106823999D01*
X118885000Y-106776001D01*
X118791752Y-106307214D01*
X118553071Y-105950000D01*
X118967654Y-105950000D01*
X118967654Y-107650000D01*
X118993802Y-107788966D01*
X119075931Y-107916599D01*
X119201246Y-108002223D01*
X119350000Y-108032346D01*
X121050000Y-108032346D01*
X121188966Y-108006198D01*
X121316599Y-107924069D01*
X121402223Y-107798754D01*
X121432346Y-107650000D01*
X121432346Y-105950000D01*
X121406198Y-105811034D01*
X121324069Y-105683401D01*
X121198754Y-105597777D01*
X121050000Y-105567654D01*
X119350000Y-105567654D01*
X119211034Y-105593802D01*
X119083401Y-105675931D01*
X118997777Y-105801246D01*
X118967654Y-105950000D01*
X118553071Y-105950000D01*
X118526206Y-105909795D01*
X118128787Y-105644249D01*
X117660000Y-105551001D01*
X117191213Y-105644249D01*
X116793794Y-105909795D01*
X116528248Y-106307214D01*
X116435000Y-106776001D01*
X116345000Y-106776001D01*
X116251752Y-106307214D01*
X115986206Y-105909795D01*
X115588787Y-105644249D01*
X115120000Y-105551001D01*
X114651213Y-105644249D01*
X114253794Y-105909795D01*
X113988248Y-106307214D01*
X113895000Y-106776001D01*
X111265000Y-106776001D01*
X111228309Y-106591539D01*
X111423638Y-106591539D01*
X111486514Y-106775000D01*
X112555000Y-106775000D01*
X112555000Y-105706536D01*
X112605000Y-105706536D01*
X112605000Y-106775000D01*
X113673486Y-106775000D01*
X113736362Y-106591539D01*
X113568565Y-106164887D01*
X113250268Y-105834925D01*
X112829929Y-105651887D01*
X112788461Y-105643640D01*
X112605000Y-105706536D01*
X112555000Y-105706536D01*
X112371539Y-105643640D01*
X112330071Y-105651887D01*
X111909732Y-105834925D01*
X111591435Y-106164887D01*
X111423638Y-106591539D01*
X111228309Y-106591539D01*
X111171752Y-106307214D01*
X110906206Y-105909795D01*
X110508787Y-105644249D01*
X110040000Y-105551001D01*
X109571213Y-105644249D01*
X109173794Y-105909795D01*
X108908248Y-106307214D01*
X108815000Y-106776001D01*
X108725000Y-106776001D01*
X108631752Y-106307214D01*
X108366206Y-105909795D01*
X107968787Y-105644249D01*
X107500000Y-105551001D01*
X107121738Y-105626242D01*
X106962500Y-105467004D01*
X106962500Y-105041054D01*
X107066599Y-104974069D01*
X107142831Y-104862500D01*
X108158946Y-104862500D01*
X108225931Y-104966599D01*
X108351246Y-105052223D01*
X108500000Y-105082346D01*
X109300000Y-105082346D01*
X109438966Y-105056198D01*
X109566599Y-104974069D01*
X109642831Y-104862500D01*
X110658946Y-104862500D01*
X110725931Y-104966599D01*
X110851246Y-105052223D01*
X111000000Y-105082346D01*
X111800000Y-105082346D01*
X111938966Y-105056198D01*
X112066599Y-104974069D01*
X112142831Y-104862500D01*
X113258946Y-104862500D01*
X113325931Y-104966599D01*
X113451246Y-105052223D01*
X113600000Y-105082346D01*
X114400000Y-105082346D01*
X114538966Y-105056198D01*
X114666599Y-104974069D01*
X114752223Y-104848754D01*
X114757171Y-104824320D01*
X115768746Y-104824320D01*
X115835731Y-104928419D01*
X115961046Y-105014043D01*
X116109800Y-105044166D01*
X116909800Y-105044166D01*
X117048766Y-105018018D01*
X117176399Y-104935889D01*
X117252631Y-104824320D01*
X118403123Y-104824320D01*
X118434151Y-104872539D01*
X118559466Y-104958163D01*
X118708220Y-104988286D01*
X119508220Y-104988286D01*
X119647186Y-104962138D01*
X119774819Y-104880009D01*
X119851051Y-104768440D01*
X120853826Y-104768440D01*
X120920811Y-104872539D01*
X121046126Y-104958163D01*
X121194880Y-104988286D01*
X121994880Y-104988286D01*
X122133846Y-104962138D01*
X122261479Y-104880009D01*
X122337711Y-104768440D01*
X123478242Y-104768440D01*
X123491291Y-104788719D01*
X123616606Y-104874343D01*
X123765360Y-104904466D01*
X124565360Y-104904466D01*
X124704326Y-104878318D01*
X124831959Y-104796189D01*
X124917583Y-104670874D01*
X124947706Y-104522120D01*
X124947706Y-103722120D01*
X124921558Y-103583154D01*
X124839429Y-103455521D01*
X124714114Y-103369897D01*
X124565360Y-103339774D01*
X123765360Y-103339774D01*
X123626394Y-103365922D01*
X123498761Y-103448051D01*
X123413137Y-103573366D01*
X123398947Y-103643440D01*
X122335934Y-103643440D01*
X122268949Y-103539341D01*
X122143634Y-103453717D01*
X121994880Y-103423594D01*
X121194880Y-103423594D01*
X121055914Y-103449742D01*
X120928281Y-103531871D01*
X120852049Y-103643440D01*
X119849274Y-103643440D01*
X119782289Y-103539341D01*
X119656974Y-103453717D01*
X119508220Y-103423594D01*
X118708220Y-103423594D01*
X118569254Y-103449742D01*
X118441621Y-103531871D01*
X118355997Y-103657186D01*
X118347465Y-103699320D01*
X117250854Y-103699320D01*
X117183869Y-103595221D01*
X117058554Y-103509597D01*
X116909800Y-103479474D01*
X116109800Y-103479474D01*
X115970834Y-103505622D01*
X115843201Y-103587751D01*
X115766969Y-103699320D01*
X114716486Y-103699320D01*
X114674069Y-103633401D01*
X114548754Y-103547777D01*
X114400000Y-103517654D01*
X113600000Y-103517654D01*
X113461034Y-103543802D01*
X113333401Y-103625931D01*
X113257169Y-103737500D01*
X112950887Y-103737500D01*
X113048274Y-103640113D01*
X113140598Y-103501940D01*
X113156660Y-103477902D01*
X113194720Y-103286560D01*
X113194720Y-102501330D01*
X113217654Y-102478436D01*
X113217654Y-103100000D01*
X113243802Y-103238966D01*
X113325931Y-103366599D01*
X113451246Y-103452223D01*
X113600000Y-103482346D01*
X114400000Y-103482346D01*
X114538966Y-103456198D01*
X114666599Y-103374069D01*
X114752223Y-103248754D01*
X114782346Y-103100000D01*
X114782346Y-102300000D01*
X114756198Y-102161034D01*
X114674069Y-102033401D01*
X114548754Y-101947777D01*
X114529760Y-101943931D01*
X114529760Y-101510707D01*
X114533859Y-101508069D01*
X114619483Y-101382754D01*
X114649606Y-101234000D01*
X114649606Y-100834000D01*
X114623458Y-100695034D01*
X114551183Y-100582715D01*
X114619483Y-100482754D01*
X114649606Y-100334000D01*
X114649606Y-99934000D01*
X114623458Y-99795034D01*
X114542460Y-99669159D01*
X114542460Y-98844172D01*
X114644675Y-98801938D01*
X114975496Y-98471693D01*
X115154756Y-98039987D01*
X115154757Y-98037937D01*
X115344756Y-98037937D01*
X115523262Y-98469955D01*
X115853507Y-98800776D01*
X115957460Y-98843941D01*
X115957460Y-99650756D01*
X115943201Y-99659931D01*
X115857577Y-99785246D01*
X115827454Y-99934000D01*
X115827454Y-100334000D01*
X115853602Y-100472966D01*
X115925877Y-100585285D01*
X115857577Y-100685246D01*
X115827454Y-100834000D01*
X115827454Y-101234000D01*
X115853602Y-101372966D01*
X115935731Y-101500599D01*
X115947300Y-101508504D01*
X115947300Y-101920766D01*
X115843201Y-101987751D01*
X115757577Y-102113066D01*
X115727454Y-102261820D01*
X115727454Y-103061820D01*
X115753602Y-103200786D01*
X115835731Y-103328419D01*
X115961046Y-103414043D01*
X116109800Y-103444166D01*
X116909800Y-103444166D01*
X117048766Y-103418018D01*
X117176399Y-103335889D01*
X117262023Y-103210574D01*
X117292146Y-103061820D01*
X117292146Y-102261820D01*
X117265998Y-102122854D01*
X117183869Y-101995221D01*
X117072300Y-101918989D01*
X117072300Y-101510707D01*
X117076399Y-101508069D01*
X117162023Y-101382754D01*
X117192146Y-101234000D01*
X117192146Y-100834000D01*
X117165998Y-100695034D01*
X117093723Y-100582715D01*
X117162023Y-100482754D01*
X117192146Y-100334000D01*
X117192146Y-99934000D01*
X117165998Y-99795034D01*
X117083869Y-99667401D01*
X117082460Y-99666438D01*
X117082460Y-98844172D01*
X117184675Y-98801938D01*
X117515496Y-98471693D01*
X117694756Y-98039987D01*
X117694757Y-98037937D01*
X117884756Y-98037937D01*
X118063262Y-98469955D01*
X118393507Y-98800776D01*
X118497460Y-98843941D01*
X118497460Y-99683671D01*
X118428057Y-99785246D01*
X118397934Y-99934000D01*
X118397934Y-100334000D01*
X118424082Y-100472966D01*
X118496357Y-100585285D01*
X118428057Y-100685246D01*
X118397934Y-100834000D01*
X118397934Y-101234000D01*
X118424082Y-101372966D01*
X118506211Y-101500599D01*
X118517780Y-101508504D01*
X118517780Y-101882864D01*
X118441621Y-101931871D01*
X118355997Y-102057186D01*
X118325874Y-102205940D01*
X118325874Y-103005940D01*
X118352022Y-103144906D01*
X118434151Y-103272539D01*
X118559466Y-103358163D01*
X118708220Y-103388286D01*
X119508220Y-103388286D01*
X119647186Y-103362138D01*
X119774819Y-103280009D01*
X119860443Y-103154694D01*
X119890566Y-103005940D01*
X119890566Y-102205940D01*
X119864418Y-102066974D01*
X119782289Y-101939341D01*
X119656974Y-101853717D01*
X119642780Y-101850843D01*
X119642780Y-101510707D01*
X119646879Y-101508069D01*
X119732503Y-101382754D01*
X119762626Y-101234000D01*
X119762626Y-100834000D01*
X119736478Y-100695034D01*
X119664203Y-100582715D01*
X119732503Y-100482754D01*
X119762626Y-100334000D01*
X119762626Y-99934000D01*
X119736478Y-99795034D01*
X119654349Y-99667401D01*
X119622460Y-99645612D01*
X119622460Y-98844172D01*
X119724675Y-98801938D01*
X120055496Y-98471693D01*
X120234756Y-98039987D01*
X120234757Y-98037937D01*
X120424756Y-98037937D01*
X120603262Y-98469955D01*
X120933507Y-98800776D01*
X121037460Y-98843941D01*
X121037460Y-99687389D01*
X120970597Y-99785246D01*
X120940474Y-99934000D01*
X120940474Y-100334000D01*
X120966622Y-100472966D01*
X121038897Y-100585285D01*
X120970597Y-100685246D01*
X120940474Y-100834000D01*
X120940474Y-101234000D01*
X120966622Y-101372966D01*
X121048751Y-101500599D01*
X121060320Y-101508504D01*
X121060320Y-101848913D01*
X121055914Y-101849742D01*
X120928281Y-101931871D01*
X120842657Y-102057186D01*
X120812534Y-102205940D01*
X120812534Y-103005940D01*
X120838682Y-103144906D01*
X120920811Y-103272539D01*
X121046126Y-103358163D01*
X121194880Y-103388286D01*
X121994880Y-103388286D01*
X122133846Y-103362138D01*
X122261479Y-103280009D01*
X122347103Y-103154694D01*
X122377226Y-103005940D01*
X122377226Y-102205940D01*
X122351078Y-102066974D01*
X122268949Y-101939341D01*
X122185320Y-101882200D01*
X122185320Y-101510707D01*
X122189419Y-101508069D01*
X122275043Y-101382754D01*
X122305166Y-101234000D01*
X122305166Y-100834000D01*
X122279018Y-100695034D01*
X122206743Y-100582715D01*
X122275043Y-100482754D01*
X122305166Y-100334000D01*
X122305166Y-99934000D01*
X122279018Y-99795034D01*
X122196889Y-99667401D01*
X122162460Y-99643877D01*
X122162460Y-98844172D01*
X122264675Y-98801938D01*
X122595496Y-98471693D01*
X122774756Y-98039987D01*
X122774757Y-98037937D01*
X122964756Y-98037937D01*
X123143262Y-98469955D01*
X123473507Y-98800776D01*
X123577460Y-98843941D01*
X123577460Y-99683599D01*
X123570821Y-99687871D01*
X123485197Y-99813186D01*
X123455074Y-99961940D01*
X123455074Y-100361940D01*
X123481222Y-100500906D01*
X123553497Y-100613225D01*
X123485197Y-100713186D01*
X123455074Y-100861940D01*
X123455074Y-101261940D01*
X123481222Y-101400906D01*
X123563351Y-101528539D01*
X123574920Y-101536444D01*
X123574920Y-101799044D01*
X123498761Y-101848051D01*
X123413137Y-101973366D01*
X123383014Y-102122120D01*
X123383014Y-102922120D01*
X123409162Y-103061086D01*
X123491291Y-103188719D01*
X123616606Y-103274343D01*
X123765360Y-103304466D01*
X124565360Y-103304466D01*
X124704326Y-103278318D01*
X124831959Y-103196189D01*
X124917583Y-103070874D01*
X124947706Y-102922120D01*
X124947706Y-102122120D01*
X124921558Y-101983154D01*
X124839429Y-101855521D01*
X124714114Y-101769897D01*
X124699920Y-101767023D01*
X124699920Y-101538647D01*
X124704019Y-101536009D01*
X124789643Y-101410694D01*
X124819766Y-101261940D01*
X124819766Y-100861940D01*
X124793618Y-100722974D01*
X124721343Y-100610655D01*
X124789643Y-100510694D01*
X124819766Y-100361940D01*
X124819766Y-99961940D01*
X124793618Y-99822974D01*
X124711489Y-99695341D01*
X124702460Y-99689172D01*
X124702460Y-98844172D01*
X124804675Y-98801938D01*
X125135496Y-98471693D01*
X125314756Y-98039987D01*
X125315164Y-97572543D01*
X125136658Y-97140525D01*
X124806413Y-96809704D01*
X124374707Y-96630444D01*
X123907263Y-96630036D01*
X123475245Y-96808542D01*
X123144424Y-97138787D01*
X122965164Y-97570493D01*
X122964756Y-98037937D01*
X122774757Y-98037937D01*
X122775164Y-97572543D01*
X122596658Y-97140525D01*
X122266413Y-96809704D01*
X121834707Y-96630444D01*
X121367263Y-96630036D01*
X120935245Y-96808542D01*
X120604424Y-97138787D01*
X120425164Y-97570493D01*
X120424756Y-98037937D01*
X120234757Y-98037937D01*
X120235164Y-97572543D01*
X120056658Y-97140525D01*
X119726413Y-96809704D01*
X119294707Y-96630444D01*
X118827263Y-96630036D01*
X118395245Y-96808542D01*
X118064424Y-97138787D01*
X117885164Y-97570493D01*
X117884756Y-98037937D01*
X117694757Y-98037937D01*
X117695164Y-97572543D01*
X117516658Y-97140525D01*
X117186413Y-96809704D01*
X116754707Y-96630444D01*
X116287263Y-96630036D01*
X115855245Y-96808542D01*
X115524424Y-97138787D01*
X115345164Y-97570493D01*
X115344756Y-98037937D01*
X115154757Y-98037937D01*
X115155164Y-97572543D01*
X114976658Y-97140525D01*
X114898769Y-97062500D01*
X115099995Y-97062500D01*
X115100000Y-97062501D01*
X115315260Y-97019682D01*
X115497748Y-96897748D01*
X124537708Y-87857788D01*
X124659642Y-87675300D01*
X124702461Y-87460040D01*
X124702460Y-87460035D01*
X124702460Y-83604172D01*
X124804675Y-83561938D01*
X125135496Y-83231693D01*
X125314756Y-82799987D01*
X125315164Y-82332543D01*
X125136658Y-81900525D01*
X124806413Y-81569704D01*
X124374707Y-81390444D01*
X123907263Y-81390036D01*
X123475245Y-81568542D01*
X123144424Y-81898787D01*
X122965164Y-82330493D01*
X122964756Y-82797937D01*
X123143262Y-83229955D01*
X123473507Y-83560776D01*
X123577460Y-83603941D01*
X123577460Y-87227044D01*
X114867004Y-95937500D01*
X112429679Y-95937500D01*
X112435496Y-95931693D01*
X112614756Y-95499987D01*
X112614908Y-95325881D01*
X112715680Y-95569766D01*
X112917452Y-95771891D01*
X113181214Y-95881415D01*
X113466813Y-95881664D01*
X113730766Y-95772600D01*
X113932891Y-95570828D01*
X114042415Y-95307066D01*
X114042664Y-95021467D01*
X113933600Y-94757514D01*
X113824640Y-94648363D01*
X113824640Y-90886280D01*
X113786580Y-90694938D01*
X113754669Y-90647180D01*
X113678193Y-90532726D01*
X112977153Y-89831687D01*
X112814942Y-89723300D01*
X112623600Y-89685240D01*
X112504717Y-89685240D01*
X112436658Y-89520525D01*
X112106413Y-89189704D01*
X111674707Y-89010444D01*
X111207263Y-89010036D01*
X110775245Y-89188542D01*
X110444424Y-89518787D01*
X110265164Y-89950493D01*
X110264756Y-90417937D01*
X110443262Y-90849955D01*
X110773507Y-91180776D01*
X111205213Y-91360036D01*
X111672657Y-91360444D01*
X112104675Y-91181938D01*
X112435496Y-90851693D01*
X112478759Y-90747505D01*
X112824640Y-91093387D01*
X112824640Y-94648390D01*
X112716389Y-94756452D01*
X112608471Y-95016346D01*
X112436658Y-94600525D01*
X112106413Y-94269704D01*
X111674707Y-94090444D01*
X111207263Y-94090036D01*
X110775245Y-94268542D01*
X110444424Y-94598787D01*
X110265164Y-95030493D01*
X110264781Y-95469286D01*
X107753433Y-92957937D01*
X110264756Y-92957937D01*
X110443262Y-93389955D01*
X110773507Y-93720776D01*
X111205213Y-93900036D01*
X111672657Y-93900444D01*
X112104675Y-93721938D01*
X112435496Y-93391693D01*
X112614756Y-92959987D01*
X112615164Y-92492543D01*
X112436658Y-92060525D01*
X112106413Y-91729704D01*
X111674707Y-91550444D01*
X111207263Y-91550036D01*
X110775245Y-91728542D01*
X110444424Y-92058787D01*
X110265164Y-92490493D01*
X110264756Y-92957937D01*
X107753433Y-92957937D01*
X106997748Y-92202252D01*
X106815260Y-92080318D01*
X106600000Y-92037499D01*
X106599995Y-92037500D01*
X98837188Y-92037500D01*
X98917775Y-91843426D01*
X98917832Y-91777663D01*
X99137705Y-91557790D01*
X99137708Y-91557788D01*
X99259642Y-91375299D01*
X99262678Y-91360036D01*
X99302461Y-91160040D01*
X99302460Y-91160035D01*
X99302460Y-83604172D01*
X99404675Y-83561938D01*
X99735496Y-83231693D01*
X99914756Y-82799987D01*
X99914757Y-82797937D01*
X100104756Y-82797937D01*
X100283262Y-83229955D01*
X100613507Y-83560776D01*
X101045213Y-83740036D01*
X101512657Y-83740444D01*
X101944675Y-83561938D01*
X102275496Y-83231693D01*
X102454756Y-82799987D01*
X102454757Y-82797937D01*
X102644756Y-82797937D01*
X102823262Y-83229955D01*
X103153507Y-83560776D01*
X103585213Y-83740036D01*
X104052657Y-83740444D01*
X104484675Y-83561938D01*
X104815496Y-83231693D01*
X104994756Y-82799987D01*
X104994757Y-82797937D01*
X105184756Y-82797937D01*
X105363262Y-83229955D01*
X105693507Y-83560776D01*
X106125213Y-83740036D01*
X106592657Y-83740444D01*
X107024675Y-83561938D01*
X107355496Y-83231693D01*
X107534756Y-82799987D01*
X107534757Y-82797937D01*
X107724756Y-82797937D01*
X107903262Y-83229955D01*
X108233507Y-83560776D01*
X108337460Y-83603941D01*
X108337460Y-87593967D01*
X108332225Y-87606574D01*
X108331976Y-87892173D01*
X108441040Y-88156126D01*
X108642812Y-88358251D01*
X108906574Y-88467775D01*
X109192173Y-88468024D01*
X109456126Y-88358960D01*
X109658251Y-88157188D01*
X109767775Y-87893426D01*
X109767788Y-87877937D01*
X110264756Y-87877937D01*
X110443262Y-88309955D01*
X110773507Y-88640776D01*
X111205213Y-88820036D01*
X111672657Y-88820444D01*
X112104675Y-88641938D01*
X112435496Y-88311693D01*
X112614756Y-87879987D01*
X112615164Y-87412543D01*
X112436658Y-86980525D01*
X112106413Y-86649704D01*
X111674707Y-86470444D01*
X111207263Y-86470036D01*
X110775245Y-86648542D01*
X110444424Y-86978787D01*
X110265164Y-87410493D01*
X110264756Y-87877937D01*
X109767788Y-87877937D01*
X109768024Y-87607827D01*
X109658960Y-87343874D01*
X109462460Y-87147030D01*
X109462460Y-85337937D01*
X110264756Y-85337937D01*
X110443262Y-85769955D01*
X110773507Y-86100776D01*
X111205213Y-86280036D01*
X111672657Y-86280444D01*
X112104675Y-86101938D01*
X112435496Y-85771693D01*
X112614756Y-85339987D01*
X112615164Y-84872543D01*
X112436658Y-84440525D01*
X112106413Y-84109704D01*
X111674707Y-83930444D01*
X111207263Y-83930036D01*
X110775245Y-84108542D01*
X110444424Y-84438787D01*
X110265164Y-84870493D01*
X110264756Y-85337937D01*
X109462460Y-85337937D01*
X109462460Y-83604172D01*
X109564675Y-83561938D01*
X109895496Y-83231693D01*
X110074756Y-82799987D01*
X110075164Y-82332543D01*
X109896658Y-81900525D01*
X109566413Y-81569704D01*
X109134707Y-81390444D01*
X108667263Y-81390036D01*
X108235245Y-81568542D01*
X107904424Y-81898787D01*
X107725164Y-82330493D01*
X107724756Y-82797937D01*
X107534757Y-82797937D01*
X107535164Y-82332543D01*
X107356658Y-81900525D01*
X107026413Y-81569704D01*
X106594707Y-81390444D01*
X106127263Y-81390036D01*
X105695245Y-81568542D01*
X105364424Y-81898787D01*
X105185164Y-82330493D01*
X105184756Y-82797937D01*
X104994757Y-82797937D01*
X104995164Y-82332543D01*
X104816658Y-81900525D01*
X104486413Y-81569704D01*
X104054707Y-81390444D01*
X103587263Y-81390036D01*
X103155245Y-81568542D01*
X102824424Y-81898787D01*
X102645164Y-82330493D01*
X102644756Y-82797937D01*
X102454757Y-82797937D01*
X102455164Y-82332543D01*
X102276658Y-81900525D01*
X101946413Y-81569704D01*
X101514707Y-81390444D01*
X101047263Y-81390036D01*
X100615245Y-81568542D01*
X100284424Y-81898787D01*
X100105164Y-82330493D01*
X100104756Y-82797937D01*
X99914757Y-82797937D01*
X99915164Y-82332543D01*
X99736658Y-81900525D01*
X99406413Y-81569704D01*
X98974707Y-81390444D01*
X98507263Y-81390036D01*
X98075245Y-81568542D01*
X97744424Y-81898787D01*
X97565164Y-82330493D01*
X97564756Y-82797937D01*
X97743262Y-83229955D01*
X98073507Y-83560776D01*
X98177460Y-83603941D01*
X98177460Y-90927045D01*
X98122472Y-90982032D01*
X98057827Y-90981976D01*
X97793874Y-91091040D01*
X97591749Y-91292812D01*
X97482225Y-91556574D01*
X97481976Y-91842173D01*
X97562684Y-92037500D01*
X97000005Y-92037500D01*
X97000000Y-92037499D01*
X96784740Y-92080318D01*
X96711646Y-92129158D01*
X96602252Y-92202252D01*
X96602250Y-92202255D01*
X94922472Y-93882032D01*
X94857827Y-93881976D01*
X94593874Y-93991040D01*
X94391749Y-94192812D01*
X94282225Y-94456574D01*
X94281976Y-94742173D01*
X94321365Y-94837500D01*
X83302859Y-94837500D01*
X83257188Y-94791749D01*
X82993426Y-94682225D01*
X82707827Y-94681976D01*
X82443874Y-94791040D01*
X82241749Y-94992812D01*
X82132225Y-95256574D01*
X82131976Y-95542173D01*
X82241040Y-95806126D01*
X82442812Y-96008251D01*
X82706574Y-96117775D01*
X82992173Y-96118024D01*
X83256126Y-96008960D01*
X83302667Y-95962500D01*
X83742050Y-95962500D01*
X83682225Y-96106574D01*
X83681976Y-96392173D01*
X83789898Y-96653361D01*
X83734707Y-96630444D01*
X83267263Y-96630036D01*
X82835245Y-96808542D01*
X82504424Y-97138787D01*
X82325164Y-97570493D01*
X82324756Y-98037937D01*
X82503262Y-98469955D01*
X82833507Y-98800776D01*
X83265213Y-98980036D01*
X83732657Y-98980444D01*
X84164675Y-98801938D01*
X84495496Y-98471693D01*
X84674756Y-98039987D01*
X84675164Y-97572543D01*
X84496658Y-97140525D01*
X84324268Y-96967834D01*
X84542173Y-96968024D01*
X84806126Y-96858960D01*
X84852667Y-96812500D01*
X85371280Y-96812500D01*
X85044424Y-97138787D01*
X84865164Y-97570493D01*
X84864756Y-98037937D01*
X85043262Y-98469955D01*
X85373507Y-98800776D01*
X85477460Y-98843941D01*
X85477460Y-101838722D01*
X85242002Y-102074180D01*
X78860239Y-102074180D01*
X78874921Y-102059498D01*
X78924400Y-101940047D01*
X78924400Y-101731650D01*
X78843150Y-101650400D01*
X78324400Y-101650400D01*
X78324400Y-101670400D01*
X78274400Y-101670400D01*
X78274400Y-101650400D01*
X78254400Y-101650400D01*
X78254400Y-101600400D01*
X78274400Y-101600400D01*
X78274400Y-101131650D01*
X78324400Y-101131650D01*
X78324400Y-101600400D01*
X78843150Y-101600400D01*
X78924400Y-101519150D01*
X78924400Y-101310753D01*
X78874921Y-101191302D01*
X78783497Y-101099878D01*
X78664046Y-101050400D01*
X78405650Y-101050400D01*
X78324400Y-101131650D01*
X78274400Y-101131650D01*
X78193150Y-101050400D01*
X77934754Y-101050400D01*
X77815303Y-101099878D01*
X77786355Y-101128826D01*
X77773469Y-101108801D01*
X77648154Y-101023177D01*
X77499400Y-100993054D01*
X77166724Y-100993054D01*
X77361971Y-100798148D01*
X77471495Y-100534386D01*
X77471744Y-100248787D01*
X77394771Y-100062500D01*
X79699995Y-100062500D01*
X79700000Y-100062501D01*
X79915260Y-100019682D01*
X80097748Y-99897748D01*
X81015206Y-98980289D01*
X81192657Y-98980444D01*
X81624675Y-98801938D01*
X81955496Y-98471693D01*
X82134756Y-98039987D01*
X82135164Y-97572543D01*
X81956658Y-97140525D01*
X81626413Y-96809704D01*
X81194707Y-96630444D01*
X80819492Y-96630117D01*
X80917775Y-96393426D01*
X80918024Y-96107827D01*
X80808960Y-95843874D01*
X80607188Y-95641749D01*
X80343426Y-95532225D01*
X80057827Y-95531976D01*
X79793874Y-95641040D01*
X79747333Y-95687500D01*
X73166426Y-95687500D01*
X73267775Y-95443426D01*
X73268024Y-95157827D01*
X73158960Y-94893874D01*
X72957188Y-94691749D01*
X72693426Y-94582225D01*
X72407827Y-94581976D01*
X72143874Y-94691040D01*
X72097333Y-94737500D01*
X69400005Y-94737500D01*
X69400000Y-94737499D01*
X69184740Y-94780318D01*
X69002252Y-94902252D01*
X67862212Y-96042292D01*
X67740278Y-96224780D01*
X67697459Y-96440040D01*
X67697460Y-96440045D01*
X67697460Y-96766308D01*
X67595245Y-96808542D01*
X67264424Y-97138787D01*
X67085164Y-97570493D01*
X67084756Y-98037937D01*
X66902306Y-98037937D01*
X66902306Y-97005240D01*
X66876158Y-96866274D01*
X66794029Y-96738641D01*
X66668714Y-96653017D01*
X66519960Y-96622894D01*
X64919960Y-96622894D01*
X64780994Y-96649042D01*
X64653361Y-96731171D01*
X64567737Y-96856486D01*
X64537614Y-97005240D01*
X62975000Y-97005240D01*
X62975000Y-82769326D01*
X64591220Y-82769326D01*
X64755241Y-83185741D01*
X64777510Y-83219068D01*
X64948862Y-83300982D01*
X65684605Y-82565240D01*
X64948862Y-81829498D01*
X64777510Y-81911412D01*
X64599040Y-82321841D01*
X64591220Y-82769326D01*
X62975000Y-82769326D01*
X62975000Y-72100000D01*
X64517654Y-72100000D01*
X64517654Y-74900000D01*
X64543802Y-75038966D01*
X64625931Y-75166599D01*
X64751246Y-75252223D01*
X64900000Y-75282346D01*
X65900000Y-75282346D01*
X66038966Y-75256198D01*
X66166599Y-75174069D01*
X66252223Y-75048754D01*
X66282346Y-74900000D01*
X66282346Y-72100000D01*
X66256198Y-71961034D01*
X66174069Y-71833401D01*
X66048754Y-71747777D01*
X65900000Y-71717654D01*
X64900000Y-71717654D01*
X64761034Y-71743802D01*
X64633401Y-71825931D01*
X64547777Y-71951246D01*
X64517654Y-72100000D01*
X62975000Y-72100000D01*
X62975000Y-64000000D01*
X64517654Y-64000000D01*
X64517654Y-66800000D01*
X64543802Y-66938966D01*
X64625931Y-67066599D01*
X64751246Y-67152223D01*
X64900000Y-67182346D01*
X65900000Y-67182346D01*
X66038966Y-67156198D01*
X66166599Y-67074069D01*
X66252223Y-66948754D01*
X66282346Y-66800000D01*
X66282346Y-64000000D01*
X66256198Y-63861034D01*
X66174069Y-63733401D01*
X66048754Y-63647777D01*
X65900000Y-63617654D01*
X64900000Y-63617654D01*
X64761034Y-63643802D01*
X64633401Y-63725931D01*
X64547777Y-63851246D01*
X64517654Y-64000000D01*
X62975000Y-64000000D01*
X62975000Y-62975000D01*
X69329505Y-62975000D01*
X66852252Y-65452252D01*
X66852252Y-65452252D01*
G37*
X66852252Y-65452252D02*
X66730318Y-65634740D01*
X66687499Y-65850000D01*
X66687500Y-65850005D01*
X66687500Y-67623293D01*
X66683401Y-67625931D01*
X66597777Y-67751246D01*
X66567654Y-67900000D01*
X66567654Y-69600000D01*
X66593802Y-69738966D01*
X66675931Y-69866599D01*
X66801246Y-69952223D01*
X66950000Y-69982346D01*
X67550000Y-69982346D01*
X67688966Y-69956198D01*
X67816599Y-69874069D01*
X67875380Y-69788040D01*
X67925931Y-69866599D01*
X67937500Y-69874504D01*
X67937500Y-70349995D01*
X67937499Y-70350000D01*
X67967654Y-70501595D01*
X67967654Y-70750000D01*
X67993802Y-70888966D01*
X68075931Y-71016599D01*
X68087500Y-71024504D01*
X68087500Y-73282176D01*
X67857827Y-73281976D01*
X67593874Y-73391040D01*
X67391749Y-73592812D01*
X67282225Y-73856574D01*
X67281976Y-74142173D01*
X67391040Y-74406126D01*
X67592812Y-74608251D01*
X67856574Y-74717775D01*
X68010803Y-74717909D01*
X68087500Y-74794607D01*
X68087500Y-75638822D01*
X68061034Y-75643802D01*
X67933401Y-75725931D01*
X67874620Y-75811960D01*
X67824069Y-75733401D01*
X67698754Y-75647777D01*
X67550000Y-75617654D01*
X66950000Y-75617654D01*
X66811034Y-75643802D01*
X66683401Y-75725931D01*
X66597777Y-75851246D01*
X66567654Y-76000000D01*
X66567654Y-77700000D01*
X66593802Y-77838966D01*
X66675931Y-77966599D01*
X66687500Y-77974504D01*
X66687500Y-79603045D01*
X66582225Y-79856574D01*
X66581976Y-80142173D01*
X66691040Y-80406126D01*
X66892812Y-80608251D01*
X67099018Y-80693876D01*
X66646447Y-81146447D01*
X66538060Y-81308658D01*
X66500000Y-81500000D01*
X66500000Y-81749842D01*
X66455701Y-81794141D01*
X66373788Y-81622790D01*
X65963359Y-81444320D01*
X65515874Y-81436500D01*
X65099459Y-81600521D01*
X65066132Y-81622790D01*
X64984218Y-81794142D01*
X65719960Y-82529885D01*
X65734102Y-82515742D01*
X65769458Y-82551098D01*
X65755315Y-82565240D01*
X65769458Y-82579382D01*
X65734102Y-82614738D01*
X65719960Y-82600595D01*
X64984218Y-83336338D01*
X65066132Y-83507690D01*
X65476561Y-83686160D01*
X65924046Y-83693980D01*
X66340461Y-83529959D01*
X66373788Y-83507690D01*
X66455701Y-83336339D01*
X66500000Y-83380638D01*
X66500000Y-83500000D01*
X66537029Y-83686160D01*
X66538060Y-83691342D01*
X66646447Y-83853553D01*
X76996446Y-94203553D01*
X77093709Y-94268542D01*
X77158658Y-94311940D01*
X77350000Y-94350000D01*
X90734750Y-94350000D01*
X90842812Y-94458251D01*
X91106574Y-94567775D01*
X91392173Y-94568024D01*
X91656126Y-94458960D01*
X91858251Y-94257188D01*
X91967775Y-93993426D01*
X91968024Y-93707827D01*
X91858960Y-93443874D01*
X91657188Y-93241749D01*
X91393426Y-93132225D01*
X91327663Y-93132168D01*
X90969563Y-92774068D01*
X91006126Y-92758960D01*
X91208251Y-92557188D01*
X91317775Y-92293426D01*
X91318024Y-92007827D01*
X91208960Y-91743874D01*
X91007188Y-91541749D01*
X90743426Y-91432225D01*
X90677663Y-91432168D01*
X90412500Y-91167004D01*
X90412500Y-83519697D01*
X90453507Y-83560776D01*
X90885213Y-83740036D01*
X91352657Y-83740444D01*
X91784675Y-83561938D01*
X92115496Y-83231693D01*
X92294756Y-82799987D01*
X92294757Y-82797937D01*
X92484756Y-82797937D01*
X92663262Y-83229955D01*
X92993507Y-83560776D01*
X93425213Y-83740036D01*
X93892657Y-83740444D01*
X94324675Y-83561938D01*
X94655496Y-83231693D01*
X94834756Y-82799987D01*
X94834757Y-82797937D01*
X95024756Y-82797937D01*
X95203262Y-83229955D01*
X95533507Y-83560776D01*
X95965213Y-83740036D01*
X96432657Y-83740444D01*
X96864675Y-83561938D01*
X97195496Y-83231693D01*
X97374756Y-82799987D01*
X97375164Y-82332543D01*
X97196658Y-81900525D01*
X96866413Y-81569704D01*
X96434707Y-81390444D01*
X95967263Y-81390036D01*
X95535245Y-81568542D01*
X95204424Y-81898787D01*
X95025164Y-82330493D01*
X95024756Y-82797937D01*
X94834757Y-82797937D01*
X94835164Y-82332543D01*
X94656658Y-81900525D01*
X94326413Y-81569704D01*
X93894707Y-81390444D01*
X93427263Y-81390036D01*
X92995245Y-81568542D01*
X92664424Y-81898787D01*
X92485164Y-82330493D01*
X92484756Y-82797937D01*
X92294757Y-82797937D01*
X92295164Y-82332543D01*
X92116658Y-81900525D01*
X91786413Y-81569704D01*
X91354707Y-81390444D01*
X90887263Y-81390036D01*
X90455245Y-81568542D01*
X90412500Y-81611213D01*
X90412500Y-80700005D01*
X90412501Y-80700000D01*
X90369682Y-80484741D01*
X90317863Y-80407188D01*
X90247748Y-80302252D01*
X90247745Y-80302250D01*
X88932346Y-78986850D01*
X88932346Y-78550000D01*
X88906198Y-78411034D01*
X88824069Y-78283401D01*
X88812500Y-78275496D01*
X88812500Y-77976707D01*
X88816599Y-77974069D01*
X88902223Y-77848754D01*
X88932346Y-77700000D01*
X88932346Y-76242156D01*
X96104550Y-76242156D01*
X96359016Y-76858012D01*
X96829790Y-77329608D01*
X97445200Y-77585148D01*
X98111556Y-77585730D01*
X98727412Y-77331264D01*
X99199008Y-76860490D01*
X99454548Y-76245080D01*
X99455130Y-75578724D01*
X99200664Y-74962868D01*
X98729890Y-74491272D01*
X98114480Y-74235732D01*
X97448124Y-74235150D01*
X96832268Y-74489616D01*
X96360672Y-74960390D01*
X96105132Y-75575800D01*
X96104550Y-76242156D01*
X88932346Y-76242156D01*
X88932346Y-76000000D01*
X88906198Y-75861034D01*
X88824069Y-75733401D01*
X88722346Y-75663897D01*
X88720842Y-75661646D01*
X88647748Y-75552252D01*
X88647745Y-75552250D01*
X88197748Y-75102252D01*
X88015260Y-74980318D01*
X87800000Y-74937499D01*
X87799995Y-74937500D01*
X84774752Y-74937500D01*
X84782346Y-74900000D01*
X84782346Y-72100000D01*
X89217654Y-72100000D01*
X89217654Y-74900000D01*
X89243802Y-75038966D01*
X89325931Y-75166599D01*
X89451246Y-75252223D01*
X89600000Y-75282346D01*
X90600000Y-75282346D01*
X90738966Y-75256198D01*
X90866599Y-75174069D01*
X90952223Y-75048754D01*
X90982346Y-74900000D01*
X90982346Y-73702156D01*
X102454550Y-73702156D01*
X102709016Y-74318012D01*
X103179790Y-74789608D01*
X103795200Y-75045148D01*
X104461556Y-75045730D01*
X105077412Y-74791264D01*
X105549008Y-74320490D01*
X105804548Y-73705080D01*
X105805130Y-73038724D01*
X105550664Y-72422868D01*
X105183319Y-72054882D01*
X105642365Y-72055282D01*
X106092631Y-71869236D01*
X106437425Y-71525043D01*
X106624257Y-71075103D01*
X106624682Y-70587915D01*
X106438636Y-70137649D01*
X106094443Y-69792855D01*
X105644503Y-69606023D01*
X105157315Y-69605598D01*
X104707049Y-69791644D01*
X104362255Y-70135837D01*
X104175423Y-70585777D01*
X104174998Y-71072965D01*
X104361044Y-71523231D01*
X104581928Y-71744500D01*
X104464480Y-71695732D01*
X103798124Y-71695150D01*
X103182268Y-71949616D01*
X102710672Y-72420390D01*
X102455132Y-73035800D01*
X102454550Y-73702156D01*
X90982346Y-73702156D01*
X90982346Y-72100000D01*
X90956198Y-71961034D01*
X90874069Y-71833401D01*
X90748754Y-71747777D01*
X90600000Y-71717654D01*
X89600000Y-71717654D01*
X89461034Y-71743802D01*
X89333401Y-71825931D01*
X89247777Y-71951246D01*
X89217654Y-72100000D01*
X84782346Y-72100000D01*
X84756198Y-71961034D01*
X84674069Y-71833401D01*
X84548754Y-71747777D01*
X84400000Y-71717654D01*
X83400000Y-71717654D01*
X83261034Y-71743802D01*
X83133401Y-71825931D01*
X83047777Y-71951246D01*
X83017654Y-72100000D01*
X83017654Y-74900000D01*
X83043802Y-75038966D01*
X83125931Y-75166599D01*
X83251246Y-75252223D01*
X83400000Y-75282346D01*
X83572159Y-75282346D01*
X82567004Y-76287500D01*
X79832346Y-76287500D01*
X79832346Y-76000000D01*
X79806198Y-75861034D01*
X79724069Y-75733401D01*
X79712500Y-75725496D01*
X79712500Y-72100000D01*
X80117654Y-72100000D01*
X80117654Y-74900000D01*
X80143802Y-75038966D01*
X80225931Y-75166599D01*
X80351246Y-75252223D01*
X80500000Y-75282346D01*
X81500000Y-75282346D01*
X81638966Y-75256198D01*
X81766599Y-75174069D01*
X81852223Y-75048754D01*
X81882346Y-74900000D01*
X81882346Y-72100000D01*
X81856198Y-71961034D01*
X81774069Y-71833401D01*
X81648754Y-71747777D01*
X81500000Y-71717654D01*
X80500000Y-71717654D01*
X80361034Y-71743802D01*
X80233401Y-71825931D01*
X80147777Y-71951246D01*
X80117654Y-72100000D01*
X79712500Y-72100000D01*
X79712500Y-71072965D01*
X94014998Y-71072965D01*
X94201044Y-71523231D01*
X94545237Y-71868025D01*
X94995177Y-72054857D01*
X95482365Y-72055282D01*
X95932631Y-71869236D01*
X96277425Y-71525043D01*
X96371360Y-71298822D01*
X97954340Y-71298822D01*
X98313645Y-72168406D01*
X98978375Y-72834297D01*
X99847331Y-73195119D01*
X100788222Y-73195940D01*
X101657806Y-72836635D01*
X102323697Y-72171905D01*
X102684519Y-71302949D01*
X102685340Y-70362058D01*
X102326035Y-69492474D01*
X101661305Y-68826583D01*
X100792349Y-68465761D01*
X99851458Y-68464940D01*
X98981874Y-68824245D01*
X98315983Y-69488975D01*
X97955161Y-70357931D01*
X97954340Y-71298822D01*
X96371360Y-71298822D01*
X96464257Y-71075103D01*
X96464682Y-70587915D01*
X96278636Y-70137649D01*
X95934443Y-69792855D01*
X95484503Y-69606023D01*
X94997315Y-69605598D01*
X94547049Y-69791644D01*
X94202255Y-70135837D01*
X94015423Y-70585777D01*
X94014998Y-71072965D01*
X79712500Y-71072965D01*
X79712500Y-70948004D01*
X79732346Y-70850000D01*
X79732346Y-70350000D01*
X79712500Y-70244527D01*
X79712500Y-69876707D01*
X79716599Y-69874069D01*
X79802223Y-69748754D01*
X79832346Y-69600000D01*
X79832346Y-67962500D01*
X81749995Y-67962500D01*
X81750000Y-67962501D01*
X81965260Y-67919682D01*
X82147748Y-67797748D01*
X85457993Y-64487502D01*
X109392006Y-64487502D01*
X110937500Y-66032995D01*
X110937500Y-81501500D01*
X110775245Y-81568542D01*
X110444424Y-81898787D01*
X110265164Y-82330493D01*
X110264756Y-82797937D01*
X110443262Y-83229955D01*
X110773507Y-83560776D01*
X111205213Y-83740036D01*
X111672657Y-83740444D01*
X112104675Y-83561938D01*
X112435496Y-83231693D01*
X112614756Y-82799987D01*
X112615164Y-82332543D01*
X112436658Y-81900525D01*
X112106413Y-81569704D01*
X112062500Y-81551470D01*
X112062500Y-81192173D01*
X112231976Y-81192173D01*
X112341040Y-81456126D01*
X112542812Y-81658251D01*
X112806574Y-81767775D01*
X112872337Y-81767832D01*
X112993866Y-81889362D01*
X112984424Y-81898787D01*
X112805164Y-82330493D01*
X112804756Y-82797937D01*
X112983262Y-83229955D01*
X113313507Y-83560776D01*
X113745213Y-83740036D01*
X114212657Y-83740444D01*
X114644675Y-83561938D01*
X114975496Y-83231693D01*
X115154756Y-82799987D01*
X115154757Y-82797937D01*
X115344756Y-82797937D01*
X115523262Y-83229955D01*
X115853507Y-83560776D01*
X116285213Y-83740036D01*
X116752657Y-83740444D01*
X117184675Y-83561938D01*
X117515496Y-83231693D01*
X117694756Y-82799987D01*
X117695164Y-82332543D01*
X117516658Y-81900525D01*
X117186413Y-81569704D01*
X116754707Y-81390444D01*
X116287263Y-81390036D01*
X115855245Y-81568542D01*
X115524424Y-81898787D01*
X115345164Y-82330493D01*
X115344756Y-82797937D01*
X115154757Y-82797937D01*
X115155164Y-82332543D01*
X114976658Y-81900525D01*
X114646413Y-81569704D01*
X114214707Y-81390444D01*
X114085827Y-81390332D01*
X113667968Y-80972472D01*
X113668024Y-80907827D01*
X113558960Y-80643874D01*
X113357188Y-80441749D01*
X113093426Y-80332225D01*
X112807827Y-80331976D01*
X112543874Y-80441040D01*
X112341749Y-80642812D01*
X112232225Y-80906574D01*
X112231976Y-81192173D01*
X112062500Y-81192173D01*
X112062500Y-79577624D01*
X112242812Y-79758251D01*
X112506574Y-79867775D01*
X112792173Y-79868024D01*
X112805542Y-79862500D01*
X114883574Y-79862500D01*
X114782225Y-80106574D01*
X114781976Y-80392173D01*
X114891040Y-80656126D01*
X115092812Y-80858251D01*
X115356574Y-80967775D01*
X115642173Y-80968024D01*
X115906126Y-80858960D01*
X115952667Y-80812500D01*
X118217004Y-80812500D01*
X118497460Y-81092955D01*
X118497460Y-81526308D01*
X118395245Y-81568542D01*
X118064424Y-81898787D01*
X117885164Y-82330493D01*
X117884756Y-82797937D01*
X118063262Y-83229955D01*
X118393507Y-83560776D01*
X118825213Y-83740036D01*
X119292657Y-83740444D01*
X119724675Y-83561938D01*
X120055496Y-83231693D01*
X120234756Y-82799987D01*
X120235164Y-82332543D01*
X120056658Y-81900525D01*
X119726413Y-81569704D01*
X119622460Y-81526539D01*
X119622460Y-80859965D01*
X119622461Y-80859960D01*
X119579642Y-80644701D01*
X119524718Y-80562501D01*
X119457708Y-80462212D01*
X119457705Y-80462210D01*
X118857996Y-79862500D01*
X120217004Y-79862500D01*
X121037460Y-80682956D01*
X121037460Y-81526308D01*
X120935245Y-81568542D01*
X120604424Y-81898787D01*
X120425164Y-82330493D01*
X120424756Y-82797937D01*
X120603262Y-83229955D01*
X120933507Y-83560776D01*
X121365213Y-83740036D01*
X121832657Y-83740444D01*
X122264675Y-83561938D01*
X122595496Y-83231693D01*
X122774756Y-82799987D01*
X122775164Y-82332543D01*
X122596658Y-81900525D01*
X122266413Y-81569704D01*
X122162460Y-81526539D01*
X122162460Y-80449965D01*
X122162461Y-80449960D01*
X122119642Y-80234700D01*
X121997708Y-80052212D01*
X120847748Y-78902252D01*
X120665260Y-78780318D01*
X120450000Y-78737499D01*
X120449995Y-78737500D01*
X113252597Y-78737500D01*
X113057188Y-78541749D01*
X112793426Y-78432225D01*
X112507827Y-78431976D01*
X112243874Y-78541040D01*
X112062500Y-78722097D01*
X112062500Y-76318356D01*
X114123310Y-76318356D01*
X114377776Y-76934212D01*
X114848550Y-77405808D01*
X115463960Y-77661348D01*
X116130316Y-77661930D01*
X116746172Y-77407464D01*
X117217768Y-76936690D01*
X117473308Y-76321280D01*
X117473890Y-75654924D01*
X117219424Y-75039068D01*
X116748650Y-74567472D01*
X116133240Y-74311932D01*
X115466884Y-74311350D01*
X114851028Y-74565816D01*
X114379432Y-75036590D01*
X114123892Y-75652000D01*
X114123310Y-76318356D01*
X112062500Y-76318356D01*
X112062500Y-73778356D01*
X120473310Y-73778356D01*
X120727776Y-74394212D01*
X121198550Y-74865808D01*
X121813960Y-75121348D01*
X122480316Y-75121930D01*
X123096172Y-74867464D01*
X123567768Y-74396690D01*
X123823308Y-73781280D01*
X123823890Y-73114924D01*
X123569424Y-72499068D01*
X123202079Y-72131082D01*
X123661125Y-72131482D01*
X124111391Y-71945436D01*
X124456185Y-71601243D01*
X124643017Y-71151303D01*
X124643442Y-70664115D01*
X124457396Y-70213849D01*
X124113203Y-69869055D01*
X123663263Y-69682223D01*
X123176075Y-69681798D01*
X122725809Y-69867844D01*
X122381015Y-70212037D01*
X122194183Y-70661977D01*
X122193758Y-71149165D01*
X122379804Y-71599431D01*
X122600688Y-71820700D01*
X122483240Y-71771932D01*
X121816884Y-71771350D01*
X121201028Y-72025816D01*
X120729432Y-72496590D01*
X120473892Y-73112000D01*
X120473310Y-73778356D01*
X112062500Y-73778356D01*
X112062500Y-71218726D01*
X112219804Y-71599431D01*
X112563997Y-71944225D01*
X113013937Y-72131057D01*
X113501125Y-72131482D01*
X113951391Y-71945436D01*
X114296185Y-71601243D01*
X114483017Y-71151303D01*
X114483442Y-70664115D01*
X114297396Y-70213849D01*
X113953203Y-69869055D01*
X113503263Y-69682223D01*
X113016075Y-69681798D01*
X112565809Y-69867844D01*
X112221015Y-70212037D01*
X112062500Y-70593782D01*
X112062500Y-65800005D01*
X112062501Y-65800000D01*
X112052071Y-65747567D01*
X114787500Y-68482995D01*
X114787500Y-70497141D01*
X114741749Y-70542812D01*
X114632225Y-70806574D01*
X114631976Y-71092173D01*
X114741040Y-71356126D01*
X114942812Y-71558251D01*
X115206574Y-71667775D01*
X115492173Y-71668024D01*
X115756126Y-71558960D01*
X115958251Y-71357188D01*
X115973147Y-71321315D01*
X115973100Y-71375022D01*
X116332405Y-72244606D01*
X116997135Y-72910497D01*
X117866091Y-73271319D01*
X118806982Y-73272140D01*
X119676566Y-72912835D01*
X120342457Y-72248105D01*
X120703279Y-71379149D01*
X120704100Y-70438258D01*
X120344795Y-69568674D01*
X119680065Y-68902783D01*
X118811109Y-68541961D01*
X117870218Y-68541140D01*
X117000634Y-68900445D01*
X116334743Y-69565175D01*
X115973921Y-70434131D01*
X115973794Y-70579775D01*
X115958960Y-70543874D01*
X115912500Y-70497333D01*
X115912500Y-68250000D01*
X115869682Y-68034741D01*
X115747748Y-67852252D01*
X115747745Y-67852250D01*
X110870496Y-62975000D01*
X126025000Y-62975000D01*
X126025000Y-116525000D01*
X62975000Y-116525000D01*
X62975000Y-110854960D01*
X64679174Y-110854960D01*
X64679174Y-114654960D01*
X64705322Y-114793926D01*
X64787451Y-114921559D01*
X64912766Y-115007183D01*
X65061520Y-115037306D01*
X66861520Y-115037306D01*
X67000486Y-115011158D01*
X67128119Y-114929029D01*
X67213743Y-114803714D01*
X67243866Y-114654960D01*
X67243866Y-110854960D01*
X71379174Y-110854960D01*
X71379174Y-114654960D01*
X71405322Y-114793926D01*
X71487451Y-114921559D01*
X71612766Y-115007183D01*
X71761520Y-115037306D01*
X73561520Y-115037306D01*
X73700486Y-115011158D01*
X73828119Y-114929029D01*
X73913743Y-114803714D01*
X73943866Y-114654960D01*
X73943866Y-110854960D01*
X73917718Y-110715994D01*
X73835589Y-110588361D01*
X73710274Y-110502737D01*
X73561520Y-110472614D01*
X71761520Y-110472614D01*
X71622554Y-110498762D01*
X71494921Y-110580891D01*
X71409297Y-110706206D01*
X71379174Y-110854960D01*
X67243866Y-110854960D01*
X67217718Y-110715994D01*
X67135589Y-110588361D01*
X67010274Y-110502737D01*
X66861520Y-110472614D01*
X65061520Y-110472614D01*
X64922554Y-110498762D01*
X64794921Y-110580891D01*
X64709297Y-110706206D01*
X64679174Y-110854960D01*
X62975000Y-110854960D01*
X62975000Y-97005240D01*
X64537614Y-97005240D01*
X64537614Y-98605240D01*
X64563762Y-98744206D01*
X64645891Y-98871839D01*
X64771206Y-98957463D01*
X64919960Y-98987586D01*
X66519960Y-98987586D01*
X66658926Y-98961438D01*
X66786559Y-98879309D01*
X66872183Y-98753994D01*
X66902306Y-98605240D01*
X66902306Y-98037937D01*
X67084756Y-98037937D01*
X67263262Y-98469955D01*
X67593507Y-98800776D01*
X68025213Y-98980036D01*
X68492657Y-98980444D01*
X68924675Y-98801938D01*
X69255496Y-98471693D01*
X69434756Y-98039987D01*
X69435164Y-97572543D01*
X69256658Y-97140525D01*
X68926413Y-96809704D01*
X68822460Y-96766539D01*
X68822460Y-96673036D01*
X69632996Y-95862500D01*
X71492005Y-95862500D01*
X70724331Y-96630173D01*
X70567263Y-96630036D01*
X70135245Y-96808542D01*
X69804424Y-97138787D01*
X69625164Y-97570493D01*
X69624756Y-98037937D01*
X69803262Y-98469955D01*
X70133507Y-98800776D01*
X70491025Y-98949230D01*
X70336159Y-98980036D01*
X70334741Y-98980318D01*
X70152252Y-99102252D01*
X70152250Y-99102255D01*
X69152252Y-100102252D01*
X69030318Y-100284740D01*
X68987499Y-100500000D01*
X68987500Y-100500005D01*
X68987500Y-102699995D01*
X68987499Y-102700000D01*
X69030318Y-102915260D01*
X69152252Y-103097748D01*
X69695425Y-103640920D01*
X69357240Y-103640920D01*
X69103750Y-103691342D01*
X69022391Y-103707525D01*
X68738521Y-103897202D01*
X67692802Y-104942922D01*
X67503125Y-105226792D01*
X67436520Y-105561640D01*
X67436520Y-106918684D01*
X67429174Y-106954960D01*
X67429174Y-109654960D01*
X67455322Y-109793926D01*
X67537451Y-109921559D01*
X67662766Y-110007183D01*
X67811520Y-110037306D01*
X68811520Y-110037306D01*
X68950486Y-110011158D01*
X69078119Y-109929029D01*
X69163743Y-109803714D01*
X69193866Y-109654960D01*
X69193866Y-106954960D01*
X69186520Y-106915919D01*
X69186520Y-106676400D01*
X69406574Y-106767775D01*
X69485509Y-106767844D01*
X69459297Y-106806206D01*
X69429174Y-106954960D01*
X69429174Y-109654960D01*
X69455322Y-109793926D01*
X69537451Y-109921559D01*
X69662766Y-110007183D01*
X69811520Y-110037306D01*
X70811520Y-110037306D01*
X70950486Y-110011158D01*
X71078119Y-109929029D01*
X71163743Y-109803714D01*
X71193866Y-109654960D01*
X71193866Y-109179960D01*
X71953760Y-109179960D01*
X72288608Y-109113355D01*
X72572478Y-108923678D01*
X73544299Y-107951857D01*
X73576026Y-108035485D01*
X73810065Y-108284051D01*
X76909762Y-110492934D01*
X76786160Y-110492934D01*
X76647194Y-110519082D01*
X76519561Y-110601211D01*
X76433937Y-110726526D01*
X76403814Y-110875280D01*
X76403814Y-114675280D01*
X76429962Y-114814246D01*
X76512091Y-114941879D01*
X76637406Y-115027503D01*
X76786160Y-115057626D01*
X78586160Y-115057626D01*
X78725126Y-115031478D01*
X78852759Y-114949349D01*
X78938383Y-114824034D01*
X78968506Y-114675280D01*
X78968506Y-111456147D01*
X79110831Y-111551246D01*
X79116352Y-111554935D01*
X79451200Y-111621540D01*
X81577180Y-111621540D01*
X81912028Y-111554935D01*
X82195898Y-111365258D01*
X82654879Y-110906278D01*
X82675591Y-110875280D01*
X83103814Y-110875280D01*
X83103814Y-114675280D01*
X83129962Y-114814246D01*
X83212091Y-114941879D01*
X83337406Y-115027503D01*
X83486160Y-115057626D01*
X85286160Y-115057626D01*
X85425126Y-115031478D01*
X85552759Y-114949349D01*
X85638383Y-114824034D01*
X85668506Y-114675280D01*
X85668506Y-113233200D01*
X86537694Y-113233200D01*
X86537694Y-115933200D01*
X86563842Y-116072166D01*
X86645971Y-116199799D01*
X86771286Y-116285423D01*
X86920040Y-116315546D01*
X87920040Y-116315546D01*
X88059006Y-116289398D01*
X88186639Y-116207269D01*
X88272263Y-116081954D01*
X88302386Y-115933200D01*
X88302386Y-113233200D01*
X88276238Y-113094234D01*
X88194109Y-112966601D01*
X88068794Y-112880977D01*
X87920040Y-112850854D01*
X86920040Y-112850854D01*
X86781074Y-112877002D01*
X86653441Y-112959131D01*
X86567817Y-113084446D01*
X86537694Y-113233200D01*
X85668506Y-113233200D01*
X85668506Y-110875280D01*
X85642358Y-110736314D01*
X85560229Y-110608681D01*
X85434914Y-110523057D01*
X85286160Y-110492934D01*
X83486160Y-110492934D01*
X83347194Y-110519082D01*
X83219561Y-110601211D01*
X83133937Y-110726526D01*
X83103814Y-110875280D01*
X82675591Y-110875280D01*
X82844555Y-110622408D01*
X82911160Y-110287560D01*
X82911160Y-109711556D01*
X82918506Y-109675280D01*
X82918506Y-106975280D01*
X82892358Y-106836314D01*
X82810229Y-106708681D01*
X82684914Y-106623057D01*
X82536160Y-106592934D01*
X81536160Y-106592934D01*
X81397194Y-106619082D01*
X81269561Y-106701211D01*
X81183937Y-106826526D01*
X81153814Y-106975280D01*
X81153814Y-109675280D01*
X81161160Y-109714321D01*
X81161160Y-109871540D01*
X80855924Y-109871540D01*
X80888383Y-109824034D01*
X80918506Y-109675280D01*
X80918506Y-106975280D01*
X80911160Y-106936239D01*
X80911160Y-105883200D01*
X80844555Y-105548352D01*
X80811336Y-105498637D01*
X80654879Y-105264482D01*
X80390397Y-105000000D01*
X89017654Y-105000000D01*
X89017654Y-107800000D01*
X89043802Y-107938966D01*
X89125931Y-108066599D01*
X89251246Y-108152223D01*
X89400000Y-108182346D01*
X90400000Y-108182346D01*
X90538966Y-108156198D01*
X90666599Y-108074069D01*
X90752223Y-107948754D01*
X90782346Y-107800000D01*
X90782346Y-105000000D01*
X90756198Y-104861034D01*
X90674069Y-104733401D01*
X90548754Y-104647777D01*
X90400000Y-104617654D01*
X89400000Y-104617654D01*
X89261034Y-104643802D01*
X89133401Y-104725931D01*
X89047777Y-104851246D01*
X89017654Y-105000000D01*
X80390397Y-105000000D01*
X80214698Y-104824302D01*
X80161117Y-104788500D01*
X79338398Y-103965782D01*
X79163892Y-103849180D01*
X87013315Y-103849180D01*
X87013320Y-103849181D01*
X87228580Y-103806362D01*
X87411068Y-103684428D01*
X87812975Y-103282521D01*
X87782225Y-103356574D01*
X87781976Y-103642173D01*
X87891040Y-103906126D01*
X88092812Y-104108251D01*
X88356574Y-104217775D01*
X88642173Y-104218024D01*
X88906126Y-104108960D01*
X89108251Y-103907188D01*
X89217775Y-103643426D01*
X89217797Y-103618626D01*
X89456574Y-103717775D01*
X89742173Y-103718024D01*
X89997559Y-103612500D01*
X91067654Y-103612500D01*
X91067654Y-103900000D01*
X91093802Y-104038966D01*
X91175931Y-104166599D01*
X91301246Y-104252223D01*
X91450000Y-104282346D01*
X92050000Y-104282346D01*
X92188966Y-104256198D01*
X92316599Y-104174069D01*
X92375380Y-104088040D01*
X92425931Y-104166599D01*
X92437500Y-104174504D01*
X92437500Y-104922114D01*
X92407188Y-104891749D01*
X92143426Y-104782225D01*
X91857827Y-104781976D01*
X91593874Y-104891040D01*
X91391749Y-105092812D01*
X91282225Y-105356574D01*
X91281976Y-105642173D01*
X91391040Y-105906126D01*
X91500000Y-106015277D01*
X91500000Y-106500000D01*
X91531478Y-106658251D01*
X91538060Y-106691342D01*
X91646447Y-106853553D01*
X92520040Y-107727147D01*
X92520040Y-110216276D01*
X92453441Y-110259131D01*
X92394660Y-110345160D01*
X92344109Y-110266601D01*
X92218794Y-110180977D01*
X92070040Y-110150854D01*
X91470040Y-110150854D01*
X91331074Y-110177002D01*
X91203441Y-110259131D01*
X91144660Y-110345160D01*
X91094109Y-110266601D01*
X90968794Y-110180977D01*
X90820040Y-110150854D01*
X90220040Y-110150854D01*
X90214237Y-110151946D01*
X90217775Y-110143426D01*
X90218024Y-109857827D01*
X90108960Y-109593874D01*
X89907188Y-109391749D01*
X89643426Y-109282225D01*
X89357827Y-109281976D01*
X89093874Y-109391040D01*
X88891749Y-109592812D01*
X88782225Y-109856574D01*
X88781976Y-110142173D01*
X88785706Y-110151201D01*
X88773161Y-110214267D01*
X88703441Y-110259131D01*
X88617817Y-110384446D01*
X88587694Y-110533200D01*
X88587694Y-112233200D01*
X88613842Y-112372166D01*
X88695971Y-112499799D01*
X88821286Y-112585423D01*
X88970040Y-112615546D01*
X89570040Y-112615546D01*
X89709006Y-112589398D01*
X89836639Y-112507269D01*
X89895420Y-112421240D01*
X89945971Y-112499799D01*
X90020040Y-112550408D01*
X90020040Y-113520040D01*
X90045184Y-113646447D01*
X90058100Y-113711382D01*
X90166487Y-113873593D01*
X90282109Y-113989215D01*
X90281976Y-114142173D01*
X90391040Y-114406126D01*
X90592812Y-114608251D01*
X90856574Y-114717775D01*
X91142173Y-114718024D01*
X91406126Y-114608960D01*
X91608251Y-114407188D01*
X91717775Y-114143426D01*
X91718024Y-113857827D01*
X91608960Y-113593874D01*
X91407188Y-113391749D01*
X91143426Y-113282225D01*
X91020040Y-113282117D01*
X91020040Y-112550124D01*
X91086639Y-112507269D01*
X91145420Y-112421240D01*
X91195971Y-112499799D01*
X91207540Y-112507704D01*
X91207540Y-112770035D01*
X91207539Y-112770040D01*
X91250358Y-112985300D01*
X91372292Y-113167788D01*
X93452250Y-115247745D01*
X93452252Y-115247748D01*
X93634741Y-115369682D01*
X93850000Y-115412501D01*
X93850005Y-115412500D01*
X95297141Y-115412500D01*
X95342812Y-115458251D01*
X95606574Y-115567775D01*
X95892173Y-115568024D01*
X96156126Y-115458960D01*
X96358251Y-115257188D01*
X96467775Y-114993426D01*
X96468024Y-114707827D01*
X96391799Y-114523349D01*
X96487694Y-114427622D01*
X96487694Y-115933200D01*
X96513842Y-116072166D01*
X96595971Y-116199799D01*
X96721286Y-116285423D01*
X96870040Y-116315546D01*
X97870040Y-116315546D01*
X98009006Y-116289398D01*
X98136639Y-116207269D01*
X98222263Y-116081954D01*
X98252386Y-115933200D01*
X98252386Y-113233200D01*
X98226238Y-113094234D01*
X98144109Y-112966601D01*
X98018794Y-112880977D01*
X97870040Y-112850854D01*
X96870040Y-112850854D01*
X96731074Y-112877002D01*
X96603441Y-112959131D01*
X96517817Y-113084446D01*
X96487694Y-113233200D01*
X96487694Y-113472483D01*
X96357188Y-113341749D01*
X96168038Y-113263207D01*
X96217775Y-113143426D01*
X96218024Y-112857827D01*
X96108960Y-112593874D01*
X96082540Y-112567408D01*
X96082540Y-112509907D01*
X96086639Y-112507269D01*
X96172263Y-112381954D01*
X96202386Y-112233200D01*
X96202386Y-110533200D01*
X96176238Y-110394234D01*
X96094109Y-110266601D01*
X95968794Y-110180977D01*
X95820040Y-110150854D01*
X95220040Y-110150854D01*
X95081074Y-110177002D01*
X94953441Y-110259131D01*
X94894660Y-110345160D01*
X94844109Y-110266601D01*
X94832540Y-110258696D01*
X94832540Y-107570045D01*
X94832541Y-107570040D01*
X94789722Y-107354781D01*
X94766270Y-107319682D01*
X94667788Y-107172292D01*
X94667785Y-107172290D01*
X93562500Y-106067004D01*
X93562500Y-105412500D01*
X94849995Y-105412500D01*
X94850000Y-105412501D01*
X95065260Y-105369682D01*
X95217654Y-105267856D01*
X95217654Y-107800000D01*
X95243802Y-107938966D01*
X95325931Y-108066599D01*
X95451246Y-108152223D01*
X95600000Y-108182346D01*
X96600000Y-108182346D01*
X96738966Y-108156198D01*
X96866599Y-108074069D01*
X96952223Y-107948754D01*
X96982346Y-107800000D01*
X96982346Y-105000000D01*
X96975290Y-104962500D01*
X97425248Y-104962500D01*
X97417654Y-105000000D01*
X97417654Y-107800000D01*
X97443802Y-107938966D01*
X97525931Y-108066599D01*
X97651246Y-108152223D01*
X97800000Y-108182346D01*
X98800000Y-108182346D01*
X98938966Y-108156198D01*
X99066599Y-108074069D01*
X99152223Y-107948754D01*
X99182346Y-107800000D01*
X99182346Y-105262500D01*
X99821288Y-105262500D01*
X99782225Y-105356574D01*
X99781976Y-105642173D01*
X99891040Y-105906126D01*
X100092812Y-106108251D01*
X100356574Y-106217775D01*
X100500000Y-106217900D01*
X100500000Y-108500000D01*
X100536869Y-108685353D01*
X100538060Y-108691342D01*
X100646447Y-108853553D01*
X102058980Y-110266087D01*
X102054001Y-110269291D01*
X101995220Y-110355320D01*
X101944669Y-110276761D01*
X101819354Y-110191137D01*
X101670600Y-110161014D01*
X101070600Y-110161014D01*
X100931634Y-110187162D01*
X100804001Y-110269291D01*
X100718377Y-110394606D01*
X100688254Y-110543360D01*
X100688254Y-110893360D01*
X100408796Y-110893360D01*
X100407188Y-110891749D01*
X100143426Y-110782225D01*
X99857827Y-110781976D01*
X99593874Y-110891040D01*
X99484723Y-111000000D01*
X99207106Y-111000000D01*
X97217891Y-109010785D01*
X97218024Y-108857827D01*
X97108960Y-108593874D01*
X96907188Y-108391749D01*
X96643426Y-108282225D01*
X96357827Y-108281976D01*
X96093874Y-108391040D01*
X95891749Y-108592812D01*
X95782225Y-108856574D01*
X95781976Y-109142173D01*
X95891040Y-109406126D01*
X96092812Y-109608251D01*
X96356574Y-109717775D01*
X96510803Y-109717909D01*
X98646447Y-111853553D01*
X98808658Y-111961940D01*
X99000000Y-112000000D01*
X99484750Y-112000000D01*
X99592812Y-112108251D01*
X99856574Y-112217775D01*
X100142173Y-112218024D01*
X100406126Y-112108960D01*
X100608251Y-111907188D01*
X100613993Y-111893360D01*
X100688254Y-111893360D01*
X100688254Y-112243360D01*
X100707229Y-112344202D01*
X100593874Y-112391040D01*
X100391749Y-112592812D01*
X100282225Y-112856574D01*
X100282128Y-112968192D01*
X100169354Y-112891137D01*
X100020600Y-112861014D01*
X99020600Y-112861014D01*
X98881634Y-112887162D01*
X98754001Y-112969291D01*
X98668377Y-113094606D01*
X98638254Y-113243360D01*
X98638254Y-115943360D01*
X98664402Y-116082326D01*
X98746531Y-116209959D01*
X98871846Y-116295583D01*
X99020600Y-116325706D01*
X100020600Y-116325706D01*
X100159566Y-116299558D01*
X100287199Y-116217429D01*
X100372823Y-116092114D01*
X100402946Y-115943360D01*
X100402946Y-114468315D01*
X100442812Y-114508251D01*
X100706574Y-114617775D01*
X100992173Y-114618024D01*
X101256126Y-114508960D01*
X101302667Y-114462500D01*
X105449995Y-114462500D01*
X105450000Y-114462501D01*
X105665260Y-114419682D01*
X105847748Y-114297748D01*
X106768348Y-113377148D01*
X106890282Y-113194660D01*
X106932114Y-112984364D01*
X106931976Y-113142173D01*
X107041040Y-113406126D01*
X107242812Y-113608251D01*
X107506574Y-113717775D01*
X107792173Y-113718024D01*
X108056126Y-113608960D01*
X108258251Y-113407188D01*
X108326278Y-113243360D01*
X108588254Y-113243360D01*
X108588254Y-115943360D01*
X108614402Y-116082326D01*
X108696531Y-116209959D01*
X108821846Y-116295583D01*
X108970600Y-116325706D01*
X109970600Y-116325706D01*
X110109566Y-116299558D01*
X110237199Y-116217429D01*
X110322823Y-116092114D01*
X110352946Y-115943360D01*
X110352946Y-113243360D01*
X110326798Y-113104394D01*
X110244669Y-112976761D01*
X110119354Y-112891137D01*
X109970600Y-112861014D01*
X108970600Y-112861014D01*
X108831634Y-112887162D01*
X108704001Y-112969291D01*
X108618377Y-113094606D01*
X108588254Y-113243360D01*
X108326278Y-113243360D01*
X108367775Y-113143426D01*
X108368024Y-112857827D01*
X108258960Y-112593874D01*
X108184428Y-112519212D01*
X108187199Y-112517429D01*
X108272823Y-112392114D01*
X108302946Y-112243360D01*
X108302946Y-110850000D01*
X110817654Y-110850000D01*
X110817654Y-111250000D01*
X110843802Y-111388966D01*
X110916077Y-111501285D01*
X110847777Y-111601246D01*
X110817654Y-111750000D01*
X110817654Y-112150000D01*
X110843802Y-112288966D01*
X110925931Y-112416599D01*
X111051246Y-112502223D01*
X111200000Y-112532346D01*
X111800000Y-112532346D01*
X111905473Y-112512500D01*
X111987500Y-112512500D01*
X111987500Y-113492980D01*
X111671034Y-113704435D01*
X111405488Y-114101854D01*
X111312240Y-114570641D01*
X111312240Y-114618639D01*
X111405488Y-115087426D01*
X111671034Y-115484845D01*
X112068453Y-115750391D01*
X112537240Y-115843639D01*
X113006027Y-115750391D01*
X113403446Y-115484845D01*
X113668992Y-115087426D01*
X113762240Y-114618639D01*
X113762240Y-114570641D01*
X113668992Y-114101854D01*
X113403446Y-113704435D01*
X113112500Y-113510032D01*
X113112500Y-112654502D01*
X113250000Y-112682346D01*
X113650000Y-112682346D01*
X113733441Y-112666646D01*
X113856574Y-112717775D01*
X114142173Y-112718024D01*
X114268474Y-112665837D01*
X114350000Y-112682346D01*
X114750000Y-112682346D01*
X114888966Y-112656198D01*
X115001285Y-112583923D01*
X115101246Y-112652223D01*
X115250000Y-112682346D01*
X115522159Y-112682346D01*
X114842210Y-113362294D01*
X114227240Y-113362294D01*
X114088274Y-113388442D01*
X113960641Y-113470571D01*
X113875017Y-113595886D01*
X113844894Y-113744640D01*
X113844894Y-115444640D01*
X113871042Y-115583606D01*
X113953171Y-115711239D01*
X114078486Y-115796863D01*
X114227240Y-115826986D01*
X115927240Y-115826986D01*
X116066206Y-115800838D01*
X116193839Y-115718709D01*
X116279463Y-115593394D01*
X116309586Y-115444640D01*
X116309586Y-113744640D01*
X116283438Y-113605674D01*
X116246784Y-113548711D01*
X116747745Y-113047750D01*
X116747748Y-113047748D01*
X116869682Y-112865259D01*
X116912500Y-112650000D01*
X116912500Y-111606891D01*
X116952223Y-111548754D01*
X116982346Y-111400000D01*
X116982346Y-110800000D01*
X116956198Y-110661034D01*
X116883923Y-110548715D01*
X116908667Y-110512500D01*
X117047141Y-110512500D01*
X117092812Y-110558251D01*
X117356574Y-110667775D01*
X117642173Y-110668024D01*
X117906126Y-110558960D01*
X118108251Y-110357188D01*
X118217775Y-110093426D01*
X118218024Y-109807827D01*
X118108960Y-109543874D01*
X118046095Y-109480899D01*
X118102223Y-109398754D01*
X118132346Y-109250000D01*
X118132346Y-108750000D01*
X118106198Y-108611034D01*
X118024069Y-108483401D01*
X117898754Y-108397777D01*
X117750000Y-108367654D01*
X117150000Y-108367654D01*
X117011034Y-108393802D01*
X116883401Y-108475931D01*
X116863977Y-108504358D01*
X116834097Y-108474478D01*
X116714646Y-108425000D01*
X116456250Y-108425000D01*
X116375000Y-108506250D01*
X116375000Y-108975000D01*
X116395000Y-108975000D01*
X116395000Y-109025000D01*
X116375000Y-109025000D01*
X116375000Y-109045000D01*
X116325000Y-109045000D01*
X116325000Y-109025000D01*
X115806250Y-109025000D01*
X115743388Y-109087862D01*
X115689680Y-109077179D01*
X115689675Y-109077180D01*
X115547044Y-109077180D01*
X115449040Y-109057334D01*
X115081386Y-109057334D01*
X115081386Y-109014680D01*
X115055238Y-108875714D01*
X114973109Y-108748081D01*
X114881304Y-108685353D01*
X115725000Y-108685353D01*
X115725000Y-108893750D01*
X115806250Y-108975000D01*
X116325000Y-108975000D01*
X116325000Y-108506250D01*
X116243750Y-108425000D01*
X115985354Y-108425000D01*
X115865903Y-108474478D01*
X115774479Y-108565902D01*
X115725000Y-108685353D01*
X114881304Y-108685353D01*
X114847794Y-108662457D01*
X114699040Y-108632334D01*
X114377788Y-108632334D01*
X114292466Y-108596905D01*
X114006867Y-108596656D01*
X113920520Y-108632334D01*
X113599040Y-108632334D01*
X113460074Y-108658482D01*
X113332441Y-108740611D01*
X113246817Y-108865926D01*
X113216694Y-109014680D01*
X113216694Y-109057334D01*
X112849040Y-109057334D01*
X112743567Y-109077180D01*
X112417485Y-109077180D01*
X112417480Y-109077179D01*
X112235617Y-109113355D01*
X112202221Y-109119998D01*
X112137520Y-109163229D01*
X112137520Y-109082450D01*
X112056270Y-109001200D01*
X111537520Y-109001200D01*
X111537520Y-109021200D01*
X111487520Y-109021200D01*
X111487520Y-109001200D01*
X110968770Y-109001200D01*
X110887520Y-109082450D01*
X110887520Y-109240846D01*
X110936998Y-109360297D01*
X110965946Y-109389245D01*
X110945921Y-109402131D01*
X110860297Y-109527446D01*
X110830174Y-109676200D01*
X110830174Y-110076200D01*
X110856322Y-110215166D01*
X110937320Y-110341041D01*
X110937320Y-110573409D01*
X110933401Y-110575931D01*
X110847777Y-110701246D01*
X110817654Y-110850000D01*
X108302946Y-110850000D01*
X108302946Y-110543360D01*
X108276798Y-110404394D01*
X108194669Y-110276761D01*
X108069354Y-110191137D01*
X107920600Y-110161014D01*
X107320600Y-110161014D01*
X107181634Y-110187162D01*
X107054001Y-110269291D01*
X106995220Y-110355320D01*
X106944669Y-110276761D01*
X106933100Y-110268856D01*
X106933100Y-109670605D01*
X106933101Y-109670600D01*
X106890282Y-109455341D01*
X106861697Y-109412560D01*
X106768348Y-109272852D01*
X106768345Y-109272850D01*
X106207050Y-108711554D01*
X110887520Y-108711554D01*
X110887520Y-108869950D01*
X110968770Y-108951200D01*
X111487520Y-108951200D01*
X111487520Y-108532450D01*
X111537520Y-108532450D01*
X111537520Y-108951200D01*
X112056270Y-108951200D01*
X112137520Y-108869950D01*
X112137520Y-108711554D01*
X112088042Y-108592103D01*
X111996618Y-108500679D01*
X111877167Y-108451200D01*
X111618770Y-108451200D01*
X111537520Y-108532450D01*
X111487520Y-108532450D01*
X111406270Y-108451200D01*
X111147873Y-108451200D01*
X111028422Y-108500679D01*
X110936998Y-108592103D01*
X110887520Y-108711554D01*
X106207050Y-108711554D01*
X105947748Y-108452252D01*
X105765260Y-108330318D01*
X105550000Y-108287499D01*
X105549995Y-108287500D01*
X104432995Y-108287500D01*
X104327841Y-108182346D01*
X105000000Y-108182346D01*
X105138966Y-108156198D01*
X105266599Y-108074069D01*
X105352223Y-107948754D01*
X105382346Y-107800000D01*
X105382346Y-105000000D01*
X105356198Y-104861034D01*
X105274069Y-104733401D01*
X105148754Y-104647777D01*
X105000000Y-104617654D01*
X104000000Y-104617654D01*
X103861034Y-104643802D01*
X103733401Y-104725931D01*
X103647777Y-104851246D01*
X103617654Y-105000000D01*
X103617654Y-105522159D01*
X103047748Y-104952252D01*
X102865260Y-104830318D01*
X102650000Y-104787499D01*
X102649995Y-104787500D01*
X102332995Y-104787500D01*
X101962500Y-104417004D01*
X101962500Y-104176707D01*
X101966599Y-104174069D01*
X102025380Y-104088040D01*
X102075931Y-104166599D01*
X102201246Y-104252223D01*
X102350000Y-104282346D01*
X102950000Y-104282346D01*
X103088966Y-104256198D01*
X103216599Y-104174069D01*
X103302223Y-104048754D01*
X103332346Y-103900000D01*
X103332346Y-102200000D01*
X103306198Y-102061034D01*
X103224069Y-101933401D01*
X103212500Y-101925496D01*
X103212500Y-99746955D01*
X103317775Y-99493426D01*
X103318024Y-99207827D01*
X103208960Y-98943874D01*
X103007188Y-98741749D01*
X102743426Y-98632225D01*
X102457827Y-98631976D01*
X102193874Y-98741040D01*
X101991749Y-98942812D01*
X101882225Y-99206574D01*
X101881976Y-99492173D01*
X101991040Y-99756126D01*
X102087500Y-99852755D01*
X102087500Y-100881976D01*
X102024069Y-100783401D01*
X101898754Y-100697777D01*
X101842460Y-100686377D01*
X101842460Y-98844172D01*
X101944675Y-98801938D01*
X102275496Y-98471693D01*
X102454756Y-98039987D01*
X102455164Y-97572543D01*
X102276658Y-97140525D01*
X101949204Y-96812500D01*
X103151280Y-96812500D01*
X102824424Y-97138787D01*
X102645164Y-97570493D01*
X102644756Y-98037937D01*
X102823262Y-98469955D01*
X103153507Y-98800776D01*
X103585213Y-98980036D01*
X104052657Y-98980444D01*
X104484675Y-98801938D01*
X104815496Y-98471693D01*
X104994756Y-98039987D01*
X104995164Y-97572543D01*
X104816658Y-97140525D01*
X104489204Y-96812500D01*
X105691280Y-96812500D01*
X105364424Y-97138787D01*
X105185164Y-97570493D01*
X105184756Y-98037937D01*
X105363262Y-98469955D01*
X105693507Y-98800776D01*
X105797460Y-98843941D01*
X105797460Y-99672158D01*
X105773041Y-99687871D01*
X105687417Y-99813186D01*
X105657294Y-99961940D01*
X105657294Y-100361940D01*
X105683442Y-100500906D01*
X105755717Y-100613225D01*
X105687417Y-100713186D01*
X105657294Y-100861940D01*
X105657294Y-101261940D01*
X105683442Y-101400906D01*
X105765571Y-101528539D01*
X105777140Y-101536444D01*
X105777140Y-101997786D01*
X105733401Y-102025931D01*
X105647777Y-102151246D01*
X105617654Y-102300000D01*
X105617654Y-103100000D01*
X105643802Y-103238966D01*
X105725931Y-103366599D01*
X105851246Y-103452223D01*
X106000000Y-103482346D01*
X106800000Y-103482346D01*
X106938966Y-103456198D01*
X107066599Y-103374069D01*
X107152223Y-103248754D01*
X107182346Y-103100000D01*
X107182346Y-102300000D01*
X107156198Y-102161034D01*
X107074069Y-102033401D01*
X106948754Y-101947777D01*
X106902140Y-101938338D01*
X106902140Y-101538647D01*
X106906239Y-101536009D01*
X106991863Y-101410694D01*
X107021986Y-101261940D01*
X107021986Y-100861940D01*
X106995838Y-100722974D01*
X106923563Y-100610655D01*
X106991863Y-100510694D01*
X107021986Y-100361940D01*
X107021986Y-99961940D01*
X106995838Y-99822974D01*
X106922460Y-99708941D01*
X106922460Y-98844172D01*
X107024675Y-98801938D01*
X107355496Y-98471693D01*
X107534756Y-98039987D01*
X107534757Y-98037937D01*
X107724756Y-98037937D01*
X107903262Y-98469955D01*
X108233507Y-98800776D01*
X108337460Y-98843941D01*
X108337460Y-99645852D01*
X108315581Y-99659931D01*
X108229957Y-99785246D01*
X108199834Y-99934000D01*
X108199834Y-100334000D01*
X108225982Y-100472966D01*
X108298257Y-100585285D01*
X108229957Y-100685246D01*
X108199834Y-100834000D01*
X108199834Y-101234000D01*
X108225982Y-101372966D01*
X108308111Y-101500599D01*
X108319680Y-101508504D01*
X108319680Y-101970412D01*
X108233401Y-102025931D01*
X108147777Y-102151246D01*
X108117654Y-102300000D01*
X108117654Y-103100000D01*
X108143802Y-103238966D01*
X108225931Y-103366599D01*
X108351246Y-103452223D01*
X108500000Y-103482346D01*
X109300000Y-103482346D01*
X109438966Y-103456198D01*
X109566599Y-103374069D01*
X109652223Y-103248754D01*
X109682346Y-103100000D01*
X109682346Y-102300000D01*
X109656198Y-102161034D01*
X109574069Y-102033401D01*
X109448754Y-101947777D01*
X109444680Y-101946952D01*
X109444680Y-101510707D01*
X109448779Y-101508069D01*
X109534403Y-101382754D01*
X109564526Y-101234000D01*
X109564526Y-100834000D01*
X109538378Y-100695034D01*
X109466103Y-100582715D01*
X109534403Y-100482754D01*
X109564526Y-100334000D01*
X109564526Y-99934000D01*
X109538378Y-99795034D01*
X109462460Y-99677053D01*
X109462460Y-98844172D01*
X109564675Y-98801938D01*
X109895496Y-98471693D01*
X110074756Y-98039987D01*
X110075164Y-97572543D01*
X109896658Y-97140525D01*
X109566413Y-96809704D01*
X109134707Y-96630444D01*
X108667263Y-96630036D01*
X108235245Y-96808542D01*
X107904424Y-97138787D01*
X107725164Y-97570493D01*
X107724756Y-98037937D01*
X107534757Y-98037937D01*
X107535164Y-97572543D01*
X107356658Y-97140525D01*
X107184451Y-96968017D01*
X107192173Y-96968024D01*
X107456126Y-96858960D01*
X107658251Y-96657188D01*
X107767775Y-96393426D01*
X107768024Y-96107827D01*
X107658960Y-95843874D01*
X107457188Y-95641749D01*
X107193426Y-95532225D01*
X106907827Y-95531976D01*
X106643874Y-95641040D01*
X106597333Y-95687500D01*
X101737188Y-95687500D01*
X101817775Y-95493426D01*
X101818024Y-95207827D01*
X101708960Y-94943874D01*
X101507188Y-94741749D01*
X101243426Y-94632225D01*
X100957827Y-94631976D01*
X100693874Y-94741040D01*
X100597245Y-94837500D01*
X95678712Y-94837500D01*
X95717775Y-94743426D01*
X95717832Y-94677664D01*
X97232995Y-93162500D01*
X106367004Y-93162500D01*
X110102250Y-96897745D01*
X110102252Y-96897748D01*
X110263127Y-97005240D01*
X110284741Y-97019682D01*
X110500000Y-97062501D01*
X110500005Y-97062500D01*
X110520844Y-97062500D01*
X110444424Y-97138787D01*
X110265164Y-97570493D01*
X110264756Y-98037937D01*
X110443262Y-98469955D01*
X110773507Y-98800776D01*
X110877460Y-98843941D01*
X110877460Y-99675427D01*
X110858121Y-99687871D01*
X110772497Y-99813186D01*
X110742374Y-99961940D01*
X110742374Y-100361940D01*
X110768522Y-100500906D01*
X110840797Y-100613225D01*
X110772497Y-100713186D01*
X110742374Y-100861940D01*
X110742374Y-101261940D01*
X110768522Y-101400906D01*
X110850651Y-101528539D01*
X110862220Y-101536444D01*
X110862220Y-101943579D01*
X110861034Y-101943802D01*
X110733401Y-102025931D01*
X110647777Y-102151246D01*
X110617654Y-102300000D01*
X110617654Y-103100000D01*
X110643802Y-103238966D01*
X110725931Y-103366599D01*
X110851246Y-103452223D01*
X111000000Y-103482346D01*
X111791828Y-103482346D01*
X111756520Y-103517654D01*
X111000000Y-103517654D01*
X110861034Y-103543802D01*
X110733401Y-103625931D01*
X110657169Y-103737500D01*
X109641054Y-103737500D01*
X109574069Y-103633401D01*
X109448754Y-103547777D01*
X109300000Y-103517654D01*
X108500000Y-103517654D01*
X108361034Y-103543802D01*
X108233401Y-103625931D01*
X108157169Y-103737500D01*
X107141054Y-103737500D01*
X107074069Y-103633401D01*
X106948754Y-103547777D01*
X106800000Y-103517654D01*
X106000000Y-103517654D01*
X105861034Y-103543802D01*
X105733401Y-103625931D01*
X105647777Y-103751246D01*
X105617654Y-103900000D01*
X105617654Y-104700000D01*
X105643802Y-104838966D01*
X105725931Y-104966599D01*
X105837500Y-105042831D01*
X105837500Y-105699995D01*
X105837499Y-105700000D01*
X105880318Y-105915260D01*
X106002252Y-106097748D01*
X106342278Y-106437774D01*
X106275000Y-106776001D01*
X106275000Y-106823999D01*
X106368248Y-107292786D01*
X106633794Y-107690205D01*
X107031213Y-107955751D01*
X107500000Y-108048999D01*
X107968787Y-107955751D01*
X108366206Y-107690205D01*
X108631752Y-107292786D01*
X108725000Y-106823999D01*
X108725000Y-106776001D01*
X108815000Y-106776001D01*
X108815000Y-106823999D01*
X108908248Y-107292786D01*
X109173794Y-107690205D01*
X109571213Y-107955751D01*
X110040000Y-108048999D01*
X110508787Y-107955751D01*
X110906206Y-107690205D01*
X111171752Y-107292786D01*
X111228308Y-107008461D01*
X111423638Y-107008461D01*
X111591435Y-107435113D01*
X111909732Y-107765075D01*
X112330071Y-107948113D01*
X112371539Y-107956360D01*
X112555000Y-107893464D01*
X112555000Y-106825000D01*
X112605000Y-106825000D01*
X112605000Y-107893464D01*
X112788461Y-107956360D01*
X112829929Y-107948113D01*
X113250268Y-107765075D01*
X113568565Y-107435113D01*
X113736362Y-107008461D01*
X113673486Y-106825000D01*
X112605000Y-106825000D01*
X112555000Y-106825000D01*
X111486514Y-106825000D01*
X111423638Y-107008461D01*
X111228308Y-107008461D01*
X111265000Y-106823999D01*
X111265000Y-106776001D01*
X113895000Y-106776001D01*
X113895000Y-106823999D01*
X113988248Y-107292786D01*
X114253794Y-107690205D01*
X114651213Y-107955751D01*
X115120000Y-108048999D01*
X115588787Y-107955751D01*
X115986206Y-107690205D01*
X116251752Y-107292786D01*
X116345000Y-106823999D01*
X116345000Y-106776001D01*
X116435000Y-106776001D01*
X116435000Y-106823999D01*
X116528248Y-107292786D01*
X116793794Y-107690205D01*
X117191213Y-107955751D01*
X117660000Y-108048999D01*
X118128787Y-107955751D01*
X118526206Y-107690205D01*
X118791752Y-107292786D01*
X118885000Y-106823999D01*
X118885000Y-106776001D01*
X118791752Y-106307214D01*
X118553071Y-105950000D01*
X118967654Y-105950000D01*
X118967654Y-107650000D01*
X118993802Y-107788966D01*
X119075931Y-107916599D01*
X119201246Y-108002223D01*
X119350000Y-108032346D01*
X121050000Y-108032346D01*
X121188966Y-108006198D01*
X121316599Y-107924069D01*
X121402223Y-107798754D01*
X121432346Y-107650000D01*
X121432346Y-105950000D01*
X121406198Y-105811034D01*
X121324069Y-105683401D01*
X121198754Y-105597777D01*
X121050000Y-105567654D01*
X119350000Y-105567654D01*
X119211034Y-105593802D01*
X119083401Y-105675931D01*
X118997777Y-105801246D01*
X118967654Y-105950000D01*
X118553071Y-105950000D01*
X118526206Y-105909795D01*
X118128787Y-105644249D01*
X117660000Y-105551001D01*
X117191213Y-105644249D01*
X116793794Y-105909795D01*
X116528248Y-106307214D01*
X116435000Y-106776001D01*
X116345000Y-106776001D01*
X116251752Y-106307214D01*
X115986206Y-105909795D01*
X115588787Y-105644249D01*
X115120000Y-105551001D01*
X114651213Y-105644249D01*
X114253794Y-105909795D01*
X113988248Y-106307214D01*
X113895000Y-106776001D01*
X111265000Y-106776001D01*
X111228309Y-106591539D01*
X111423638Y-106591539D01*
X111486514Y-106775000D01*
X112555000Y-106775000D01*
X112555000Y-105706536D01*
X112605000Y-105706536D01*
X112605000Y-106775000D01*
X113673486Y-106775000D01*
X113736362Y-106591539D01*
X113568565Y-106164887D01*
X113250268Y-105834925D01*
X112829929Y-105651887D01*
X112788461Y-105643640D01*
X112605000Y-105706536D01*
X112555000Y-105706536D01*
X112371539Y-105643640D01*
X112330071Y-105651887D01*
X111909732Y-105834925D01*
X111591435Y-106164887D01*
X111423638Y-106591539D01*
X111228309Y-106591539D01*
X111171752Y-106307214D01*
X110906206Y-105909795D01*
X110508787Y-105644249D01*
X110040000Y-105551001D01*
X109571213Y-105644249D01*
X109173794Y-105909795D01*
X108908248Y-106307214D01*
X108815000Y-106776001D01*
X108725000Y-106776001D01*
X108631752Y-106307214D01*
X108366206Y-105909795D01*
X107968787Y-105644249D01*
X107500000Y-105551001D01*
X107121738Y-105626242D01*
X106962500Y-105467004D01*
X106962500Y-105041054D01*
X107066599Y-104974069D01*
X107142831Y-104862500D01*
X108158946Y-104862500D01*
X108225931Y-104966599D01*
X108351246Y-105052223D01*
X108500000Y-105082346D01*
X109300000Y-105082346D01*
X109438966Y-105056198D01*
X109566599Y-104974069D01*
X109642831Y-104862500D01*
X110658946Y-104862500D01*
X110725931Y-104966599D01*
X110851246Y-105052223D01*
X111000000Y-105082346D01*
X111800000Y-105082346D01*
X111938966Y-105056198D01*
X112066599Y-104974069D01*
X112142831Y-104862500D01*
X113258946Y-104862500D01*
X113325931Y-104966599D01*
X113451246Y-105052223D01*
X113600000Y-105082346D01*
X114400000Y-105082346D01*
X114538966Y-105056198D01*
X114666599Y-104974069D01*
X114752223Y-104848754D01*
X114757171Y-104824320D01*
X115768746Y-104824320D01*
X115835731Y-104928419D01*
X115961046Y-105014043D01*
X116109800Y-105044166D01*
X116909800Y-105044166D01*
X117048766Y-105018018D01*
X117176399Y-104935889D01*
X117252631Y-104824320D01*
X118403123Y-104824320D01*
X118434151Y-104872539D01*
X118559466Y-104958163D01*
X118708220Y-104988286D01*
X119508220Y-104988286D01*
X119647186Y-104962138D01*
X119774819Y-104880009D01*
X119851051Y-104768440D01*
X120853826Y-104768440D01*
X120920811Y-104872539D01*
X121046126Y-104958163D01*
X121194880Y-104988286D01*
X121994880Y-104988286D01*
X122133846Y-104962138D01*
X122261479Y-104880009D01*
X122337711Y-104768440D01*
X123478242Y-104768440D01*
X123491291Y-104788719D01*
X123616606Y-104874343D01*
X123765360Y-104904466D01*
X124565360Y-104904466D01*
X124704326Y-104878318D01*
X124831959Y-104796189D01*
X124917583Y-104670874D01*
X124947706Y-104522120D01*
X124947706Y-103722120D01*
X124921558Y-103583154D01*
X124839429Y-103455521D01*
X124714114Y-103369897D01*
X124565360Y-103339774D01*
X123765360Y-103339774D01*
X123626394Y-103365922D01*
X123498761Y-103448051D01*
X123413137Y-103573366D01*
X123398947Y-103643440D01*
X122335934Y-103643440D01*
X122268949Y-103539341D01*
X122143634Y-103453717D01*
X121994880Y-103423594D01*
X121194880Y-103423594D01*
X121055914Y-103449742D01*
X120928281Y-103531871D01*
X120852049Y-103643440D01*
X119849274Y-103643440D01*
X119782289Y-103539341D01*
X119656974Y-103453717D01*
X119508220Y-103423594D01*
X118708220Y-103423594D01*
X118569254Y-103449742D01*
X118441621Y-103531871D01*
X118355997Y-103657186D01*
X118347465Y-103699320D01*
X117250854Y-103699320D01*
X117183869Y-103595221D01*
X117058554Y-103509597D01*
X116909800Y-103479474D01*
X116109800Y-103479474D01*
X115970834Y-103505622D01*
X115843201Y-103587751D01*
X115766969Y-103699320D01*
X114716486Y-103699320D01*
X114674069Y-103633401D01*
X114548754Y-103547777D01*
X114400000Y-103517654D01*
X113600000Y-103517654D01*
X113461034Y-103543802D01*
X113333401Y-103625931D01*
X113257169Y-103737500D01*
X112950887Y-103737500D01*
X113048274Y-103640113D01*
X113140598Y-103501940D01*
X113156660Y-103477902D01*
X113194720Y-103286560D01*
X113194720Y-102501330D01*
X113217654Y-102478436D01*
X113217654Y-103100000D01*
X113243802Y-103238966D01*
X113325931Y-103366599D01*
X113451246Y-103452223D01*
X113600000Y-103482346D01*
X114400000Y-103482346D01*
X114538966Y-103456198D01*
X114666599Y-103374069D01*
X114752223Y-103248754D01*
X114782346Y-103100000D01*
X114782346Y-102300000D01*
X114756198Y-102161034D01*
X114674069Y-102033401D01*
X114548754Y-101947777D01*
X114529760Y-101943931D01*
X114529760Y-101510707D01*
X114533859Y-101508069D01*
X114619483Y-101382754D01*
X114649606Y-101234000D01*
X114649606Y-100834000D01*
X114623458Y-100695034D01*
X114551183Y-100582715D01*
X114619483Y-100482754D01*
X114649606Y-100334000D01*
X114649606Y-99934000D01*
X114623458Y-99795034D01*
X114542460Y-99669159D01*
X114542460Y-98844172D01*
X114644675Y-98801938D01*
X114975496Y-98471693D01*
X115154756Y-98039987D01*
X115154757Y-98037937D01*
X115344756Y-98037937D01*
X115523262Y-98469955D01*
X115853507Y-98800776D01*
X115957460Y-98843941D01*
X115957460Y-99650756D01*
X115943201Y-99659931D01*
X115857577Y-99785246D01*
X115827454Y-99934000D01*
X115827454Y-100334000D01*
X115853602Y-100472966D01*
X115925877Y-100585285D01*
X115857577Y-100685246D01*
X115827454Y-100834000D01*
X115827454Y-101234000D01*
X115853602Y-101372966D01*
X115935731Y-101500599D01*
X115947300Y-101508504D01*
X115947300Y-101920766D01*
X115843201Y-101987751D01*
X115757577Y-102113066D01*
X115727454Y-102261820D01*
X115727454Y-103061820D01*
X115753602Y-103200786D01*
X115835731Y-103328419D01*
X115961046Y-103414043D01*
X116109800Y-103444166D01*
X116909800Y-103444166D01*
X117048766Y-103418018D01*
X117176399Y-103335889D01*
X117262023Y-103210574D01*
X117292146Y-103061820D01*
X117292146Y-102261820D01*
X117265998Y-102122854D01*
X117183869Y-101995221D01*
X117072300Y-101918989D01*
X117072300Y-101510707D01*
X117076399Y-101508069D01*
X117162023Y-101382754D01*
X117192146Y-101234000D01*
X117192146Y-100834000D01*
X117165998Y-100695034D01*
X117093723Y-100582715D01*
X117162023Y-100482754D01*
X117192146Y-100334000D01*
X117192146Y-99934000D01*
X117165998Y-99795034D01*
X117083869Y-99667401D01*
X117082460Y-99666438D01*
X117082460Y-98844172D01*
X117184675Y-98801938D01*
X117515496Y-98471693D01*
X117694756Y-98039987D01*
X117694757Y-98037937D01*
X117884756Y-98037937D01*
X118063262Y-98469955D01*
X118393507Y-98800776D01*
X118497460Y-98843941D01*
X118497460Y-99683671D01*
X118428057Y-99785246D01*
X118397934Y-99934000D01*
X118397934Y-100334000D01*
X118424082Y-100472966D01*
X118496357Y-100585285D01*
X118428057Y-100685246D01*
X118397934Y-100834000D01*
X118397934Y-101234000D01*
X118424082Y-101372966D01*
X118506211Y-101500599D01*
X118517780Y-101508504D01*
X118517780Y-101882864D01*
X118441621Y-101931871D01*
X118355997Y-102057186D01*
X118325874Y-102205940D01*
X118325874Y-103005940D01*
X118352022Y-103144906D01*
X118434151Y-103272539D01*
X118559466Y-103358163D01*
X118708220Y-103388286D01*
X119508220Y-103388286D01*
X119647186Y-103362138D01*
X119774819Y-103280009D01*
X119860443Y-103154694D01*
X119890566Y-103005940D01*
X119890566Y-102205940D01*
X119864418Y-102066974D01*
X119782289Y-101939341D01*
X119656974Y-101853717D01*
X119642780Y-101850843D01*
X119642780Y-101510707D01*
X119646879Y-101508069D01*
X119732503Y-101382754D01*
X119762626Y-101234000D01*
X119762626Y-100834000D01*
X119736478Y-100695034D01*
X119664203Y-100582715D01*
X119732503Y-100482754D01*
X119762626Y-100334000D01*
X119762626Y-99934000D01*
X119736478Y-99795034D01*
X119654349Y-99667401D01*
X119622460Y-99645612D01*
X119622460Y-98844172D01*
X119724675Y-98801938D01*
X120055496Y-98471693D01*
X120234756Y-98039987D01*
X120234757Y-98037937D01*
X120424756Y-98037937D01*
X120603262Y-98469955D01*
X120933507Y-98800776D01*
X121037460Y-98843941D01*
X121037460Y-99687389D01*
X120970597Y-99785246D01*
X120940474Y-99934000D01*
X120940474Y-100334000D01*
X120966622Y-100472966D01*
X121038897Y-100585285D01*
X120970597Y-100685246D01*
X120940474Y-100834000D01*
X120940474Y-101234000D01*
X120966622Y-101372966D01*
X121048751Y-101500599D01*
X121060320Y-101508504D01*
X121060320Y-101848913D01*
X121055914Y-101849742D01*
X120928281Y-101931871D01*
X120842657Y-102057186D01*
X120812534Y-102205940D01*
X120812534Y-103005940D01*
X120838682Y-103144906D01*
X120920811Y-103272539D01*
X121046126Y-103358163D01*
X121194880Y-103388286D01*
X121994880Y-103388286D01*
X122133846Y-103362138D01*
X122261479Y-103280009D01*
X122347103Y-103154694D01*
X122377226Y-103005940D01*
X122377226Y-102205940D01*
X122351078Y-102066974D01*
X122268949Y-101939341D01*
X122185320Y-101882200D01*
X122185320Y-101510707D01*
X122189419Y-101508069D01*
X122275043Y-101382754D01*
X122305166Y-101234000D01*
X122305166Y-100834000D01*
X122279018Y-100695034D01*
X122206743Y-100582715D01*
X122275043Y-100482754D01*
X122305166Y-100334000D01*
X122305166Y-99934000D01*
X122279018Y-99795034D01*
X122196889Y-99667401D01*
X122162460Y-99643877D01*
X122162460Y-98844172D01*
X122264675Y-98801938D01*
X122595496Y-98471693D01*
X122774756Y-98039987D01*
X122774757Y-98037937D01*
X122964756Y-98037937D01*
X123143262Y-98469955D01*
X123473507Y-98800776D01*
X123577460Y-98843941D01*
X123577460Y-99683599D01*
X123570821Y-99687871D01*
X123485197Y-99813186D01*
X123455074Y-99961940D01*
X123455074Y-100361940D01*
X123481222Y-100500906D01*
X123553497Y-100613225D01*
X123485197Y-100713186D01*
X123455074Y-100861940D01*
X123455074Y-101261940D01*
X123481222Y-101400906D01*
X123563351Y-101528539D01*
X123574920Y-101536444D01*
X123574920Y-101799044D01*
X123498761Y-101848051D01*
X123413137Y-101973366D01*
X123383014Y-102122120D01*
X123383014Y-102922120D01*
X123409162Y-103061086D01*
X123491291Y-103188719D01*
X123616606Y-103274343D01*
X123765360Y-103304466D01*
X124565360Y-103304466D01*
X124704326Y-103278318D01*
X124831959Y-103196189D01*
X124917583Y-103070874D01*
X124947706Y-102922120D01*
X124947706Y-102122120D01*
X124921558Y-101983154D01*
X124839429Y-101855521D01*
X124714114Y-101769897D01*
X124699920Y-101767023D01*
X124699920Y-101538647D01*
X124704019Y-101536009D01*
X124789643Y-101410694D01*
X124819766Y-101261940D01*
X124819766Y-100861940D01*
X124793618Y-100722974D01*
X124721343Y-100610655D01*
X124789643Y-100510694D01*
X124819766Y-100361940D01*
X124819766Y-99961940D01*
X124793618Y-99822974D01*
X124711489Y-99695341D01*
X124702460Y-99689172D01*
X124702460Y-98844172D01*
X124804675Y-98801938D01*
X125135496Y-98471693D01*
X125314756Y-98039987D01*
X125315164Y-97572543D01*
X125136658Y-97140525D01*
X124806413Y-96809704D01*
X124374707Y-96630444D01*
X123907263Y-96630036D01*
X123475245Y-96808542D01*
X123144424Y-97138787D01*
X122965164Y-97570493D01*
X122964756Y-98037937D01*
X122774757Y-98037937D01*
X122775164Y-97572543D01*
X122596658Y-97140525D01*
X122266413Y-96809704D01*
X121834707Y-96630444D01*
X121367263Y-96630036D01*
X120935245Y-96808542D01*
X120604424Y-97138787D01*
X120425164Y-97570493D01*
X120424756Y-98037937D01*
X120234757Y-98037937D01*
X120235164Y-97572543D01*
X120056658Y-97140525D01*
X119726413Y-96809704D01*
X119294707Y-96630444D01*
X118827263Y-96630036D01*
X118395245Y-96808542D01*
X118064424Y-97138787D01*
X117885164Y-97570493D01*
X117884756Y-98037937D01*
X117694757Y-98037937D01*
X117695164Y-97572543D01*
X117516658Y-97140525D01*
X117186413Y-96809704D01*
X116754707Y-96630444D01*
X116287263Y-96630036D01*
X115855245Y-96808542D01*
X115524424Y-97138787D01*
X115345164Y-97570493D01*
X115344756Y-98037937D01*
X115154757Y-98037937D01*
X115155164Y-97572543D01*
X114976658Y-97140525D01*
X114898769Y-97062500D01*
X115099995Y-97062500D01*
X115100000Y-97062501D01*
X115315260Y-97019682D01*
X115497748Y-96897748D01*
X124537708Y-87857788D01*
X124659642Y-87675300D01*
X124702461Y-87460040D01*
X124702460Y-87460035D01*
X124702460Y-83604172D01*
X124804675Y-83561938D01*
X125135496Y-83231693D01*
X125314756Y-82799987D01*
X125315164Y-82332543D01*
X125136658Y-81900525D01*
X124806413Y-81569704D01*
X124374707Y-81390444D01*
X123907263Y-81390036D01*
X123475245Y-81568542D01*
X123144424Y-81898787D01*
X122965164Y-82330493D01*
X122964756Y-82797937D01*
X123143262Y-83229955D01*
X123473507Y-83560776D01*
X123577460Y-83603941D01*
X123577460Y-87227044D01*
X114867004Y-95937500D01*
X112429679Y-95937500D01*
X112435496Y-95931693D01*
X112614756Y-95499987D01*
X112614908Y-95325881D01*
X112715680Y-95569766D01*
X112917452Y-95771891D01*
X113181214Y-95881415D01*
X113466813Y-95881664D01*
X113730766Y-95772600D01*
X113932891Y-95570828D01*
X114042415Y-95307066D01*
X114042664Y-95021467D01*
X113933600Y-94757514D01*
X113824640Y-94648363D01*
X113824640Y-90886280D01*
X113786580Y-90694938D01*
X113754669Y-90647180D01*
X113678193Y-90532726D01*
X112977153Y-89831687D01*
X112814942Y-89723300D01*
X112623600Y-89685240D01*
X112504717Y-89685240D01*
X112436658Y-89520525D01*
X112106413Y-89189704D01*
X111674707Y-89010444D01*
X111207263Y-89010036D01*
X110775245Y-89188542D01*
X110444424Y-89518787D01*
X110265164Y-89950493D01*
X110264756Y-90417937D01*
X110443262Y-90849955D01*
X110773507Y-91180776D01*
X111205213Y-91360036D01*
X111672657Y-91360444D01*
X112104675Y-91181938D01*
X112435496Y-90851693D01*
X112478759Y-90747505D01*
X112824640Y-91093387D01*
X112824640Y-94648390D01*
X112716389Y-94756452D01*
X112608471Y-95016346D01*
X112436658Y-94600525D01*
X112106413Y-94269704D01*
X111674707Y-94090444D01*
X111207263Y-94090036D01*
X110775245Y-94268542D01*
X110444424Y-94598787D01*
X110265164Y-95030493D01*
X110264781Y-95469286D01*
X107753433Y-92957937D01*
X110264756Y-92957937D01*
X110443262Y-93389955D01*
X110773507Y-93720776D01*
X111205213Y-93900036D01*
X111672657Y-93900444D01*
X112104675Y-93721938D01*
X112435496Y-93391693D01*
X112614756Y-92959987D01*
X112615164Y-92492543D01*
X112436658Y-92060525D01*
X112106413Y-91729704D01*
X111674707Y-91550444D01*
X111207263Y-91550036D01*
X110775245Y-91728542D01*
X110444424Y-92058787D01*
X110265164Y-92490493D01*
X110264756Y-92957937D01*
X107753433Y-92957937D01*
X106997748Y-92202252D01*
X106815260Y-92080318D01*
X106600000Y-92037499D01*
X106599995Y-92037500D01*
X98837188Y-92037500D01*
X98917775Y-91843426D01*
X98917832Y-91777663D01*
X99137705Y-91557790D01*
X99137708Y-91557788D01*
X99259642Y-91375299D01*
X99262678Y-91360036D01*
X99302461Y-91160040D01*
X99302460Y-91160035D01*
X99302460Y-83604172D01*
X99404675Y-83561938D01*
X99735496Y-83231693D01*
X99914756Y-82799987D01*
X99914757Y-82797937D01*
X100104756Y-82797937D01*
X100283262Y-83229955D01*
X100613507Y-83560776D01*
X101045213Y-83740036D01*
X101512657Y-83740444D01*
X101944675Y-83561938D01*
X102275496Y-83231693D01*
X102454756Y-82799987D01*
X102454757Y-82797937D01*
X102644756Y-82797937D01*
X102823262Y-83229955D01*
X103153507Y-83560776D01*
X103585213Y-83740036D01*
X104052657Y-83740444D01*
X104484675Y-83561938D01*
X104815496Y-83231693D01*
X104994756Y-82799987D01*
X104994757Y-82797937D01*
X105184756Y-82797937D01*
X105363262Y-83229955D01*
X105693507Y-83560776D01*
X106125213Y-83740036D01*
X106592657Y-83740444D01*
X107024675Y-83561938D01*
X107355496Y-83231693D01*
X107534756Y-82799987D01*
X107534757Y-82797937D01*
X107724756Y-82797937D01*
X107903262Y-83229955D01*
X108233507Y-83560776D01*
X108337460Y-83603941D01*
X108337460Y-87593967D01*
X108332225Y-87606574D01*
X108331976Y-87892173D01*
X108441040Y-88156126D01*
X108642812Y-88358251D01*
X108906574Y-88467775D01*
X109192173Y-88468024D01*
X109456126Y-88358960D01*
X109658251Y-88157188D01*
X109767775Y-87893426D01*
X109767788Y-87877937D01*
X110264756Y-87877937D01*
X110443262Y-88309955D01*
X110773507Y-88640776D01*
X111205213Y-88820036D01*
X111672657Y-88820444D01*
X112104675Y-88641938D01*
X112435496Y-88311693D01*
X112614756Y-87879987D01*
X112615164Y-87412543D01*
X112436658Y-86980525D01*
X112106413Y-86649704D01*
X111674707Y-86470444D01*
X111207263Y-86470036D01*
X110775245Y-86648542D01*
X110444424Y-86978787D01*
X110265164Y-87410493D01*
X110264756Y-87877937D01*
X109767788Y-87877937D01*
X109768024Y-87607827D01*
X109658960Y-87343874D01*
X109462460Y-87147030D01*
X109462460Y-85337937D01*
X110264756Y-85337937D01*
X110443262Y-85769955D01*
X110773507Y-86100776D01*
X111205213Y-86280036D01*
X111672657Y-86280444D01*
X112104675Y-86101938D01*
X112435496Y-85771693D01*
X112614756Y-85339987D01*
X112615164Y-84872543D01*
X112436658Y-84440525D01*
X112106413Y-84109704D01*
X111674707Y-83930444D01*
X111207263Y-83930036D01*
X110775245Y-84108542D01*
X110444424Y-84438787D01*
X110265164Y-84870493D01*
X110264756Y-85337937D01*
X109462460Y-85337937D01*
X109462460Y-83604172D01*
X109564675Y-83561938D01*
X109895496Y-83231693D01*
X110074756Y-82799987D01*
X110075164Y-82332543D01*
X109896658Y-81900525D01*
X109566413Y-81569704D01*
X109134707Y-81390444D01*
X108667263Y-81390036D01*
X108235245Y-81568542D01*
X107904424Y-81898787D01*
X107725164Y-82330493D01*
X107724756Y-82797937D01*
X107534757Y-82797937D01*
X107535164Y-82332543D01*
X107356658Y-81900525D01*
X107026413Y-81569704D01*
X106594707Y-81390444D01*
X106127263Y-81390036D01*
X105695245Y-81568542D01*
X105364424Y-81898787D01*
X105185164Y-82330493D01*
X105184756Y-82797937D01*
X104994757Y-82797937D01*
X104995164Y-82332543D01*
X104816658Y-81900525D01*
X104486413Y-81569704D01*
X104054707Y-81390444D01*
X103587263Y-81390036D01*
X103155245Y-81568542D01*
X102824424Y-81898787D01*
X102645164Y-82330493D01*
X102644756Y-82797937D01*
X102454757Y-82797937D01*
X102455164Y-82332543D01*
X102276658Y-81900525D01*
X101946413Y-81569704D01*
X101514707Y-81390444D01*
X101047263Y-81390036D01*
X100615245Y-81568542D01*
X100284424Y-81898787D01*
X100105164Y-82330493D01*
X100104756Y-82797937D01*
X99914757Y-82797937D01*
X99915164Y-82332543D01*
X99736658Y-81900525D01*
X99406413Y-81569704D01*
X98974707Y-81390444D01*
X98507263Y-81390036D01*
X98075245Y-81568542D01*
X97744424Y-81898787D01*
X97565164Y-82330493D01*
X97564756Y-82797937D01*
X97743262Y-83229955D01*
X98073507Y-83560776D01*
X98177460Y-83603941D01*
X98177460Y-90927045D01*
X98122472Y-90982032D01*
X98057827Y-90981976D01*
X97793874Y-91091040D01*
X97591749Y-91292812D01*
X97482225Y-91556574D01*
X97481976Y-91842173D01*
X97562684Y-92037500D01*
X97000005Y-92037500D01*
X97000000Y-92037499D01*
X96784740Y-92080318D01*
X96711646Y-92129158D01*
X96602252Y-92202252D01*
X96602250Y-92202255D01*
X94922472Y-93882032D01*
X94857827Y-93881976D01*
X94593874Y-93991040D01*
X94391749Y-94192812D01*
X94282225Y-94456574D01*
X94281976Y-94742173D01*
X94321365Y-94837500D01*
X83302859Y-94837500D01*
X83257188Y-94791749D01*
X82993426Y-94682225D01*
X82707827Y-94681976D01*
X82443874Y-94791040D01*
X82241749Y-94992812D01*
X82132225Y-95256574D01*
X82131976Y-95542173D01*
X82241040Y-95806126D01*
X82442812Y-96008251D01*
X82706574Y-96117775D01*
X82992173Y-96118024D01*
X83256126Y-96008960D01*
X83302667Y-95962500D01*
X83742050Y-95962500D01*
X83682225Y-96106574D01*
X83681976Y-96392173D01*
X83789898Y-96653361D01*
X83734707Y-96630444D01*
X83267263Y-96630036D01*
X82835245Y-96808542D01*
X82504424Y-97138787D01*
X82325164Y-97570493D01*
X82324756Y-98037937D01*
X82503262Y-98469955D01*
X82833507Y-98800776D01*
X83265213Y-98980036D01*
X83732657Y-98980444D01*
X84164675Y-98801938D01*
X84495496Y-98471693D01*
X84674756Y-98039987D01*
X84675164Y-97572543D01*
X84496658Y-97140525D01*
X84324268Y-96967834D01*
X84542173Y-96968024D01*
X84806126Y-96858960D01*
X84852667Y-96812500D01*
X85371280Y-96812500D01*
X85044424Y-97138787D01*
X84865164Y-97570493D01*
X84864756Y-98037937D01*
X85043262Y-98469955D01*
X85373507Y-98800776D01*
X85477460Y-98843941D01*
X85477460Y-101838722D01*
X85242002Y-102074180D01*
X78860239Y-102074180D01*
X78874921Y-102059498D01*
X78924400Y-101940047D01*
X78924400Y-101731650D01*
X78843150Y-101650400D01*
X78324400Y-101650400D01*
X78324400Y-101670400D01*
X78274400Y-101670400D01*
X78274400Y-101650400D01*
X78254400Y-101650400D01*
X78254400Y-101600400D01*
X78274400Y-101600400D01*
X78274400Y-101131650D01*
X78324400Y-101131650D01*
X78324400Y-101600400D01*
X78843150Y-101600400D01*
X78924400Y-101519150D01*
X78924400Y-101310753D01*
X78874921Y-101191302D01*
X78783497Y-101099878D01*
X78664046Y-101050400D01*
X78405650Y-101050400D01*
X78324400Y-101131650D01*
X78274400Y-101131650D01*
X78193150Y-101050400D01*
X77934754Y-101050400D01*
X77815303Y-101099878D01*
X77786355Y-101128826D01*
X77773469Y-101108801D01*
X77648154Y-101023177D01*
X77499400Y-100993054D01*
X77166724Y-100993054D01*
X77361971Y-100798148D01*
X77471495Y-100534386D01*
X77471744Y-100248787D01*
X77394771Y-100062500D01*
X79699995Y-100062500D01*
X79700000Y-100062501D01*
X79915260Y-100019682D01*
X80097748Y-99897748D01*
X81015206Y-98980289D01*
X81192657Y-98980444D01*
X81624675Y-98801938D01*
X81955496Y-98471693D01*
X82134756Y-98039987D01*
X82135164Y-97572543D01*
X81956658Y-97140525D01*
X81626413Y-96809704D01*
X81194707Y-96630444D01*
X80819492Y-96630117D01*
X80917775Y-96393426D01*
X80918024Y-96107827D01*
X80808960Y-95843874D01*
X80607188Y-95641749D01*
X80343426Y-95532225D01*
X80057827Y-95531976D01*
X79793874Y-95641040D01*
X79747333Y-95687500D01*
X73166426Y-95687500D01*
X73267775Y-95443426D01*
X73268024Y-95157827D01*
X73158960Y-94893874D01*
X72957188Y-94691749D01*
X72693426Y-94582225D01*
X72407827Y-94581976D01*
X72143874Y-94691040D01*
X72097333Y-94737500D01*
X69400005Y-94737500D01*
X69400000Y-94737499D01*
X69184740Y-94780318D01*
X69002252Y-94902252D01*
X67862212Y-96042292D01*
X67740278Y-96224780D01*
X67697459Y-96440040D01*
X67697460Y-96440045D01*
X67697460Y-96766308D01*
X67595245Y-96808542D01*
X67264424Y-97138787D01*
X67085164Y-97570493D01*
X67084756Y-98037937D01*
X66902306Y-98037937D01*
X66902306Y-97005240D01*
X66876158Y-96866274D01*
X66794029Y-96738641D01*
X66668714Y-96653017D01*
X66519960Y-96622894D01*
X64919960Y-96622894D01*
X64780994Y-96649042D01*
X64653361Y-96731171D01*
X64567737Y-96856486D01*
X64537614Y-97005240D01*
X62975000Y-97005240D01*
X62975000Y-82769326D01*
X64591220Y-82769326D01*
X64755241Y-83185741D01*
X64777510Y-83219068D01*
X64948862Y-83300982D01*
X65684605Y-82565240D01*
X64948862Y-81829498D01*
X64777510Y-81911412D01*
X64599040Y-82321841D01*
X64591220Y-82769326D01*
X62975000Y-82769326D01*
X62975000Y-72100000D01*
X64517654Y-72100000D01*
X64517654Y-74900000D01*
X64543802Y-75038966D01*
X64625931Y-75166599D01*
X64751246Y-75252223D01*
X64900000Y-75282346D01*
X65900000Y-75282346D01*
X66038966Y-75256198D01*
X66166599Y-75174069D01*
X66252223Y-75048754D01*
X66282346Y-74900000D01*
X66282346Y-72100000D01*
X66256198Y-71961034D01*
X66174069Y-71833401D01*
X66048754Y-71747777D01*
X65900000Y-71717654D01*
X64900000Y-71717654D01*
X64761034Y-71743802D01*
X64633401Y-71825931D01*
X64547777Y-71951246D01*
X64517654Y-72100000D01*
X62975000Y-72100000D01*
X62975000Y-64000000D01*
X64517654Y-64000000D01*
X64517654Y-66800000D01*
X64543802Y-66938966D01*
X64625931Y-67066599D01*
X64751246Y-67152223D01*
X64900000Y-67182346D01*
X65900000Y-67182346D01*
X66038966Y-67156198D01*
X66166599Y-67074069D01*
X66252223Y-66948754D01*
X66282346Y-66800000D01*
X66282346Y-64000000D01*
X66256198Y-63861034D01*
X66174069Y-63733401D01*
X66048754Y-63647777D01*
X65900000Y-63617654D01*
X64900000Y-63617654D01*
X64761034Y-63643802D01*
X64633401Y-63725931D01*
X64547777Y-63851246D01*
X64517654Y-64000000D01*
X62975000Y-64000000D01*
X62975000Y-62975000D01*
X69329505Y-62975000D01*
X66852252Y-65452252D01*
M02*
