G04 #@! TF.FileFunction,Copper,L2,Bot,Signal*
%FSLAX46Y46*%
G04 Gerber Fmt 4.6, Leading zero omitted, Abs format (unit mm)*
G04 Created by KiCad (PCBNEW 4.0.7) date Saturday, March 17, 2018 'PMt' 07:01:06 PM*
%MOMM*%
%LPD*%
G01*
G04 APERTURE LIST*
%ADD10C,0.100000*%
%ADD11C,0.685800*%
%ADD12C,3.980180*%
%ADD13C,2.600000*%
%ADD14C,1.699260*%
%ADD15R,1.700000X1.700000*%
%ADD16O,1.700000X1.700000*%
%ADD17C,1.600000*%
%ADD18R,1.600000X1.600000*%
%ADD19C,0.250000*%
%ADD20C,0.375000*%
G04 APERTURE END LIST*
D10*
D11*
X114149040Y-109964680D03*
X114149040Y-109314680D03*
X114149040Y-110614680D03*
D12*
X118338600Y-70906640D03*
D13*
X115798600Y-75986640D03*
X122148600Y-73446640D03*
D14*
X123418600Y-70906640D03*
X113258600Y-70906640D03*
D12*
X100319840Y-70830440D03*
D13*
X97779840Y-75910440D03*
X104129840Y-73370440D03*
D14*
X105399840Y-70830440D03*
X95239840Y-70830440D03*
D15*
X120200000Y-106800000D03*
D16*
X117660000Y-106800000D03*
X115120000Y-106800000D03*
X112580000Y-106800000D03*
X110040000Y-106800000D03*
X107500000Y-106800000D03*
D15*
X115077240Y-114594640D03*
D16*
X112537240Y-114594640D03*
D17*
X106359960Y-97805240D03*
X108899960Y-97805240D03*
X111439960Y-97805240D03*
X113979960Y-97805240D03*
X103819960Y-97805240D03*
X101279960Y-97805240D03*
X98739960Y-97805240D03*
X116519960Y-97805240D03*
X119059960Y-97805240D03*
X121599960Y-97805240D03*
X124139960Y-97805240D03*
X111439960Y-95265240D03*
X111439960Y-92725240D03*
X111439960Y-90185240D03*
X111439960Y-87645240D03*
X111439960Y-85105240D03*
X124139960Y-82565240D03*
X121599960Y-82565240D03*
X119059960Y-82565240D03*
X116519960Y-82565240D03*
X113979960Y-82565240D03*
X111439960Y-82565240D03*
X108899960Y-82565240D03*
X106359960Y-82565240D03*
X96199960Y-97805240D03*
X93659960Y-97805240D03*
X91119960Y-97805240D03*
X88579960Y-97805240D03*
X86039960Y-97805240D03*
X83499960Y-97805240D03*
X80959960Y-97805240D03*
X78419960Y-97805240D03*
X75879960Y-97805240D03*
X73339960Y-97805240D03*
X70799960Y-97805240D03*
X68259960Y-97805240D03*
D18*
X65719960Y-97805240D03*
D17*
X103819960Y-82565240D03*
X101279960Y-82565240D03*
X98739960Y-82565240D03*
X96199960Y-82565240D03*
X93659960Y-82565240D03*
X91119960Y-82565240D03*
X88579960Y-82565240D03*
X86039960Y-82565240D03*
X83499960Y-82565240D03*
X80959960Y-82565240D03*
X78419960Y-82565240D03*
X75879960Y-82565240D03*
X73339960Y-82565240D03*
X70799960Y-82565240D03*
X68259960Y-82565240D03*
X65719960Y-82565240D03*
D11*
X76753720Y-100390960D03*
X112694720Y-101986080D03*
X113324640Y-95163640D03*
X117500000Y-109950000D03*
X107650000Y-113000000D03*
X95500000Y-113000000D03*
X69550000Y-106050000D03*
X78000000Y-106250000D03*
X71100000Y-100400000D03*
X73974960Y-103611680D03*
X80850000Y-101850000D03*
X81450000Y-104100000D03*
X109987080Y-110810040D03*
X92506800Y-116022120D03*
X89600000Y-103000000D03*
X90600000Y-92150000D03*
X92300000Y-100150000D03*
X99550000Y-100050000D03*
X94900000Y-99150000D03*
X95000000Y-94600000D03*
X85800000Y-78650000D03*
X112650000Y-79150000D03*
X115500000Y-80250000D03*
X76550000Y-79250000D03*
X115350000Y-70950000D03*
X112950000Y-81050000D03*
X67300000Y-80000000D03*
X109050000Y-87750000D03*
X102600000Y-99350000D03*
X68000000Y-74000000D03*
X77000000Y-73000000D03*
X92350000Y-97050000D03*
X91250000Y-93850000D03*
X95950000Y-113950000D03*
X100850000Y-113900000D03*
X83150000Y-78900000D03*
X70550000Y-102050000D03*
X96500000Y-109000000D03*
X96500000Y-103500000D03*
X100000000Y-111500000D03*
X89500000Y-110000000D03*
X99000000Y-101000000D03*
X100500000Y-105500000D03*
X91000000Y-114000000D03*
X101000000Y-113000000D03*
X105000000Y-110000000D03*
X97500000Y-103500000D03*
X97500000Y-99000000D03*
X88500000Y-103500000D03*
X92000000Y-105500000D03*
X98200000Y-91700000D03*
X101750000Y-107800000D03*
X103900000Y-112650000D03*
X95750000Y-114850000D03*
X114000000Y-112000000D03*
X80200000Y-96250000D03*
X84400000Y-96250000D03*
X107050000Y-96250000D03*
X72550000Y-95300000D03*
X82850000Y-95400000D03*
X101100000Y-95350000D03*
D19*
X112709960Y-101970840D02*
X112694720Y-101986080D01*
X112709960Y-95778320D02*
X112709960Y-101970840D01*
X113324640Y-95163640D02*
X112709960Y-95778320D01*
D20*
X71050000Y-100450000D02*
X71050000Y-100400000D01*
X71100000Y-100500000D02*
X71050000Y-100450000D01*
X71100000Y-100400000D02*
X71100000Y-100500000D01*
X73974960Y-103611680D02*
X73974960Y-103614220D01*
X80850000Y-101850000D02*
X81450000Y-102450000D01*
X81450000Y-102450000D02*
X81450000Y-104100000D01*
D19*
X109987080Y-113893600D02*
X109987080Y-110810040D01*
X107873800Y-116006880D02*
X109987080Y-113893600D01*
X92522040Y-116006880D02*
X107873800Y-116006880D01*
X92506800Y-116022120D02*
X92522040Y-116006880D01*
D20*
X89500000Y-102900000D02*
X89600000Y-103000000D01*
X89500000Y-100550000D02*
X89500000Y-102900000D01*
X89850000Y-100200000D02*
X89500000Y-100550000D01*
X89850000Y-92900000D02*
X89850000Y-100200000D01*
X90600000Y-92150000D02*
X89850000Y-92900000D01*
X92300000Y-100150000D02*
X92400000Y-100050000D01*
X92400000Y-100050000D02*
X99550000Y-100050000D01*
X94900000Y-94700000D02*
X94900000Y-99150000D01*
X95000000Y-94600000D02*
X94900000Y-94700000D01*
X86150000Y-79000000D02*
X85800000Y-78650000D01*
X112500000Y-79000000D02*
X86150000Y-79000000D01*
X112650000Y-79150000D02*
X112500000Y-79000000D01*
X77550000Y-80250000D02*
X115500000Y-80250000D01*
X76550000Y-79250000D02*
X77550000Y-80250000D01*
X116519960Y-79630040D02*
X116519960Y-82565240D01*
X118200000Y-77950000D02*
X116519960Y-79630040D01*
X118200000Y-74950000D02*
X118200000Y-77950000D01*
X115300000Y-72050000D02*
X118200000Y-74950000D01*
X115300000Y-71000000D02*
X115300000Y-72050000D01*
X115350000Y-70950000D02*
X115300000Y-71000000D01*
X112950000Y-81050000D02*
X112850000Y-80950000D01*
X112850000Y-80950000D02*
X68250000Y-80950000D01*
X68250000Y-80950000D02*
X67300000Y-80000000D01*
X109050000Y-90600000D02*
X109050000Y-87750000D01*
X107100000Y-92550000D02*
X109050000Y-90600000D01*
X101550000Y-92550000D02*
X107100000Y-92550000D01*
X99050000Y-95050000D02*
X101550000Y-92550000D01*
X99050000Y-95600000D02*
X99050000Y-95050000D01*
X99800000Y-96350000D02*
X99050000Y-95600000D01*
X102150000Y-96350000D02*
X99800000Y-96350000D01*
X102550000Y-96750000D02*
X102150000Y-96350000D01*
X102550000Y-99300000D02*
X102550000Y-96750000D01*
X102600000Y-99350000D02*
X102550000Y-99300000D01*
D19*
X68000000Y-74000000D02*
X69000000Y-73000000D01*
X69000000Y-73000000D02*
X77000000Y-73000000D01*
D20*
X92350000Y-97050000D02*
X92450000Y-96950000D01*
X92450000Y-96950000D02*
X92450000Y-95050000D01*
X92450000Y-95050000D02*
X91250000Y-93850000D01*
X100800000Y-113950000D02*
X95950000Y-113950000D01*
X100850000Y-113900000D02*
X100800000Y-113950000D01*
X88100000Y-73950000D02*
X103550280Y-73950000D01*
X83150000Y-78900000D02*
X88100000Y-73950000D01*
X103550280Y-73950000D02*
X104129840Y-73370440D01*
X111439960Y-85105240D02*
X124344760Y-85105240D01*
X125700000Y-76998040D02*
X122148600Y-73446640D01*
X125700000Y-83750000D02*
X125700000Y-76998040D01*
X124344760Y-85105240D02*
X125700000Y-83750000D01*
X83499960Y-98800040D02*
X83499960Y-97805240D01*
X82750000Y-99550000D02*
X83499960Y-98800040D01*
X74400000Y-99550000D02*
X82750000Y-99550000D01*
X73550000Y-100400000D02*
X74400000Y-99550000D01*
X73250000Y-100400000D02*
X73550000Y-100400000D01*
X72000000Y-101650000D02*
X73250000Y-100400000D01*
X70950000Y-101650000D02*
X72000000Y-101650000D01*
X70550000Y-102050000D02*
X70950000Y-101650000D01*
D19*
X96500000Y-103500000D02*
X96500000Y-109000000D01*
X99000000Y-111500000D02*
X100000000Y-111500000D01*
X97500000Y-110000000D02*
X99000000Y-111500000D01*
X89500000Y-110000000D02*
X97500000Y-110000000D01*
X99000000Y-104000000D02*
X99000000Y-101000000D01*
X100500000Y-105500000D02*
X99000000Y-104000000D01*
X91500000Y-114000000D02*
X91000000Y-114000000D01*
X93500000Y-112000000D02*
X91500000Y-114000000D01*
X96500000Y-112000000D02*
X93500000Y-112000000D01*
X97500000Y-113000000D02*
X96500000Y-112000000D01*
X101000000Y-113000000D02*
X97500000Y-113000000D01*
X93659960Y-97805240D02*
X93659960Y-94840040D01*
X104500000Y-110500000D02*
X105000000Y-110000000D01*
X99000000Y-110500000D02*
X104500000Y-110500000D01*
X97500000Y-109000000D02*
X99000000Y-110500000D01*
X97500000Y-103500000D02*
X97500000Y-109000000D01*
X97500000Y-95000000D02*
X97500000Y-99000000D01*
X96000000Y-93500000D02*
X97500000Y-95000000D01*
X95000000Y-93500000D02*
X96000000Y-93500000D01*
X93659960Y-94840040D02*
X95000000Y-93500000D01*
X90000000Y-105000000D02*
X88500000Y-103500000D01*
X91500000Y-105000000D02*
X90000000Y-105000000D01*
X92000000Y-105500000D02*
X91500000Y-105000000D01*
D20*
X98200000Y-95550000D02*
X98200000Y-91700000D01*
X98486824Y-95836824D02*
X98200000Y-95550000D01*
X98486824Y-95850000D02*
X98486824Y-95836824D01*
X100000000Y-97363176D02*
X98486824Y-95850000D01*
X100000000Y-98600000D02*
X100000000Y-97363176D01*
X100350000Y-98950000D02*
X100000000Y-98600000D01*
X100350000Y-103550000D02*
X100350000Y-98950000D01*
X101750000Y-104950000D02*
X100350000Y-103550000D01*
X101750000Y-107800000D02*
X101750000Y-104950000D01*
X103900000Y-113100000D02*
X103900000Y-112650000D01*
X102150000Y-114850000D02*
X103900000Y-113100000D01*
X95750000Y-114850000D02*
X102150000Y-114850000D01*
X106359960Y-82565240D02*
X106359960Y-84109960D01*
X108650000Y-86400000D02*
X106359960Y-84109960D01*
X112500000Y-86400000D02*
X108650000Y-86400000D01*
X112600000Y-86500000D02*
X112500000Y-86400000D01*
X120650000Y-86500000D02*
X112600000Y-86500000D01*
X125650000Y-91500000D02*
X120650000Y-86500000D01*
X125650000Y-106000000D02*
X125650000Y-91500000D01*
X119500000Y-112150000D02*
X125650000Y-106000000D01*
X114150000Y-112150000D02*
X119500000Y-112150000D01*
X114150000Y-112150000D02*
X114000000Y-112000000D01*
X80200000Y-96250000D02*
X80250000Y-96300000D01*
X80250000Y-96300000D02*
X84350000Y-96300000D01*
X84350000Y-96300000D02*
X84400000Y-96250000D01*
X107050000Y-96250000D02*
X107600000Y-96800000D01*
X107600000Y-96800000D02*
X107600000Y-100500000D01*
X107600000Y-100500000D02*
X110750000Y-103650000D01*
X110750000Y-103650000D02*
X116650000Y-103650000D01*
X116650000Y-103650000D02*
X117660000Y-104660000D01*
X117660000Y-104660000D02*
X117660000Y-106800000D01*
X115120000Y-106800000D02*
X115120000Y-105370000D01*
X82750000Y-95300000D02*
X72550000Y-95300000D01*
X82850000Y-95400000D02*
X82750000Y-95300000D01*
X105050000Y-95350000D02*
X101100000Y-95350000D01*
X105100000Y-95300000D02*
X105050000Y-95350000D01*
X105100000Y-99350000D02*
X105100000Y-95300000D01*
X110150000Y-104400000D02*
X105100000Y-99350000D01*
X114150000Y-104400000D02*
X110150000Y-104400000D01*
X115120000Y-105370000D02*
X114150000Y-104400000D01*
D19*
G36*
X126025000Y-76527544D02*
X123663529Y-74166073D01*
X123823308Y-73781280D01*
X123823890Y-73114924D01*
X123569424Y-72499068D01*
X123202079Y-72131082D01*
X123661125Y-72131482D01*
X124111391Y-71945436D01*
X124456185Y-71601243D01*
X124643017Y-71151303D01*
X124643442Y-70664115D01*
X124457396Y-70213849D01*
X124113203Y-69869055D01*
X123663263Y-69682223D01*
X123176075Y-69681798D01*
X122725809Y-69867844D01*
X122381015Y-70212037D01*
X122194183Y-70661977D01*
X122193758Y-71149165D01*
X122379804Y-71599431D01*
X122600688Y-71820700D01*
X122483240Y-71771932D01*
X121816884Y-71771350D01*
X121201028Y-72025816D01*
X120729432Y-72496590D01*
X120473892Y-73112000D01*
X120473310Y-73778356D01*
X120727776Y-74394212D01*
X121198550Y-74865808D01*
X121813960Y-75121348D01*
X122480316Y-75121930D01*
X122868146Y-74961682D01*
X125137500Y-77231036D01*
X125137500Y-81902563D01*
X125136658Y-81900525D01*
X124806413Y-81569704D01*
X124374707Y-81390444D01*
X123907263Y-81390036D01*
X123475245Y-81568542D01*
X123144424Y-81898787D01*
X122965164Y-82330493D01*
X122964756Y-82797937D01*
X123143262Y-83229955D01*
X123473507Y-83560776D01*
X123905213Y-83740036D01*
X124372657Y-83740444D01*
X124804675Y-83561938D01*
X125135496Y-83231693D01*
X125137500Y-83226867D01*
X125137500Y-83517005D01*
X124111764Y-84542740D01*
X112478892Y-84542740D01*
X112436658Y-84440525D01*
X112106413Y-84109704D01*
X111674707Y-83930444D01*
X111207263Y-83930036D01*
X110775245Y-84108542D01*
X110444424Y-84438787D01*
X110265164Y-84870493D01*
X110264756Y-85337937D01*
X110443262Y-85769955D01*
X110510689Y-85837500D01*
X108882995Y-85837500D01*
X106922460Y-83876964D01*
X106922460Y-83604172D01*
X107024675Y-83561938D01*
X107355496Y-83231693D01*
X107534756Y-82799987D01*
X107535164Y-82332543D01*
X107356658Y-81900525D01*
X107026413Y-81569704D01*
X106888650Y-81512500D01*
X108370877Y-81512500D01*
X108235245Y-81568542D01*
X107904424Y-81898787D01*
X107725164Y-82330493D01*
X107724756Y-82797937D01*
X107903262Y-83229955D01*
X108233507Y-83560776D01*
X108665213Y-83740036D01*
X109132657Y-83740444D01*
X109564675Y-83561938D01*
X109895496Y-83231693D01*
X110074756Y-82799987D01*
X110075164Y-82332543D01*
X109896658Y-81900525D01*
X109566413Y-81569704D01*
X109428650Y-81512500D01*
X110910877Y-81512500D01*
X110775245Y-81568542D01*
X110444424Y-81898787D01*
X110265164Y-82330493D01*
X110264756Y-82797937D01*
X110443262Y-83229955D01*
X110773507Y-83560776D01*
X111205213Y-83740036D01*
X111672657Y-83740444D01*
X112104675Y-83561938D01*
X112435496Y-83231693D01*
X112614756Y-82799987D01*
X112615164Y-82332543D01*
X112436658Y-81900525D01*
X112106413Y-81569704D01*
X111968650Y-81512500D01*
X112397316Y-81512500D01*
X112542812Y-81658251D01*
X112806574Y-81767775D01*
X113092173Y-81768024D01*
X113131830Y-81751638D01*
X112984424Y-81898787D01*
X112805164Y-82330493D01*
X112804756Y-82797937D01*
X112983262Y-83229955D01*
X113313507Y-83560776D01*
X113745213Y-83740036D01*
X114212657Y-83740444D01*
X114644675Y-83561938D01*
X114975496Y-83231693D01*
X115154756Y-82799987D01*
X115155164Y-82332543D01*
X114976658Y-81900525D01*
X114646413Y-81569704D01*
X114214707Y-81390444D01*
X113747263Y-81390036D01*
X113539542Y-81475865D01*
X113558251Y-81457188D01*
X113667775Y-81193426D01*
X113668024Y-80907827D01*
X113628635Y-80812500D01*
X115047141Y-80812500D01*
X115092812Y-80858251D01*
X115356574Y-80967775D01*
X115642173Y-80968024D01*
X115906126Y-80858960D01*
X115957460Y-80807716D01*
X115957460Y-81526308D01*
X115855245Y-81568542D01*
X115524424Y-81898787D01*
X115345164Y-82330493D01*
X115344756Y-82797937D01*
X115523262Y-83229955D01*
X115853507Y-83560776D01*
X116285213Y-83740036D01*
X116752657Y-83740444D01*
X117184675Y-83561938D01*
X117515496Y-83231693D01*
X117694756Y-82799987D01*
X117694757Y-82797937D01*
X117884756Y-82797937D01*
X118063262Y-83229955D01*
X118393507Y-83560776D01*
X118825213Y-83740036D01*
X119292657Y-83740444D01*
X119724675Y-83561938D01*
X120055496Y-83231693D01*
X120234756Y-82799987D01*
X120234757Y-82797937D01*
X120424756Y-82797937D01*
X120603262Y-83229955D01*
X120933507Y-83560776D01*
X121365213Y-83740036D01*
X121832657Y-83740444D01*
X122264675Y-83561938D01*
X122595496Y-83231693D01*
X122774756Y-82799987D01*
X122775164Y-82332543D01*
X122596658Y-81900525D01*
X122266413Y-81569704D01*
X121834707Y-81390444D01*
X121367263Y-81390036D01*
X120935245Y-81568542D01*
X120604424Y-81898787D01*
X120425164Y-82330493D01*
X120424756Y-82797937D01*
X120234757Y-82797937D01*
X120235164Y-82332543D01*
X120056658Y-81900525D01*
X119726413Y-81569704D01*
X119294707Y-81390444D01*
X118827263Y-81390036D01*
X118395245Y-81568542D01*
X118064424Y-81898787D01*
X117885164Y-82330493D01*
X117884756Y-82797937D01*
X117694757Y-82797937D01*
X117695164Y-82332543D01*
X117516658Y-81900525D01*
X117186413Y-81569704D01*
X117082460Y-81526539D01*
X117082460Y-79863036D01*
X118597745Y-78347750D01*
X118597748Y-78347748D01*
X118708346Y-78182225D01*
X118719682Y-78165260D01*
X118762500Y-77950000D01*
X118762500Y-74950000D01*
X118750635Y-74890350D01*
X118719682Y-74734740D01*
X118650826Y-74631690D01*
X118597748Y-74552252D01*
X118597745Y-74552250D01*
X115862500Y-71817004D01*
X115862500Y-71452772D01*
X115958251Y-71357188D01*
X115973147Y-71321315D01*
X115973100Y-71375022D01*
X116332405Y-72244606D01*
X116997135Y-72910497D01*
X117866091Y-73271319D01*
X118806982Y-73272140D01*
X119676566Y-72912835D01*
X120342457Y-72248105D01*
X120703279Y-71379149D01*
X120704100Y-70438258D01*
X120344795Y-69568674D01*
X119680065Y-68902783D01*
X118811109Y-68541961D01*
X117870218Y-68541140D01*
X117000634Y-68900445D01*
X116334743Y-69565175D01*
X115973921Y-70434131D01*
X115973794Y-70579775D01*
X115958960Y-70543874D01*
X115757188Y-70341749D01*
X115493426Y-70232225D01*
X115207827Y-70231976D01*
X114943874Y-70341040D01*
X114741749Y-70542812D01*
X114632225Y-70806574D01*
X114631976Y-71092173D01*
X114737500Y-71347559D01*
X114737500Y-72049995D01*
X114737499Y-72050000D01*
X114780318Y-72265260D01*
X114902252Y-72447748D01*
X117637500Y-75182995D01*
X117637500Y-77717005D01*
X116122212Y-79232292D01*
X116000278Y-79414780D01*
X115957459Y-79630040D01*
X115957460Y-79630045D01*
X115957460Y-79692109D01*
X115907188Y-79641749D01*
X115643426Y-79532225D01*
X115357827Y-79531976D01*
X115093874Y-79641040D01*
X115047333Y-79687500D01*
X113127711Y-79687500D01*
X113258251Y-79557188D01*
X113367775Y-79293426D01*
X113368024Y-79007827D01*
X113258960Y-78743874D01*
X113057188Y-78541749D01*
X112793426Y-78432225D01*
X112507827Y-78431976D01*
X112494458Y-78437500D01*
X86488965Y-78437500D01*
X86408960Y-78243874D01*
X86207188Y-78041749D01*
X85943426Y-77932225D01*
X85657827Y-77931976D01*
X85393874Y-78041040D01*
X85191749Y-78242812D01*
X85082225Y-78506574D01*
X85081976Y-78792173D01*
X85191040Y-79056126D01*
X85392812Y-79258251D01*
X85656574Y-79367775D01*
X85722337Y-79367832D01*
X85752250Y-79397745D01*
X85752252Y-79397748D01*
X85849163Y-79462501D01*
X85934741Y-79519682D01*
X86150000Y-79562501D01*
X86150005Y-79562500D01*
X112047403Y-79562500D01*
X112172185Y-79687500D01*
X77782995Y-79687500D01*
X77267968Y-79172472D01*
X77268024Y-79107827D01*
X77240897Y-79042173D01*
X82431976Y-79042173D01*
X82541040Y-79306126D01*
X82742812Y-79508251D01*
X83006574Y-79617775D01*
X83292173Y-79618024D01*
X83556126Y-79508960D01*
X83758251Y-79307188D01*
X83867775Y-79043426D01*
X83867832Y-78977664D01*
X85803410Y-77042085D01*
X96683550Y-77042085D01*
X96826313Y-77265390D01*
X97417413Y-77527150D01*
X98063689Y-77542780D01*
X98666752Y-77309901D01*
X98733367Y-77265390D01*
X98827413Y-77118285D01*
X114702310Y-77118285D01*
X114845073Y-77341590D01*
X115436173Y-77603350D01*
X116082449Y-77618980D01*
X116685512Y-77386101D01*
X116752127Y-77341590D01*
X116894890Y-77118285D01*
X115798600Y-76021995D01*
X114702310Y-77118285D01*
X98827413Y-77118285D01*
X98876130Y-77042085D01*
X97779840Y-75945795D01*
X96683550Y-77042085D01*
X85803410Y-77042085D01*
X86651206Y-76194289D01*
X96147500Y-76194289D01*
X96380379Y-76797352D01*
X96424890Y-76863967D01*
X96648195Y-77006730D01*
X97744485Y-75910440D01*
X97815195Y-75910440D01*
X98911485Y-77006730D01*
X99134790Y-76863967D01*
X99396550Y-76272867D01*
X99396607Y-76270489D01*
X114166260Y-76270489D01*
X114399139Y-76873552D01*
X114443650Y-76940167D01*
X114666955Y-77082930D01*
X115763245Y-75986640D01*
X115833955Y-75986640D01*
X116930245Y-77082930D01*
X117153550Y-76940167D01*
X117415310Y-76349067D01*
X117430940Y-75702791D01*
X117198061Y-75099728D01*
X117153550Y-75033113D01*
X116930245Y-74890350D01*
X115833955Y-75986640D01*
X115763245Y-75986640D01*
X114666955Y-74890350D01*
X114443650Y-75033113D01*
X114181890Y-75624213D01*
X114166260Y-76270489D01*
X99396607Y-76270489D01*
X99412180Y-75626591D01*
X99179301Y-75023528D01*
X99134790Y-74956913D01*
X98911485Y-74814150D01*
X97815195Y-75910440D01*
X97744485Y-75910440D01*
X96648195Y-74814150D01*
X96424890Y-74956913D01*
X96163130Y-75548013D01*
X96147500Y-76194289D01*
X86651206Y-76194289D01*
X88332995Y-74512500D01*
X96890652Y-74512500D01*
X96826313Y-74555490D01*
X96683550Y-74778795D01*
X97779840Y-75875085D01*
X98876130Y-74778795D01*
X98733367Y-74555490D01*
X98636288Y-74512500D01*
X102903165Y-74512500D01*
X103179790Y-74789608D01*
X103795200Y-75045148D01*
X104461556Y-75045730D01*
X104923170Y-74854995D01*
X114702310Y-74854995D01*
X115798600Y-75951285D01*
X116894890Y-74854995D01*
X116752127Y-74631690D01*
X116161027Y-74369930D01*
X115514751Y-74354300D01*
X114911688Y-74587179D01*
X114845073Y-74631690D01*
X114702310Y-74854995D01*
X104923170Y-74854995D01*
X105077412Y-74791264D01*
X105549008Y-74320490D01*
X105804548Y-73705080D01*
X105805130Y-73038724D01*
X105550664Y-72422868D01*
X105183319Y-72054882D01*
X105642365Y-72055282D01*
X106092631Y-71869236D01*
X106437425Y-71525043D01*
X106593503Y-71149165D01*
X112033758Y-71149165D01*
X112219804Y-71599431D01*
X112563997Y-71944225D01*
X113013937Y-72131057D01*
X113501125Y-72131482D01*
X113951391Y-71945436D01*
X114296185Y-71601243D01*
X114483017Y-71151303D01*
X114483442Y-70664115D01*
X114297396Y-70213849D01*
X113953203Y-69869055D01*
X113503263Y-69682223D01*
X113016075Y-69681798D01*
X112565809Y-69867844D01*
X112221015Y-70212037D01*
X112034183Y-70661977D01*
X112033758Y-71149165D01*
X106593503Y-71149165D01*
X106624257Y-71075103D01*
X106624682Y-70587915D01*
X106438636Y-70137649D01*
X106094443Y-69792855D01*
X105644503Y-69606023D01*
X105157315Y-69605598D01*
X104707049Y-69791644D01*
X104362255Y-70135837D01*
X104175423Y-70585777D01*
X104174998Y-71072965D01*
X104361044Y-71523231D01*
X104581928Y-71744500D01*
X104464480Y-71695732D01*
X103798124Y-71695150D01*
X103182268Y-71949616D01*
X102710672Y-72420390D01*
X102455132Y-73035800D01*
X102454825Y-73387500D01*
X88100005Y-73387500D01*
X88100000Y-73387499D01*
X87884740Y-73430318D01*
X87811646Y-73479158D01*
X87702252Y-73552252D01*
X87702250Y-73552255D01*
X83072472Y-78182032D01*
X83007827Y-78181976D01*
X82743874Y-78291040D01*
X82541749Y-78492812D01*
X82432225Y-78756574D01*
X82431976Y-79042173D01*
X77240897Y-79042173D01*
X77158960Y-78843874D01*
X76957188Y-78641749D01*
X76693426Y-78532225D01*
X76407827Y-78531976D01*
X76143874Y-78641040D01*
X75941749Y-78842812D01*
X75832225Y-79106574D01*
X75831976Y-79392173D01*
X75941040Y-79656126D01*
X76142812Y-79858251D01*
X76406574Y-79967775D01*
X76472337Y-79967832D01*
X76892005Y-80387500D01*
X68482995Y-80387500D01*
X68017968Y-79922472D01*
X68018024Y-79857827D01*
X67908960Y-79593874D01*
X67707188Y-79391749D01*
X67443426Y-79282225D01*
X67157827Y-79281976D01*
X66893874Y-79391040D01*
X66691749Y-79592812D01*
X66582225Y-79856574D01*
X66581976Y-80142173D01*
X66691040Y-80406126D01*
X66892812Y-80608251D01*
X67156574Y-80717775D01*
X67222337Y-80717832D01*
X67852250Y-81347745D01*
X67852252Y-81347748D01*
X67916152Y-81390444D01*
X67958231Y-81418560D01*
X67595245Y-81568542D01*
X67264424Y-81898787D01*
X67085164Y-82330493D01*
X67084756Y-82797937D01*
X67263262Y-83229955D01*
X67593507Y-83560776D01*
X68025213Y-83740036D01*
X68492657Y-83740444D01*
X68924675Y-83561938D01*
X69255496Y-83231693D01*
X69434756Y-82799987D01*
X69435164Y-82332543D01*
X69256658Y-81900525D01*
X68926413Y-81569704D01*
X68788650Y-81512500D01*
X70270877Y-81512500D01*
X70135245Y-81568542D01*
X69804424Y-81898787D01*
X69625164Y-82330493D01*
X69624756Y-82797937D01*
X69803262Y-83229955D01*
X70133507Y-83560776D01*
X70565213Y-83740036D01*
X71032657Y-83740444D01*
X71464675Y-83561938D01*
X71795496Y-83231693D01*
X71974756Y-82799987D01*
X71975164Y-82332543D01*
X71796658Y-81900525D01*
X71466413Y-81569704D01*
X71328650Y-81512500D01*
X72810877Y-81512500D01*
X72675245Y-81568542D01*
X72344424Y-81898787D01*
X72165164Y-82330493D01*
X72164756Y-82797937D01*
X72343262Y-83229955D01*
X72673507Y-83560776D01*
X73105213Y-83740036D01*
X73572657Y-83740444D01*
X74004675Y-83561938D01*
X74335496Y-83231693D01*
X74514756Y-82799987D01*
X74515164Y-82332543D01*
X74336658Y-81900525D01*
X74006413Y-81569704D01*
X73868650Y-81512500D01*
X75350877Y-81512500D01*
X75215245Y-81568542D01*
X74884424Y-81898787D01*
X74705164Y-82330493D01*
X74704756Y-82797937D01*
X74883262Y-83229955D01*
X75213507Y-83560776D01*
X75645213Y-83740036D01*
X76112657Y-83740444D01*
X76544675Y-83561938D01*
X76875496Y-83231693D01*
X77054756Y-82799987D01*
X77055164Y-82332543D01*
X76876658Y-81900525D01*
X76546413Y-81569704D01*
X76408650Y-81512500D01*
X77890877Y-81512500D01*
X77755245Y-81568542D01*
X77424424Y-81898787D01*
X77245164Y-82330493D01*
X77244756Y-82797937D01*
X77423262Y-83229955D01*
X77753507Y-83560776D01*
X78185213Y-83740036D01*
X78652657Y-83740444D01*
X79084675Y-83561938D01*
X79415496Y-83231693D01*
X79594756Y-82799987D01*
X79595164Y-82332543D01*
X79416658Y-81900525D01*
X79086413Y-81569704D01*
X78948650Y-81512500D01*
X80430877Y-81512500D01*
X80295245Y-81568542D01*
X79964424Y-81898787D01*
X79785164Y-82330493D01*
X79784756Y-82797937D01*
X79963262Y-83229955D01*
X80293507Y-83560776D01*
X80725213Y-83740036D01*
X81192657Y-83740444D01*
X81624675Y-83561938D01*
X81955496Y-83231693D01*
X82134756Y-82799987D01*
X82135164Y-82332543D01*
X81956658Y-81900525D01*
X81626413Y-81569704D01*
X81488650Y-81512500D01*
X82970877Y-81512500D01*
X82835245Y-81568542D01*
X82504424Y-81898787D01*
X82325164Y-82330493D01*
X82324756Y-82797937D01*
X82503262Y-83229955D01*
X82833507Y-83560776D01*
X83265213Y-83740036D01*
X83732657Y-83740444D01*
X84164675Y-83561938D01*
X84495496Y-83231693D01*
X84674756Y-82799987D01*
X84675164Y-82332543D01*
X84496658Y-81900525D01*
X84166413Y-81569704D01*
X84028650Y-81512500D01*
X85510877Y-81512500D01*
X85375245Y-81568542D01*
X85044424Y-81898787D01*
X84865164Y-82330493D01*
X84864756Y-82797937D01*
X85043262Y-83229955D01*
X85373507Y-83560776D01*
X85805213Y-83740036D01*
X86272657Y-83740444D01*
X86704675Y-83561938D01*
X87035496Y-83231693D01*
X87214756Y-82799987D01*
X87215164Y-82332543D01*
X87036658Y-81900525D01*
X86706413Y-81569704D01*
X86568650Y-81512500D01*
X88050877Y-81512500D01*
X87915245Y-81568542D01*
X87584424Y-81898787D01*
X87405164Y-82330493D01*
X87404756Y-82797937D01*
X87583262Y-83229955D01*
X87913507Y-83560776D01*
X88345213Y-83740036D01*
X88812657Y-83740444D01*
X89244675Y-83561938D01*
X89575496Y-83231693D01*
X89754756Y-82799987D01*
X89755164Y-82332543D01*
X89576658Y-81900525D01*
X89246413Y-81569704D01*
X89108650Y-81512500D01*
X90590877Y-81512500D01*
X90455245Y-81568542D01*
X90124424Y-81898787D01*
X89945164Y-82330493D01*
X89944756Y-82797937D01*
X90123262Y-83229955D01*
X90453507Y-83560776D01*
X90885213Y-83740036D01*
X91352657Y-83740444D01*
X91784675Y-83561938D01*
X92115496Y-83231693D01*
X92294756Y-82799987D01*
X92295164Y-82332543D01*
X92116658Y-81900525D01*
X91786413Y-81569704D01*
X91648650Y-81512500D01*
X93130877Y-81512500D01*
X92995245Y-81568542D01*
X92664424Y-81898787D01*
X92485164Y-82330493D01*
X92484756Y-82797937D01*
X92663262Y-83229955D01*
X92993507Y-83560776D01*
X93425213Y-83740036D01*
X93892657Y-83740444D01*
X94324675Y-83561938D01*
X94655496Y-83231693D01*
X94834756Y-82799987D01*
X94835164Y-82332543D01*
X94656658Y-81900525D01*
X94326413Y-81569704D01*
X94188650Y-81512500D01*
X95670877Y-81512500D01*
X95535245Y-81568542D01*
X95204424Y-81898787D01*
X95025164Y-82330493D01*
X95024756Y-82797937D01*
X95203262Y-83229955D01*
X95533507Y-83560776D01*
X95965213Y-83740036D01*
X96432657Y-83740444D01*
X96864675Y-83561938D01*
X97195496Y-83231693D01*
X97374756Y-82799987D01*
X97375164Y-82332543D01*
X97196658Y-81900525D01*
X96866413Y-81569704D01*
X96728650Y-81512500D01*
X98210877Y-81512500D01*
X98075245Y-81568542D01*
X97744424Y-81898787D01*
X97565164Y-82330493D01*
X97564756Y-82797937D01*
X97743262Y-83229955D01*
X98073507Y-83560776D01*
X98505213Y-83740036D01*
X98972657Y-83740444D01*
X99404675Y-83561938D01*
X99630668Y-83336338D01*
X100544218Y-83336338D01*
X100626132Y-83507690D01*
X101036561Y-83686160D01*
X101484046Y-83693980D01*
X101900461Y-83529959D01*
X101933788Y-83507690D01*
X102015702Y-83336338D01*
X101279960Y-82600595D01*
X100544218Y-83336338D01*
X99630668Y-83336338D01*
X99735496Y-83231693D01*
X99914756Y-82799987D01*
X99914782Y-82769326D01*
X100151220Y-82769326D01*
X100315241Y-83185741D01*
X100337510Y-83219068D01*
X100508862Y-83300982D01*
X101244605Y-82565240D01*
X101315315Y-82565240D01*
X102051058Y-83300982D01*
X102222410Y-83219068D01*
X102400880Y-82808639D01*
X102408700Y-82361154D01*
X102244679Y-81944739D01*
X102222410Y-81911412D01*
X102051058Y-81829498D01*
X101315315Y-82565240D01*
X101244605Y-82565240D01*
X100508862Y-81829498D01*
X100337510Y-81911412D01*
X100159040Y-82321841D01*
X100151220Y-82769326D01*
X99914782Y-82769326D01*
X99915164Y-82332543D01*
X99736658Y-81900525D01*
X99406413Y-81569704D01*
X99268650Y-81512500D01*
X100882926Y-81512500D01*
X100659459Y-81600521D01*
X100626132Y-81622790D01*
X100544218Y-81794142D01*
X101279960Y-82529885D01*
X102015702Y-81794142D01*
X101933788Y-81622790D01*
X101680153Y-81512500D01*
X103290877Y-81512500D01*
X103155245Y-81568542D01*
X102824424Y-81898787D01*
X102645164Y-82330493D01*
X102644756Y-82797937D01*
X102823262Y-83229955D01*
X103153507Y-83560776D01*
X103585213Y-83740036D01*
X104052657Y-83740444D01*
X104484675Y-83561938D01*
X104815496Y-83231693D01*
X104994756Y-82799987D01*
X104995164Y-82332543D01*
X104816658Y-81900525D01*
X104486413Y-81569704D01*
X104348650Y-81512500D01*
X105830877Y-81512500D01*
X105695245Y-81568542D01*
X105364424Y-81898787D01*
X105185164Y-82330493D01*
X105184756Y-82797937D01*
X105363262Y-83229955D01*
X105693507Y-83560776D01*
X105797460Y-83603941D01*
X105797460Y-84109955D01*
X105797459Y-84109960D01*
X105840278Y-84325220D01*
X105962212Y-84507708D01*
X108252250Y-86797745D01*
X108252252Y-86797748D01*
X108401913Y-86897747D01*
X108434741Y-86919682D01*
X108650000Y-86962501D01*
X108650005Y-86962500D01*
X110460739Y-86962500D01*
X110444424Y-86978787D01*
X110265164Y-87410493D01*
X110264756Y-87877937D01*
X110443262Y-88309955D01*
X110773507Y-88640776D01*
X111205213Y-88820036D01*
X111672657Y-88820444D01*
X112104675Y-88641938D01*
X112435496Y-88311693D01*
X112614756Y-87879987D01*
X112615164Y-87412543D01*
X112458935Y-87034440D01*
X112600000Y-87062500D01*
X120417004Y-87062500D01*
X125087500Y-91732995D01*
X125087500Y-97091281D01*
X124806413Y-96809704D01*
X124374707Y-96630444D01*
X123907263Y-96630036D01*
X123475245Y-96808542D01*
X123144424Y-97138787D01*
X122965164Y-97570493D01*
X122964756Y-98037937D01*
X123143262Y-98469955D01*
X123473507Y-98800776D01*
X123905213Y-98980036D01*
X124372657Y-98980444D01*
X124804675Y-98801938D01*
X125087500Y-98519605D01*
X125087500Y-105767005D01*
X119267004Y-111587500D01*
X114602597Y-111587500D01*
X114407188Y-111391749D01*
X114264937Y-111332681D01*
X114291213Y-111332704D01*
X114555166Y-111223640D01*
X114757291Y-111021868D01*
X114866815Y-110758106D01*
X114867064Y-110472507D01*
X114791470Y-110289557D01*
X114866815Y-110108106D01*
X114867064Y-109822507D01*
X114791470Y-109639557D01*
X114866815Y-109458106D01*
X114867064Y-109172507D01*
X114758000Y-108908554D01*
X114556228Y-108706429D01*
X114292466Y-108596905D01*
X114006867Y-108596656D01*
X113742914Y-108705720D01*
X113540789Y-108907492D01*
X113431265Y-109171254D01*
X113431016Y-109456853D01*
X113506610Y-109639803D01*
X113431265Y-109821254D01*
X113431016Y-110106853D01*
X113506610Y-110289803D01*
X113431265Y-110471254D01*
X113431016Y-110756853D01*
X113540080Y-111020806D01*
X113741852Y-111222931D01*
X113884103Y-111281999D01*
X113857827Y-111281976D01*
X113593874Y-111391040D01*
X113391749Y-111592812D01*
X113282225Y-111856574D01*
X113281976Y-112142173D01*
X113391040Y-112406126D01*
X113592812Y-112608251D01*
X113856574Y-112717775D01*
X114142173Y-112718024D01*
X114155542Y-112712500D01*
X119499995Y-112712500D01*
X119500000Y-112712501D01*
X119715260Y-112669682D01*
X119897748Y-112547748D01*
X126025000Y-106420495D01*
X126025000Y-116525000D01*
X93019192Y-116525000D01*
X93037343Y-116506880D01*
X107873800Y-116506880D01*
X108065142Y-116468820D01*
X108227353Y-116360433D01*
X109784685Y-114803101D01*
X111380878Y-114803101D01*
X111548675Y-115229753D01*
X111866972Y-115559715D01*
X112287311Y-115742753D01*
X112328779Y-115751000D01*
X112512240Y-115688104D01*
X112512240Y-114619640D01*
X112562240Y-114619640D01*
X112562240Y-115688104D01*
X112745701Y-115751000D01*
X112787169Y-115742753D01*
X113207508Y-115559715D01*
X113525805Y-115229753D01*
X113693602Y-114803101D01*
X113630726Y-114619640D01*
X112562240Y-114619640D01*
X112512240Y-114619640D01*
X111443754Y-114619640D01*
X111380878Y-114803101D01*
X109784685Y-114803101D01*
X110201607Y-114386179D01*
X111380878Y-114386179D01*
X111443754Y-114569640D01*
X112512240Y-114569640D01*
X112512240Y-113501176D01*
X112562240Y-113501176D01*
X112562240Y-114569640D01*
X113630726Y-114569640D01*
X113693602Y-114386179D01*
X113525805Y-113959527D01*
X113318515Y-113744640D01*
X113844894Y-113744640D01*
X113844894Y-115444640D01*
X113871042Y-115583606D01*
X113953171Y-115711239D01*
X114078486Y-115796863D01*
X114227240Y-115826986D01*
X115927240Y-115826986D01*
X116066206Y-115800838D01*
X116193839Y-115718709D01*
X116279463Y-115593394D01*
X116309586Y-115444640D01*
X116309586Y-113744640D01*
X116283438Y-113605674D01*
X116201309Y-113478041D01*
X116075994Y-113392417D01*
X115927240Y-113362294D01*
X114227240Y-113362294D01*
X114088274Y-113388442D01*
X113960641Y-113470571D01*
X113875017Y-113595886D01*
X113844894Y-113744640D01*
X113318515Y-113744640D01*
X113207508Y-113629565D01*
X112787169Y-113446527D01*
X112745701Y-113438280D01*
X112562240Y-113501176D01*
X112512240Y-113501176D01*
X112328779Y-113438280D01*
X112287311Y-113446527D01*
X111866972Y-113629565D01*
X111548675Y-113959527D01*
X111380878Y-114386179D01*
X110201607Y-114386179D01*
X110340633Y-114247154D01*
X110449020Y-114084942D01*
X110457527Y-114042173D01*
X110487080Y-113893600D01*
X110487080Y-111325290D01*
X110595331Y-111217228D01*
X110704855Y-110953466D01*
X110705104Y-110667867D01*
X110596040Y-110403914D01*
X110394268Y-110201789D01*
X110130506Y-110092265D01*
X109844907Y-110092016D01*
X109580954Y-110201080D01*
X109378829Y-110402852D01*
X109269305Y-110666614D01*
X109269056Y-110952213D01*
X109378120Y-111216166D01*
X109487080Y-111325317D01*
X109487080Y-113686493D01*
X107666694Y-115506880D01*
X96040152Y-115506880D01*
X96156126Y-115458960D01*
X96202667Y-115412500D01*
X102149995Y-115412500D01*
X102150000Y-115412501D01*
X102365260Y-115369682D01*
X102547748Y-115247748D01*
X104297745Y-113497750D01*
X104297748Y-113497748D01*
X104419682Y-113315259D01*
X104461792Y-113103566D01*
X104508251Y-113057188D01*
X104617775Y-112793426D01*
X104618024Y-112507827D01*
X104508960Y-112243874D01*
X104307188Y-112041749D01*
X104043426Y-111932225D01*
X103757827Y-111931976D01*
X103493874Y-112041040D01*
X103291749Y-112242812D01*
X103182225Y-112506574D01*
X103181976Y-112792173D01*
X103249328Y-112955177D01*
X101917004Y-114287500D01*
X101466426Y-114287500D01*
X101567775Y-114043426D01*
X101568024Y-113757827D01*
X101477198Y-113538012D01*
X101608251Y-113407188D01*
X101717775Y-113143426D01*
X101718024Y-112857827D01*
X101608960Y-112593874D01*
X101407188Y-112391749D01*
X101143426Y-112282225D01*
X100857827Y-112281976D01*
X100593874Y-112391040D01*
X100484723Y-112500000D01*
X97707107Y-112500000D01*
X96853553Y-111646447D01*
X96691342Y-111538060D01*
X96500000Y-111500000D01*
X93500000Y-111500000D01*
X93308658Y-111538060D01*
X93146447Y-111646447D01*
X91402918Y-113389976D01*
X91143426Y-113282225D01*
X90857827Y-113281976D01*
X90593874Y-113391040D01*
X90391749Y-113592812D01*
X90282225Y-113856574D01*
X90281976Y-114142173D01*
X90391040Y-114406126D01*
X90592812Y-114608251D01*
X90856574Y-114717775D01*
X91142173Y-114718024D01*
X91406126Y-114608960D01*
X91519078Y-114496205D01*
X91691342Y-114461940D01*
X91853553Y-114353553D01*
X93707106Y-112500000D01*
X96292894Y-112500000D01*
X97146447Y-113353554D01*
X97197251Y-113387500D01*
X96402859Y-113387500D01*
X96357188Y-113341749D01*
X96093426Y-113232225D01*
X95807827Y-113231976D01*
X95543874Y-113341040D01*
X95341749Y-113542812D01*
X95232225Y-113806574D01*
X95231976Y-114092173D01*
X95308201Y-114276651D01*
X95141749Y-114442812D01*
X95032225Y-114706574D01*
X95031976Y-114992173D01*
X95141040Y-115256126D01*
X95342812Y-115458251D01*
X95459923Y-115506880D01*
X93006837Y-115506880D01*
X92913988Y-115413869D01*
X92650226Y-115304345D01*
X92364627Y-115304096D01*
X92100674Y-115413160D01*
X91898549Y-115614932D01*
X91789025Y-115878694D01*
X91788776Y-116164293D01*
X91897840Y-116428246D01*
X91994425Y-116525000D01*
X62975000Y-116525000D01*
X62975000Y-110142173D01*
X88781976Y-110142173D01*
X88891040Y-110406126D01*
X89092812Y-110608251D01*
X89356574Y-110717775D01*
X89642173Y-110718024D01*
X89906126Y-110608960D01*
X90015277Y-110500000D01*
X97292894Y-110500000D01*
X98646446Y-111853553D01*
X98767952Y-111934741D01*
X98808658Y-111961940D01*
X99000000Y-112000000D01*
X99484750Y-112000000D01*
X99592812Y-112108251D01*
X99856574Y-112217775D01*
X100142173Y-112218024D01*
X100406126Y-112108960D01*
X100608251Y-111907188D01*
X100717775Y-111643426D01*
X100718024Y-111357827D01*
X100608960Y-111093874D01*
X100515250Y-111000000D01*
X104500000Y-111000000D01*
X104691342Y-110961940D01*
X104853553Y-110853553D01*
X104989216Y-110717891D01*
X105142173Y-110718024D01*
X105406126Y-110608960D01*
X105608251Y-110407188D01*
X105717775Y-110143426D01*
X105718024Y-109857827D01*
X105608960Y-109593874D01*
X105407188Y-109391749D01*
X105143426Y-109282225D01*
X104857827Y-109281976D01*
X104593874Y-109391040D01*
X104391749Y-109592812D01*
X104282225Y-109856574D01*
X104282100Y-110000000D01*
X99207107Y-110000000D01*
X98000000Y-108792894D01*
X98000000Y-104015250D01*
X98108251Y-103907188D01*
X98217775Y-103643426D01*
X98218024Y-103357827D01*
X98108960Y-103093874D01*
X97907188Y-102891749D01*
X97643426Y-102782225D01*
X97357827Y-102781976D01*
X97093874Y-102891040D01*
X97000013Y-102984737D01*
X96907188Y-102891749D01*
X96643426Y-102782225D01*
X96357827Y-102781976D01*
X96093874Y-102891040D01*
X95891749Y-103092812D01*
X95782225Y-103356574D01*
X95781976Y-103642173D01*
X95891040Y-103906126D01*
X96000000Y-104015277D01*
X96000000Y-108484750D01*
X95891749Y-108592812D01*
X95782225Y-108856574D01*
X95781976Y-109142173D01*
X95891040Y-109406126D01*
X95984750Y-109500000D01*
X90015250Y-109500000D01*
X89907188Y-109391749D01*
X89643426Y-109282225D01*
X89357827Y-109281976D01*
X89093874Y-109391040D01*
X88891749Y-109592812D01*
X88782225Y-109856574D01*
X88781976Y-110142173D01*
X62975000Y-110142173D01*
X62975000Y-102192173D01*
X69831976Y-102192173D01*
X69941040Y-102456126D01*
X70142812Y-102658251D01*
X70406574Y-102767775D01*
X70692173Y-102768024D01*
X70956126Y-102658960D01*
X71158251Y-102457188D01*
X71259855Y-102212500D01*
X71999995Y-102212500D01*
X72000000Y-102212501D01*
X72215260Y-102169682D01*
X72397748Y-102047748D01*
X72453323Y-101992173D01*
X80131976Y-101992173D01*
X80241040Y-102256126D01*
X80442812Y-102458251D01*
X80706574Y-102567775D01*
X80772337Y-102567832D01*
X80887500Y-102682995D01*
X80887500Y-103647141D01*
X80841749Y-103692812D01*
X80732225Y-103956574D01*
X80731976Y-104242173D01*
X80841040Y-104506126D01*
X81042812Y-104708251D01*
X81306574Y-104817775D01*
X81592173Y-104818024D01*
X81856126Y-104708960D01*
X82058251Y-104507188D01*
X82167775Y-104243426D01*
X82168024Y-103957827D01*
X82058960Y-103693874D01*
X82012500Y-103647333D01*
X82012500Y-102450005D01*
X82012501Y-102450000D01*
X81969682Y-102234740D01*
X81920842Y-102161646D01*
X81847748Y-102052252D01*
X81847745Y-102052250D01*
X81567968Y-101772472D01*
X81568024Y-101707827D01*
X81458960Y-101443874D01*
X81257188Y-101241749D01*
X80993426Y-101132225D01*
X80707827Y-101131976D01*
X80443874Y-101241040D01*
X80241749Y-101442812D01*
X80132225Y-101706574D01*
X80131976Y-101992173D01*
X72453323Y-101992173D01*
X73482996Y-100962500D01*
X73549995Y-100962500D01*
X73550000Y-100962501D01*
X73765260Y-100919682D01*
X73947748Y-100797748D01*
X74632995Y-100112500D01*
X82749995Y-100112500D01*
X82750000Y-100112501D01*
X82965260Y-100069682D01*
X83147748Y-99947748D01*
X83897705Y-99197790D01*
X83897708Y-99197788D01*
X84019642Y-99015299D01*
X84032631Y-98950000D01*
X84052896Y-98848124D01*
X84164675Y-98801938D01*
X84495496Y-98471693D01*
X84674756Y-98039987D01*
X84674757Y-98037937D01*
X84864756Y-98037937D01*
X85043262Y-98469955D01*
X85373507Y-98800776D01*
X85805213Y-98980036D01*
X86272657Y-98980444D01*
X86704675Y-98801938D01*
X87035496Y-98471693D01*
X87214756Y-98039987D01*
X87214757Y-98037937D01*
X87404756Y-98037937D01*
X87583262Y-98469955D01*
X87913507Y-98800776D01*
X88345213Y-98980036D01*
X88812657Y-98980444D01*
X89244675Y-98801938D01*
X89287500Y-98759188D01*
X89287500Y-99967005D01*
X89102252Y-100152252D01*
X88980318Y-100334740D01*
X88937499Y-100550000D01*
X88937500Y-100550005D01*
X88937500Y-102723458D01*
X88882225Y-102856574D01*
X88882203Y-102881374D01*
X88643426Y-102782225D01*
X88357827Y-102781976D01*
X88093874Y-102891040D01*
X87891749Y-103092812D01*
X87782225Y-103356574D01*
X87781976Y-103642173D01*
X87891040Y-103906126D01*
X88092812Y-104108251D01*
X88356574Y-104217775D01*
X88510803Y-104217909D01*
X89646446Y-105353553D01*
X89671061Y-105370000D01*
X89808658Y-105461940D01*
X90000000Y-105500000D01*
X91282100Y-105500000D01*
X91281976Y-105642173D01*
X91391040Y-105906126D01*
X91592812Y-106108251D01*
X91856574Y-106217775D01*
X92142173Y-106218024D01*
X92406126Y-106108960D01*
X92608251Y-105907188D01*
X92717775Y-105643426D01*
X92718024Y-105357827D01*
X92608960Y-105093874D01*
X92407188Y-104891749D01*
X92143426Y-104782225D01*
X91989197Y-104782091D01*
X91853553Y-104646447D01*
X91691342Y-104538060D01*
X91500000Y-104500000D01*
X90207107Y-104500000D01*
X89402377Y-103695270D01*
X89456574Y-103717775D01*
X89742173Y-103718024D01*
X90006126Y-103608960D01*
X90208251Y-103407188D01*
X90317775Y-103143426D01*
X90318024Y-102857827D01*
X90208960Y-102593874D01*
X90062500Y-102447158D01*
X90062500Y-100782996D01*
X90247745Y-100597750D01*
X90247748Y-100597748D01*
X90369682Y-100415259D01*
X90372717Y-100400000D01*
X90412501Y-100200000D01*
X90412500Y-100199995D01*
X90412500Y-98759697D01*
X90453507Y-98800776D01*
X90885213Y-98980036D01*
X91352657Y-98980444D01*
X91784675Y-98801938D01*
X92115496Y-98471693D01*
X92294756Y-98039987D01*
X92294994Y-97767852D01*
X92484992Y-97768018D01*
X92484756Y-98037937D01*
X92663262Y-98469955D01*
X92993507Y-98800776D01*
X93425213Y-98980036D01*
X93892657Y-98980444D01*
X94255294Y-98830606D01*
X94182225Y-99006574D01*
X94181976Y-99292173D01*
X94262684Y-99487500D01*
X92576542Y-99487500D01*
X92443426Y-99432225D01*
X92157827Y-99431976D01*
X91893874Y-99541040D01*
X91691749Y-99742812D01*
X91582225Y-100006574D01*
X91581976Y-100292173D01*
X91691040Y-100556126D01*
X91892812Y-100758251D01*
X92156574Y-100867775D01*
X92442173Y-100868024D01*
X92706126Y-100758960D01*
X92852842Y-100612500D01*
X98383574Y-100612500D01*
X98282225Y-100856574D01*
X98281976Y-101142173D01*
X98391040Y-101406126D01*
X98500000Y-101515277D01*
X98500000Y-104000000D01*
X98527911Y-104140318D01*
X98538060Y-104191342D01*
X98646447Y-104353553D01*
X99782109Y-105489216D01*
X99781976Y-105642173D01*
X99891040Y-105906126D01*
X100092812Y-106108251D01*
X100356574Y-106217775D01*
X100642173Y-106218024D01*
X100906126Y-106108960D01*
X101108251Y-105907188D01*
X101187500Y-105716336D01*
X101187500Y-107347141D01*
X101141749Y-107392812D01*
X101032225Y-107656574D01*
X101031976Y-107942173D01*
X101141040Y-108206126D01*
X101342812Y-108408251D01*
X101606574Y-108517775D01*
X101892173Y-108518024D01*
X102156126Y-108408960D01*
X102358251Y-108207188D01*
X102467775Y-107943426D01*
X102468024Y-107657827D01*
X102358960Y-107393874D01*
X102312500Y-107347333D01*
X102312500Y-107008461D01*
X106343638Y-107008461D01*
X106511435Y-107435113D01*
X106829732Y-107765075D01*
X107250071Y-107948113D01*
X107291539Y-107956360D01*
X107475000Y-107893464D01*
X107475000Y-106825000D01*
X107525000Y-106825000D01*
X107525000Y-107893464D01*
X107708461Y-107956360D01*
X107749929Y-107948113D01*
X108170268Y-107765075D01*
X108488565Y-107435113D01*
X108656362Y-107008461D01*
X108593486Y-106825000D01*
X107525000Y-106825000D01*
X107475000Y-106825000D01*
X106406514Y-106825000D01*
X106343638Y-107008461D01*
X102312500Y-107008461D01*
X102312500Y-106776001D01*
X108815000Y-106776001D01*
X108815000Y-106823999D01*
X108908248Y-107292786D01*
X109173794Y-107690205D01*
X109571213Y-107955751D01*
X110040000Y-108048999D01*
X110508787Y-107955751D01*
X110906206Y-107690205D01*
X111171752Y-107292786D01*
X111265000Y-106823999D01*
X111265000Y-106776001D01*
X111355000Y-106776001D01*
X111355000Y-106823999D01*
X111448248Y-107292786D01*
X111713794Y-107690205D01*
X112111213Y-107955751D01*
X112580000Y-108048999D01*
X113048787Y-107955751D01*
X113446206Y-107690205D01*
X113711752Y-107292786D01*
X113805000Y-106823999D01*
X113805000Y-106776001D01*
X113711752Y-106307214D01*
X113446206Y-105909795D01*
X113048787Y-105644249D01*
X112580000Y-105551001D01*
X112111213Y-105644249D01*
X111713794Y-105909795D01*
X111448248Y-106307214D01*
X111355000Y-106776001D01*
X111265000Y-106776001D01*
X111171752Y-106307214D01*
X110906206Y-105909795D01*
X110508787Y-105644249D01*
X110040000Y-105551001D01*
X109571213Y-105644249D01*
X109173794Y-105909795D01*
X108908248Y-106307214D01*
X108815000Y-106776001D01*
X102312500Y-106776001D01*
X102312500Y-106591539D01*
X106343638Y-106591539D01*
X106406514Y-106775000D01*
X107475000Y-106775000D01*
X107475000Y-105706536D01*
X107525000Y-105706536D01*
X107525000Y-106775000D01*
X108593486Y-106775000D01*
X108656362Y-106591539D01*
X108488565Y-106164887D01*
X108170268Y-105834925D01*
X107749929Y-105651887D01*
X107708461Y-105643640D01*
X107525000Y-105706536D01*
X107475000Y-105706536D01*
X107291539Y-105643640D01*
X107250071Y-105651887D01*
X106829732Y-105834925D01*
X106511435Y-106164887D01*
X106343638Y-106591539D01*
X102312500Y-106591539D01*
X102312500Y-104950005D01*
X102312501Y-104950000D01*
X102269682Y-104734740D01*
X102147748Y-104552252D01*
X100912500Y-103317004D01*
X100912500Y-98950005D01*
X100912501Y-98950000D01*
X100907065Y-98922672D01*
X101045213Y-98980036D01*
X101512657Y-98980444D01*
X101944675Y-98801938D01*
X101987500Y-98759188D01*
X101987500Y-98953045D01*
X101882225Y-99206574D01*
X101881976Y-99492173D01*
X101991040Y-99756126D01*
X102192812Y-99958251D01*
X102456574Y-100067775D01*
X102742173Y-100068024D01*
X103006126Y-99958960D01*
X103208251Y-99757188D01*
X103317775Y-99493426D01*
X103318024Y-99207827D01*
X103208960Y-98943874D01*
X103112500Y-98847245D01*
X103112500Y-98759697D01*
X103153507Y-98800776D01*
X103585213Y-98980036D01*
X104052657Y-98980444D01*
X104484675Y-98801938D01*
X104537500Y-98749205D01*
X104537500Y-99349995D01*
X104537499Y-99350000D01*
X104580318Y-99565260D01*
X104702252Y-99747748D01*
X109752250Y-104797745D01*
X109752252Y-104797748D01*
X109934741Y-104919682D01*
X110150000Y-104962500D01*
X113917004Y-104962500D01*
X114557500Y-105602995D01*
X114557500Y-105706866D01*
X114253794Y-105909795D01*
X113988248Y-106307214D01*
X113895000Y-106776001D01*
X113895000Y-106823999D01*
X113988248Y-107292786D01*
X114253794Y-107690205D01*
X114651213Y-107955751D01*
X115120000Y-108048999D01*
X115588787Y-107955751D01*
X115986206Y-107690205D01*
X116251752Y-107292786D01*
X116345000Y-106823999D01*
X116345000Y-106776001D01*
X116251752Y-106307214D01*
X115986206Y-105909795D01*
X115682500Y-105706866D01*
X115682500Y-105370005D01*
X115682501Y-105370000D01*
X115639682Y-105154740D01*
X115536288Y-105000000D01*
X115517748Y-104972252D01*
X115517745Y-104972250D01*
X114757996Y-104212500D01*
X116417004Y-104212500D01*
X117097500Y-104892995D01*
X117097500Y-105706866D01*
X116793794Y-105909795D01*
X116528248Y-106307214D01*
X116435000Y-106776001D01*
X116435000Y-106823999D01*
X116528248Y-107292786D01*
X116793794Y-107690205D01*
X117191213Y-107955751D01*
X117660000Y-108048999D01*
X118128787Y-107955751D01*
X118526206Y-107690205D01*
X118791752Y-107292786D01*
X118885000Y-106823999D01*
X118885000Y-106776001D01*
X118791752Y-106307214D01*
X118553071Y-105950000D01*
X118967654Y-105950000D01*
X118967654Y-107650000D01*
X118993802Y-107788966D01*
X119075931Y-107916599D01*
X119201246Y-108002223D01*
X119350000Y-108032346D01*
X121050000Y-108032346D01*
X121188966Y-108006198D01*
X121316599Y-107924069D01*
X121402223Y-107798754D01*
X121432346Y-107650000D01*
X121432346Y-105950000D01*
X121406198Y-105811034D01*
X121324069Y-105683401D01*
X121198754Y-105597777D01*
X121050000Y-105567654D01*
X119350000Y-105567654D01*
X119211034Y-105593802D01*
X119083401Y-105675931D01*
X118997777Y-105801246D01*
X118967654Y-105950000D01*
X118553071Y-105950000D01*
X118526206Y-105909795D01*
X118222500Y-105706866D01*
X118222500Y-104660005D01*
X118222501Y-104660000D01*
X118179682Y-104444741D01*
X118141435Y-104387500D01*
X118057748Y-104262252D01*
X118057745Y-104262250D01*
X117047748Y-103252252D01*
X116865260Y-103130318D01*
X116650000Y-103087499D01*
X116649995Y-103087500D01*
X110982995Y-103087500D01*
X108162500Y-100267004D01*
X108162500Y-98729645D01*
X108233507Y-98800776D01*
X108665213Y-98980036D01*
X109132657Y-98980444D01*
X109564675Y-98801938D01*
X109895496Y-98471693D01*
X110074756Y-98039987D01*
X110074757Y-98037937D01*
X110264756Y-98037937D01*
X110443262Y-98469955D01*
X110773507Y-98800776D01*
X111205213Y-98980036D01*
X111672657Y-98980444D01*
X112104675Y-98801938D01*
X112435496Y-98471693D01*
X112614756Y-98039987D01*
X112614757Y-98037937D01*
X112804756Y-98037937D01*
X112983262Y-98469955D01*
X113313507Y-98800776D01*
X113745213Y-98980036D01*
X114212657Y-98980444D01*
X114644675Y-98801938D01*
X114975496Y-98471693D01*
X115154756Y-98039987D01*
X115154757Y-98037937D01*
X115344756Y-98037937D01*
X115523262Y-98469955D01*
X115853507Y-98800776D01*
X116285213Y-98980036D01*
X116752657Y-98980444D01*
X117184675Y-98801938D01*
X117515496Y-98471693D01*
X117694756Y-98039987D01*
X117694757Y-98037937D01*
X117884756Y-98037937D01*
X118063262Y-98469955D01*
X118393507Y-98800776D01*
X118825213Y-98980036D01*
X119292657Y-98980444D01*
X119724675Y-98801938D01*
X120055496Y-98471693D01*
X120234756Y-98039987D01*
X120234757Y-98037937D01*
X120424756Y-98037937D01*
X120603262Y-98469955D01*
X120933507Y-98800776D01*
X121365213Y-98980036D01*
X121832657Y-98980444D01*
X122264675Y-98801938D01*
X122595496Y-98471693D01*
X122774756Y-98039987D01*
X122775164Y-97572543D01*
X122596658Y-97140525D01*
X122266413Y-96809704D01*
X121834707Y-96630444D01*
X121367263Y-96630036D01*
X120935245Y-96808542D01*
X120604424Y-97138787D01*
X120425164Y-97570493D01*
X120424756Y-98037937D01*
X120234757Y-98037937D01*
X120235164Y-97572543D01*
X120056658Y-97140525D01*
X119726413Y-96809704D01*
X119294707Y-96630444D01*
X118827263Y-96630036D01*
X118395245Y-96808542D01*
X118064424Y-97138787D01*
X117885164Y-97570493D01*
X117884756Y-98037937D01*
X117694757Y-98037937D01*
X117695164Y-97572543D01*
X117516658Y-97140525D01*
X117186413Y-96809704D01*
X116754707Y-96630444D01*
X116287263Y-96630036D01*
X115855245Y-96808542D01*
X115524424Y-97138787D01*
X115345164Y-97570493D01*
X115344756Y-98037937D01*
X115154757Y-98037937D01*
X115155164Y-97572543D01*
X114976658Y-97140525D01*
X114646413Y-96809704D01*
X114214707Y-96630444D01*
X113747263Y-96630036D01*
X113315245Y-96808542D01*
X112984424Y-97138787D01*
X112805164Y-97570493D01*
X112804756Y-98037937D01*
X112614757Y-98037937D01*
X112615164Y-97572543D01*
X112436658Y-97140525D01*
X112106413Y-96809704D01*
X111674707Y-96630444D01*
X111207263Y-96630036D01*
X110775245Y-96808542D01*
X110444424Y-97138787D01*
X110265164Y-97570493D01*
X110264756Y-98037937D01*
X110074757Y-98037937D01*
X110075164Y-97572543D01*
X109896658Y-97140525D01*
X109566413Y-96809704D01*
X109134707Y-96630444D01*
X108667263Y-96630036D01*
X108235245Y-96808542D01*
X108162500Y-96881160D01*
X108162500Y-96800000D01*
X108119682Y-96584741D01*
X107997748Y-96402252D01*
X107997745Y-96402250D01*
X107767968Y-96172472D01*
X107768024Y-96107827D01*
X107658960Y-95843874D01*
X107457188Y-95641749D01*
X107193426Y-95532225D01*
X106907827Y-95531976D01*
X106643874Y-95641040D01*
X106441749Y-95842812D01*
X106332225Y-96106574D01*
X106331976Y-96392173D01*
X106430369Y-96630301D01*
X106127263Y-96630036D01*
X105695245Y-96808542D01*
X105662500Y-96841230D01*
X105662500Y-95497937D01*
X110264756Y-95497937D01*
X110443262Y-95929955D01*
X110773507Y-96260776D01*
X111205213Y-96440036D01*
X111672657Y-96440444D01*
X112104675Y-96261938D01*
X112435496Y-95931693D01*
X112614756Y-95499987D01*
X112615164Y-95032543D01*
X112436658Y-94600525D01*
X112106413Y-94269704D01*
X111674707Y-94090444D01*
X111207263Y-94090036D01*
X110775245Y-94268542D01*
X110444424Y-94598787D01*
X110265164Y-95030493D01*
X110264756Y-95497937D01*
X105662500Y-95497937D01*
X105662500Y-95300005D01*
X105662501Y-95300000D01*
X105619682Y-95084740D01*
X105497748Y-94902252D01*
X105315260Y-94780318D01*
X105100000Y-94737499D01*
X104884741Y-94780318D01*
X104873992Y-94787500D01*
X101552859Y-94787500D01*
X101507188Y-94741749D01*
X101243426Y-94632225D01*
X100957827Y-94631976D01*
X100693874Y-94741040D01*
X100491749Y-94942812D01*
X100382225Y-95206574D01*
X100381976Y-95492173D01*
X100491040Y-95756126D01*
X100522359Y-95787500D01*
X100032995Y-95787500D01*
X99612500Y-95367004D01*
X99612500Y-95282996D01*
X101782995Y-93112500D01*
X107099995Y-93112500D01*
X107100000Y-93112501D01*
X107315260Y-93069682D01*
X107482499Y-92957937D01*
X110264756Y-92957937D01*
X110443262Y-93389955D01*
X110773507Y-93720776D01*
X111205213Y-93900036D01*
X111672657Y-93900444D01*
X112104675Y-93721938D01*
X112435496Y-93391693D01*
X112614756Y-92959987D01*
X112615164Y-92492543D01*
X112436658Y-92060525D01*
X112106413Y-91729704D01*
X111674707Y-91550444D01*
X111207263Y-91550036D01*
X110775245Y-91728542D01*
X110444424Y-92058787D01*
X110265164Y-92490493D01*
X110264756Y-92957937D01*
X107482499Y-92957937D01*
X107497748Y-92947748D01*
X109447745Y-90997750D01*
X109447748Y-90997748D01*
X109475416Y-90956338D01*
X110704218Y-90956338D01*
X110786132Y-91127690D01*
X111196561Y-91306160D01*
X111644046Y-91313980D01*
X112060461Y-91149959D01*
X112093788Y-91127690D01*
X112175702Y-90956338D01*
X111439960Y-90220595D01*
X110704218Y-90956338D01*
X109475416Y-90956338D01*
X109569682Y-90815259D01*
X109612500Y-90600000D01*
X109612500Y-90389326D01*
X110311220Y-90389326D01*
X110475241Y-90805741D01*
X110497510Y-90839068D01*
X110668862Y-90920982D01*
X111404605Y-90185240D01*
X111475315Y-90185240D01*
X112211058Y-90920982D01*
X112382410Y-90839068D01*
X112560880Y-90428639D01*
X112568700Y-89981154D01*
X112404679Y-89564739D01*
X112382410Y-89531412D01*
X112211058Y-89449498D01*
X111475315Y-90185240D01*
X111404605Y-90185240D01*
X110668862Y-89449498D01*
X110497510Y-89531412D01*
X110319040Y-89941841D01*
X110311220Y-90389326D01*
X109612500Y-90389326D01*
X109612500Y-89414142D01*
X110704218Y-89414142D01*
X111439960Y-90149885D01*
X112175702Y-89414142D01*
X112093788Y-89242790D01*
X111683359Y-89064320D01*
X111235874Y-89056500D01*
X110819459Y-89220521D01*
X110786132Y-89242790D01*
X110704218Y-89414142D01*
X109612500Y-89414142D01*
X109612500Y-88202859D01*
X109658251Y-88157188D01*
X109767775Y-87893426D01*
X109768024Y-87607827D01*
X109658960Y-87343874D01*
X109457188Y-87141749D01*
X109193426Y-87032225D01*
X108907827Y-87031976D01*
X108643874Y-87141040D01*
X108441749Y-87342812D01*
X108332225Y-87606574D01*
X108331976Y-87892173D01*
X108441040Y-88156126D01*
X108487500Y-88202667D01*
X108487500Y-90367005D01*
X106867004Y-91987500D01*
X101550005Y-91987500D01*
X101550000Y-91987499D01*
X101334740Y-92030318D01*
X101286575Y-92062501D01*
X101152252Y-92152252D01*
X101152250Y-92152255D01*
X98762500Y-94542004D01*
X98762500Y-92152859D01*
X98808251Y-92107188D01*
X98917775Y-91843426D01*
X98918024Y-91557827D01*
X98808960Y-91293874D01*
X98607188Y-91091749D01*
X98343426Y-90982225D01*
X98057827Y-90981976D01*
X97793874Y-91091040D01*
X97591749Y-91292812D01*
X97482225Y-91556574D01*
X97481976Y-91842173D01*
X97591040Y-92106126D01*
X97637500Y-92152667D01*
X97637500Y-94430393D01*
X96353553Y-93146447D01*
X96191342Y-93038060D01*
X96000000Y-93000000D01*
X95000000Y-93000000D01*
X94808658Y-93038060D01*
X94761333Y-93069682D01*
X94646447Y-93146446D01*
X93306407Y-94486487D01*
X93198020Y-94648698D01*
X93159960Y-94840040D01*
X93159960Y-96740483D01*
X93022369Y-96797335D01*
X93012500Y-96773450D01*
X93012500Y-95050000D01*
X92983111Y-94902252D01*
X92969682Y-94834740D01*
X92908668Y-94743426D01*
X92847748Y-94652252D01*
X92847745Y-94652250D01*
X91967968Y-93772472D01*
X91968024Y-93707827D01*
X91858960Y-93443874D01*
X91657188Y-93241749D01*
X91393426Y-93132225D01*
X91107827Y-93131976D01*
X90843874Y-93241040D01*
X90641749Y-93442812D01*
X90532225Y-93706574D01*
X90531976Y-93992173D01*
X90641040Y-94256126D01*
X90842812Y-94458251D01*
X91106574Y-94567775D01*
X91172337Y-94567832D01*
X91887500Y-95282995D01*
X91887500Y-96497316D01*
X91741749Y-96642812D01*
X91689209Y-96769341D01*
X91354707Y-96630444D01*
X90887263Y-96630036D01*
X90455245Y-96808542D01*
X90412500Y-96851213D01*
X90412500Y-93132996D01*
X90677528Y-92867968D01*
X90742173Y-92868024D01*
X91006126Y-92758960D01*
X91208251Y-92557188D01*
X91317775Y-92293426D01*
X91318024Y-92007827D01*
X91208960Y-91743874D01*
X91007188Y-91541749D01*
X90743426Y-91432225D01*
X90457827Y-91431976D01*
X90193874Y-91541040D01*
X89991749Y-91742812D01*
X89882225Y-92006574D01*
X89882168Y-92072337D01*
X89452252Y-92502252D01*
X89330318Y-92684740D01*
X89287499Y-92900000D01*
X89287500Y-92900005D01*
X89287500Y-96850863D01*
X89246413Y-96809704D01*
X88814707Y-96630444D01*
X88347263Y-96630036D01*
X87915245Y-96808542D01*
X87584424Y-97138787D01*
X87405164Y-97570493D01*
X87404756Y-98037937D01*
X87214757Y-98037937D01*
X87215164Y-97572543D01*
X87036658Y-97140525D01*
X86706413Y-96809704D01*
X86274707Y-96630444D01*
X85807263Y-96630036D01*
X85375245Y-96808542D01*
X85044424Y-97138787D01*
X84865164Y-97570493D01*
X84864756Y-98037937D01*
X84674757Y-98037937D01*
X84675164Y-97572543D01*
X84496658Y-97140525D01*
X84324268Y-96967834D01*
X84542173Y-96968024D01*
X84806126Y-96858960D01*
X85008251Y-96657188D01*
X85117775Y-96393426D01*
X85118024Y-96107827D01*
X85008960Y-95843874D01*
X84807188Y-95641749D01*
X84543426Y-95532225D01*
X84257827Y-95531976D01*
X83993874Y-95641040D01*
X83897245Y-95737500D01*
X83487188Y-95737500D01*
X83567775Y-95543426D01*
X83568024Y-95257827D01*
X83458960Y-94993874D01*
X83257188Y-94791749D01*
X82993426Y-94682225D01*
X82707827Y-94681976D01*
X82573450Y-94737500D01*
X73002859Y-94737500D01*
X72957188Y-94691749D01*
X72693426Y-94582225D01*
X72407827Y-94581976D01*
X72143874Y-94691040D01*
X71941749Y-94892812D01*
X71832225Y-95156574D01*
X71831976Y-95442173D01*
X71941040Y-95706126D01*
X72142812Y-95908251D01*
X72406574Y-96017775D01*
X72692173Y-96018024D01*
X72956126Y-95908960D01*
X73002667Y-95862500D01*
X79583574Y-95862500D01*
X79482225Y-96106574D01*
X79481976Y-96392173D01*
X79591040Y-96656126D01*
X79792812Y-96858251D01*
X80056574Y-96967775D01*
X80135665Y-96967844D01*
X79964424Y-97138787D01*
X79785164Y-97570493D01*
X79784756Y-98037937D01*
X79963262Y-98469955D01*
X80293507Y-98800776D01*
X80725213Y-98980036D01*
X81192657Y-98980444D01*
X81624675Y-98801938D01*
X81955496Y-98471693D01*
X82134756Y-98039987D01*
X82135164Y-97572543D01*
X81956658Y-97140525D01*
X81679117Y-96862500D01*
X82781193Y-96862500D01*
X82504424Y-97138787D01*
X82325164Y-97570493D01*
X82324756Y-98037937D01*
X82503262Y-98469955D01*
X82768674Y-98735830D01*
X82517004Y-98987500D01*
X74400005Y-98987500D01*
X74400000Y-98987499D01*
X74184741Y-99030318D01*
X74002252Y-99152252D01*
X74002250Y-99152255D01*
X73317004Y-99837500D01*
X73250005Y-99837500D01*
X73250000Y-99837499D01*
X73034740Y-99880318D01*
X72852252Y-100002252D01*
X71767004Y-101087500D01*
X70950000Y-101087500D01*
X70734741Y-101130318D01*
X70552252Y-101252252D01*
X70552250Y-101252255D01*
X70472472Y-101332032D01*
X70407827Y-101331976D01*
X70143874Y-101441040D01*
X69941749Y-101642812D01*
X69832225Y-101906574D01*
X69831976Y-102192173D01*
X62975000Y-102192173D01*
X62975000Y-97911490D01*
X64594960Y-97911490D01*
X64594960Y-98669887D01*
X64644439Y-98789338D01*
X64735863Y-98880762D01*
X64855314Y-98930240D01*
X65613710Y-98930240D01*
X65694960Y-98848990D01*
X65694960Y-97830240D01*
X65744960Y-97830240D01*
X65744960Y-98848990D01*
X65826210Y-98930240D01*
X66584606Y-98930240D01*
X66704057Y-98880762D01*
X66795481Y-98789338D01*
X66844960Y-98669887D01*
X66844960Y-98037937D01*
X67084756Y-98037937D01*
X67263262Y-98469955D01*
X67593507Y-98800776D01*
X68025213Y-98980036D01*
X68492657Y-98980444D01*
X68924675Y-98801938D01*
X69255496Y-98471693D01*
X69434756Y-98039987D01*
X69434757Y-98037937D01*
X69624756Y-98037937D01*
X69803262Y-98469955D01*
X70133507Y-98800776D01*
X70565213Y-98980036D01*
X71032657Y-98980444D01*
X71464675Y-98801938D01*
X71795496Y-98471693D01*
X71974756Y-98039987D01*
X71974757Y-98037937D01*
X72164756Y-98037937D01*
X72343262Y-98469955D01*
X72673507Y-98800776D01*
X73105213Y-98980036D01*
X73572657Y-98980444D01*
X74004675Y-98801938D01*
X74335496Y-98471693D01*
X74514756Y-98039987D01*
X74514757Y-98037937D01*
X74704756Y-98037937D01*
X74883262Y-98469955D01*
X75213507Y-98800776D01*
X75645213Y-98980036D01*
X76112657Y-98980444D01*
X76544675Y-98801938D01*
X76875496Y-98471693D01*
X77054756Y-98039987D01*
X77054757Y-98037937D01*
X77244756Y-98037937D01*
X77423262Y-98469955D01*
X77753507Y-98800776D01*
X78185213Y-98980036D01*
X78652657Y-98980444D01*
X79084675Y-98801938D01*
X79415496Y-98471693D01*
X79594756Y-98039987D01*
X79595164Y-97572543D01*
X79416658Y-97140525D01*
X79086413Y-96809704D01*
X78654707Y-96630444D01*
X78187263Y-96630036D01*
X77755245Y-96808542D01*
X77424424Y-97138787D01*
X77245164Y-97570493D01*
X77244756Y-98037937D01*
X77054757Y-98037937D01*
X77055164Y-97572543D01*
X76876658Y-97140525D01*
X76546413Y-96809704D01*
X76114707Y-96630444D01*
X75647263Y-96630036D01*
X75215245Y-96808542D01*
X74884424Y-97138787D01*
X74705164Y-97570493D01*
X74704756Y-98037937D01*
X74514757Y-98037937D01*
X74515164Y-97572543D01*
X74336658Y-97140525D01*
X74006413Y-96809704D01*
X73574707Y-96630444D01*
X73107263Y-96630036D01*
X72675245Y-96808542D01*
X72344424Y-97138787D01*
X72165164Y-97570493D01*
X72164756Y-98037937D01*
X71974757Y-98037937D01*
X71975164Y-97572543D01*
X71796658Y-97140525D01*
X71466413Y-96809704D01*
X71034707Y-96630444D01*
X70567263Y-96630036D01*
X70135245Y-96808542D01*
X69804424Y-97138787D01*
X69625164Y-97570493D01*
X69624756Y-98037937D01*
X69434757Y-98037937D01*
X69435164Y-97572543D01*
X69256658Y-97140525D01*
X68926413Y-96809704D01*
X68494707Y-96630444D01*
X68027263Y-96630036D01*
X67595245Y-96808542D01*
X67264424Y-97138787D01*
X67085164Y-97570493D01*
X67084756Y-98037937D01*
X66844960Y-98037937D01*
X66844960Y-97911490D01*
X66763710Y-97830240D01*
X65744960Y-97830240D01*
X65694960Y-97830240D01*
X64676210Y-97830240D01*
X64594960Y-97911490D01*
X62975000Y-97911490D01*
X62975000Y-96940593D01*
X64594960Y-96940593D01*
X64594960Y-97698990D01*
X64676210Y-97780240D01*
X65694960Y-97780240D01*
X65694960Y-96761490D01*
X65744960Y-96761490D01*
X65744960Y-97780240D01*
X66763710Y-97780240D01*
X66844960Y-97698990D01*
X66844960Y-96940593D01*
X66795481Y-96821142D01*
X66704057Y-96729718D01*
X66584606Y-96680240D01*
X65826210Y-96680240D01*
X65744960Y-96761490D01*
X65694960Y-96761490D01*
X65613710Y-96680240D01*
X64855314Y-96680240D01*
X64735863Y-96729718D01*
X64644439Y-96821142D01*
X64594960Y-96940593D01*
X62975000Y-96940593D01*
X62975000Y-82797937D01*
X64544756Y-82797937D01*
X64723262Y-83229955D01*
X65053507Y-83560776D01*
X65485213Y-83740036D01*
X65952657Y-83740444D01*
X66384675Y-83561938D01*
X66715496Y-83231693D01*
X66894756Y-82799987D01*
X66895164Y-82332543D01*
X66716658Y-81900525D01*
X66386413Y-81569704D01*
X65954707Y-81390444D01*
X65487263Y-81390036D01*
X65055245Y-81568542D01*
X64724424Y-81898787D01*
X64545164Y-82330493D01*
X64544756Y-82797937D01*
X62975000Y-82797937D01*
X62975000Y-74142173D01*
X67281976Y-74142173D01*
X67391040Y-74406126D01*
X67592812Y-74608251D01*
X67856574Y-74717775D01*
X68142173Y-74718024D01*
X68406126Y-74608960D01*
X68608251Y-74407188D01*
X68717775Y-74143426D01*
X68717909Y-73989197D01*
X69207107Y-73500000D01*
X76484750Y-73500000D01*
X76592812Y-73608251D01*
X76856574Y-73717775D01*
X77142173Y-73718024D01*
X77406126Y-73608960D01*
X77608251Y-73407188D01*
X77717775Y-73143426D01*
X77718024Y-72857827D01*
X77608960Y-72593874D01*
X77407188Y-72391749D01*
X77143426Y-72282225D01*
X76857827Y-72281976D01*
X76593874Y-72391040D01*
X76484723Y-72500000D01*
X69000000Y-72500000D01*
X68808658Y-72538060D01*
X68761333Y-72569682D01*
X68646447Y-72646446D01*
X68010784Y-73282109D01*
X67857827Y-73281976D01*
X67593874Y-73391040D01*
X67391749Y-73592812D01*
X67282225Y-73856574D01*
X67281976Y-74142173D01*
X62975000Y-74142173D01*
X62975000Y-71072965D01*
X94014998Y-71072965D01*
X94201044Y-71523231D01*
X94545237Y-71868025D01*
X94995177Y-72054857D01*
X95482365Y-72055282D01*
X95932631Y-71869236D01*
X96277425Y-71525043D01*
X96371360Y-71298822D01*
X97954340Y-71298822D01*
X98313645Y-72168406D01*
X98978375Y-72834297D01*
X99847331Y-73195119D01*
X100788222Y-73195940D01*
X101657806Y-72836635D01*
X102323697Y-72171905D01*
X102684519Y-71302949D01*
X102685340Y-70362058D01*
X102326035Y-69492474D01*
X101661305Y-68826583D01*
X100792349Y-68465761D01*
X99851458Y-68464940D01*
X98981874Y-68824245D01*
X98315983Y-69488975D01*
X97955161Y-70357931D01*
X97954340Y-71298822D01*
X96371360Y-71298822D01*
X96464257Y-71075103D01*
X96464682Y-70587915D01*
X96278636Y-70137649D01*
X95934443Y-69792855D01*
X95484503Y-69606023D01*
X94997315Y-69605598D01*
X94547049Y-69791644D01*
X94202255Y-70135837D01*
X94015423Y-70585777D01*
X94014998Y-71072965D01*
X62975000Y-71072965D01*
X62975000Y-62975000D01*
X126025000Y-62975000D01*
X126025000Y-76527544D01*
X126025000Y-76527544D01*
G37*
X126025000Y-76527544D02*
X123663529Y-74166073D01*
X123823308Y-73781280D01*
X123823890Y-73114924D01*
X123569424Y-72499068D01*
X123202079Y-72131082D01*
X123661125Y-72131482D01*
X124111391Y-71945436D01*
X124456185Y-71601243D01*
X124643017Y-71151303D01*
X124643442Y-70664115D01*
X124457396Y-70213849D01*
X124113203Y-69869055D01*
X123663263Y-69682223D01*
X123176075Y-69681798D01*
X122725809Y-69867844D01*
X122381015Y-70212037D01*
X122194183Y-70661977D01*
X122193758Y-71149165D01*
X122379804Y-71599431D01*
X122600688Y-71820700D01*
X122483240Y-71771932D01*
X121816884Y-71771350D01*
X121201028Y-72025816D01*
X120729432Y-72496590D01*
X120473892Y-73112000D01*
X120473310Y-73778356D01*
X120727776Y-74394212D01*
X121198550Y-74865808D01*
X121813960Y-75121348D01*
X122480316Y-75121930D01*
X122868146Y-74961682D01*
X125137500Y-77231036D01*
X125137500Y-81902563D01*
X125136658Y-81900525D01*
X124806413Y-81569704D01*
X124374707Y-81390444D01*
X123907263Y-81390036D01*
X123475245Y-81568542D01*
X123144424Y-81898787D01*
X122965164Y-82330493D01*
X122964756Y-82797937D01*
X123143262Y-83229955D01*
X123473507Y-83560776D01*
X123905213Y-83740036D01*
X124372657Y-83740444D01*
X124804675Y-83561938D01*
X125135496Y-83231693D01*
X125137500Y-83226867D01*
X125137500Y-83517005D01*
X124111764Y-84542740D01*
X112478892Y-84542740D01*
X112436658Y-84440525D01*
X112106413Y-84109704D01*
X111674707Y-83930444D01*
X111207263Y-83930036D01*
X110775245Y-84108542D01*
X110444424Y-84438787D01*
X110265164Y-84870493D01*
X110264756Y-85337937D01*
X110443262Y-85769955D01*
X110510689Y-85837500D01*
X108882995Y-85837500D01*
X106922460Y-83876964D01*
X106922460Y-83604172D01*
X107024675Y-83561938D01*
X107355496Y-83231693D01*
X107534756Y-82799987D01*
X107535164Y-82332543D01*
X107356658Y-81900525D01*
X107026413Y-81569704D01*
X106888650Y-81512500D01*
X108370877Y-81512500D01*
X108235245Y-81568542D01*
X107904424Y-81898787D01*
X107725164Y-82330493D01*
X107724756Y-82797937D01*
X107903262Y-83229955D01*
X108233507Y-83560776D01*
X108665213Y-83740036D01*
X109132657Y-83740444D01*
X109564675Y-83561938D01*
X109895496Y-83231693D01*
X110074756Y-82799987D01*
X110075164Y-82332543D01*
X109896658Y-81900525D01*
X109566413Y-81569704D01*
X109428650Y-81512500D01*
X110910877Y-81512500D01*
X110775245Y-81568542D01*
X110444424Y-81898787D01*
X110265164Y-82330493D01*
X110264756Y-82797937D01*
X110443262Y-83229955D01*
X110773507Y-83560776D01*
X111205213Y-83740036D01*
X111672657Y-83740444D01*
X112104675Y-83561938D01*
X112435496Y-83231693D01*
X112614756Y-82799987D01*
X112615164Y-82332543D01*
X112436658Y-81900525D01*
X112106413Y-81569704D01*
X111968650Y-81512500D01*
X112397316Y-81512500D01*
X112542812Y-81658251D01*
X112806574Y-81767775D01*
X113092173Y-81768024D01*
X113131830Y-81751638D01*
X112984424Y-81898787D01*
X112805164Y-82330493D01*
X112804756Y-82797937D01*
X112983262Y-83229955D01*
X113313507Y-83560776D01*
X113745213Y-83740036D01*
X114212657Y-83740444D01*
X114644675Y-83561938D01*
X114975496Y-83231693D01*
X115154756Y-82799987D01*
X115155164Y-82332543D01*
X114976658Y-81900525D01*
X114646413Y-81569704D01*
X114214707Y-81390444D01*
X113747263Y-81390036D01*
X113539542Y-81475865D01*
X113558251Y-81457188D01*
X113667775Y-81193426D01*
X113668024Y-80907827D01*
X113628635Y-80812500D01*
X115047141Y-80812500D01*
X115092812Y-80858251D01*
X115356574Y-80967775D01*
X115642173Y-80968024D01*
X115906126Y-80858960D01*
X115957460Y-80807716D01*
X115957460Y-81526308D01*
X115855245Y-81568542D01*
X115524424Y-81898787D01*
X115345164Y-82330493D01*
X115344756Y-82797937D01*
X115523262Y-83229955D01*
X115853507Y-83560776D01*
X116285213Y-83740036D01*
X116752657Y-83740444D01*
X117184675Y-83561938D01*
X117515496Y-83231693D01*
X117694756Y-82799987D01*
X117694757Y-82797937D01*
X117884756Y-82797937D01*
X118063262Y-83229955D01*
X118393507Y-83560776D01*
X118825213Y-83740036D01*
X119292657Y-83740444D01*
X119724675Y-83561938D01*
X120055496Y-83231693D01*
X120234756Y-82799987D01*
X120234757Y-82797937D01*
X120424756Y-82797937D01*
X120603262Y-83229955D01*
X120933507Y-83560776D01*
X121365213Y-83740036D01*
X121832657Y-83740444D01*
X122264675Y-83561938D01*
X122595496Y-83231693D01*
X122774756Y-82799987D01*
X122775164Y-82332543D01*
X122596658Y-81900525D01*
X122266413Y-81569704D01*
X121834707Y-81390444D01*
X121367263Y-81390036D01*
X120935245Y-81568542D01*
X120604424Y-81898787D01*
X120425164Y-82330493D01*
X120424756Y-82797937D01*
X120234757Y-82797937D01*
X120235164Y-82332543D01*
X120056658Y-81900525D01*
X119726413Y-81569704D01*
X119294707Y-81390444D01*
X118827263Y-81390036D01*
X118395245Y-81568542D01*
X118064424Y-81898787D01*
X117885164Y-82330493D01*
X117884756Y-82797937D01*
X117694757Y-82797937D01*
X117695164Y-82332543D01*
X117516658Y-81900525D01*
X117186413Y-81569704D01*
X117082460Y-81526539D01*
X117082460Y-79863036D01*
X118597745Y-78347750D01*
X118597748Y-78347748D01*
X118708346Y-78182225D01*
X118719682Y-78165260D01*
X118762500Y-77950000D01*
X118762500Y-74950000D01*
X118750635Y-74890350D01*
X118719682Y-74734740D01*
X118650826Y-74631690D01*
X118597748Y-74552252D01*
X118597745Y-74552250D01*
X115862500Y-71817004D01*
X115862500Y-71452772D01*
X115958251Y-71357188D01*
X115973147Y-71321315D01*
X115973100Y-71375022D01*
X116332405Y-72244606D01*
X116997135Y-72910497D01*
X117866091Y-73271319D01*
X118806982Y-73272140D01*
X119676566Y-72912835D01*
X120342457Y-72248105D01*
X120703279Y-71379149D01*
X120704100Y-70438258D01*
X120344795Y-69568674D01*
X119680065Y-68902783D01*
X118811109Y-68541961D01*
X117870218Y-68541140D01*
X117000634Y-68900445D01*
X116334743Y-69565175D01*
X115973921Y-70434131D01*
X115973794Y-70579775D01*
X115958960Y-70543874D01*
X115757188Y-70341749D01*
X115493426Y-70232225D01*
X115207827Y-70231976D01*
X114943874Y-70341040D01*
X114741749Y-70542812D01*
X114632225Y-70806574D01*
X114631976Y-71092173D01*
X114737500Y-71347559D01*
X114737500Y-72049995D01*
X114737499Y-72050000D01*
X114780318Y-72265260D01*
X114902252Y-72447748D01*
X117637500Y-75182995D01*
X117637500Y-77717005D01*
X116122212Y-79232292D01*
X116000278Y-79414780D01*
X115957459Y-79630040D01*
X115957460Y-79630045D01*
X115957460Y-79692109D01*
X115907188Y-79641749D01*
X115643426Y-79532225D01*
X115357827Y-79531976D01*
X115093874Y-79641040D01*
X115047333Y-79687500D01*
X113127711Y-79687500D01*
X113258251Y-79557188D01*
X113367775Y-79293426D01*
X113368024Y-79007827D01*
X113258960Y-78743874D01*
X113057188Y-78541749D01*
X112793426Y-78432225D01*
X112507827Y-78431976D01*
X112494458Y-78437500D01*
X86488965Y-78437500D01*
X86408960Y-78243874D01*
X86207188Y-78041749D01*
X85943426Y-77932225D01*
X85657827Y-77931976D01*
X85393874Y-78041040D01*
X85191749Y-78242812D01*
X85082225Y-78506574D01*
X85081976Y-78792173D01*
X85191040Y-79056126D01*
X85392812Y-79258251D01*
X85656574Y-79367775D01*
X85722337Y-79367832D01*
X85752250Y-79397745D01*
X85752252Y-79397748D01*
X85849163Y-79462501D01*
X85934741Y-79519682D01*
X86150000Y-79562501D01*
X86150005Y-79562500D01*
X112047403Y-79562500D01*
X112172185Y-79687500D01*
X77782995Y-79687500D01*
X77267968Y-79172472D01*
X77268024Y-79107827D01*
X77240897Y-79042173D01*
X82431976Y-79042173D01*
X82541040Y-79306126D01*
X82742812Y-79508251D01*
X83006574Y-79617775D01*
X83292173Y-79618024D01*
X83556126Y-79508960D01*
X83758251Y-79307188D01*
X83867775Y-79043426D01*
X83867832Y-78977664D01*
X85803410Y-77042085D01*
X96683550Y-77042085D01*
X96826313Y-77265390D01*
X97417413Y-77527150D01*
X98063689Y-77542780D01*
X98666752Y-77309901D01*
X98733367Y-77265390D01*
X98827413Y-77118285D01*
X114702310Y-77118285D01*
X114845073Y-77341590D01*
X115436173Y-77603350D01*
X116082449Y-77618980D01*
X116685512Y-77386101D01*
X116752127Y-77341590D01*
X116894890Y-77118285D01*
X115798600Y-76021995D01*
X114702310Y-77118285D01*
X98827413Y-77118285D01*
X98876130Y-77042085D01*
X97779840Y-75945795D01*
X96683550Y-77042085D01*
X85803410Y-77042085D01*
X86651206Y-76194289D01*
X96147500Y-76194289D01*
X96380379Y-76797352D01*
X96424890Y-76863967D01*
X96648195Y-77006730D01*
X97744485Y-75910440D01*
X97815195Y-75910440D01*
X98911485Y-77006730D01*
X99134790Y-76863967D01*
X99396550Y-76272867D01*
X99396607Y-76270489D01*
X114166260Y-76270489D01*
X114399139Y-76873552D01*
X114443650Y-76940167D01*
X114666955Y-77082930D01*
X115763245Y-75986640D01*
X115833955Y-75986640D01*
X116930245Y-77082930D01*
X117153550Y-76940167D01*
X117415310Y-76349067D01*
X117430940Y-75702791D01*
X117198061Y-75099728D01*
X117153550Y-75033113D01*
X116930245Y-74890350D01*
X115833955Y-75986640D01*
X115763245Y-75986640D01*
X114666955Y-74890350D01*
X114443650Y-75033113D01*
X114181890Y-75624213D01*
X114166260Y-76270489D01*
X99396607Y-76270489D01*
X99412180Y-75626591D01*
X99179301Y-75023528D01*
X99134790Y-74956913D01*
X98911485Y-74814150D01*
X97815195Y-75910440D01*
X97744485Y-75910440D01*
X96648195Y-74814150D01*
X96424890Y-74956913D01*
X96163130Y-75548013D01*
X96147500Y-76194289D01*
X86651206Y-76194289D01*
X88332995Y-74512500D01*
X96890652Y-74512500D01*
X96826313Y-74555490D01*
X96683550Y-74778795D01*
X97779840Y-75875085D01*
X98876130Y-74778795D01*
X98733367Y-74555490D01*
X98636288Y-74512500D01*
X102903165Y-74512500D01*
X103179790Y-74789608D01*
X103795200Y-75045148D01*
X104461556Y-75045730D01*
X104923170Y-74854995D01*
X114702310Y-74854995D01*
X115798600Y-75951285D01*
X116894890Y-74854995D01*
X116752127Y-74631690D01*
X116161027Y-74369930D01*
X115514751Y-74354300D01*
X114911688Y-74587179D01*
X114845073Y-74631690D01*
X114702310Y-74854995D01*
X104923170Y-74854995D01*
X105077412Y-74791264D01*
X105549008Y-74320490D01*
X105804548Y-73705080D01*
X105805130Y-73038724D01*
X105550664Y-72422868D01*
X105183319Y-72054882D01*
X105642365Y-72055282D01*
X106092631Y-71869236D01*
X106437425Y-71525043D01*
X106593503Y-71149165D01*
X112033758Y-71149165D01*
X112219804Y-71599431D01*
X112563997Y-71944225D01*
X113013937Y-72131057D01*
X113501125Y-72131482D01*
X113951391Y-71945436D01*
X114296185Y-71601243D01*
X114483017Y-71151303D01*
X114483442Y-70664115D01*
X114297396Y-70213849D01*
X113953203Y-69869055D01*
X113503263Y-69682223D01*
X113016075Y-69681798D01*
X112565809Y-69867844D01*
X112221015Y-70212037D01*
X112034183Y-70661977D01*
X112033758Y-71149165D01*
X106593503Y-71149165D01*
X106624257Y-71075103D01*
X106624682Y-70587915D01*
X106438636Y-70137649D01*
X106094443Y-69792855D01*
X105644503Y-69606023D01*
X105157315Y-69605598D01*
X104707049Y-69791644D01*
X104362255Y-70135837D01*
X104175423Y-70585777D01*
X104174998Y-71072965D01*
X104361044Y-71523231D01*
X104581928Y-71744500D01*
X104464480Y-71695732D01*
X103798124Y-71695150D01*
X103182268Y-71949616D01*
X102710672Y-72420390D01*
X102455132Y-73035800D01*
X102454825Y-73387500D01*
X88100005Y-73387500D01*
X88100000Y-73387499D01*
X87884740Y-73430318D01*
X87811646Y-73479158D01*
X87702252Y-73552252D01*
X87702250Y-73552255D01*
X83072472Y-78182032D01*
X83007827Y-78181976D01*
X82743874Y-78291040D01*
X82541749Y-78492812D01*
X82432225Y-78756574D01*
X82431976Y-79042173D01*
X77240897Y-79042173D01*
X77158960Y-78843874D01*
X76957188Y-78641749D01*
X76693426Y-78532225D01*
X76407827Y-78531976D01*
X76143874Y-78641040D01*
X75941749Y-78842812D01*
X75832225Y-79106574D01*
X75831976Y-79392173D01*
X75941040Y-79656126D01*
X76142812Y-79858251D01*
X76406574Y-79967775D01*
X76472337Y-79967832D01*
X76892005Y-80387500D01*
X68482995Y-80387500D01*
X68017968Y-79922472D01*
X68018024Y-79857827D01*
X67908960Y-79593874D01*
X67707188Y-79391749D01*
X67443426Y-79282225D01*
X67157827Y-79281976D01*
X66893874Y-79391040D01*
X66691749Y-79592812D01*
X66582225Y-79856574D01*
X66581976Y-80142173D01*
X66691040Y-80406126D01*
X66892812Y-80608251D01*
X67156574Y-80717775D01*
X67222337Y-80717832D01*
X67852250Y-81347745D01*
X67852252Y-81347748D01*
X67916152Y-81390444D01*
X67958231Y-81418560D01*
X67595245Y-81568542D01*
X67264424Y-81898787D01*
X67085164Y-82330493D01*
X67084756Y-82797937D01*
X67263262Y-83229955D01*
X67593507Y-83560776D01*
X68025213Y-83740036D01*
X68492657Y-83740444D01*
X68924675Y-83561938D01*
X69255496Y-83231693D01*
X69434756Y-82799987D01*
X69435164Y-82332543D01*
X69256658Y-81900525D01*
X68926413Y-81569704D01*
X68788650Y-81512500D01*
X70270877Y-81512500D01*
X70135245Y-81568542D01*
X69804424Y-81898787D01*
X69625164Y-82330493D01*
X69624756Y-82797937D01*
X69803262Y-83229955D01*
X70133507Y-83560776D01*
X70565213Y-83740036D01*
X71032657Y-83740444D01*
X71464675Y-83561938D01*
X71795496Y-83231693D01*
X71974756Y-82799987D01*
X71975164Y-82332543D01*
X71796658Y-81900525D01*
X71466413Y-81569704D01*
X71328650Y-81512500D01*
X72810877Y-81512500D01*
X72675245Y-81568542D01*
X72344424Y-81898787D01*
X72165164Y-82330493D01*
X72164756Y-82797937D01*
X72343262Y-83229955D01*
X72673507Y-83560776D01*
X73105213Y-83740036D01*
X73572657Y-83740444D01*
X74004675Y-83561938D01*
X74335496Y-83231693D01*
X74514756Y-82799987D01*
X74515164Y-82332543D01*
X74336658Y-81900525D01*
X74006413Y-81569704D01*
X73868650Y-81512500D01*
X75350877Y-81512500D01*
X75215245Y-81568542D01*
X74884424Y-81898787D01*
X74705164Y-82330493D01*
X74704756Y-82797937D01*
X74883262Y-83229955D01*
X75213507Y-83560776D01*
X75645213Y-83740036D01*
X76112657Y-83740444D01*
X76544675Y-83561938D01*
X76875496Y-83231693D01*
X77054756Y-82799987D01*
X77055164Y-82332543D01*
X76876658Y-81900525D01*
X76546413Y-81569704D01*
X76408650Y-81512500D01*
X77890877Y-81512500D01*
X77755245Y-81568542D01*
X77424424Y-81898787D01*
X77245164Y-82330493D01*
X77244756Y-82797937D01*
X77423262Y-83229955D01*
X77753507Y-83560776D01*
X78185213Y-83740036D01*
X78652657Y-83740444D01*
X79084675Y-83561938D01*
X79415496Y-83231693D01*
X79594756Y-82799987D01*
X79595164Y-82332543D01*
X79416658Y-81900525D01*
X79086413Y-81569704D01*
X78948650Y-81512500D01*
X80430877Y-81512500D01*
X80295245Y-81568542D01*
X79964424Y-81898787D01*
X79785164Y-82330493D01*
X79784756Y-82797937D01*
X79963262Y-83229955D01*
X80293507Y-83560776D01*
X80725213Y-83740036D01*
X81192657Y-83740444D01*
X81624675Y-83561938D01*
X81955496Y-83231693D01*
X82134756Y-82799987D01*
X82135164Y-82332543D01*
X81956658Y-81900525D01*
X81626413Y-81569704D01*
X81488650Y-81512500D01*
X82970877Y-81512500D01*
X82835245Y-81568542D01*
X82504424Y-81898787D01*
X82325164Y-82330493D01*
X82324756Y-82797937D01*
X82503262Y-83229955D01*
X82833507Y-83560776D01*
X83265213Y-83740036D01*
X83732657Y-83740444D01*
X84164675Y-83561938D01*
X84495496Y-83231693D01*
X84674756Y-82799987D01*
X84675164Y-82332543D01*
X84496658Y-81900525D01*
X84166413Y-81569704D01*
X84028650Y-81512500D01*
X85510877Y-81512500D01*
X85375245Y-81568542D01*
X85044424Y-81898787D01*
X84865164Y-82330493D01*
X84864756Y-82797937D01*
X85043262Y-83229955D01*
X85373507Y-83560776D01*
X85805213Y-83740036D01*
X86272657Y-83740444D01*
X86704675Y-83561938D01*
X87035496Y-83231693D01*
X87214756Y-82799987D01*
X87215164Y-82332543D01*
X87036658Y-81900525D01*
X86706413Y-81569704D01*
X86568650Y-81512500D01*
X88050877Y-81512500D01*
X87915245Y-81568542D01*
X87584424Y-81898787D01*
X87405164Y-82330493D01*
X87404756Y-82797937D01*
X87583262Y-83229955D01*
X87913507Y-83560776D01*
X88345213Y-83740036D01*
X88812657Y-83740444D01*
X89244675Y-83561938D01*
X89575496Y-83231693D01*
X89754756Y-82799987D01*
X89755164Y-82332543D01*
X89576658Y-81900525D01*
X89246413Y-81569704D01*
X89108650Y-81512500D01*
X90590877Y-81512500D01*
X90455245Y-81568542D01*
X90124424Y-81898787D01*
X89945164Y-82330493D01*
X89944756Y-82797937D01*
X90123262Y-83229955D01*
X90453507Y-83560776D01*
X90885213Y-83740036D01*
X91352657Y-83740444D01*
X91784675Y-83561938D01*
X92115496Y-83231693D01*
X92294756Y-82799987D01*
X92295164Y-82332543D01*
X92116658Y-81900525D01*
X91786413Y-81569704D01*
X91648650Y-81512500D01*
X93130877Y-81512500D01*
X92995245Y-81568542D01*
X92664424Y-81898787D01*
X92485164Y-82330493D01*
X92484756Y-82797937D01*
X92663262Y-83229955D01*
X92993507Y-83560776D01*
X93425213Y-83740036D01*
X93892657Y-83740444D01*
X94324675Y-83561938D01*
X94655496Y-83231693D01*
X94834756Y-82799987D01*
X94835164Y-82332543D01*
X94656658Y-81900525D01*
X94326413Y-81569704D01*
X94188650Y-81512500D01*
X95670877Y-81512500D01*
X95535245Y-81568542D01*
X95204424Y-81898787D01*
X95025164Y-82330493D01*
X95024756Y-82797937D01*
X95203262Y-83229955D01*
X95533507Y-83560776D01*
X95965213Y-83740036D01*
X96432657Y-83740444D01*
X96864675Y-83561938D01*
X97195496Y-83231693D01*
X97374756Y-82799987D01*
X97375164Y-82332543D01*
X97196658Y-81900525D01*
X96866413Y-81569704D01*
X96728650Y-81512500D01*
X98210877Y-81512500D01*
X98075245Y-81568542D01*
X97744424Y-81898787D01*
X97565164Y-82330493D01*
X97564756Y-82797937D01*
X97743262Y-83229955D01*
X98073507Y-83560776D01*
X98505213Y-83740036D01*
X98972657Y-83740444D01*
X99404675Y-83561938D01*
X99630668Y-83336338D01*
X100544218Y-83336338D01*
X100626132Y-83507690D01*
X101036561Y-83686160D01*
X101484046Y-83693980D01*
X101900461Y-83529959D01*
X101933788Y-83507690D01*
X102015702Y-83336338D01*
X101279960Y-82600595D01*
X100544218Y-83336338D01*
X99630668Y-83336338D01*
X99735496Y-83231693D01*
X99914756Y-82799987D01*
X99914782Y-82769326D01*
X100151220Y-82769326D01*
X100315241Y-83185741D01*
X100337510Y-83219068D01*
X100508862Y-83300982D01*
X101244605Y-82565240D01*
X101315315Y-82565240D01*
X102051058Y-83300982D01*
X102222410Y-83219068D01*
X102400880Y-82808639D01*
X102408700Y-82361154D01*
X102244679Y-81944739D01*
X102222410Y-81911412D01*
X102051058Y-81829498D01*
X101315315Y-82565240D01*
X101244605Y-82565240D01*
X100508862Y-81829498D01*
X100337510Y-81911412D01*
X100159040Y-82321841D01*
X100151220Y-82769326D01*
X99914782Y-82769326D01*
X99915164Y-82332543D01*
X99736658Y-81900525D01*
X99406413Y-81569704D01*
X99268650Y-81512500D01*
X100882926Y-81512500D01*
X100659459Y-81600521D01*
X100626132Y-81622790D01*
X100544218Y-81794142D01*
X101279960Y-82529885D01*
X102015702Y-81794142D01*
X101933788Y-81622790D01*
X101680153Y-81512500D01*
X103290877Y-81512500D01*
X103155245Y-81568542D01*
X102824424Y-81898787D01*
X102645164Y-82330493D01*
X102644756Y-82797937D01*
X102823262Y-83229955D01*
X103153507Y-83560776D01*
X103585213Y-83740036D01*
X104052657Y-83740444D01*
X104484675Y-83561938D01*
X104815496Y-83231693D01*
X104994756Y-82799987D01*
X104995164Y-82332543D01*
X104816658Y-81900525D01*
X104486413Y-81569704D01*
X104348650Y-81512500D01*
X105830877Y-81512500D01*
X105695245Y-81568542D01*
X105364424Y-81898787D01*
X105185164Y-82330493D01*
X105184756Y-82797937D01*
X105363262Y-83229955D01*
X105693507Y-83560776D01*
X105797460Y-83603941D01*
X105797460Y-84109955D01*
X105797459Y-84109960D01*
X105840278Y-84325220D01*
X105962212Y-84507708D01*
X108252250Y-86797745D01*
X108252252Y-86797748D01*
X108401913Y-86897747D01*
X108434741Y-86919682D01*
X108650000Y-86962501D01*
X108650005Y-86962500D01*
X110460739Y-86962500D01*
X110444424Y-86978787D01*
X110265164Y-87410493D01*
X110264756Y-87877937D01*
X110443262Y-88309955D01*
X110773507Y-88640776D01*
X111205213Y-88820036D01*
X111672657Y-88820444D01*
X112104675Y-88641938D01*
X112435496Y-88311693D01*
X112614756Y-87879987D01*
X112615164Y-87412543D01*
X112458935Y-87034440D01*
X112600000Y-87062500D01*
X120417004Y-87062500D01*
X125087500Y-91732995D01*
X125087500Y-97091281D01*
X124806413Y-96809704D01*
X124374707Y-96630444D01*
X123907263Y-96630036D01*
X123475245Y-96808542D01*
X123144424Y-97138787D01*
X122965164Y-97570493D01*
X122964756Y-98037937D01*
X123143262Y-98469955D01*
X123473507Y-98800776D01*
X123905213Y-98980036D01*
X124372657Y-98980444D01*
X124804675Y-98801938D01*
X125087500Y-98519605D01*
X125087500Y-105767005D01*
X119267004Y-111587500D01*
X114602597Y-111587500D01*
X114407188Y-111391749D01*
X114264937Y-111332681D01*
X114291213Y-111332704D01*
X114555166Y-111223640D01*
X114757291Y-111021868D01*
X114866815Y-110758106D01*
X114867064Y-110472507D01*
X114791470Y-110289557D01*
X114866815Y-110108106D01*
X114867064Y-109822507D01*
X114791470Y-109639557D01*
X114866815Y-109458106D01*
X114867064Y-109172507D01*
X114758000Y-108908554D01*
X114556228Y-108706429D01*
X114292466Y-108596905D01*
X114006867Y-108596656D01*
X113742914Y-108705720D01*
X113540789Y-108907492D01*
X113431265Y-109171254D01*
X113431016Y-109456853D01*
X113506610Y-109639803D01*
X113431265Y-109821254D01*
X113431016Y-110106853D01*
X113506610Y-110289803D01*
X113431265Y-110471254D01*
X113431016Y-110756853D01*
X113540080Y-111020806D01*
X113741852Y-111222931D01*
X113884103Y-111281999D01*
X113857827Y-111281976D01*
X113593874Y-111391040D01*
X113391749Y-111592812D01*
X113282225Y-111856574D01*
X113281976Y-112142173D01*
X113391040Y-112406126D01*
X113592812Y-112608251D01*
X113856574Y-112717775D01*
X114142173Y-112718024D01*
X114155542Y-112712500D01*
X119499995Y-112712500D01*
X119500000Y-112712501D01*
X119715260Y-112669682D01*
X119897748Y-112547748D01*
X126025000Y-106420495D01*
X126025000Y-116525000D01*
X93019192Y-116525000D01*
X93037343Y-116506880D01*
X107873800Y-116506880D01*
X108065142Y-116468820D01*
X108227353Y-116360433D01*
X109784685Y-114803101D01*
X111380878Y-114803101D01*
X111548675Y-115229753D01*
X111866972Y-115559715D01*
X112287311Y-115742753D01*
X112328779Y-115751000D01*
X112512240Y-115688104D01*
X112512240Y-114619640D01*
X112562240Y-114619640D01*
X112562240Y-115688104D01*
X112745701Y-115751000D01*
X112787169Y-115742753D01*
X113207508Y-115559715D01*
X113525805Y-115229753D01*
X113693602Y-114803101D01*
X113630726Y-114619640D01*
X112562240Y-114619640D01*
X112512240Y-114619640D01*
X111443754Y-114619640D01*
X111380878Y-114803101D01*
X109784685Y-114803101D01*
X110201607Y-114386179D01*
X111380878Y-114386179D01*
X111443754Y-114569640D01*
X112512240Y-114569640D01*
X112512240Y-113501176D01*
X112562240Y-113501176D01*
X112562240Y-114569640D01*
X113630726Y-114569640D01*
X113693602Y-114386179D01*
X113525805Y-113959527D01*
X113318515Y-113744640D01*
X113844894Y-113744640D01*
X113844894Y-115444640D01*
X113871042Y-115583606D01*
X113953171Y-115711239D01*
X114078486Y-115796863D01*
X114227240Y-115826986D01*
X115927240Y-115826986D01*
X116066206Y-115800838D01*
X116193839Y-115718709D01*
X116279463Y-115593394D01*
X116309586Y-115444640D01*
X116309586Y-113744640D01*
X116283438Y-113605674D01*
X116201309Y-113478041D01*
X116075994Y-113392417D01*
X115927240Y-113362294D01*
X114227240Y-113362294D01*
X114088274Y-113388442D01*
X113960641Y-113470571D01*
X113875017Y-113595886D01*
X113844894Y-113744640D01*
X113318515Y-113744640D01*
X113207508Y-113629565D01*
X112787169Y-113446527D01*
X112745701Y-113438280D01*
X112562240Y-113501176D01*
X112512240Y-113501176D01*
X112328779Y-113438280D01*
X112287311Y-113446527D01*
X111866972Y-113629565D01*
X111548675Y-113959527D01*
X111380878Y-114386179D01*
X110201607Y-114386179D01*
X110340633Y-114247154D01*
X110449020Y-114084942D01*
X110457527Y-114042173D01*
X110487080Y-113893600D01*
X110487080Y-111325290D01*
X110595331Y-111217228D01*
X110704855Y-110953466D01*
X110705104Y-110667867D01*
X110596040Y-110403914D01*
X110394268Y-110201789D01*
X110130506Y-110092265D01*
X109844907Y-110092016D01*
X109580954Y-110201080D01*
X109378829Y-110402852D01*
X109269305Y-110666614D01*
X109269056Y-110952213D01*
X109378120Y-111216166D01*
X109487080Y-111325317D01*
X109487080Y-113686493D01*
X107666694Y-115506880D01*
X96040152Y-115506880D01*
X96156126Y-115458960D01*
X96202667Y-115412500D01*
X102149995Y-115412500D01*
X102150000Y-115412501D01*
X102365260Y-115369682D01*
X102547748Y-115247748D01*
X104297745Y-113497750D01*
X104297748Y-113497748D01*
X104419682Y-113315259D01*
X104461792Y-113103566D01*
X104508251Y-113057188D01*
X104617775Y-112793426D01*
X104618024Y-112507827D01*
X104508960Y-112243874D01*
X104307188Y-112041749D01*
X104043426Y-111932225D01*
X103757827Y-111931976D01*
X103493874Y-112041040D01*
X103291749Y-112242812D01*
X103182225Y-112506574D01*
X103181976Y-112792173D01*
X103249328Y-112955177D01*
X101917004Y-114287500D01*
X101466426Y-114287500D01*
X101567775Y-114043426D01*
X101568024Y-113757827D01*
X101477198Y-113538012D01*
X101608251Y-113407188D01*
X101717775Y-113143426D01*
X101718024Y-112857827D01*
X101608960Y-112593874D01*
X101407188Y-112391749D01*
X101143426Y-112282225D01*
X100857827Y-112281976D01*
X100593874Y-112391040D01*
X100484723Y-112500000D01*
X97707107Y-112500000D01*
X96853553Y-111646447D01*
X96691342Y-111538060D01*
X96500000Y-111500000D01*
X93500000Y-111500000D01*
X93308658Y-111538060D01*
X93146447Y-111646447D01*
X91402918Y-113389976D01*
X91143426Y-113282225D01*
X90857827Y-113281976D01*
X90593874Y-113391040D01*
X90391749Y-113592812D01*
X90282225Y-113856574D01*
X90281976Y-114142173D01*
X90391040Y-114406126D01*
X90592812Y-114608251D01*
X90856574Y-114717775D01*
X91142173Y-114718024D01*
X91406126Y-114608960D01*
X91519078Y-114496205D01*
X91691342Y-114461940D01*
X91853553Y-114353553D01*
X93707106Y-112500000D01*
X96292894Y-112500000D01*
X97146447Y-113353554D01*
X97197251Y-113387500D01*
X96402859Y-113387500D01*
X96357188Y-113341749D01*
X96093426Y-113232225D01*
X95807827Y-113231976D01*
X95543874Y-113341040D01*
X95341749Y-113542812D01*
X95232225Y-113806574D01*
X95231976Y-114092173D01*
X95308201Y-114276651D01*
X95141749Y-114442812D01*
X95032225Y-114706574D01*
X95031976Y-114992173D01*
X95141040Y-115256126D01*
X95342812Y-115458251D01*
X95459923Y-115506880D01*
X93006837Y-115506880D01*
X92913988Y-115413869D01*
X92650226Y-115304345D01*
X92364627Y-115304096D01*
X92100674Y-115413160D01*
X91898549Y-115614932D01*
X91789025Y-115878694D01*
X91788776Y-116164293D01*
X91897840Y-116428246D01*
X91994425Y-116525000D01*
X62975000Y-116525000D01*
X62975000Y-110142173D01*
X88781976Y-110142173D01*
X88891040Y-110406126D01*
X89092812Y-110608251D01*
X89356574Y-110717775D01*
X89642173Y-110718024D01*
X89906126Y-110608960D01*
X90015277Y-110500000D01*
X97292894Y-110500000D01*
X98646446Y-111853553D01*
X98767952Y-111934741D01*
X98808658Y-111961940D01*
X99000000Y-112000000D01*
X99484750Y-112000000D01*
X99592812Y-112108251D01*
X99856574Y-112217775D01*
X100142173Y-112218024D01*
X100406126Y-112108960D01*
X100608251Y-111907188D01*
X100717775Y-111643426D01*
X100718024Y-111357827D01*
X100608960Y-111093874D01*
X100515250Y-111000000D01*
X104500000Y-111000000D01*
X104691342Y-110961940D01*
X104853553Y-110853553D01*
X104989216Y-110717891D01*
X105142173Y-110718024D01*
X105406126Y-110608960D01*
X105608251Y-110407188D01*
X105717775Y-110143426D01*
X105718024Y-109857827D01*
X105608960Y-109593874D01*
X105407188Y-109391749D01*
X105143426Y-109282225D01*
X104857827Y-109281976D01*
X104593874Y-109391040D01*
X104391749Y-109592812D01*
X104282225Y-109856574D01*
X104282100Y-110000000D01*
X99207107Y-110000000D01*
X98000000Y-108792894D01*
X98000000Y-104015250D01*
X98108251Y-103907188D01*
X98217775Y-103643426D01*
X98218024Y-103357827D01*
X98108960Y-103093874D01*
X97907188Y-102891749D01*
X97643426Y-102782225D01*
X97357827Y-102781976D01*
X97093874Y-102891040D01*
X97000013Y-102984737D01*
X96907188Y-102891749D01*
X96643426Y-102782225D01*
X96357827Y-102781976D01*
X96093874Y-102891040D01*
X95891749Y-103092812D01*
X95782225Y-103356574D01*
X95781976Y-103642173D01*
X95891040Y-103906126D01*
X96000000Y-104015277D01*
X96000000Y-108484750D01*
X95891749Y-108592812D01*
X95782225Y-108856574D01*
X95781976Y-109142173D01*
X95891040Y-109406126D01*
X95984750Y-109500000D01*
X90015250Y-109500000D01*
X89907188Y-109391749D01*
X89643426Y-109282225D01*
X89357827Y-109281976D01*
X89093874Y-109391040D01*
X88891749Y-109592812D01*
X88782225Y-109856574D01*
X88781976Y-110142173D01*
X62975000Y-110142173D01*
X62975000Y-102192173D01*
X69831976Y-102192173D01*
X69941040Y-102456126D01*
X70142812Y-102658251D01*
X70406574Y-102767775D01*
X70692173Y-102768024D01*
X70956126Y-102658960D01*
X71158251Y-102457188D01*
X71259855Y-102212500D01*
X71999995Y-102212500D01*
X72000000Y-102212501D01*
X72215260Y-102169682D01*
X72397748Y-102047748D01*
X72453323Y-101992173D01*
X80131976Y-101992173D01*
X80241040Y-102256126D01*
X80442812Y-102458251D01*
X80706574Y-102567775D01*
X80772337Y-102567832D01*
X80887500Y-102682995D01*
X80887500Y-103647141D01*
X80841749Y-103692812D01*
X80732225Y-103956574D01*
X80731976Y-104242173D01*
X80841040Y-104506126D01*
X81042812Y-104708251D01*
X81306574Y-104817775D01*
X81592173Y-104818024D01*
X81856126Y-104708960D01*
X82058251Y-104507188D01*
X82167775Y-104243426D01*
X82168024Y-103957827D01*
X82058960Y-103693874D01*
X82012500Y-103647333D01*
X82012500Y-102450005D01*
X82012501Y-102450000D01*
X81969682Y-102234740D01*
X81920842Y-102161646D01*
X81847748Y-102052252D01*
X81847745Y-102052250D01*
X81567968Y-101772472D01*
X81568024Y-101707827D01*
X81458960Y-101443874D01*
X81257188Y-101241749D01*
X80993426Y-101132225D01*
X80707827Y-101131976D01*
X80443874Y-101241040D01*
X80241749Y-101442812D01*
X80132225Y-101706574D01*
X80131976Y-101992173D01*
X72453323Y-101992173D01*
X73482996Y-100962500D01*
X73549995Y-100962500D01*
X73550000Y-100962501D01*
X73765260Y-100919682D01*
X73947748Y-100797748D01*
X74632995Y-100112500D01*
X82749995Y-100112500D01*
X82750000Y-100112501D01*
X82965260Y-100069682D01*
X83147748Y-99947748D01*
X83897705Y-99197790D01*
X83897708Y-99197788D01*
X84019642Y-99015299D01*
X84032631Y-98950000D01*
X84052896Y-98848124D01*
X84164675Y-98801938D01*
X84495496Y-98471693D01*
X84674756Y-98039987D01*
X84674757Y-98037937D01*
X84864756Y-98037937D01*
X85043262Y-98469955D01*
X85373507Y-98800776D01*
X85805213Y-98980036D01*
X86272657Y-98980444D01*
X86704675Y-98801938D01*
X87035496Y-98471693D01*
X87214756Y-98039987D01*
X87214757Y-98037937D01*
X87404756Y-98037937D01*
X87583262Y-98469955D01*
X87913507Y-98800776D01*
X88345213Y-98980036D01*
X88812657Y-98980444D01*
X89244675Y-98801938D01*
X89287500Y-98759188D01*
X89287500Y-99967005D01*
X89102252Y-100152252D01*
X88980318Y-100334740D01*
X88937499Y-100550000D01*
X88937500Y-100550005D01*
X88937500Y-102723458D01*
X88882225Y-102856574D01*
X88882203Y-102881374D01*
X88643426Y-102782225D01*
X88357827Y-102781976D01*
X88093874Y-102891040D01*
X87891749Y-103092812D01*
X87782225Y-103356574D01*
X87781976Y-103642173D01*
X87891040Y-103906126D01*
X88092812Y-104108251D01*
X88356574Y-104217775D01*
X88510803Y-104217909D01*
X89646446Y-105353553D01*
X89671061Y-105370000D01*
X89808658Y-105461940D01*
X90000000Y-105500000D01*
X91282100Y-105500000D01*
X91281976Y-105642173D01*
X91391040Y-105906126D01*
X91592812Y-106108251D01*
X91856574Y-106217775D01*
X92142173Y-106218024D01*
X92406126Y-106108960D01*
X92608251Y-105907188D01*
X92717775Y-105643426D01*
X92718024Y-105357827D01*
X92608960Y-105093874D01*
X92407188Y-104891749D01*
X92143426Y-104782225D01*
X91989197Y-104782091D01*
X91853553Y-104646447D01*
X91691342Y-104538060D01*
X91500000Y-104500000D01*
X90207107Y-104500000D01*
X89402377Y-103695270D01*
X89456574Y-103717775D01*
X89742173Y-103718024D01*
X90006126Y-103608960D01*
X90208251Y-103407188D01*
X90317775Y-103143426D01*
X90318024Y-102857827D01*
X90208960Y-102593874D01*
X90062500Y-102447158D01*
X90062500Y-100782996D01*
X90247745Y-100597750D01*
X90247748Y-100597748D01*
X90369682Y-100415259D01*
X90372717Y-100400000D01*
X90412501Y-100200000D01*
X90412500Y-100199995D01*
X90412500Y-98759697D01*
X90453507Y-98800776D01*
X90885213Y-98980036D01*
X91352657Y-98980444D01*
X91784675Y-98801938D01*
X92115496Y-98471693D01*
X92294756Y-98039987D01*
X92294994Y-97767852D01*
X92484992Y-97768018D01*
X92484756Y-98037937D01*
X92663262Y-98469955D01*
X92993507Y-98800776D01*
X93425213Y-98980036D01*
X93892657Y-98980444D01*
X94255294Y-98830606D01*
X94182225Y-99006574D01*
X94181976Y-99292173D01*
X94262684Y-99487500D01*
X92576542Y-99487500D01*
X92443426Y-99432225D01*
X92157827Y-99431976D01*
X91893874Y-99541040D01*
X91691749Y-99742812D01*
X91582225Y-100006574D01*
X91581976Y-100292173D01*
X91691040Y-100556126D01*
X91892812Y-100758251D01*
X92156574Y-100867775D01*
X92442173Y-100868024D01*
X92706126Y-100758960D01*
X92852842Y-100612500D01*
X98383574Y-100612500D01*
X98282225Y-100856574D01*
X98281976Y-101142173D01*
X98391040Y-101406126D01*
X98500000Y-101515277D01*
X98500000Y-104000000D01*
X98527911Y-104140318D01*
X98538060Y-104191342D01*
X98646447Y-104353553D01*
X99782109Y-105489216D01*
X99781976Y-105642173D01*
X99891040Y-105906126D01*
X100092812Y-106108251D01*
X100356574Y-106217775D01*
X100642173Y-106218024D01*
X100906126Y-106108960D01*
X101108251Y-105907188D01*
X101187500Y-105716336D01*
X101187500Y-107347141D01*
X101141749Y-107392812D01*
X101032225Y-107656574D01*
X101031976Y-107942173D01*
X101141040Y-108206126D01*
X101342812Y-108408251D01*
X101606574Y-108517775D01*
X101892173Y-108518024D01*
X102156126Y-108408960D01*
X102358251Y-108207188D01*
X102467775Y-107943426D01*
X102468024Y-107657827D01*
X102358960Y-107393874D01*
X102312500Y-107347333D01*
X102312500Y-107008461D01*
X106343638Y-107008461D01*
X106511435Y-107435113D01*
X106829732Y-107765075D01*
X107250071Y-107948113D01*
X107291539Y-107956360D01*
X107475000Y-107893464D01*
X107475000Y-106825000D01*
X107525000Y-106825000D01*
X107525000Y-107893464D01*
X107708461Y-107956360D01*
X107749929Y-107948113D01*
X108170268Y-107765075D01*
X108488565Y-107435113D01*
X108656362Y-107008461D01*
X108593486Y-106825000D01*
X107525000Y-106825000D01*
X107475000Y-106825000D01*
X106406514Y-106825000D01*
X106343638Y-107008461D01*
X102312500Y-107008461D01*
X102312500Y-106776001D01*
X108815000Y-106776001D01*
X108815000Y-106823999D01*
X108908248Y-107292786D01*
X109173794Y-107690205D01*
X109571213Y-107955751D01*
X110040000Y-108048999D01*
X110508787Y-107955751D01*
X110906206Y-107690205D01*
X111171752Y-107292786D01*
X111265000Y-106823999D01*
X111265000Y-106776001D01*
X111355000Y-106776001D01*
X111355000Y-106823999D01*
X111448248Y-107292786D01*
X111713794Y-107690205D01*
X112111213Y-107955751D01*
X112580000Y-108048999D01*
X113048787Y-107955751D01*
X113446206Y-107690205D01*
X113711752Y-107292786D01*
X113805000Y-106823999D01*
X113805000Y-106776001D01*
X113711752Y-106307214D01*
X113446206Y-105909795D01*
X113048787Y-105644249D01*
X112580000Y-105551001D01*
X112111213Y-105644249D01*
X111713794Y-105909795D01*
X111448248Y-106307214D01*
X111355000Y-106776001D01*
X111265000Y-106776001D01*
X111171752Y-106307214D01*
X110906206Y-105909795D01*
X110508787Y-105644249D01*
X110040000Y-105551001D01*
X109571213Y-105644249D01*
X109173794Y-105909795D01*
X108908248Y-106307214D01*
X108815000Y-106776001D01*
X102312500Y-106776001D01*
X102312500Y-106591539D01*
X106343638Y-106591539D01*
X106406514Y-106775000D01*
X107475000Y-106775000D01*
X107475000Y-105706536D01*
X107525000Y-105706536D01*
X107525000Y-106775000D01*
X108593486Y-106775000D01*
X108656362Y-106591539D01*
X108488565Y-106164887D01*
X108170268Y-105834925D01*
X107749929Y-105651887D01*
X107708461Y-105643640D01*
X107525000Y-105706536D01*
X107475000Y-105706536D01*
X107291539Y-105643640D01*
X107250071Y-105651887D01*
X106829732Y-105834925D01*
X106511435Y-106164887D01*
X106343638Y-106591539D01*
X102312500Y-106591539D01*
X102312500Y-104950005D01*
X102312501Y-104950000D01*
X102269682Y-104734740D01*
X102147748Y-104552252D01*
X100912500Y-103317004D01*
X100912500Y-98950005D01*
X100912501Y-98950000D01*
X100907065Y-98922672D01*
X101045213Y-98980036D01*
X101512657Y-98980444D01*
X101944675Y-98801938D01*
X101987500Y-98759188D01*
X101987500Y-98953045D01*
X101882225Y-99206574D01*
X101881976Y-99492173D01*
X101991040Y-99756126D01*
X102192812Y-99958251D01*
X102456574Y-100067775D01*
X102742173Y-100068024D01*
X103006126Y-99958960D01*
X103208251Y-99757188D01*
X103317775Y-99493426D01*
X103318024Y-99207827D01*
X103208960Y-98943874D01*
X103112500Y-98847245D01*
X103112500Y-98759697D01*
X103153507Y-98800776D01*
X103585213Y-98980036D01*
X104052657Y-98980444D01*
X104484675Y-98801938D01*
X104537500Y-98749205D01*
X104537500Y-99349995D01*
X104537499Y-99350000D01*
X104580318Y-99565260D01*
X104702252Y-99747748D01*
X109752250Y-104797745D01*
X109752252Y-104797748D01*
X109934741Y-104919682D01*
X110150000Y-104962500D01*
X113917004Y-104962500D01*
X114557500Y-105602995D01*
X114557500Y-105706866D01*
X114253794Y-105909795D01*
X113988248Y-106307214D01*
X113895000Y-106776001D01*
X113895000Y-106823999D01*
X113988248Y-107292786D01*
X114253794Y-107690205D01*
X114651213Y-107955751D01*
X115120000Y-108048999D01*
X115588787Y-107955751D01*
X115986206Y-107690205D01*
X116251752Y-107292786D01*
X116345000Y-106823999D01*
X116345000Y-106776001D01*
X116251752Y-106307214D01*
X115986206Y-105909795D01*
X115682500Y-105706866D01*
X115682500Y-105370005D01*
X115682501Y-105370000D01*
X115639682Y-105154740D01*
X115536288Y-105000000D01*
X115517748Y-104972252D01*
X115517745Y-104972250D01*
X114757996Y-104212500D01*
X116417004Y-104212500D01*
X117097500Y-104892995D01*
X117097500Y-105706866D01*
X116793794Y-105909795D01*
X116528248Y-106307214D01*
X116435000Y-106776001D01*
X116435000Y-106823999D01*
X116528248Y-107292786D01*
X116793794Y-107690205D01*
X117191213Y-107955751D01*
X117660000Y-108048999D01*
X118128787Y-107955751D01*
X118526206Y-107690205D01*
X118791752Y-107292786D01*
X118885000Y-106823999D01*
X118885000Y-106776001D01*
X118791752Y-106307214D01*
X118553071Y-105950000D01*
X118967654Y-105950000D01*
X118967654Y-107650000D01*
X118993802Y-107788966D01*
X119075931Y-107916599D01*
X119201246Y-108002223D01*
X119350000Y-108032346D01*
X121050000Y-108032346D01*
X121188966Y-108006198D01*
X121316599Y-107924069D01*
X121402223Y-107798754D01*
X121432346Y-107650000D01*
X121432346Y-105950000D01*
X121406198Y-105811034D01*
X121324069Y-105683401D01*
X121198754Y-105597777D01*
X121050000Y-105567654D01*
X119350000Y-105567654D01*
X119211034Y-105593802D01*
X119083401Y-105675931D01*
X118997777Y-105801246D01*
X118967654Y-105950000D01*
X118553071Y-105950000D01*
X118526206Y-105909795D01*
X118222500Y-105706866D01*
X118222500Y-104660005D01*
X118222501Y-104660000D01*
X118179682Y-104444741D01*
X118141435Y-104387500D01*
X118057748Y-104262252D01*
X118057745Y-104262250D01*
X117047748Y-103252252D01*
X116865260Y-103130318D01*
X116650000Y-103087499D01*
X116649995Y-103087500D01*
X110982995Y-103087500D01*
X108162500Y-100267004D01*
X108162500Y-98729645D01*
X108233507Y-98800776D01*
X108665213Y-98980036D01*
X109132657Y-98980444D01*
X109564675Y-98801938D01*
X109895496Y-98471693D01*
X110074756Y-98039987D01*
X110074757Y-98037937D01*
X110264756Y-98037937D01*
X110443262Y-98469955D01*
X110773507Y-98800776D01*
X111205213Y-98980036D01*
X111672657Y-98980444D01*
X112104675Y-98801938D01*
X112435496Y-98471693D01*
X112614756Y-98039987D01*
X112614757Y-98037937D01*
X112804756Y-98037937D01*
X112983262Y-98469955D01*
X113313507Y-98800776D01*
X113745213Y-98980036D01*
X114212657Y-98980444D01*
X114644675Y-98801938D01*
X114975496Y-98471693D01*
X115154756Y-98039987D01*
X115154757Y-98037937D01*
X115344756Y-98037937D01*
X115523262Y-98469955D01*
X115853507Y-98800776D01*
X116285213Y-98980036D01*
X116752657Y-98980444D01*
X117184675Y-98801938D01*
X117515496Y-98471693D01*
X117694756Y-98039987D01*
X117694757Y-98037937D01*
X117884756Y-98037937D01*
X118063262Y-98469955D01*
X118393507Y-98800776D01*
X118825213Y-98980036D01*
X119292657Y-98980444D01*
X119724675Y-98801938D01*
X120055496Y-98471693D01*
X120234756Y-98039987D01*
X120234757Y-98037937D01*
X120424756Y-98037937D01*
X120603262Y-98469955D01*
X120933507Y-98800776D01*
X121365213Y-98980036D01*
X121832657Y-98980444D01*
X122264675Y-98801938D01*
X122595496Y-98471693D01*
X122774756Y-98039987D01*
X122775164Y-97572543D01*
X122596658Y-97140525D01*
X122266413Y-96809704D01*
X121834707Y-96630444D01*
X121367263Y-96630036D01*
X120935245Y-96808542D01*
X120604424Y-97138787D01*
X120425164Y-97570493D01*
X120424756Y-98037937D01*
X120234757Y-98037937D01*
X120235164Y-97572543D01*
X120056658Y-97140525D01*
X119726413Y-96809704D01*
X119294707Y-96630444D01*
X118827263Y-96630036D01*
X118395245Y-96808542D01*
X118064424Y-97138787D01*
X117885164Y-97570493D01*
X117884756Y-98037937D01*
X117694757Y-98037937D01*
X117695164Y-97572543D01*
X117516658Y-97140525D01*
X117186413Y-96809704D01*
X116754707Y-96630444D01*
X116287263Y-96630036D01*
X115855245Y-96808542D01*
X115524424Y-97138787D01*
X115345164Y-97570493D01*
X115344756Y-98037937D01*
X115154757Y-98037937D01*
X115155164Y-97572543D01*
X114976658Y-97140525D01*
X114646413Y-96809704D01*
X114214707Y-96630444D01*
X113747263Y-96630036D01*
X113315245Y-96808542D01*
X112984424Y-97138787D01*
X112805164Y-97570493D01*
X112804756Y-98037937D01*
X112614757Y-98037937D01*
X112615164Y-97572543D01*
X112436658Y-97140525D01*
X112106413Y-96809704D01*
X111674707Y-96630444D01*
X111207263Y-96630036D01*
X110775245Y-96808542D01*
X110444424Y-97138787D01*
X110265164Y-97570493D01*
X110264756Y-98037937D01*
X110074757Y-98037937D01*
X110075164Y-97572543D01*
X109896658Y-97140525D01*
X109566413Y-96809704D01*
X109134707Y-96630444D01*
X108667263Y-96630036D01*
X108235245Y-96808542D01*
X108162500Y-96881160D01*
X108162500Y-96800000D01*
X108119682Y-96584741D01*
X107997748Y-96402252D01*
X107997745Y-96402250D01*
X107767968Y-96172472D01*
X107768024Y-96107827D01*
X107658960Y-95843874D01*
X107457188Y-95641749D01*
X107193426Y-95532225D01*
X106907827Y-95531976D01*
X106643874Y-95641040D01*
X106441749Y-95842812D01*
X106332225Y-96106574D01*
X106331976Y-96392173D01*
X106430369Y-96630301D01*
X106127263Y-96630036D01*
X105695245Y-96808542D01*
X105662500Y-96841230D01*
X105662500Y-95497937D01*
X110264756Y-95497937D01*
X110443262Y-95929955D01*
X110773507Y-96260776D01*
X111205213Y-96440036D01*
X111672657Y-96440444D01*
X112104675Y-96261938D01*
X112435496Y-95931693D01*
X112614756Y-95499987D01*
X112615164Y-95032543D01*
X112436658Y-94600525D01*
X112106413Y-94269704D01*
X111674707Y-94090444D01*
X111207263Y-94090036D01*
X110775245Y-94268542D01*
X110444424Y-94598787D01*
X110265164Y-95030493D01*
X110264756Y-95497937D01*
X105662500Y-95497937D01*
X105662500Y-95300005D01*
X105662501Y-95300000D01*
X105619682Y-95084740D01*
X105497748Y-94902252D01*
X105315260Y-94780318D01*
X105100000Y-94737499D01*
X104884741Y-94780318D01*
X104873992Y-94787500D01*
X101552859Y-94787500D01*
X101507188Y-94741749D01*
X101243426Y-94632225D01*
X100957827Y-94631976D01*
X100693874Y-94741040D01*
X100491749Y-94942812D01*
X100382225Y-95206574D01*
X100381976Y-95492173D01*
X100491040Y-95756126D01*
X100522359Y-95787500D01*
X100032995Y-95787500D01*
X99612500Y-95367004D01*
X99612500Y-95282996D01*
X101782995Y-93112500D01*
X107099995Y-93112500D01*
X107100000Y-93112501D01*
X107315260Y-93069682D01*
X107482499Y-92957937D01*
X110264756Y-92957937D01*
X110443262Y-93389955D01*
X110773507Y-93720776D01*
X111205213Y-93900036D01*
X111672657Y-93900444D01*
X112104675Y-93721938D01*
X112435496Y-93391693D01*
X112614756Y-92959987D01*
X112615164Y-92492543D01*
X112436658Y-92060525D01*
X112106413Y-91729704D01*
X111674707Y-91550444D01*
X111207263Y-91550036D01*
X110775245Y-91728542D01*
X110444424Y-92058787D01*
X110265164Y-92490493D01*
X110264756Y-92957937D01*
X107482499Y-92957937D01*
X107497748Y-92947748D01*
X109447745Y-90997750D01*
X109447748Y-90997748D01*
X109475416Y-90956338D01*
X110704218Y-90956338D01*
X110786132Y-91127690D01*
X111196561Y-91306160D01*
X111644046Y-91313980D01*
X112060461Y-91149959D01*
X112093788Y-91127690D01*
X112175702Y-90956338D01*
X111439960Y-90220595D01*
X110704218Y-90956338D01*
X109475416Y-90956338D01*
X109569682Y-90815259D01*
X109612500Y-90600000D01*
X109612500Y-90389326D01*
X110311220Y-90389326D01*
X110475241Y-90805741D01*
X110497510Y-90839068D01*
X110668862Y-90920982D01*
X111404605Y-90185240D01*
X111475315Y-90185240D01*
X112211058Y-90920982D01*
X112382410Y-90839068D01*
X112560880Y-90428639D01*
X112568700Y-89981154D01*
X112404679Y-89564739D01*
X112382410Y-89531412D01*
X112211058Y-89449498D01*
X111475315Y-90185240D01*
X111404605Y-90185240D01*
X110668862Y-89449498D01*
X110497510Y-89531412D01*
X110319040Y-89941841D01*
X110311220Y-90389326D01*
X109612500Y-90389326D01*
X109612500Y-89414142D01*
X110704218Y-89414142D01*
X111439960Y-90149885D01*
X112175702Y-89414142D01*
X112093788Y-89242790D01*
X111683359Y-89064320D01*
X111235874Y-89056500D01*
X110819459Y-89220521D01*
X110786132Y-89242790D01*
X110704218Y-89414142D01*
X109612500Y-89414142D01*
X109612500Y-88202859D01*
X109658251Y-88157188D01*
X109767775Y-87893426D01*
X109768024Y-87607827D01*
X109658960Y-87343874D01*
X109457188Y-87141749D01*
X109193426Y-87032225D01*
X108907827Y-87031976D01*
X108643874Y-87141040D01*
X108441749Y-87342812D01*
X108332225Y-87606574D01*
X108331976Y-87892173D01*
X108441040Y-88156126D01*
X108487500Y-88202667D01*
X108487500Y-90367005D01*
X106867004Y-91987500D01*
X101550005Y-91987500D01*
X101550000Y-91987499D01*
X101334740Y-92030318D01*
X101286575Y-92062501D01*
X101152252Y-92152252D01*
X101152250Y-92152255D01*
X98762500Y-94542004D01*
X98762500Y-92152859D01*
X98808251Y-92107188D01*
X98917775Y-91843426D01*
X98918024Y-91557827D01*
X98808960Y-91293874D01*
X98607188Y-91091749D01*
X98343426Y-90982225D01*
X98057827Y-90981976D01*
X97793874Y-91091040D01*
X97591749Y-91292812D01*
X97482225Y-91556574D01*
X97481976Y-91842173D01*
X97591040Y-92106126D01*
X97637500Y-92152667D01*
X97637500Y-94430393D01*
X96353553Y-93146447D01*
X96191342Y-93038060D01*
X96000000Y-93000000D01*
X95000000Y-93000000D01*
X94808658Y-93038060D01*
X94761333Y-93069682D01*
X94646447Y-93146446D01*
X93306407Y-94486487D01*
X93198020Y-94648698D01*
X93159960Y-94840040D01*
X93159960Y-96740483D01*
X93022369Y-96797335D01*
X93012500Y-96773450D01*
X93012500Y-95050000D01*
X92983111Y-94902252D01*
X92969682Y-94834740D01*
X92908668Y-94743426D01*
X92847748Y-94652252D01*
X92847745Y-94652250D01*
X91967968Y-93772472D01*
X91968024Y-93707827D01*
X91858960Y-93443874D01*
X91657188Y-93241749D01*
X91393426Y-93132225D01*
X91107827Y-93131976D01*
X90843874Y-93241040D01*
X90641749Y-93442812D01*
X90532225Y-93706574D01*
X90531976Y-93992173D01*
X90641040Y-94256126D01*
X90842812Y-94458251D01*
X91106574Y-94567775D01*
X91172337Y-94567832D01*
X91887500Y-95282995D01*
X91887500Y-96497316D01*
X91741749Y-96642812D01*
X91689209Y-96769341D01*
X91354707Y-96630444D01*
X90887263Y-96630036D01*
X90455245Y-96808542D01*
X90412500Y-96851213D01*
X90412500Y-93132996D01*
X90677528Y-92867968D01*
X90742173Y-92868024D01*
X91006126Y-92758960D01*
X91208251Y-92557188D01*
X91317775Y-92293426D01*
X91318024Y-92007827D01*
X91208960Y-91743874D01*
X91007188Y-91541749D01*
X90743426Y-91432225D01*
X90457827Y-91431976D01*
X90193874Y-91541040D01*
X89991749Y-91742812D01*
X89882225Y-92006574D01*
X89882168Y-92072337D01*
X89452252Y-92502252D01*
X89330318Y-92684740D01*
X89287499Y-92900000D01*
X89287500Y-92900005D01*
X89287500Y-96850863D01*
X89246413Y-96809704D01*
X88814707Y-96630444D01*
X88347263Y-96630036D01*
X87915245Y-96808542D01*
X87584424Y-97138787D01*
X87405164Y-97570493D01*
X87404756Y-98037937D01*
X87214757Y-98037937D01*
X87215164Y-97572543D01*
X87036658Y-97140525D01*
X86706413Y-96809704D01*
X86274707Y-96630444D01*
X85807263Y-96630036D01*
X85375245Y-96808542D01*
X85044424Y-97138787D01*
X84865164Y-97570493D01*
X84864756Y-98037937D01*
X84674757Y-98037937D01*
X84675164Y-97572543D01*
X84496658Y-97140525D01*
X84324268Y-96967834D01*
X84542173Y-96968024D01*
X84806126Y-96858960D01*
X85008251Y-96657188D01*
X85117775Y-96393426D01*
X85118024Y-96107827D01*
X85008960Y-95843874D01*
X84807188Y-95641749D01*
X84543426Y-95532225D01*
X84257827Y-95531976D01*
X83993874Y-95641040D01*
X83897245Y-95737500D01*
X83487188Y-95737500D01*
X83567775Y-95543426D01*
X83568024Y-95257827D01*
X83458960Y-94993874D01*
X83257188Y-94791749D01*
X82993426Y-94682225D01*
X82707827Y-94681976D01*
X82573450Y-94737500D01*
X73002859Y-94737500D01*
X72957188Y-94691749D01*
X72693426Y-94582225D01*
X72407827Y-94581976D01*
X72143874Y-94691040D01*
X71941749Y-94892812D01*
X71832225Y-95156574D01*
X71831976Y-95442173D01*
X71941040Y-95706126D01*
X72142812Y-95908251D01*
X72406574Y-96017775D01*
X72692173Y-96018024D01*
X72956126Y-95908960D01*
X73002667Y-95862500D01*
X79583574Y-95862500D01*
X79482225Y-96106574D01*
X79481976Y-96392173D01*
X79591040Y-96656126D01*
X79792812Y-96858251D01*
X80056574Y-96967775D01*
X80135665Y-96967844D01*
X79964424Y-97138787D01*
X79785164Y-97570493D01*
X79784756Y-98037937D01*
X79963262Y-98469955D01*
X80293507Y-98800776D01*
X80725213Y-98980036D01*
X81192657Y-98980444D01*
X81624675Y-98801938D01*
X81955496Y-98471693D01*
X82134756Y-98039987D01*
X82135164Y-97572543D01*
X81956658Y-97140525D01*
X81679117Y-96862500D01*
X82781193Y-96862500D01*
X82504424Y-97138787D01*
X82325164Y-97570493D01*
X82324756Y-98037937D01*
X82503262Y-98469955D01*
X82768674Y-98735830D01*
X82517004Y-98987500D01*
X74400005Y-98987500D01*
X74400000Y-98987499D01*
X74184741Y-99030318D01*
X74002252Y-99152252D01*
X74002250Y-99152255D01*
X73317004Y-99837500D01*
X73250005Y-99837500D01*
X73250000Y-99837499D01*
X73034740Y-99880318D01*
X72852252Y-100002252D01*
X71767004Y-101087500D01*
X70950000Y-101087500D01*
X70734741Y-101130318D01*
X70552252Y-101252252D01*
X70552250Y-101252255D01*
X70472472Y-101332032D01*
X70407827Y-101331976D01*
X70143874Y-101441040D01*
X69941749Y-101642812D01*
X69832225Y-101906574D01*
X69831976Y-102192173D01*
X62975000Y-102192173D01*
X62975000Y-97911490D01*
X64594960Y-97911490D01*
X64594960Y-98669887D01*
X64644439Y-98789338D01*
X64735863Y-98880762D01*
X64855314Y-98930240D01*
X65613710Y-98930240D01*
X65694960Y-98848990D01*
X65694960Y-97830240D01*
X65744960Y-97830240D01*
X65744960Y-98848990D01*
X65826210Y-98930240D01*
X66584606Y-98930240D01*
X66704057Y-98880762D01*
X66795481Y-98789338D01*
X66844960Y-98669887D01*
X66844960Y-98037937D01*
X67084756Y-98037937D01*
X67263262Y-98469955D01*
X67593507Y-98800776D01*
X68025213Y-98980036D01*
X68492657Y-98980444D01*
X68924675Y-98801938D01*
X69255496Y-98471693D01*
X69434756Y-98039987D01*
X69434757Y-98037937D01*
X69624756Y-98037937D01*
X69803262Y-98469955D01*
X70133507Y-98800776D01*
X70565213Y-98980036D01*
X71032657Y-98980444D01*
X71464675Y-98801938D01*
X71795496Y-98471693D01*
X71974756Y-98039987D01*
X71974757Y-98037937D01*
X72164756Y-98037937D01*
X72343262Y-98469955D01*
X72673507Y-98800776D01*
X73105213Y-98980036D01*
X73572657Y-98980444D01*
X74004675Y-98801938D01*
X74335496Y-98471693D01*
X74514756Y-98039987D01*
X74514757Y-98037937D01*
X74704756Y-98037937D01*
X74883262Y-98469955D01*
X75213507Y-98800776D01*
X75645213Y-98980036D01*
X76112657Y-98980444D01*
X76544675Y-98801938D01*
X76875496Y-98471693D01*
X77054756Y-98039987D01*
X77054757Y-98037937D01*
X77244756Y-98037937D01*
X77423262Y-98469955D01*
X77753507Y-98800776D01*
X78185213Y-98980036D01*
X78652657Y-98980444D01*
X79084675Y-98801938D01*
X79415496Y-98471693D01*
X79594756Y-98039987D01*
X79595164Y-97572543D01*
X79416658Y-97140525D01*
X79086413Y-96809704D01*
X78654707Y-96630444D01*
X78187263Y-96630036D01*
X77755245Y-96808542D01*
X77424424Y-97138787D01*
X77245164Y-97570493D01*
X77244756Y-98037937D01*
X77054757Y-98037937D01*
X77055164Y-97572543D01*
X76876658Y-97140525D01*
X76546413Y-96809704D01*
X76114707Y-96630444D01*
X75647263Y-96630036D01*
X75215245Y-96808542D01*
X74884424Y-97138787D01*
X74705164Y-97570493D01*
X74704756Y-98037937D01*
X74514757Y-98037937D01*
X74515164Y-97572543D01*
X74336658Y-97140525D01*
X74006413Y-96809704D01*
X73574707Y-96630444D01*
X73107263Y-96630036D01*
X72675245Y-96808542D01*
X72344424Y-97138787D01*
X72165164Y-97570493D01*
X72164756Y-98037937D01*
X71974757Y-98037937D01*
X71975164Y-97572543D01*
X71796658Y-97140525D01*
X71466413Y-96809704D01*
X71034707Y-96630444D01*
X70567263Y-96630036D01*
X70135245Y-96808542D01*
X69804424Y-97138787D01*
X69625164Y-97570493D01*
X69624756Y-98037937D01*
X69434757Y-98037937D01*
X69435164Y-97572543D01*
X69256658Y-97140525D01*
X68926413Y-96809704D01*
X68494707Y-96630444D01*
X68027263Y-96630036D01*
X67595245Y-96808542D01*
X67264424Y-97138787D01*
X67085164Y-97570493D01*
X67084756Y-98037937D01*
X66844960Y-98037937D01*
X66844960Y-97911490D01*
X66763710Y-97830240D01*
X65744960Y-97830240D01*
X65694960Y-97830240D01*
X64676210Y-97830240D01*
X64594960Y-97911490D01*
X62975000Y-97911490D01*
X62975000Y-96940593D01*
X64594960Y-96940593D01*
X64594960Y-97698990D01*
X64676210Y-97780240D01*
X65694960Y-97780240D01*
X65694960Y-96761490D01*
X65744960Y-96761490D01*
X65744960Y-97780240D01*
X66763710Y-97780240D01*
X66844960Y-97698990D01*
X66844960Y-96940593D01*
X66795481Y-96821142D01*
X66704057Y-96729718D01*
X66584606Y-96680240D01*
X65826210Y-96680240D01*
X65744960Y-96761490D01*
X65694960Y-96761490D01*
X65613710Y-96680240D01*
X64855314Y-96680240D01*
X64735863Y-96729718D01*
X64644439Y-96821142D01*
X64594960Y-96940593D01*
X62975000Y-96940593D01*
X62975000Y-82797937D01*
X64544756Y-82797937D01*
X64723262Y-83229955D01*
X65053507Y-83560776D01*
X65485213Y-83740036D01*
X65952657Y-83740444D01*
X66384675Y-83561938D01*
X66715496Y-83231693D01*
X66894756Y-82799987D01*
X66895164Y-82332543D01*
X66716658Y-81900525D01*
X66386413Y-81569704D01*
X65954707Y-81390444D01*
X65487263Y-81390036D01*
X65055245Y-81568542D01*
X64724424Y-81898787D01*
X64545164Y-82330493D01*
X64544756Y-82797937D01*
X62975000Y-82797937D01*
X62975000Y-74142173D01*
X67281976Y-74142173D01*
X67391040Y-74406126D01*
X67592812Y-74608251D01*
X67856574Y-74717775D01*
X68142173Y-74718024D01*
X68406126Y-74608960D01*
X68608251Y-74407188D01*
X68717775Y-74143426D01*
X68717909Y-73989197D01*
X69207107Y-73500000D01*
X76484750Y-73500000D01*
X76592812Y-73608251D01*
X76856574Y-73717775D01*
X77142173Y-73718024D01*
X77406126Y-73608960D01*
X77608251Y-73407188D01*
X77717775Y-73143426D01*
X77718024Y-72857827D01*
X77608960Y-72593874D01*
X77407188Y-72391749D01*
X77143426Y-72282225D01*
X76857827Y-72281976D01*
X76593874Y-72391040D01*
X76484723Y-72500000D01*
X69000000Y-72500000D01*
X68808658Y-72538060D01*
X68761333Y-72569682D01*
X68646447Y-72646446D01*
X68010784Y-73282109D01*
X67857827Y-73281976D01*
X67593874Y-73391040D01*
X67391749Y-73592812D01*
X67282225Y-73856574D01*
X67281976Y-74142173D01*
X62975000Y-74142173D01*
X62975000Y-71072965D01*
X94014998Y-71072965D01*
X94201044Y-71523231D01*
X94545237Y-71868025D01*
X94995177Y-72054857D01*
X95482365Y-72055282D01*
X95932631Y-71869236D01*
X96277425Y-71525043D01*
X96371360Y-71298822D01*
X97954340Y-71298822D01*
X98313645Y-72168406D01*
X98978375Y-72834297D01*
X99847331Y-73195119D01*
X100788222Y-73195940D01*
X101657806Y-72836635D01*
X102323697Y-72171905D01*
X102684519Y-71302949D01*
X102685340Y-70362058D01*
X102326035Y-69492474D01*
X101661305Y-68826583D01*
X100792349Y-68465761D01*
X99851458Y-68464940D01*
X98981874Y-68824245D01*
X98315983Y-69488975D01*
X97955161Y-70357931D01*
X97954340Y-71298822D01*
X96371360Y-71298822D01*
X96464257Y-71075103D01*
X96464682Y-70587915D01*
X96278636Y-70137649D01*
X95934443Y-69792855D01*
X95484503Y-69606023D01*
X94997315Y-69605598D01*
X94547049Y-69791644D01*
X94202255Y-70135837D01*
X94015423Y-70585777D01*
X94014998Y-71072965D01*
X62975000Y-71072965D01*
X62975000Y-62975000D01*
X126025000Y-62975000D01*
X126025000Y-76527544D01*
M02*
