M48
;DRILL file {KiCad 4.0.7} date Saturday, March 17, 2018 'PMt' 06:12:57 PM
;FORMAT={-:-/ absolute / inch / decimal}
FMAT,2
INCH,TZ
T1C0.013
T2C0.039
T3C0.043
T4C0.059
T5C0.067
T6C0.157
%
G90
G05
M72
T1
X2.6496Y-3.1496
X2.7382Y-4.1752
X2.7776Y-4.0177
X2.7992Y-3.9528
X2.8563Y-3.752
X2.9124Y-4.0792
X3.0138Y-3.1201
X3.0218Y-3.9524
X3.0709Y-4.1831
X3.1575Y-3.7894
X3.1831Y-4.0098
X3.2067Y-4.0984
X3.2618Y-3.7559
X3.2736Y-3.1063
X3.3228Y-3.7894
X3.378Y-3.0965
X3.5256Y-4.3071
X3.5276Y-4.0551
X3.561Y-4.0965
X3.5669Y-3.628
X3.5846Y-4.2697
X3.5925Y-3.6949
X3.6339Y-3.9429
X3.6358Y-3.8209
X3.642Y-4.5678
X3.6673Y-4.2421
X3.7362Y-3.9035
X3.7402Y-3.7244
X3.7598Y-4.4488
X3.7697Y-4.5217
X3.7776Y-4.4862
X3.7835Y-3.9705
X3.8012Y-4.2736
X3.8661Y-3.6102
X3.8858Y-3.9961
X3.8976Y-4.311
X3.9193Y-3.939
X3.9488Y-4.1614
X3.9705Y-4.4843
X3.9803Y-3.7539
X4.0059Y-4.2441
X4.0394Y-3.9114
X4.0906Y-4.435
X4.2146Y-3.7894
X4.2382Y-4.4488
X4.2933Y-3.4547
X4.3302Y-4.3626
X4.435Y-3.1161
X4.4368Y-4.0152
X4.4469Y-3.1909
X4.4616Y-3.7466
X4.4882Y-4.4094
X4.4941Y-4.3037
X4.4941Y-4.3293
X4.4941Y-4.3549
X4.5413Y-2.7933
X4.5472Y-3.1594
X4.626Y-4.3287
T2
X4.2323Y-4.2047
X4.3323Y-4.2047
X4.4306Y-4.5116
X4.4323Y-4.2047
X4.5306Y-4.5116
X4.5323Y-4.2047
X4.6323Y-4.2047
X4.7323Y-4.2047
T3
X2.5874Y-3.2506
X2.5874Y-3.8506
X2.6874Y-3.2506
X2.6874Y-3.8506
X2.7874Y-3.2506
X2.7874Y-3.8506
X2.8874Y-3.2506
X2.8874Y-3.8506
X2.9874Y-3.2506
X2.9874Y-3.8506
X3.0874Y-3.2506
X3.0874Y-3.8506
X3.1874Y-3.2506
X3.1874Y-3.8506
X3.2874Y-3.2506
X3.2874Y-3.8506
X3.3874Y-3.2506
X3.3874Y-3.8506
X3.4874Y-3.2506
X3.4874Y-3.8506
X3.5874Y-3.2506
X3.5874Y-3.8506
X3.6874Y-3.2506
X3.6874Y-3.8506
X3.7874Y-3.2506
X3.7874Y-3.8506
X3.8874Y-3.2506
X3.8874Y-3.8506
X3.9874Y-3.2506
X3.9874Y-3.8506
X4.0874Y-3.2506
X4.0874Y-3.8506
X4.1874Y-3.2506
X4.1874Y-3.8506
X4.2874Y-3.2506
X4.2874Y-3.8506
X4.3874Y-3.2506
X4.3874Y-3.3506
X4.3874Y-3.4506
X4.3874Y-3.5506
X4.3874Y-3.6506
X4.3874Y-3.7506
X4.3874Y-3.8506
X4.4874Y-3.2506
X4.4874Y-3.8506
X4.5874Y-3.2506
X4.5874Y-3.8506
X4.6874Y-3.2506
X4.6874Y-3.8506
X4.7874Y-3.2506
X4.7874Y-3.8506
X4.8874Y-3.2506
X4.8874Y-3.8506
T4
X3.8496Y-2.9886
X4.0996Y-2.8886
X4.559Y-2.9916
X4.809Y-2.8916
T5
X3.7496Y-2.7886
X4.1496Y-2.7886
X4.459Y-2.7916
X4.859Y-2.7916
T6
X3.9496Y-2.7886
X4.659Y-2.7916
T0
M30
